<svg xmlns="http://www.w3.org/2000/svg" viewBox="0 0 229 173"><defs><style>.a{fill:#c2c2c2;}.b{fill:#fff;}.c{fill:#ea5a3c;}.d{fill:none;}</style></defs><g transform="translate(-262 -322)"><g transform="translate(3785.968 -7335.688)"><path class="a" d="M182.016,146.826H15a15,15,0,0,1-15-15V45.7H197.016v86.13a15,15,0,0,1-15,15Zm15-119.858H0V15A15,15,0,0,1,15,0H182.016a15,15,0,0,1,15,15V26.967h0Z" transform="translate(-3508 7662)"/><rect class="b" width="47.943" height="18.728" transform="translate(-3483.28 7726.423)"/><rect class="b" width="78.657" height="18.728" transform="translate(-3483.28 7757.137)"/><rect class="b" width="20.975" height="18.728" transform="translate(-3425.598 7726.423)"/><rect class="c" width="71.068" height="16.921" transform="translate(-3413.383 7764.824) rotate(45)"/><rect class="c" width="113.033" height="16.921" transform="translate(-3295.169 7747.116) rotate(135)"/></g><rect class="d" width="229" height="173" transform="translate(262 322)"/></g></svg>