<svg id="组_205" data-name="组 205" xmlns="http://www.w3.org/2000/svg" xmlns:xlink="http://www.w3.org/1999/xlink" width="750" height="1334" viewBox="0 0 750 1334">
  <defs>
    <clipPath id="clip-path">
      <rect id="矩形_207" data-name="矩形 207" width="750" height="1334" transform="translate(245 545)" fill="#ff9d77"/>
    </clipPath>
    <filter id="矩形_210" x="47" y="459" width="656" height="474" filterUnits="userSpaceOnUse">
      <feOffset dy="6" input="SourceAlpha"/>
      <feGaussianBlur stdDeviation="6" result="blur"/>
      <feFlood flood-color="#ea5d29"/>
      <feComposite operator="in" in2="blur"/>
      <feComposite in="SourceGraphic"/>
    </filter>
    <filter id="好友给你_送红包啦_" x="81.83" y="106.138" width="586.552" height="299.795" filterUnits="userSpaceOnUse">
      <feOffset dy="8" input="SourceAlpha"/>
      <feGaussianBlur stdDeviation="2.5" result="blur-2"/>
      <feFlood flood-color="#c70505" flood-opacity="0.388"/>
      <feComposite operator="in" in2="blur-2"/>
      <feComposite in="SourceGraphic"/>
    </filter>
    <clipPath id="clip-path-2">
      <rect id="矩形_220" data-name="矩形 220" width="750" height="1334" fill="#fff" stroke="#707070" stroke-width="1"/>
    </clipPath>
  </defs>
  <rect id="矩形_206" data-name="矩形 206" width="750" height="1334" fill="#ff9d77"/>
  <g id="蒙版组_1" data-name="蒙版组 1" transform="translate(-245 -545)" clip-path="url(#clip-path)">
    <path id="路径_94" data-name="路径 94" d="M615,1212,181.777,543.6l132.784-70.46Z" fill="#ff8a5e"/>
    <path id="路径_95" data-name="路径 95" d="M455.309,463.965l161.522,749.1-16.1-749.1Z" fill="#ff8a5e"/>
    <path id="路径_96" data-name="路径 96" d="M769.178,473.141,618.043,1213.062,914.6,507.765Z" fill="#ff8a5e"/>
    <path id="路径_97" data-name="路径 97" d="M1051.885,597.788l-437.3,615.273,444.4-462.927Z" fill="#ff8a5e"/>
    <path id="路径_98" data-name="路径 98" d="M1072.833,937.106s-467.428,275.956-461.715,275.956S1080.8,1068.678,1080.8,1068.678Z" fill="#ff8a5e"/>
    <path id="路径_99" data-name="路径 99" d="M1092.4,1230.374l-476.6-19.563,476.6,143Z" fill="#ff8a5e"/>
    <path id="路径_100" data-name="路径 100" d="M1092.4,1462.356,611.118,1213.062,1037,1598.43Z" fill="#ff8a5e"/>
    <path id="路径_101" data-name="路径 101" d="M1058.983,1711.651l-444.4-498.59L982.81,1903.3Z" fill="#ff8a5e"/>
    <path id="路径_102" data-name="路径 102" d="M854.094,1927.36,618.563,1210.638,723.647,1927.36Z" fill="#ff8a5e"/>
    <path id="路径_103" data-name="路径 103" d="M611.067,1927.36V1209.6l-131,706.335Z" fill="#ff8a5e"/>
    <path id="路径_104" data-name="路径 104" d="M377.4,1915.934l236.657-708.759L204.283,1852.4l51.936,76.173Z" fill="#ff8a5e"/>
    <path id="路径_105" data-name="路径 105" d="M171.91,1625.61l444.4-413.241-444.4,264.356Z" fill="#ff8a5e"/>
    <path id="路径_106" data-name="路径 106" d="M171.91,1353.809l444.4-141.44H171.91Z" fill="#ff8a5e"/>
    <path id="路径_107" data-name="路径 107" d="M171.91,1087.722l444.4,128.11L184.721,952.687Z" fill="#ff8a5e"/>
    <path id="路径_108" data-name="路径 108" d="M171.91,829.251l447.865,383.118L197.358,697.679Z" fill="#ff8a5e"/>
  </g>
  <g id="组_195" data-name="组 195" transform="matrix(0.891, -0.454, 0.454, 0.891, 1450.986, -570.424)">
    <circle id="椭圆_13" data-name="椭圆 13" cx="55.312" cy="55.312" r="55.312" transform="translate(-1925 601)" fill="#fee15f"/>
    <g id="组_192" data-name="组 192" transform="translate(-1917.827 608.173)">
      <circle id="椭圆_14" data-name="椭圆 14" cx="48.034" cy="48.034" r="48.034" transform="translate(0.105 0.105)" fill="#fdc834"/>
      <path id="减去_5" data-name="减去 5" d="M48.139,96.277A48.151,48.151,0,0,1,29.4,3.783,47.837,47.837,0,0,1,48.139,0c1.144,0,2.3.041,3.438.121a48.141,48.141,0,0,0,0,96.035C50.432,96.237,49.275,96.277,48.139,96.277Z" transform="translate(0 0)" fill="#efbb24"/>
    </g>
    <g id="组_190" data-name="组 190" transform="translate(-1892.381 629.584)">
      <path id="联合_1" data-name="联合 1" d="M17.386,48.367V38.955H3.93a3.93,3.93,0,1,1,0-7.861H17.386V22.448H3.93a3.93,3.93,0,1,1,0-7.861h7.079L3.089,6.71a3.915,3.915,0,0,1,0-5.558,3.967,3.967,0,0,1,5.588,0l12.6,12.538L33.887,1.151a3.967,3.967,0,0,1,5.588,0,3.915,3.915,0,0,1,0,5.558l-7.92,7.878h7.191a3.93,3.93,0,1,1,0,7.861H25.289v8.646H38.746a3.93,3.93,0,1,1,0,7.861H25.289v9.412a3.951,3.951,0,0,1-7.9,0Z" transform="translate(1.423 1.423)" fill="#d49b06"/>
      <path id="联合_2" data-name="联合 2" d="M17.386,48.367V38.955H3.93a3.93,3.93,0,1,1,0-7.861H17.386V22.448H3.93a3.93,3.93,0,1,1,0-7.861h7.079L3.089,6.71a3.915,3.915,0,0,1,0-5.558,3.967,3.967,0,0,1,5.588,0l12.6,12.538L33.887,1.151a3.967,3.967,0,0,1,5.588,0,3.915,3.915,0,0,1,0,5.558l-7.92,7.878h7.191a3.93,3.93,0,1,1,0,7.861H25.289v8.646H38.746a3.93,3.93,0,1,1,0,7.861H25.289v9.412a3.951,3.951,0,0,1-7.9,0Z" transform="translate(0 0)" fill="#fce058"/>
    </g>
  </g>
  <g id="组_199" data-name="组 199" transform="translate(2280.12 414.523) rotate(19)">
    <circle id="椭圆_13-2" data-name="椭圆 13" cx="41.143" cy="41.143" r="41.143" transform="translate(-1925.384 601.24)" fill="#fee15f"/>
    <g id="组_192-2" data-name="组 192" transform="translate(-1919.713 606.334)">
      <circle id="椭圆_14-2" data-name="椭圆 14" cx="35.596" cy="35.596" r="35.596" transform="translate(0.078 0.078)" fill="#fdc834"/>
      <path id="减去_5-2" data-name="减去 5" d="M35.674,71.347A35.683,35.683,0,0,1,21.788,2.8,35.45,35.45,0,0,1,35.674,0c.847,0,1.7.03,2.548.09a35.675,35.675,0,0,0,0,71.168C37.373,71.318,36.516,71.347,35.674,71.347Z" transform="translate(0 0)" fill="#efbb24"/>
    </g>
    <g id="组_190-2" data-name="组 190" transform="translate(-1900.856 622.2)">
      <path id="联合_1-2" data-name="联合 1" d="M12.884,35.843V28.868H2.912a2.913,2.913,0,0,1,0-5.826h9.972V16.636H2.912a2.913,2.913,0,0,1,0-5.826H8.157L2.289,4.973a2.9,2.9,0,0,1,0-4.119,2.939,2.939,0,0,1,4.141,0l9.342,9.291L25.112.853a2.94,2.94,0,0,1,4.142,0,2.9,2.9,0,0,1,0,4.119L23.385,10.81h5.328a2.913,2.913,0,0,1,0,5.826H18.741v6.407h9.972a2.913,2.913,0,0,1,0,5.826H18.741v6.975a2.928,2.928,0,0,1-5.856,0Z" transform="translate(1.054 1.054)" fill="#d49b06"/>
      <path id="联合_2-2" data-name="联合 2" d="M12.884,35.843V28.868H2.912a2.913,2.913,0,0,1,0-5.826h9.972V16.636H2.912a2.913,2.913,0,0,1,0-5.826H8.157L2.289,4.973a2.9,2.9,0,0,1,0-4.119,2.939,2.939,0,0,1,4.141,0l9.342,9.291L25.112.853a2.94,2.94,0,0,1,4.142,0,2.9,2.9,0,0,1,0,4.119L23.385,10.81h5.328a2.913,2.913,0,0,1,0,5.826H18.741v6.407h9.972a2.913,2.913,0,0,1,0,5.826H18.741v6.975a2.928,2.928,0,0,1-5.856,0Z" transform="translate(0 0)" fill="#fce058"/>
    </g>
  </g>
  <g id="组_197" data-name="组 197" transform="translate(1999.26 95.318) rotate(-14)">
    <circle id="椭圆_13-3" data-name="椭圆 13" cx="41.143" cy="41.143" r="41.143" transform="translate(-1925.384 601.24)" fill="#fee15f"/>
    <g id="组_192-3" data-name="组 192" transform="translate(-1919.713 606.334)">
      <circle id="椭圆_14-3" data-name="椭圆 14" cx="35.596" cy="35.596" r="35.596" transform="translate(0.078 0.078)" fill="#fdc834"/>
      <path id="减去_5-3" data-name="减去 5" d="M35.674,71.347A35.683,35.683,0,0,1,21.788,2.8,35.45,35.45,0,0,1,35.674,0c.847,0,1.7.03,2.548.09a35.675,35.675,0,0,0,0,71.168C37.373,71.318,36.516,71.347,35.674,71.347Z" transform="translate(0 0)" fill="#efbb24"/>
    </g>
    <g id="组_190-3" data-name="组 190" transform="translate(-1900.856 622.2)">
      <path id="联合_1-3" data-name="联合 1" d="M12.884,35.843V28.868H2.912a2.913,2.913,0,0,1,0-5.826h9.972V16.636H2.912a2.913,2.913,0,0,1,0-5.826H8.157L2.289,4.973a2.9,2.9,0,0,1,0-4.119,2.939,2.939,0,0,1,4.141,0l9.342,9.291L25.112.853a2.94,2.94,0,0,1,4.142,0,2.9,2.9,0,0,1,0,4.119L23.385,10.81h5.328a2.913,2.913,0,0,1,0,5.826H18.741v6.407h9.972a2.913,2.913,0,0,1,0,5.826H18.741v6.975a2.928,2.928,0,0,1-5.856,0Z" transform="translate(1.054 1.054)" fill="#d49b06"/>
      <path id="联合_2-3" data-name="联合 2" d="M12.884,35.843V28.868H2.912a2.913,2.913,0,0,1,0-5.826h9.972V16.636H2.912a2.913,2.913,0,0,1,0-5.826H8.157L2.289,4.973a2.9,2.9,0,0,1,0-4.119,2.939,2.939,0,0,1,4.141,0l9.342,9.291L25.112.853a2.94,2.94,0,0,1,4.142,0,2.9,2.9,0,0,1,0,4.119L23.385,10.81h5.328a2.913,2.913,0,0,1,0,5.826H18.741v6.407h9.972a2.913,2.913,0,0,1,0,5.826H18.741v6.975a2.928,2.928,0,0,1-5.856,0Z" transform="translate(0 0)" fill="#fce058"/>
    </g>
  </g>
  <g id="组_194" data-name="组 194" transform="matrix(0.921, 0.391, -0.391, 0.921, 2389.844, 953.916)">
    <circle id="椭圆_17" data-name="椭圆 17" cx="57" cy="57" r="57" transform="translate(-1647.264 600.736)" fill="#fee15f"/>
    <circle id="椭圆_18" data-name="椭圆 18" cx="49" cy="49" r="49" transform="translate(-1639.264 608.736)" fill="#fdc834"/>
    <path id="减去_6" data-name="减去 6" d="M49.4,98.8A49.413,49.413,0,0,1,30.171,3.882,49.091,49.091,0,0,1,49.4,0c1.173,0,2.361.042,3.529.124a49.4,49.4,0,0,0,0,98.551C51.753,98.758,50.566,98.8,49.4,98.8Z" transform="translate(-1639.664 608.336)" fill="#efbb24"/>
    <g id="组_191" data-name="组 191" transform="translate(-1613.541 630.32)">
      <path id="联合_1-4" data-name="联合 1" d="M17.834,49.613V39.958H4.032a4.032,4.032,0,1,1,0-8.063h13.8v-8.87H4.032a4.032,4.032,0,1,1,0-8.063h7.26L3.168,6.882a4.016,4.016,0,0,1,0-5.7,4.069,4.069,0,0,1,5.732,0l12.93,12.86L34.76,1.181a4.069,4.069,0,0,1,5.732,0,4.018,4.018,0,0,1,0,5.7l-8.124,8.08h7.375a4.032,4.032,0,1,1,0,8.063h-13.8V31.9h13.8a4.032,4.032,0,1,1,0,8.063h-13.8v9.654a4.053,4.053,0,0,1-8.106,0Z" transform="translate(1.459 1.459)" fill="#d49b06"/>
      <path id="联合_2-4" data-name="联合 2" d="M17.834,49.613V39.958H4.032a4.032,4.032,0,1,1,0-8.063h13.8v-8.87H4.032a4.032,4.032,0,1,1,0-8.063h7.26L3.168,6.882a4.016,4.016,0,0,1,0-5.7,4.069,4.069,0,0,1,5.732,0l12.93,12.86L34.76,1.181a4.069,4.069,0,0,1,5.732,0,4.018,4.018,0,0,1,0,5.7l-8.124,8.08h7.375a4.032,4.032,0,1,1,0,8.063h-13.8V31.9h13.8a4.032,4.032,0,1,1,0,8.063h-13.8v9.654a4.053,4.053,0,0,1-8.106,0Z" fill="#fce058"/>
    </g>
  </g>
  <g id="组_196" data-name="组 196" transform="translate(1780.26 -960.682) rotate(-14)">
    <circle id="椭圆_13-4" data-name="椭圆 13" cx="41.143" cy="41.143" r="41.143" transform="translate(-1925.384 601.24)" fill="#fee15f"/>
    <g id="组_192-4" data-name="组 192" transform="translate(-1919.713 606.334)">
      <circle id="椭圆_14-4" data-name="椭圆 14" cx="35.596" cy="35.596" r="35.596" transform="translate(0.078 0.078)" fill="#fdc834"/>
      <path id="减去_5-4" data-name="减去 5" d="M35.674,71.347A35.683,35.683,0,0,1,21.788,2.8,35.45,35.45,0,0,1,35.674,0c.847,0,1.7.03,2.548.09a35.675,35.675,0,0,0,0,71.168C37.373,71.318,36.516,71.347,35.674,71.347Z" transform="translate(0 0)" fill="#efbb24"/>
    </g>
    <g id="组_190-4" data-name="组 190" transform="translate(-1900.856 622.2)">
      <path id="联合_1-5" data-name="联合 1" d="M12.884,35.843V28.868H2.912a2.913,2.913,0,0,1,0-5.826h9.972V16.636H2.912a2.913,2.913,0,0,1,0-5.826H8.157L2.289,4.973a2.9,2.9,0,0,1,0-4.119,2.939,2.939,0,0,1,4.141,0l9.342,9.291L25.112.853a2.94,2.94,0,0,1,4.142,0,2.9,2.9,0,0,1,0,4.119L23.385,10.81h5.328a2.913,2.913,0,0,1,0,5.826H18.741v6.407h9.972a2.913,2.913,0,0,1,0,5.826H18.741v6.975a2.928,2.928,0,0,1-5.856,0Z" transform="translate(1.054 1.054)" fill="#d49b06"/>
      <path id="联合_2-5" data-name="联合 2" d="M12.884,35.843V28.868H2.912a2.913,2.913,0,0,1,0-5.826h9.972V16.636H2.912a2.913,2.913,0,0,1,0-5.826H8.157L2.289,4.973a2.9,2.9,0,0,1,0-4.119,2.939,2.939,0,0,1,4.141,0l9.342,9.291L25.112.853a2.94,2.94,0,0,1,4.142,0,2.9,2.9,0,0,1,0,4.119L23.385,10.81h5.328a2.913,2.913,0,0,1,0,5.826H18.741v6.407h9.972a2.913,2.913,0,0,1,0,5.826H18.741v6.975a2.928,2.928,0,0,1-5.856,0Z" transform="translate(0 0)" fill="#fce058"/>
    </g>
  </g>
  <g id="组_202" data-name="组 202" transform="translate(-245 -499)">
    <g id="组_200" data-name="组 200" transform="translate(1 59)">
      <g transform="matrix(1, 0, 0, 1, 244, 440)" filter="url(#矩形_210)">
        <rect id="矩形_210-2" data-name="矩形 210" width="620" height="438" rx="56" transform="translate(65 471)" fill="#ff663d"/>
      </g>
      <path id="路径_114" data-name="路径 114" d="M565.089,437.5H55.91A55.433,55.433,0,0,1,.5,382V170.084c2.586,1.192,12.2,5.561,27.443,11.725,16.181,6.545,42,16.421,73.117,26.3a909.684,909.684,0,0,0,102.226,26.3c19.515,3.769,38.7,6.686,57.008,8.669a544.307,544.307,0,0,0,58.262,3.288,525.332,525.332,0,0,0,57.569-3.288c17.9-1.983,36.464-4.9,55.183-8.669A778.475,778.475,0,0,0,528,208.112c12.823-4.364,25.689-9.091,38.242-14.049,10.043-3.966,19.913-8.088,29.336-12.254,13.806-6.1,22.568-10.5,24.924-11.7V382a55.386,55.386,0,0,1-55.411,55.5Z" transform="translate(308.5 912)" fill="#f04f30"/>
      <path id="交叉_3" data-name="交叉 3" d="M289.008,243.085c-18.318-1.984-37.5-4.9-57.009-8.669a909.648,909.648,0,0,1-102.227-26.3c-31.112-9.881-56.934-19.758-73.117-26.3-15.369-6.217-25.186-10.685-27.444-11.726V155.394c4.145,1.863,13.078,5.793,25.666,10.871,16.362,6.6,42.455,16.56,73.841,26.525a921.715,921.715,0,0,0,102.95,26.526c41.295,8,80.188,12.056,115.6,12.056s73.347-4.023,112.752-11.956a778.52,778.52,0,0,0,96.688-26.3c12.82-4.363,25.686-9.09,38.243-14.048,10.045-3.966,19.914-8.09,29.335-12.255,13.948-6.166,22.8-10.614,24.926-11.7v15c-2.152,1.1-11,5.545-24.926,11.7-9.421,4.165-19.291,8.288-29.335,12.254-12.557,4.959-25.423,9.686-38.244,14.049a778.38,778.38,0,0,1-96.687,26.3c-18.717,3.768-37.283,6.685-55.184,8.669a525.308,525.308,0,0,1-57.569,3.288A544.3,544.3,0,0,1,289.008,243.085Z" transform="translate(279.788 912)" fill="#fcce5f"/>
    </g>
    <g id="组_198" data-name="组 198" transform="translate(2484.828 532.828)">
      <circle id="椭圆_13-5" data-name="椭圆 13" cx="60" cy="60" r="60" transform="translate(-1924.828 601.172)" fill="#fee15f"/>
      <g id="组_192-5" data-name="组 192" transform="translate(-1917.845 608.155)">
        <circle id="椭圆_14-5" data-name="椭圆 14" cx="53" cy="53" r="53" transform="translate(0.017 0.017)" fill="#fdc834"/>
        <path id="减去_5-5" data-name="减去 5" d="M48.017,106.034a43.861,43.861,0,0,1-18.69-4.166A47.9,47.9,0,0,1,14.064,90.505,53.454,53.454,0,0,1,3.773,73.653a58.317,58.317,0,0,1,0-41.273,53.454,53.454,0,0,1,10.29-16.852A47.9,47.9,0,0,1,29.326,4.166,43.861,43.861,0,0,1,48.017,0c1.141,0,2.295.045,3.43.133C26.445,2.08,6.86,25.309,6.86,53.017S26.445,103.954,51.447,105.9C50.3,105.989,49.15,106.034,48.017,106.034Z" transform="translate(0)" fill="#efbb24"/>
      </g>
      <g id="组_190-5" data-name="组 190" transform="translate(-1887.56 634.537)">
        <path id="联合_1-6" data-name="联合 1" d="M17.342,48.245V38.857H3.92a3.92,3.92,0,0,1,0-7.841H17.342V22.39H3.92a3.92,3.92,0,1,1,0-7.841H10.98l-7.9-7.857a3.906,3.906,0,0,1,0-5.544,3.956,3.956,0,0,1,5.574,0L21.228,13.654,33.8,1.148a3.956,3.956,0,0,1,5.574,0,3.906,3.906,0,0,1,0,5.544l-7.9,7.857h7.172a3.92,3.92,0,0,1,0,7.841H25.225v8.626H38.648a3.92,3.92,0,0,1,0,7.841H25.225v9.388a3.942,3.942,0,0,1-7.883,0Z" transform="translate(1.419 1.419)" fill="#d49b06"/>
        <path id="联合_2-6" data-name="联合 2" d="M17.342,48.245V38.857H3.92a3.92,3.92,0,0,1,0-7.841H17.342V22.39H3.92a3.92,3.92,0,1,1,0-7.841H10.98l-7.9-7.857a3.906,3.906,0,0,1,0-5.544,3.956,3.956,0,0,1,5.574,0L21.228,13.654,33.8,1.148a3.956,3.956,0,0,1,5.574,0,3.906,3.906,0,0,1,0,5.544l-7.9,7.857h7.172a3.92,3.92,0,0,1,0,7.841H25.225v8.626H38.648a3.92,3.92,0,0,1,0,7.841H25.225v9.388a3.942,3.942,0,0,1-7.883,0Z" transform="translate(0 0)" fill="#fce058"/>
      </g>
    </g>
  </g>
  <g transform="matrix(1, 0, 0, 1, 0, 0)" filter="url(#好友给你_送红包啦_)">
    <text id="好友给你_送红包啦_2" data-name="好友给你
    送红包啦~" transform="translate(97 242) rotate(-5)" fill="#fefefb" font-size="100" font-family="NotoSansCJK-Black, Noto Sans CJK" font-weight="800"><tspan x="0" y="0">好友给你</tspan><tspan x="0" y="137" xml:space="preserve">    送红包啦~</tspan></text>
  </g>
  <g id="蒙版组_2" data-name="蒙版组 2" clip-path="url(#clip-path-2)">
    <g id="组_193" data-name="组 193" transform="translate(2667.979 287.879) rotate(16)">
      <circle id="椭圆_13-6" data-name="椭圆 13" cx="76" cy="76" r="76" transform="translate(-1925 601)" fill="#fee15f"/>
      <g id="组_192-6" data-name="组 192" transform="translate(-1915.279 610.721)">
        <circle id="椭圆_14-6" data-name="椭圆 14" cx="66" cy="66" r="66" transform="translate(0.279 0.279)" fill="#fdc834"/>
        <path id="减去_5-6" data-name="减去 5" d="M66.144,132.288A66.161,66.161,0,0,1,40.4,5.2,65.73,65.73,0,0,1,66.144,0c1.571,0,3.161.056,4.725.166a66.147,66.147,0,0,0,0,131.955C69.295,132.233,67.705,132.288,66.144,132.288Z" transform="translate(0.135 0.135)" fill="#efbb24"/>
      </g>
      <g id="组_190-6" data-name="组 190" transform="translate(-1880.18 640.275)">
        <path id="联合_1-7" data-name="联合 1" d="M23.89,66.457V53.525H5.4a5.4,5.4,0,0,1,0-10.8H23.89V30.843H5.4a5.4,5.4,0,0,1,0-10.8h9.725L4.244,9.219a5.38,5.38,0,0,1,0-7.637,5.451,5.451,0,0,1,7.679,0l17.32,17.227L46.562,1.581a5.451,5.451,0,0,1,7.679,0,5.382,5.382,0,0,1,0,7.637L43.359,20.042h9.879a5.4,5.4,0,0,1,0,10.8H34.748V42.724h18.49a5.4,5.4,0,0,1,0,10.8H34.748V66.457a5.429,5.429,0,1,1-10.858,0Z" transform="translate(1.955 1.955)" fill="#d49b06"/>
        <path id="联合_2-7" data-name="联合 2" d="M23.89,66.457V53.525H5.4a5.4,5.4,0,0,1,0-10.8H23.89V30.843H5.4a5.4,5.4,0,0,1,0-10.8h9.725L4.244,9.219a5.38,5.38,0,0,1,0-7.637,5.451,5.451,0,0,1,7.679,0l17.32,17.227L46.562,1.581a5.451,5.451,0,0,1,7.679,0,5.382,5.382,0,0,1,0,7.637L43.359,20.042h9.879a5.4,5.4,0,0,1,0,10.8H34.748V42.724h18.49a5.4,5.4,0,0,1,0,10.8H34.748V66.457a5.429,5.429,0,1,1-10.858,0Z" transform="translate(0 0)" fill="#fce058"/>
      </g>
    </g>
  </g>
</svg>
