<svg height="50" viewBox="0 0 50 50" width="50" xmlns="http://www.w3.org/2000/svg"><g fill="#fff"><path d="m0 0h50v50h-50z"/><path d="m4.566 21.51a4.078 4.078 0 0 1 -4.066-4.066v-12.877a4.078 4.078 0 0 1 4.066-4.067h19.655a4.108 4.108 0 0 1 4.066 4.067v12.877a4.108 4.108 0 0 1 -4.066 4.067h-13.244l-5.6 5.332z" style="stroke:#d6bc6f;stroke-linecap:round;stroke-linejoin:round;stroke-miterlimit:10;stroke-width:1.5;fill-rule:evenodd" transform="translate(4.315 7.452)"/><path d="m24.221 21.51a4.078 4.078 0 0 0 4.067-4.067v-12.876a4.078 4.078 0 0 0 -4.067-4.067h-19.654a4.108 4.108 0 0 0 -4.067 4.067v12.877a4.108 4.108 0 0 0 4.067 4.066h13.244l5.6 5.332z" style="stroke:#d6bc6f;stroke-linecap:round;stroke-linejoin:round;stroke-miterlimit:10;stroke-width:1.5;fill-rule:evenodd" transform="translate(16.398 15.507)"/></g><circle cx="24.75" cy="26.358" fill="#d6bc6f" r="1.51"/><circle cx="30.791" cy="26.358" fill="#d6bc6f" r="1.51"/><circle cx="36.833" cy="26.358" fill="#d6bc6f" r="1.51"/></svg>