<svg xmlns="http://www.w3.org/2000/svg" width="50" height="50" viewBox="0 0 50 50"><defs><style>.a,.b{fill:#fff;}.b,.c{stroke:#d6bc6f;stroke-linejoin:round;stroke-width:1.5px;}.c{fill:none;stroke-miterlimit:10;fill-rule:evenodd;}</style></defs><g transform="translate(-5650 -2680)"><rect class="a" width="50" height="50" transform="translate(5650 2680)"/><path class="b" d="M389.908,406.51v5.577c0,2.4-4,6.818-12.8,6.818s-13.6-4.421-13.6-6.818v-6.2c0-3.422,5.912-6.2,13.2-6.2s13.2,2.775,13.2,6.2Z" transform="translate(5292.939 2302.055)"/><path class="b" d="M389.908,406.51v5.577c0,2.4-4,6.818-12.8,6.818s-13.6-4.421-13.6-6.818v-6.2c0-3.422,5.912-6.2,13.2-6.2s13.2,2.775,13.2,6.2Z" transform="translate(5292.939 2294.708)"/><path class="b" d="M389.908,406.51v5.577c0,2.4-4,6.818-12.8,6.818s-13.6-4.421-13.6-6.818v-6.2c0-3.422,5.912-6.2,13.2-6.2s13.2,2.775,13.2,6.2Z" transform="translate(5292.939 2287.362)"/><ellipse class="b" cx="13.204" cy="6.817" rx="13.204" ry="6.817" transform="translate(5656.439 2686.434)"/><path class="b" d="M5635.165,2803.037l-3.04,7.646,11.177,10.844,10.854-10.844-3.01-7.646Z" transform="translate(38.587 -98.408)"/><path class="c" d="M0,0V6.943L3.624,3.471Z" transform="translate(5685.174 2709.631) rotate(90)"/></g></svg>