<svg height="160.001" viewBox="0 0 650.001 160.001" width="650.001" xmlns="http://www.w3.org/2000/svg"><rect fill="#333" height="160" rx="10" width="650"/><g fill="#fff"><path d="m94.407 159.989c15.911-45.61 4.958-80.3-22.343-108.446-17.12-17.649-47.45-34.208-72.064-51.543h169.62a10 10 0 0 1 10 10v139.99a10 10 0 0 1 -10 10z" opacity=".1" transform="translate(470.38 -.001)"/><path d="m10 160a10 10 0 0 1 -10-10v-140a10 10 0 0 1 10-10h49.639a25.72 25.72 0 0 1 6.867 11.165c6.165 21.884-23.706 16.156-18.217 58.716 4.581 35.526 80.259 62.286 86.029 90.119z" opacity=".1" transform="translate(.046)"/></g></svg>