<svg xmlns="http://www.w3.org/2000/svg" width="650.001" height="160" viewBox="0 0 650.001 160"><defs><style>.a{fill:#333;}.b,.c{fill:#fff;}.b{opacity:0.3;}.c{opacity:0.1;}</style></defs><g transform="translate(-50 -228)"><rect class="a" width="650" height="160" rx="10" transform="translate(50 228)"/><rect class="b" width="650" height="160" rx="10" transform="translate(50 228)"/><path class="c" d="M94.407,159.989c15.911-45.61,4.958-80.3-22.343-108.446C54.944,33.894,24.614,17.335,0,0H169.62a10,10,0,0,1,10,10V149.99a10,10,0,0,1-10,10Z" transform="translate(520.38 227.999)"/><path class="c" d="M10,160A10,10,0,0,1,0,150V10A10,10,0,0,1,10,0H59.639a25.72,25.72,0,0,1,6.867,11.165C72.671,33.049,42.8,27.321,48.289,69.881c4.581,35.526,80.259,62.286,86.029,90.119Z" transform="translate(49.999 228)"/></g></svg>