<svg height="200" viewBox="0 0 710 200" width="710" xmlns="http://www.w3.org/2000/svg" xmlns:xlink="http://www.w3.org/1999/xlink"><linearGradient id="a" gradientUnits="objectBoundingBox" x1=".076" x2=".971" y1=".326" y2=".959"><stop offset="0" stop-color="#f6de96"/><stop offset="1" stop-color="#ceb15a"/></linearGradient><linearGradient id="b" gradientUnits="objectBoundingBox" x1="1.439" x2="1.934" y1="-1.158" y2="-1.739"><stop offset="0" stop-color="#f1d98f"/><stop offset="1" stop-color="#ac790c"/></linearGradient><clipPath id="c"><path d="m1235.511 772.366 17.5 10.171c-.088.1-5.939 3.435-12.3 7.1-3.211 1.854-6.552 3.794-9.343 5.441-4.818 2.843-8.245 7.431-11 11.118-1.966 2.632-3.677 4.922-5.377 5.9l-17.5-10.171c1.7-.982 3.411-3.271 5.377-5.9 2.754-3.687 6.181-8.275 11-11.118 2.791-1.647 6.132-3.588 9.343-5.441 6.361-3.666 12.212-6.997 12.3-7.1z" transform="translate(-1197.496 -772.366)"/></clipPath><linearGradient id="d" x1="1.179" x2=".747" xlink:href="#b" y1="-.502" y2=".156"/><linearGradient id="e" gradientUnits="objectBoundingBox" x1="1.365" x2=".262" y1=".811" y2=".14"><stop offset="0" stop-color="#f1d98f"/><stop offset=".631" stop-color="#e9ce80"/><stop offset="1" stop-color="#ac790c"/></linearGradient><clipPath id="f"><path d="m1471 1435.911 17.5-10.171c-.088-.1-5.938-3.435-12.3-7.1-3.211-1.854-6.552-3.794-9.343-5.441-4.818-2.843-8.245-7.431-11-11.118-1.966-2.632-3.677-4.922-5.377-5.9l-17.5 10.171c1.7.981 3.411 3.271 5.377 5.9 2.754 3.687 6.181 8.275 11 11.118 2.792 1.647 6.133 3.587 9.343 5.441 6.356 3.666 12.207 6.997 12.3 7.1z" transform="translate(-1432.98 -1396.173)"/></clipPath><linearGradient id="g" x1="1.054" x2=".622" xlink:href="#b" y1=".288" y2=".945"/><linearGradient id="h" x1=".243" x2=".738" xlink:href="#b" y1=".813" y2=".232"/><clipPath id="i"><path d="m99.195 1406.742-17.5-10.171c.088-.1 5.938-3.435 12.3-7.1 3.211-1.854 6.552-3.794 9.343-5.442 4.818-2.842 8.245-7.431 11-11.118 1.966-2.632 3.677-4.922 5.377-5.9l17.5 10.171c-1.7.982-3.411 3.272-5.377 5.9-2.754 3.687-6.181 8.275-11 11.118-2.791 1.647-6.132 3.588-9.343 5.442-6.362 3.665-12.212 6.997-12.3 7.1z" transform="translate(-81.693 -1367.003)"/></clipPath><linearGradient id="j" x1=".639" x2=".207" xlink:href="#b" y1=".288" y2=".945"/><linearGradient id="k" x1="0" x2="1" xlink:href="#b" y1=".5" y2=".5"/><linearGradient id="l" x1="-.367" x2=".633" xlink:href="#b" y1="3.28" y2="3.28"/><linearGradient id="m" x1="0" x2="1" xlink:href="#b" y1="8.184" y2="8.184"/><linearGradient id="n" x1="-4.545" x2="-3.453" xlink:href="#b" y1="3.223" y2="3.223"/><linearGradient id="o" gradientUnits="objectBoundingBox" x2="1" y1=".5" y2=".5"><stop offset="0" stop-color="#282733"/><stop offset="1" stop-color="#454554"/></linearGradient><linearGradient id="p" gradientUnits="objectBoundingBox" x2="1" y1=".5" y2=".5"><stop offset="0" stop-color="#282733"/><stop offset="1" stop-color="#3f3f4b"/></linearGradient><linearGradient id="q" gradientUnits="objectBoundingBox" x1=".5" x2=".5" y2="1"><stop offset="0" stop-color="#d4b058"/><stop offset="1" stop-color="#be922e"/></linearGradient><linearGradient id="r" gradientUnits="objectBoundingBox" x1=".5" x2=".5" y2="1"><stop offset="0" stop-color="#be922e"/><stop offset="1" stop-color="#ac790c"/></linearGradient><linearGradient id="s" gradientUnits="objectBoundingBox" x2="1" y1=".5" y2=".5"><stop offset="0" stop-color="#282733"/><stop offset="1" stop-color="#353544"/></linearGradient><clipPath id="t"><path d="m5.386 0-.005 1.857c-1.794 1.859-3.588 3.436-5.381 5.331l.005-1.858c1.795-1.895 3.588-3.471 5.381-5.33z"/></clipPath><clipPath id="u"><path d="m2.869 2.919-.005 1.858c0-.91-1.023-1.856-2.864-2.919l.005-1.858c1.842 1.063 2.867 2.01 2.864 2.919z"/></clipPath><clipPath id="v"><path d="m19.356 0-.006 1.857c0 1.278-.938 2.564-3.112 3.828-5.149 2.993-11.361 2.089-16.238-.726l.005-1.859c4.877 2.816 11.09 3.719 16.239.726 2.174-1.262 3.108-2.548 3.112-3.826z"/></clipPath><linearGradient id="w" x1=".708" x2=".312" xlink:href="#b" y1=".188" y2="1.157"/><linearGradient id="x" x1=".744" x2=".234" xlink:href="#b" y1="-.096" y2="1.151"/><linearGradient id="y" x1=".688" x2=".292" xlink:href="#b" y1=".161" y2="1.407"/><linearGradient id="z" gradientUnits="objectBoundingBox" x1=".919" x2=".027" y1=".543" y2=".626"><stop offset="0" stop-color="#eacf82"/><stop offset="1" stop-color="#af7e13"/></linearGradient><linearGradient id="A" gradientUnits="objectBoundingBox" x2="1" y1=".5" y2=".5"><stop offset="0" stop-color="#545454" stop-opacity=".502"/><stop offset="1" stop-color="#333" stop-opacity=".8"/></linearGradient><linearGradient id="B" gradientUnits="objectBoundingBox" x1=".07" x2=".827" y1=".17" y2=".403"><stop offset="0" stop-color="#cba649"/><stop offset="1" stop-color="#d6b55e"/></linearGradient><linearGradient id="C" gradientUnits="objectBoundingBox" x2="1" y1=".5" y2=".5"><stop offset="0" stop-color="#c39937"/><stop offset="1" stop-color="#f0d78d"/></linearGradient><linearGradient id="D" gradientUnits="objectBoundingBox" x1=".109" x2=".575" y1=".136" y2=".769"><stop offset="0" stop-color="#292834"/><stop offset="1" stop-color="#3c3c48"/></linearGradient><linearGradient id="E" gradientUnits="objectBoundingBox" x1="1" x2=".089" y1=".813" y2=".813"><stop offset="0" stop-color="#424251"/><stop offset="1" stop-color="#2c2b38"/></linearGradient><linearGradient id="F" gradientUnits="objectBoundingBox" x1=".265" x2=".5" y1=".382" y2="1"><stop offset="0" stop-color="#cea84e"/><stop offset="1" stop-color="#c09533"/></linearGradient><linearGradient id="G" gradientUnits="objectBoundingBox" x1=".5" x2=".5" y1=".5" y2="1"><stop offset="0" stop-color="#ba8c27"/><stop offset="1" stop-color="#ae7c10"/></linearGradient><linearGradient id="H" x1=".178" x2=".649" xlink:href="#D" y1=".227" y2=".831"/><linearGradient id="I" gradientUnits="objectBoundingBox" x1=".873" x2=".21" y1=".5" y2=".766"><stop offset="0" stop-color="#434352"/><stop offset="1" stop-color="#2c2b37"/></linearGradient><linearGradient id="J" gradientUnits="objectBoundingBox" x1=".5" x2=".5" y2="1"><stop offset="0" stop-color="#333342"/><stop offset="1" stop-color="#2d2d3a"/></linearGradient><linearGradient id="K" gradientUnits="objectBoundingBox" x1=".5" x2=".325" y1=".273" y2=".5"><stop offset="0" stop-color="#eed489"/><stop offset="1" stop-color="#c19735"/></linearGradient><linearGradient id="L" gradientUnits="objectBoundingBox" x1=".183" x2=".5" y1=".11" y2="1"><stop offset="0" stop-color="#ba8c26"/><stop offset="1" stop-color="#ae7c10"/></linearGradient><linearGradient id="M" gradientUnits="objectBoundingBox" x1="1" x2=".5" y1=".5" y2="1"><stop offset="0" stop-color="#d0aa50"/><stop offset="1" stop-color="#c09432"/></linearGradient><linearGradient id="N" gradientUnits="objectBoundingBox" x1=".5" x2=".5" y2="1"><stop offset="0" stop-color="#efd68c"/><stop offset="1" stop-color="#b5851d"/></linearGradient><linearGradient id="O" gradientUnits="objectBoundingBox" x1=".5" x2=".5" y2="1"><stop offset="0" stop-color="#ccac58"/><stop offset="1" stop-color="#b2821a"/></linearGradient><linearGradient id="P" gradientUnits="objectBoundingBox" x1=".875" x2=".176" y1=".5" y2=".751"><stop offset="0" stop-color="#cea84c"/><stop offset="1" stop-color="#ac790c"/></linearGradient><linearGradient id="Q" gradientUnits="objectBoundingBox" x1=".5" x2=".5" y2="1"><stop offset="0" stop-color="#424251"/><stop offset="1" stop-color="#333"/></linearGradient><linearGradient id="R" gradientUnits="objectBoundingBox" x1=".5" x2=".5" y2="1"><stop offset="0" stop-color="#3c3c48"/><stop offset="1" stop-color="#333"/></linearGradient><linearGradient id="S" gradientUnits="objectBoundingBox" x1=".785" x2=".154" y2=".5"><stop offset="0" stop-color="#454553"/><stop offset="1" stop-color="#292834"/></linearGradient><linearGradient id="T" gradientUnits="objectBoundingBox" x1=".241" x2=".66" y1=".186" y2="1"><stop offset="0" stop-color="#3b3a46"/><stop offset="1" stop-color="#424244"/></linearGradient><linearGradient id="U" gradientUnits="objectBoundingBox" x1=".116" x2=".721" y1=".684" y2="1"><stop offset="0" stop-color="#2e2d39"/><stop offset="1" stop-color="#3c3c48"/></linearGradient><linearGradient id="V" gradientUnits="objectBoundingBox" x1=".743" x2=".156" y1=".394" y2=".864"><stop offset="0" stop-color="#3d3d4b"/><stop offset="1" stop-color="#2c2c39"/></linearGradient><linearGradient id="W" gradientUnits="objectBoundingBox" x1=".854" x2=".284" y1=".137" y2=".785"><stop offset="0" stop-color="#31313f"/><stop offset="1" stop-color="#333"/></linearGradient><linearGradient id="X" gradientUnits="objectBoundingBox" x1=".058" x2=".794" y1=".5" y2=".5"><stop offset="0" stop-color="#2a2935"/><stop offset="1" stop-color="#3c3c48"/></linearGradient><linearGradient id="Y" x1=".745" x2=".254" xlink:href="#I" y1=".166" y2=".714"/><linearGradient id="Z" gradientUnits="objectBoundingBox" x1=".5" x2=".5" y2="1"><stop offset="0" stop-color="#cfa94e"/><stop offset="1" stop-color="#c09532"/></linearGradient><linearGradient id="aa" gradientUnits="objectBoundingBox" x1=".5" x2=".5" y2="1"><stop offset="0" stop-color="#b98b25"/><stop offset="1" stop-color="#af7d11"/></linearGradient><linearGradient id="ab" gradientUnits="objectBoundingBox" x1=".735" x2=".258" y2=".794"><stop offset="0" stop-color="#f0d88d"/><stop offset="1" stop-color="#b98a24"/></linearGradient><linearGradient id="ac" gradientUnits="objectBoundingBox" x1=".139" x2="1" y1=".5" y2=".5"><stop offset="0" stop-color="#c19735"/><stop offset="1" stop-color="#eed489"/></linearGradient><linearGradient id="ad" gradientUnits="objectBoundingBox" x1=".5" x2=".5" y2="1"><stop offset="0" stop-color="#4a4a4a"/><stop offset="1" stop-color="#333"/></linearGradient><linearGradient id="ae" gradientUnits="objectBoundingBox" x1=".32" x2=".622" y1=".619" y2=".846"><stop offset="0" stop-color="#bf9330"/><stop offset="1" stop-color="#8a6818"/></linearGradient><linearGradient id="af" gradientUnits="objectBoundingBox" x1=".067" x2=".937" y1=".281" y2=".884"><stop offset="0" stop-color="#ead083"/><stop offset="1" stop-color="#c39939"/></linearGradient><linearGradient id="ag" gradientUnits="objectBoundingBox" x1=".951" x2="-.042" y1=".877" y2=".12"><stop offset="0" stop-color="#ac790c"/><stop offset="1" stop-color="#d6bc6f"/></linearGradient><linearGradient id="ah" gradientUnits="objectBoundingBox" x1=".5" x2=".5" y2="1"><stop offset="0" stop-color="#f1d98f"/><stop offset="1" stop-color="#b88922"/></linearGradient><linearGradient id="ai" gradientUnits="objectBoundingBox" x2=".5" y1=".277" y2="1"><stop offset="0" stop-color="#d6bc6f"/><stop offset="1" stop-color="#be922e"/></linearGradient><linearGradient id="aj" gradientUnits="objectBoundingBox" x1=".5" x2=".5" y2="1"><stop offset="0" stop-color="#c19634"/><stop offset="1" stop-color="#896718"/></linearGradient><linearGradient id="ak" gradientUnits="objectBoundingBox" x1=".138" x2=".5" y1=".246" y2="1"><stop offset="0" stop-color="#4a4a4a"/><stop offset="1" stop-color="#292834"/></linearGradient><linearGradient id="al" gradientUnits="objectBoundingBox" x1=".5" x2=".5" y2="1"><stop offset="0" stop-color="#e8cd7e"/><stop offset="1" stop-color="#ae7c10"/></linearGradient><linearGradient id="am" gradientUnits="objectBoundingBox" x1=".5" x2=".5" y2="1"><stop offset="0" stop-color="#333"/><stop offset="1" stop-color="#1a1a1a"/></linearGradient><linearGradient id="an" gradientUnits="objectBoundingBox" x1=".862" x2=".289" y1=".029" y2=".764"><stop offset="0" stop-color="#393939"/><stop offset="1" stop-color="#333"/></linearGradient><linearGradient id="ao" gradientUnits="objectBoundingBox" x1=".762" x2=".236" y1=".149" y2=".853"><stop offset="0" stop-color="#464545"/><stop offset="1" stop-color="#292935"/></linearGradient><linearGradient id="ap" gradientUnits="objectBoundingBox" x1=".863" x2=".167" y1=".067" y2=".858"><stop offset="0" stop-color="#585858"/><stop offset="1" stop-color="#2b2a36"/></linearGradient><linearGradient id="aq" gradientUnits="objectBoundingBox" x1=".5" x2=".5" y2="1"><stop offset="0" stop-color="#404040"/><stop offset="1" stop-color="#2b2b2b"/></linearGradient><rect fill="url(#a)" height="200" rx="10" width="710"/><g fill="#020202"><path d="m448.077 1422.56-31.715 20.695 7.119-19.2z" opacity=".11" transform="translate(-355.938 -1277.353)"/><path d="m1350.684 1450.057a19.688 19.688 0 0 1 8.679 4.668c3.476 3.524 11.6 11.594 14.762 12.705l-5.438-18.654z" opacity=".11" transform="translate(-1180.988 -1300.504)"/><path d="m946.783 659.494 65.295-33.5-89.077-59z" opacity=".11" transform="translate(-818.836 -498.305)"/></g><path d="m950.576 1029.515-.034.015-.221.095-.046.019-.237.1-.051.022-.229.1-.016.007-.238.106-.053.024-.232.1-.032.014-.212.1-.045.02-.225.1-.047.022-.219.1-.012.006-.223.1-.051.024-.216.1-.031.015-.195.093-.041.02-.208.1-.043.021-.2.1-.012.006-.2.1-.045.022-.193.095-.031.015-.173.086-.032.016-.185.092-.037.018-.18.09-.177.089-.037.019-.165.084-.028.014-.143.073-.029.015-.153.079-.029.015-.149.077-.142.074-.029.015-.131.068-.02.011-.111.058-.022.012-.113.059-.026.014-.105.056-.1.053-.023.013-.09.047h-.007l-.083.044h-.005l-.073.04-.014.007-.056.03-.014.007-.046.025-.01.005-.041.023h-.006l-.027.015h-.005l-.019.01h-.006-.007l-6.795 3.884 18.118 10.409 6.178-4.122h.007.006l.019-.01.031-.017.043-.023.01-.005.046-.025.014-.007.056-.03.014-.007.072-.039h.009l.08-.043h.008l.091-.049.02-.011.211-.112.023-.012.115-.061.022-.011.112-.059.02-.01.131-.068.029-.015.142-.074.148-.076.03-.016.152-.078.031-.016.14-.072.03-.015.165-.084.035-.018.177-.09.179-.09.039-.02.183-.091.035-.017.172-.085.031-.016.193-.095.046-.022.2-.1h.009l.2-.1.043-.021.208-.1.039-.018.2-.094.031-.015.216-.1.05-.024.223-.1.015-.007.216-.1.049-.023.225-.1.043-.02.213-.1.031-.014.232-.1.053-.024.238-.105.016-.007.228-.1.052-.023.236-.1.046-.02.221-.095.034-.015.242-.1.054-.023.245-.1.078-.032.193-.079.106-.043.165-.067.115-.046.157-.062.118-.046.154-.06.12-.046.152-.058.121-.046.15-.056.122-.045.148-.054.123-.044.147-.052.122-.043.146-.051.121-.042.146-.049.119-.04.148-.048.117-.038.148-.047.114-.036.152-.046.106-.032.163-.047.093-.027.206-.057.047-.013.236-.062.072-.019.162-.041.084-.02.151-.035.082-.019.164-.035.062-.014.22-.043.042-.008.174-.031.072-.012.125-.02.173-.024.08-.011c.083-.01.164-.02.244-.027.993-.094 1.825-.149 2.558-.2l.211-.014h.072l.165-.011h.06l.211-.015h.04l.168-.012h.062l.165-.013h.04l.195-.016h.049l.149-.014.056-.005.189-.019h.007l.179-.02.054-.006.142-.017.048-.006.181-.025.036-.005.1-.015h.024q.143-.022.286-.047l.051-.009q.135-.024.27-.052l.035-.007q.144-.03.29-.065l.063-.015c.1-.023.2-.048.3-.075h.009l.114-.032.079-.022.149-.044.06-.018.213-.067.045-.015.173-.058.082-.029.141-.05.094-.035.134-.05.1-.039.132-.052.107-.043.1-.042.035-.015.072-.03.164-.07.077-.033.187-.082.054-.024.246-.112.062-.029.195-.091.086-.041.189-.091.081-.04.274-.136q.125-.062.25-.135l-17.5-10.171q-.125.072-.25.135l-.274.136-.081.039-.189.091-.086.041-.195.092-.062.029-.246.112-.054.024-.187.083-.077.033-.164.07-.071.03-.138.056-.106.043-.133.052-.1.039-.135.05-.093.035-.144.051-.078.028-.176.059-.042.014-.213.068-.06.018-.149.044-.079.022-.123.034c-.1.027-.2.052-.3.075l-.063.015c-.1.023-.194.045-.29.065l-.035.007q-.135.028-.27.052l-.051.009q-.143.025-.286.047l-.126.019h-.034l-.182.025-.047.006-.144.018-.053.006-.182.02h-.005l-.19.019-.055.005-.15.014h-.049l-.2.016h-.04l-.164.013h-.062l-.168.012h-.04l-.212.015h-.06l-.166.011h-.071l-.212.014c-.733.048-1.565.1-2.558.2-.08.008-.161.017-.244.027l-.08.011-.173.024-.04.005-.085.014-.073.012-.173.031-.043.008-.22.043-.062.013-.163.035-.082.019-.151.035-.084.02-.162.04-.073.018-.234.062-.049.014-.2.057-.094.027-.162.047-.106.032-.152.046-.114.036-.148.047-.116.038-.147.048-.119.04-.147.049-.122.042-.146.051-.123.043-.147.052-.123.044-.149.054-.122.045-.15.056-.121.046-.152.058-.12.046-.154.06-.118.046-.158.063-.114.045-.166.067-.105.042-.192.079-.078.032h-.005l-.24.1-.054.022z" fill="url(#b)" transform="translate(-808.291 -932.896)"/><g clip-path="url(#c)" transform="translate(159.25 62.717)"><path d="m1540.1 782.529-17.5-10.171" fill="#c29221" transform="translate(-1484.576 -772.361)"/><path d="m1321.141 772.512 3.639 9.976 13.863.2c-.406.279-6.1 3.524-12.274 7.088-3.211 1.854-6.552 3.794-9.343 5.441a26.013 26.013 0 0 0 -5.032 3.952l-17.5-10.171a26.018 26.018 0 0 1 5.032-3.952c2.791-1.647 6.132-3.588 9.343-5.441 6.173-3.564 11.868-6.808 12.274-7.088" fill="#be922e" transform="translate(-1283.148 -772.495)"/><path d="m1197.5 926.507 17.5 10.171a8.218 8.218 0 0 0 1.621-1.29c.308-.3.618-.64.932-1 .433-.5.874-1.047 1.327-1.631l-3.708-2.154 3.708 2.154c.484-.625.982-1.291 1.5-1.98.558-.747 1.143-1.53 1.762-2.329.677-.874 1.394-1.766 2.16-2.646.646-.744 1.326-1.479 2.045-2.19l-17.5-10.171c-.719.711-1.4 1.447-2.045 2.19-.765.881-1.483 1.772-2.16 2.646-.619.8-1.2 1.582-1.762 2.329-.515.689-1.012 1.355-1.5 1.98-.453.584-.894 1.132-1.327 1.631-.315.362-.625.7-.933 1a8.222 8.222 0 0 1 -1.62 1.29z" fill="url(#d)" transform="translate(-1197.496 -896.939)"/></g><path d="m969.268 802.062q-.125.072-.25.135a15.219 15.219 0 0 1 -7.354 1.906c-.734.048-1.566.1-2.558.2-4.573.433-13.411 5.3-13.5 5.348l-6.566 3.791 6.566-3.844c.089-.05 8.935-4.92 13.517-5.354.993-.094 1.825-.148 2.559-.2a15.18 15.18 0 0 0 7.338-1.9q.124-.062.248-.134c1.687-.974 3.391-3.257 5.35-5.879 2.759-3.693 6.192-8.291 11.024-11.141 2.787-1.644 6.12-3.58 9.326-5.431 6.363-3.674 12.2-6.995 12.291-7.045-.088.1-5.917 3.418-12.274 7.088-3.211 1.854-6.552 3.794-9.343 5.441-4.818 2.843-8.245 7.431-11 11.118-1.963 2.63-3.673 4.92-5.374 5.901z" fill="#c59422" transform="translate(-810.018 -709.778)"/><path d="m1425.486 848.644-15.555-11.209 7.039 16.251z" fill="#020202" opacity=".11" transform="translate(-1225.836 -767.108)"/><path d="m1187.787 1316.12-.034-.015-.221-.095-.045-.02-.237-.1-.051-.022-.229-.1-.016-.007-.237-.106-.053-.024-.232-.1-.032-.014-.211-.1-.045-.02-.225-.1-.047-.022-.219-.1-.012-.005-.223-.1-.051-.024-.216-.1-.031-.015-.195-.093-.041-.019-.208-.1-.043-.021-.2-.1-.012-.006-.2-.1-.045-.022-.193-.095-.031-.016-.173-.086-.032-.016-.185-.092-.037-.018-.18-.09-.177-.089-.036-.019-.166-.084-.028-.014-.143-.073-.03-.015-.153-.079-.029-.015-.148-.077-.142-.074-.029-.015-.131-.068-.02-.01-.112-.058-.022-.012-.113-.06-.027-.014-.1-.056-.1-.053-.023-.012-.09-.048h-.008l-.083-.044h-.005l-.073-.04-.014-.008-.056-.03-.014-.008-.046-.025-.01-.005-.041-.023h-.006l-.027-.015h-.005l-.019-.01h-.006-.008l-6.566-3.791 17.5-10.171 6.566 3.791h.007.006l.019.01.031.017.043.024.01.005.046.025.013.008.056.03.014.007.073.039h.009l.08.043h.008l.091.049.02.011.211.112.023.012.115.06.022.011.112.059.02.011.131.068.029.015.142.074.148.076.031.015.152.078.031.016.14.072.031.016.165.084.035.018.177.09.179.09.039.02.183.091.035.018.172.085.031.015.193.095.046.022.2.1h.009l.2.1.043.021.208.1.039.019.2.094.031.014.216.1.05.024.223.1.015.007.216.1.049.023.225.1.043.02.213.1.031.014.232.1.053.024.237.106.016.007.228.1.052.023.236.1.046.02.221.094.034.015.242.1.053.023.245.1.078.032.193.079.106.043.166.067.115.046.157.062.118.046.154.06.12.046.152.058.121.046.15.056.123.045.148.054.123.044.147.052.123.043.146.051.121.042.147.049.119.04.147.048.117.038.148.047.114.036.153.046.106.032.163.047.093.027.206.057.047.013.236.062.072.018.163.041.083.02.151.035.082.019.164.036.062.013.22.043.042.008.174.031.072.012.125.02.173.024.08.011c.083.01.164.019.244.027.993.094 1.825.148 2.558.2l.211.014h.072l.165.011h.061l.212.015h.04l.168.012.062.005.165.012h.04l.2.016h.049l.149.013.056.005.189.019h.008l.179.02.054.006.142.018.048.006.181.025.036.005.1.015h.024l.286.047.051.01q.135.025.27.052l.035.007c.1.02.193.042.29.065l.063.015c.1.023.2.048.3.075h.01l.114.032.079.022.149.044.06.018.213.068.045.015.173.058.081.029.141.05.094.035.134.05.1.04.133.052.107.043.1.042.035.015.072.03.164.07.078.033.187.082.054.024.246.112.062.029.194.091.086.041.188.091.082.04.274.135c.083.042.166.087.25.135l-17.5 10.171q-.125-.072-.25-.135l-.274-.135-.081-.04-.189-.091-.086-.041-.195-.092-.062-.029-.246-.112-.053-.024-.187-.083-.077-.033-.164-.07-.072-.03-.138-.057-.106-.043-.133-.052-.1-.039-.135-.05-.093-.035-.144-.051-.078-.028-.176-.059-.042-.014-.213-.068-.06-.018-.149-.044-.079-.022-.123-.034c-.1-.027-.2-.052-.3-.075l-.063-.015q-.145-.035-.29-.065l-.035-.007q-.135-.028-.27-.052l-.051-.009q-.142-.025-.286-.047l-.126-.019-.034-.005-.182-.025-.047-.006-.144-.018-.053-.006-.182-.02-.19-.019-.055-.005-.15-.013h-.049l-.195-.016h-.041l-.164-.013h-.062l-.168-.012h-.04l-.211-.015h-.06l-.166-.011h-.071l-.212-.014c-.733-.048-1.565-.1-2.558-.2-.08-.007-.162-.017-.244-.027l-.08-.011-.173-.024-.04-.005-.085-.014-.073-.012-.173-.031-.043-.008-.22-.044-.062-.013-.163-.035-.082-.019-.151-.035-.084-.02-.162-.04-.072-.018-.233-.062-.049-.014-.2-.057-.094-.027-.162-.047-.106-.032-.152-.046-.114-.036-.148-.047-.116-.037-.148-.048-.119-.04-.147-.049-.121-.042-.146-.051-.123-.043-.146-.052-.123-.044-.149-.054-.122-.045-.15-.056-.122-.046-.152-.058-.12-.046-.154-.06-.118-.046-.158-.063-.114-.045-.166-.067-.105-.042-.192-.079-.078-.032-.24-.1-.054-.022z" fill="url(#e)" transform="translate(-1028.902 -1166.775)"/><g clip-path="url(#f)" transform="translate(175.85 143.509)"><path d="m1775.584 1648.994-17.5 10.171" fill="#c29221" transform="translate(-1720.06 -1619.425)"/><path d="m1556.625 1534.568 3.639-9.976 13.863-.195c-.406-.279-6.1-3.524-12.274-7.088-3.211-1.854-6.552-3.794-9.343-5.442a26 26 0 0 1 -5.032-3.952l-17.5 10.171a26.013 26.013 0 0 0 5.032 3.952c2.791 1.647 6.133 3.588 9.343 5.441 6.173 3.564 11.868 6.809 12.274 7.088" fill="#be922e" transform="translate(-1518.632 -1494.847)"/><path d="m1432.98 1406.344 17.5-10.171a8.239 8.239 0 0 1 1.621 1.291c.308.3.618.64.933 1 .433.5.874 1.047 1.326 1.631l-3.707 2.155 3.707-2.155c.484.625.982 1.291 1.5 1.98.557.747 1.143 1.531 1.761 2.329.677.874 1.395 1.765 2.16 2.646.646.744 1.326 1.479 2.045 2.19l-17.5 10.171c-.719-.711-1.4-1.447-2.045-2.19-.765-.881-1.482-1.773-2.16-2.646-.619-.8-1.2-1.582-1.762-2.329-.515-.689-1.012-1.355-1.5-1.98-.452-.584-.893-1.132-1.326-1.63-.315-.362-.625-.7-.933-1a8.222 8.222 0 0 0 -1.62-1.292z" fill="url(#g)" transform="translate(-1432.98 -1396.173)"/></g><path d="m1204.752 1397.25q-.125-.072-.25-.135a15.221 15.221 0 0 0 -7.354-1.906c-.733-.048-1.565-.1-2.558-.2-4.573-.432-13.411-5.3-13.5-5.348l-6.566-3.791 6.566 3.844c.089.05 8.935 4.921 13.517 5.354.993.094 1.825.148 2.56.2a15.177 15.177 0 0 1 7.338 1.9q.125.062.249.134c1.687.974 3.391 3.256 5.35 5.879 2.759 3.693 6.193 8.29 11.024 11.141 2.787 1.645 6.12 3.58 9.326 5.432 6.363 3.674 12.2 6.995 12.291 7.045-.088-.1-5.917-3.418-12.274-7.088-3.211-1.853-6.552-3.794-9.343-5.441-4.818-2.843-8.245-7.431-11-11.118-1.965-2.63-3.675-4.92-5.376-5.902z" fill="#c59422" transform="translate(-1028.902 -1243.57)"/><path d="m1232.729 1338.623 20.064-9-7.5-3.759-16.63 10.726z" fill="#020202" opacity=".11" transform="translate(-1080.177 -1191.963)"/><path d="m441.2 1284.449.034-.015.221-.095.046-.02.237-.1.051-.022.229-.1.016-.007.237-.106.053-.024.232-.1.032-.014.211-.1.045-.02.225-.1.047-.022.219-.1.012-.006.223-.1.051-.024.216-.1.031-.015.195-.093.041-.019.208-.1.043-.021.2-.1.012-.006.2-.1.045-.022.193-.095.031-.016.173-.086.032-.016.185-.092.037-.018.18-.091.177-.09.037-.018.166-.084.028-.014.143-.073.029-.015.153-.079.029-.015.149-.077.142-.074.029-.015.131-.068.02-.011.111-.058.022-.012.113-.059.027-.014.1-.056.1-.053.023-.012.089-.048h.008l.083-.044h.005l.074-.04.014-.007.055-.03.014-.008.046-.025.01-.006.041-.022h.006l.027-.015h.005l.019-.01h.006.008l6.794-3.884-18.118-10.409-6.178 4.122h-.008-.006l-.019.01-.031.017-.043.023-.01.005-.046.025-.014.007-.056.03-.014.008-.072.039h-.009l-.08.043h-.008l-.091.049-.02.01-.211.112-.023.012-.115.06-.022.011-.112.059-.02.011-.131.068-.029.015-.142.074-.148.076-.03.016-.152.078-.031.016-.141.072-.03.016-.165.084-.035.018-.178.09-.179.09-.039.02-.183.091-.035.017-.172.085-.031.016-.193.095-.045.022-.2.1h-.009l-.2.1-.043.021-.208.1-.039.019-.2.094-.031.015-.216.1-.05.023-.223.1-.015.007-.216.1-.049.023-.225.1-.043.019-.213.1-.031.014-.232.1-.053.024-.237.106-.016.007-.228.1-.052.023-.236.1-.046.02-.221.095-.034.015-.242.1-.054.023-.245.1-.078.032-.192.079-.106.043-.166.067-.115.045-.157.063-.118.046-.154.06-.12.046-.152.058-.121.046-.15.056-.123.045-.148.054-.123.044-.147.052-.122.043-.146.051-.122.042-.147.049-.119.04-.147.048-.117.038-.148.047-.114.035-.153.046-.106.032-.163.047-.093.027-.206.057-.047.013-.236.062-.072.018-.163.04-.084.02-.151.035-.081.018-.164.035-.062.013-.22.044-.042.008-.174.031-.072.012-.125.02-.173.024-.08.011c-.082.01-.164.019-.244.027-.993.094-1.825.148-2.558.2l-.211.014h-.072l-.165.011h-.06l-.211.015h-.04l-.168.012h-.062l-.165.013h-.04l-.2.016h-.049l-.149.014-.056.005-.189.019h.004l-.179.02-.054.006-.142.017-.048.006-.181.025-.036.005-.1.015h-.024q-.143.022-.286.047l-.051.009-.27.052-.035.007q-.144.03-.29.065l-.063.015c-.1.024-.2.048-.3.075h-.009l-.114.032-.079.022-.149.044-.06.018-.213.068-.045.015-.172.058-.082.029-.141.05-.094.035-.134.05-.1.04-.132.052-.107.044-.1.042-.035.015-.072.03-.164.07-.077.033-.187.082-.054.024-.246.112-.062.029-.195.091-.086.041-.189.091-.082.04-.274.136c-.083.042-.166.087-.25.134l17.5 10.171q.125-.072.25-.135l.274-.136.081-.04.189-.091.086-.041.195-.091.062-.029.246-.112.054-.024.187-.082.077-.033.164-.07.072-.03.138-.057.107-.043.133-.052.1-.039.135-.05.093-.035.144-.051.078-.028.176-.059.042-.014.213-.067.06-.018.149-.044.079-.022.123-.034c.1-.027.2-.052.3-.075l.063-.015q.146-.035.29-.065l.035-.007q.135-.028.27-.052l.051-.009q.143-.025.286-.047l.126-.019.034-.005.182-.025.047-.006.144-.018.053-.006.182-.02h.005l.19-.019.055-.005.15-.014h.049l.2-.016h.04l.164-.013h.062l.168-.012h.04l.211-.015h.06l.166-.011h.071l.212-.014c.733-.048 1.565-.1 2.558-.2.08-.008.162-.017.244-.027l.08-.011.173-.024.04-.006.085-.014.073-.012.173-.031.044-.008.22-.044.063-.013.163-.035.082-.019.151-.035.084-.02.162-.04.073-.018.233-.062.049-.014.2-.056.094-.027.162-.047.106-.032.152-.046.114-.036.148-.047.116-.038.148-.048.119-.04.147-.049.121-.042.146-.051.123-.043.147-.052.123-.045.149-.054.122-.045.15-.056.121-.046.152-.058.12-.046.154-.06.118-.046.158-.063.114-.045.166-.067.105-.043.193-.079.078-.032h.005l.24-.1.054-.022z" fill="url(#h)" transform="translate(-339.109 -1133.658)"/><g clip-path="url(#i)" transform="translate(29.611 144.956)"><path d="m81.626 1619.825 17.5 10.171" fill="#c29221" transform="translate(-81.634 -1590.256)"/><path d="m99.383 1505.4-3.639-9.976-13.863-.195c.406-.28 6.1-3.524 12.274-7.088 3.211-1.854 6.552-3.794 9.343-5.441a26.011 26.011 0 0 0 5.032-3.952l17.5 10.171a26 26 0 0 1 -5.032 3.953c-2.791 1.647-6.132 3.588-9.343 5.441-6.173 3.564-11.868 6.809-12.274 7.088" fill="#be922e" transform="translate(-81.859 -1465.677)"/><path d="m338.585 1377.174-17.502-10.174a8.224 8.224 0 0 0 -1.621 1.29c-.308.3-.618.64-.933 1-.433.5-.874 1.047-1.326 1.631l3.707 2.155-3.707-2.155c-.484.625-.982 1.291-1.5 1.98-.558.747-1.143 1.53-1.762 2.329-.677.874-1.394 1.765-2.16 2.646-.646.743-1.326 1.479-2.045 2.19l17.5 10.171c.719-.711 1.4-1.447 2.045-2.19.765-.881 1.483-1.773 2.16-2.646.619-.8 1.2-1.582 1.762-2.329.515-.689 1.012-1.355 1.5-1.98.452-.583.893-1.132 1.326-1.631.315-.362.625-.7.933-1a8.227 8.227 0 0 1 1.623-1.287z" fill="url(#j)" transform="translate(-283.068 -1367.003)"/></g><path d="m269.522 1368.08q.125-.072.25-.135a15.222 15.222 0 0 1 7.354-1.906c.733-.048 1.565-.1 2.558-.2 4.573-.433 13.411-5.3 13.5-5.348l6.566-3.791-6.566 3.844c-.089.049-8.935 4.92-13.517 5.354-.993.094-1.825.148-2.56.2a15.176 15.176 0 0 0 -7.338 1.9q-.124.062-.248.134c-1.687.974-3.391 3.256-5.35 5.879-2.759 3.694-6.192 8.29-11.024 11.141-2.787 1.645-6.12 3.58-9.326 5.431-6.363 3.674-12.2 7-12.291 7.045.088-.1 5.917-3.418 12.274-7.088 3.211-1.854 6.552-3.794 9.343-5.441 4.818-2.843 8.245-7.431 11-11.118 1.964-2.629 3.674-4.919 5.375-5.901z" fill="#c59422" transform="translate(-184.394 -1212.954)"/><path d="m885.856 1537.884 3.784-1.043s3.294 2.887 3.294 4.972l-3.294.642s-1.479-4.09-3.784-4.571z" fill="url(#k)" transform="translate(-770.524 -1378.268)"/><path d="m296.53 1164.9-3.784-1.043s-2.18-.625-3.088 3.472l3.294.642s1.014-3.78 3.578-3.071z" fill="url(#k)" transform="translate(-244.053 -1048.874)"/><path d="m1647.144 1333.04-3.784 1.042s-3.294-2.887-3.294-4.972l3.294-.641s1.479 4.089 3.784 4.571z" fill="url(#l)" transform="translate(-1436.526 -1194.266)"/><path d="m1232.373 1664.278-.937.818 1.327.9 1.325-.858z" fill="url(#k)" transform="translate(-1075.687 -1490.801)"/><path d="m782.061 1657.564-.937-.614 1.327-.672 1.326.643z" fill="url(#m)" transform="translate(-678.04 -1483.736)"/><path d="m631.426 1517.005-.937.819 1.327.9 1.326-.858z" fill="url(#k)" transform="translate(-545.022 -1360.752)"/><path d="m255.6 1250-1.265-.6-.824 1.374 1.692.863z" fill="url(#n)" transform="translate(-212.13 -1124.45)"/><path d="m1767.706 1424.811-.937.819 1.327.9 1.325-.858z" fill="url(#k)" transform="translate(-1548.411 -1279.341)"/><path d="m565.281 786.541v-66.688l59.054-34.1v66.667z" fill="url(#o)" transform="translate(-437.023 -625.221)"/><path d="m407.9 752.661v-66.661l58.9 34v66.7z" fill="url(#p)" transform="translate(-338.53 -625.379)"/><path d="m407.893 628.987 59.083-34.087 58.864 34-59.053 34.1z" transform="translate(-338.528 -568.367)"/><path d="m631.493 795.14v-66.226l17.583-7.451v63.5z" fill="url(#q)" transform="translate(-478.032 -648.308)"/><path d="m484.344 797.8v-67.155l-17.452-6.373v63.434z" fill="url(#r)" transform="translate(-377.875 -649.058)"/><path d="m565.259 718.964v-13.478l65.214-37.657v13.454z" fill="url(#o)" transform="translate(-437.01 -614.005)"/><path d="m391.457 681.55v-13.444l65.043 37.548v13.49z" fill="url(#p)" transform="translate(-328.242 -614.178)"/><path d="m391.454 605.143 65.246-37.643 65 37.537-65.209 37.663z" fill="url(#s)" transform="translate(-328.24 -551.221)"/><path d="m7.97 0-.005 1.858-7.965 8.11.005-1.857z" fill="#bc8e21" transform="matrix(.99862953 .05233596 -.05233596 .99862953 112.65733299804 30.84562265153)"/><g clip-path="url(#t)" transform="matrix(.99862953 .05233596 -.05233596 .99862953 106.85921052555 38.6638869686)"><path d="m5.386 0-.005 1.857c-1.794 1.859-3.588 3.436-5.381 5.331l.005-1.858c1.795-1.895 3.588-3.471 5.381-5.33" fill="#ad831e"/></g><path d="m5.4 3.117v1.857l-5.4-3.116.005-1.858z" fill="#896718" transform="matrix(.99862953 .05233596 -.05233596 .99862953 99.51468873228 44.53855536971)"/><path d="m29.519 0-.005 1.857-29.514 9.085.005-1.857z" fill="#c39322" transform="matrix(.99862953 .05233596 -.05233596 .99862953 105.21863057403 38.86129618271)"/><path d="m22.556 0-.005 1.857-22.551 13.105.005-1.862z" fill="#c59422" transform="matrix(.99862953 .05233596 -.05233596 .99862953 120.4805958624 44.43969076655)"/><path d="m4.545 2.621-.006 1.857-4.539-2.62.005-1.858z" fill="#896718" transform="matrix(.99862953 .05233596 -.05233596 .99862953 115.39912622109 54.67176983663)"/><path d="m2.582 1.488-.005 1.857-2.577-1.488.005-1.857z" fill="#896718" transform="matrix(.99862953 .05233596 -.05233596 .99862953 151.06150628508 55.38817655756)"/><path d="m7.411 0-.006 1.857-7.405 4.304.005-1.861z" fill="#c59422" transform="matrix(.99862953 .05233596 -.05233596 .99862953 143.66665461543 55.00062877376)"/><g clip-path="url(#u)" transform="matrix(.99862953 .05233596 -.05233596 .99862953 153.55809730494 57.00905940308)"><path d="m2.869 2.919-.005 1.858c0-.91-1.023-1.856-2.864-2.919l.005-1.858c1.842 1.063 2.867 2.01 2.864 2.919" fill="#856417"/></g><path d="m3.042 1.753-.005 1.858-3.037-1.754.005-1.857z" fill="#896718" transform="matrix(.99862953 .05233596 -.05233596 .99862953 139.77289859598 61.18031433011)"/><path d="m4.545 2.621-.006 1.857-4.539-2.62.005-1.858z" fill="#896718" transform="matrix(.99862953 .05233596 -.05233596 .99862953 127.12949512584 62.55749704088)"/><path d="m8.02 0-.006 1.857-8.014 4.658.005-1.858z" fill="#c59422" transform="matrix(.99862953 .05233596 -.05233596 .99862953 131.76888291303 60.76084161071)"/><g clip-path="url(#v)" transform="matrix(.99862953 .05233596 -.05233596 .99862953 142.87523438718 59.99405232776)"><path d="m.006 0-.006 1.857v.069l.005-1.857c0-.023 0-.046 0-.069" fill="#946f1a" transform="translate(19.349)"/><path d="m.056 0-.006 1.857a2.632 2.632 0 0 1 -.05.443l.005-1.86a2.642 2.642 0 0 0 .051-.44" fill="#99731a" transform="translate(19.299 .069)"/><path d="m.13 0-.005 1.857a2.8 2.8 0 0 1 -.125.436l.005-1.858a2.818 2.818 0 0 0 .125-.435" fill="#9e771b" transform="translate(19.174 .509)"/><path d="m.219 0-.005 1.858a3.241 3.241 0 0 1 -.214.456l.005-1.858a3.221 3.221 0 0 0 .214-.456" fill="#a37b1c" transform="translate(18.96 .945)"/><path d="m.349 0-.005 1.858a4.065 4.065 0 0 1 -.344.509l.005-1.858a4.087 4.087 0 0 0 .344-.509" fill="#a87f1d" transform="translate(18.616 1.401)"/><path d="m.617 0-.005 1.858a5.6 5.6 0 0 1 -.612.654l.005-1.858a5.6 5.6 0 0 0 .612-.654" fill="#ad831e" transform="translate(18.004 1.91)"/><path d="m1.589 0-.005 1.857a9.765 9.765 0 0 1 -1.584 1.157l.005-1.858a9.755 9.755 0 0 0 1.584-1.156" fill="#b3861f" transform="translate(16.42 2.564)"/><path d="m2.8 0-.006 1.857-.181.107a13.5 13.5 0 0 1 -2.613 1.169l.005-1.858a13.488 13.488 0 0 0 2.614-1.168z" fill="#b88a20" transform="translate(13.626 3.721)"/><path d="m1.807 0-.007 1.858a13.84 13.84 0 0 1 -1.8.453l.005-1.857a13.844 13.844 0 0 0 1.802-.454" fill="#b3861f" transform="translate(11.824 4.996)"/><path d="m1.156 0-.005 1.857q-.573.1-1.151.161l.005-1.857q.578-.061 1.151-.161" fill="#ad831e" transform="translate(10.673 5.449)"/><path d="m.982 0-.005 1.858q-.487.048-.977.065l.005-1.858q.49-.017.977-.065" fill="#a87f1d" transform="translate(9.696 5.611)"/><path d="m.923 0-.006 1.857q-.458.016-.917 0l.005-1.857q.459.015.918 0" fill="#a37b1c" transform="translate(8.778 5.676)"/><path d="m.93.05-.005 1.857q-.463-.007-.925-.049l.005-1.858q.462.038.925.05" fill="#9e771b" transform="translate(7.853 5.63)"/><path d="m.986.11-.005 1.858q-.491-.041-.981-.11l.005-1.858q.489.07.981.11" fill="#99731a" transform="translate(6.872 5.519)"/><path d="m1.1.191-.007 1.858q-.549-.078-1.093-.191l.005-1.858q.544.113 1.095.191" fill="#946f1a" transform="translate(5.779 5.328)"/><path d="m1.314.323-.005 1.857q-.659-.137-1.309-.323l.005-1.857q.649.185 1.309.323" fill="#8f6c19" transform="translate(4.471 5.006)"/><path d="m1.79.606-.005 1.858q-.906-.259-1.785-.606l.005-1.858q.878.346 1.785.606" fill="#8a6818" transform="translate(2.686 4.399)"/><path d="m2.691 1.3-.005 1.855a20.252 20.252 0 0 1 -2.686-1.297l.005-1.858a20.226 20.226 0 0 0 2.686 1.3" fill="#856417" transform="translate(0 3.101)"/></g><path d="m34.912 11.139-29.512 9.085-5.4-3.117 15.619-17.107 4.755 2.745-7.965 8.111c-1.794 1.859-3.588 3.436-5.381 5.33l.153.089c3.235-1.063 6.011-2.072 9.215-3.117l13.915-4.675z" fill="url(#w)" transform="matrix(.99862953 .05233596 -.05233596 .99862953 100.41499314765 27.4552616798)"/><path d="m27.09 2.621-22.55 13.1-4.54-2.616 22.551-13.105z" fill="url(#x)" transform="matrix(.99862953 .05233596 -.05233596 .99862953 116.08998212454 41.58499152578)"/><path d="m30 4.3c5.03 2.9 7.159 6.145 1.825 9.244-5.15 2.993-11.362 2.089-16.239-.726l-3.037-1.753-8.01 4.661-4.539-2.626 22.551-13.1zm-11.151 6.273c3.128 1.806 5.942 1.912 8.532.407 2.619-1.524 1.849-2.993-1.281-4.799l-2.576-1.488-7.405 4.307 2.73 1.576" fill="url(#y)" transform="matrix(.99862953 .05233596 -.05233596 .99862953 127.82035102929 49.47071873003)"/><path d="m279.755 81.734-148.815-77.234a4.631 4.631 0 0 0 -4.188 0l-125.895 69.2a1.284 1.284 0 0 0 .014 2.427l149.649 80.279a4.632 4.632 0 0 0 4.189 0l125.061-72.246a1.284 1.284 0 0 0 -.015-2.426zm-5.318 2.128-120.348 68.884a4.422 4.422 0 0 1 -4 0l-142.896-76.379a1.226 1.226 0 0 1 -.013-2.317l120.192-65.9a4.423 4.423 0 0 1 4 0l143.052 73.396a1.226 1.226 0 0 1 .014 2.316z" fill="url(#z)" transform="matrix(.99862953 -.05233596 .05233596 .99862953 190.80790329051 35.96734512093)"/><path d="m241.355 69.548a1.1 1.1 0 0 1 .012 2.085l-108.391 62.906a3.982 3.982 0 0 1 -3.6 0l-128.627-69.118a1.1 1.1 0 0 1 -.011-2.086l108.287-60.908a3.981 3.981 0 0 1 3.6 0z" fill="url(#A)" transform="matrix(.99862953 -.05233596 .05233596 .99862953 210.98448471414 42.88286179827)"/><path d="m-3168.806 142.245a3.748 3.748 0 0 1 -1.658-.347l-.239-.112c-13.3-6.206-129.964-60.645-131.443-61.243-1.548-.625-1.539-1.463-1.539-1.472v-3.861a1.44 1.44 0 0 0 .753.759l132.067 62.291a3.564 3.564 0 0 0 1.59.342 3.759 3.759 0 0 0 2.005-.53l104.952-68.492a1.493 1.493 0 0 0 .635-.744c-.018 1.173-.026 2.658.01 3.308a2.506 2.506 0 0 1 -1.018 1.808c-1 .647-99.754 64.81-102.607 66.978a5.79 5.79 0 0 1 -3.508 1.315z" fill="url(#B)" transform="matrix(.9999999909 0 0 .9999999909 3518.08899705981 32.20673954058)"/><path d="m227.965 65.484-121.599-63.084a3.761 3.761 0 0 0 -3.4 0l-102.266 57.419a1.042 1.042 0 0 0 .011 1.97l121.5 65a3.76 3.76 0 0 0 3.4 0l102.26-59.434c.314-.088 1.029-1.329.094-1.871zm-5.117 1.616-97.748 56.721a2.725 2.725 0 0 1 -3.147-.165l-116.114-61.672a1 1 0 0 1 -.01-1.881l97.641-54.729a3.59 3.59 0 0 1 3.246 0l116.121 59.841a1 1 0 0 1 .011 1.885z" fill="url(#C)" transform="matrix(.99862953 -.05233596 .05233596 .99862953 217.91333362332 46.80661118076)"/><path d="m0 2.413 22.577 23.587 32.737-2.412-22.578-23.588z" fill="#a26a63" transform="matrix(.92718385 -.37460659 .37460659 .92718385 352.65977907865 88.62684569361)"/><path d="m5.271 0-5.271 14.033 22.577 23.587 5.271-14.034z" fill="url(#D)" transform="matrix(.92718385 -.37460659 .37460659 .92718385 348.67651870697 92.83869165955)"/><path d="m5.271 2.412-5.271 14.034 32.737-2.413 5.271-14.033z" fill="url(#E)" transform="matrix(.92718385 -.37460659 .37460659 .92718385 377.54146842508 104.01338951702)"/><path d="m13.6 0-7.193 18.785-6.407.472 7.191-18.785z" fill="url(#F)" transform="matrix(.92718385 -.37460659 .37460659 .92718385 390.71354352937 94.44317742305)"/><path d="m7.079 0-7.079 18.494 4.454 4.629 7.079-18.494z" fill="url(#G)" transform="matrix(.92718385 -.37460659 .37460659 .92718385 355.98912659324 92.75095163518)"/><path d="m2.689 0-2.689 7.093 23.028 23.722 2.689-7.093z" fill="url(#H)" transform="matrix(.92718385 -.37460659 .37460659 .92718385 350.14709435378 90.22660204242)"/><path d="m2.689 2.211-2.689 7.089 33.165-2.207 2.689-7.093z" fill="url(#I)" transform="matrix(.92718385 -.37460659 .37460659 .92718385 379.55607180248 101.5438861014)"/><path d="m0 2.211 23.028 23.723 33.165-2.212-23.028-23.722z" fill="url(#J)" transform="matrix(.92718385 -.37460659 .37460659 .92718385 351.81166194935 87.16835424571)"/><path d="m3.451.546 7.349-.546 8.962 9.232 13.407-.885 5.15 5.249-13.437.911 8.946 9.216-7.346.546-8.989-9.26-12.393.839-5.1-5.312 12.357-.816z" fill="url(#K)" transform="matrix(.92718385 -.37460659 .37460659 .92718385 360.41840795242 84.6217786332)"/><path d="m4.1 0-4.1 13.782 27.831 23.812 4.1-13.782z" fill="url(#L)" transform="matrix(.951 -.309 .309 .951 295.136128 119.289792)"/><path d="m4.1 3.946-4.1 13.782 33.37-3.946 4.097-13.782z" fill="url(#M)" transform="matrix(.951 -.309 .309 .951 327.742312 129.58353)"/><path d="m0 4.385 29.138 25.142 37.083-4.385-29.139-25.142z" fill="url(#N)" transform="matrix(.951 -.309 .309 .951 295.802227 108.147207)"/><path d="m2.921 0-2.921 9.736 29.138 25.142 2.921-9.736z" fill="url(#O)" transform="matrix(.951 -.309 .309 .951 294.37837 113.22024)"/><path d="m2.921 4.385-2.921 9.736 37.083-4.385 2.917-9.736z" fill="url(#P)" transform="matrix(.951 -.309 .309 .951 328.502521 123.956505)"/><path d="m12.164 0-5.634 18.489-6.53.772 5.633-18.489z" fill="url(#Q)" transform="matrix(.951 -.309 .309 .951 342.00859 121.36389)"/><path d="m5.562 0-5.562 18.256 4.99 4.282 5.562-18.256z" fill="url(#R)" transform="matrix(.951 -.309 .309 .951 306.066373 120.101637)"/><path d="m4.99 8.177 37.559-4.065-4.768-4.112-37.781 3.895z" fill="url(#S)" transform="matrix(.951 -.309 .309 .951 310.15228 114.678834)"/><path d="m30.024 25.994-30.024-25.24 6.251-.754 30.3 25.221z" fill="url(#T)" transform="matrix(.951 -.309 .309 .951 311.01946 104.915538)"/><g transform="matrix(.93969262 .34202014 -.34202014 .93969262 326.497 66.206)"><path d="m0 0 2.481 6.011 16.56.453-2.481-6.011z" fill="url(#U)" transform="translate(1.717 14.199)"/><path d="m0 10.882 2.481 6.011 10.609-10.882-2.48-6.011z" fill="url(#V)" transform="translate(18.277 3.77)"/><path d="m0 12.093 17.4.549 11.788-12.094-17.398-.548z" fill="url(#W)"/><path d="m0 0 1.743 4.254 17.4.549-1.743-4.254z" fill="url(#X)" transform="translate(0 12.093)"/><path d="m0 12.093 1.743 4.254 11.79-12.093-1.743-4.254z" fill="url(#Y)" transform="translate(17.398 .549)"/><path d="m2.076 0 3.28 8.1-2.076 2.133-3.28-8.103z" fill="url(#Z)" transform="translate(22.608 5.188)"/><path d="m0 0 3.239 8 2.973.086-3.239-8z" fill="url(#aa)" transform="translate(6.979 12.354)"/><path d="m2.973 12.205 12.049-12.116-2.847-.089-12.175 12.119z" fill="url(#ab)" transform="translate(6.979 .235)"/><path d="m17.737 2.375-17.737-.331 1.983-2.044 17.831.245z" fill="url(#ac)" transform="translate(4.87 4.943)"/></g><g transform="matrix(.848 .53 -.53 .848 281.44 25.981)"><path d="m2.6 4.188a9.431 9.431 0 0 1 3.987-3.721 4.8 4.8 0 0 1 4.174.022 6.051 6.051 0 0 1 2.321 2.175l3.834 5.9a1.673 1.673 0 0 1 -.084 1.646c-.314.5-.786.566-1.055.153l-3.835-5.9a4.325 4.325 0 0 0 -2.922-2.08 4.494 4.494 0 0 0 -3.392.995 8.6 8.6 0 0 0 -2.056 2.3 13.777 13.777 0 0 0 -1.861 5 13.966 13.966 0 0 0 .057 5.206 8.574 8.574 0 0 0 1.138 2.861l3.835 5.9a1.673 1.673 0 0 1 -.084 1.646c-.314.5-.786.566-1.055.153l-3.835-5.9a12.127 12.127 0 0 1 -1.721-5.674 18.679 18.679 0 0 1 .74-6.623 16.335 16.335 0 0 1 1.814-4.059" fill="url(#ad)" transform="translate(6.396 6.649)"/><path d="m0 47.693 17.184-2.37 28.674-45.323-17.184 2.369z" fill="#d6bc6f" transform="translate(25.251 38.962)"/><path d="m0 47.528 15.4-2.2 28.67-45.328-8.27 3.479-7.126-1.279z" fill="url(#ae)"/><path d="m33.565 41.6-27.04-38.962-6.525-2.638 24.893 38.571z" fill="url(#af)" transform="translate(8.87 42.685)"/><path d="m0 4.843 8.87-4.843 24.893 38.572-8.512 5.4z" fill="url(#ag)" transform="translate(0 42.685)"/><path d="m27.04 84.285-27.04-38.962 28.674-45.323 27.04 38.962z" fill="url(#ah)" transform="translate(15.395)"/><path d="m0 0 7.124 1.275 3.065 4.749-3.423 5.41z" fill="url(#ai)" transform="translate(28.674 2.205)"/><path d="m8.271 0-8.271 3.479 3.065 4.749z" fill="url(#aj)" transform="translate(35.799)"/><path d="m2.6 4.188a9.427 9.427 0 0 1 3.987-3.721 4.794 4.794 0 0 1 4.173.021 6.049 6.049 0 0 1 2.322 2.176l3.834 5.9a1.673 1.673 0 0 1 -.084 1.646c-.314.5-.786.566-1.055.153l-3.835-5.9a4.324 4.324 0 0 0 -2.921-2.081 4.5 4.5 0 0 0 -3.392 1 8.59 8.59 0 0 0 -2.056 2.3 13.763 13.763 0 0 0 -1.861 5 13.953 13.953 0 0 0 .057 5.207 8.563 8.563 0 0 0 1.138 2.86l3.835 5.9a1.673 1.673 0 0 1 -.084 1.646c-.315.5-.786.566-1.055.153l-3.835-5.9a12.133 12.133 0 0 1 -1.722-5.678 18.674 18.674 0 0 1 .74-6.622 16.336 16.336 0 0 1 1.814-4.06" fill="url(#ak)" transform="translate(19.776 8.261)"/></g><path d="m5.851 0a3.075 3.075 0 0 1 1.7.527 1.565 1.565 0 0 1 .67 1.187 1.974 1.974 0 0 1 -.24 1.011l-1.051 2.048a.546.546 0 0 1 -.481.243c-.192-.008-.288-.131-.214-.274l1.051-2.042a1.415 1.415 0 0 0 .114-1.167 1.469 1.469 0 0 0 -.832-.8 2.813 2.813 0 0 0 -.987-.21 4.477 4.477 0 0 0 -1.715.277 4.56 4.56 0 0 0 -1.466.864 2.8 2.8 0 0 0 -.627.786l-1.053 2.043a.547.547 0 0 1 -.481.244c-.192-.01-.288-.137-.215-.275l1.052-2.043a3.961 3.961 0 0 1 1.33-1.408 6.083 6.083 0 0 1 2-.864 5.344 5.344 0 0 1 1.445-.147" fill="url(#al)" transform="matrix(.899 -.438 .438 .899 360.170677 59.713926)"/><path d="m0 0 3.457 4.491 17.5.789-3.457-4.491z" fill="#24242d" transform="matrix(.899 -.438 .438 .899 355.865638 80.611999)"/><path d="m0 0 3.12 4.01 17.5.79-2.32-1.783-.8-2.228z" fill="url(#am)" transform="matrix(.899 -.438 .438 .899 356.250617 65.403736)"/><path d="m.546 16.263 6.671-13.984-.309-2.279-6.908 13.312z" fill="url(#an)" transform="matrix(.899 -.438 .438 .899 353.326491 68.753953)"/><path d="m7.007 0 2.812 1.731-6.908 13.312-2.911-1.543z" fill="url(#ao)" transform="matrix(.899 -.438 .438 .899 349.951324 68.472802)"/><path d="m0 13.984 6.671-13.984 17.5.79-6.671 13.984z" fill="url(#ap)" transform="matrix(.899 -.438 .438 .899 354.815547 70.563626)"/><path d="m2.147 0 .793 2.228-.851 1.639-2.089-.095z" fill="url(#aq)" transform="matrix(.899 -.438 .438 .899 370.402142 59.386681)"/><path d="m3.178 1.782-2.327-1.782-.851 1.639z" fill="#404040" transform="matrix(.899 -.438 .438 .899 373.256017 60.474671)"/><path d="m5.851 0a3.085 3.085 0 0 1 1.7.527 1.567 1.567 0 0 1 .67 1.187 1.974 1.974 0 0 1 -.241 1.011l-1.05 2.048a.544.544 0 0 1 -.48.243c-.193-.008-.289-.131-.215-.274l1.051-2.042a1.415 1.415 0 0 0 .114-1.167 1.468 1.468 0 0 0 -.832-.8 2.821 2.821 0 0 0 -.987-.21 4.5 4.5 0 0 0 -1.716.277 4.551 4.551 0 0 0 -1.465.864 2.8 2.8 0 0 0 -.627.786l-1.054 2.044a.547.547 0 0 1 -.481.243c-.192-.009-.288-.131-.214-.275l1.052-2.043a3.954 3.954 0 0 1 1.33-1.408 6.093 6.093 0 0 1 2-.863 5.332 5.332 0 0 1 1.445-.148" fill="url(#al)" transform="matrix(.899 -.438 .438 .899 363.485832 62.611751)"/><g transform="matrix(.93969262 .34202014 -.34202014 .93969262 326.497 55.884)"><path d="m0 0 2.481 6.011 16.56.453-2.481-6.011z" fill="url(#U)" transform="translate(1.717 14.199)"/><path d="m0 10.882 2.481 6.011 10.609-10.882-2.48-6.011z" fill="url(#V)" transform="translate(18.277 3.77)"/><path d="m0 12.093 17.4.549 11.788-12.094-17.398-.548z" fill="url(#W)"/><path d="m0 0 1.743 4.254 17.4.549-1.743-4.254z" fill="url(#X)" transform="translate(0 12.093)"/><path d="m0 12.093 1.743 4.254 11.79-12.093-1.743-4.254z" fill="url(#Y)" transform="translate(17.398 .549)"/><path d="m2.076 0 3.28 8.1-2.076 2.133-3.28-8.103z" fill="url(#Z)" transform="translate(22.608 5.188)"/><path d="m0 0 3.239 8 2.973.086-3.239-8z" fill="url(#aa)" transform="translate(6.979 12.354)"/><path d="m2.973 12.205 12.049-12.116-2.847-.089-12.175 12.119z" fill="url(#ab)" transform="translate(6.979 .235)"/><path d="m17.737 2.375-17.737-.331 1.983-2.044 17.831.245z" fill="url(#ac)" transform="translate(4.87 4.943)"/></g><path d="m302.7 1165.865-7.184-1.979s-4.14-1.187-5.862 6.591l6.254 1.218s1.929-7.171 6.792-5.83z" fill="url(#k)" transform="translate(-64.205 -1107.322)"/><path d="m1648.888 1334.166-4.717 1.3s-4.106-3.6-4.106-6.2l4.106-.8s1.844 5.1 4.717 5.7z" fill="url(#l)" transform="translate(-1176.475 -1224.583)"/><path d="m1233.215 1664.277-1.78 1.554 2.52 1.7 2.516-1.628z" fill="url(#k)" transform="translate(-794.88 -1488.663)"/><path d="m782.9 1658.719-1.78-1.166 2.52-1.277 2.516 1.221z" fill="url(#m)" transform="translate(-450.551 -1485.439)"/><path d="m632.268 1517.005-1.779 1.554 2.52 1.7 2.516-1.628z" fill="url(#k)" transform="translate(-357.361 -1359.089)"/><path d="m1768.548 1424.811-1.78 1.554 2.52 1.7 2.516-1.628z" fill="url(#k)" transform="translate(-1341.353 -1286.365)"/><text fill="#333" font-family="PingFang SC Bold, PingFang SC" font-size="28" transform="translate(512 80)"><tspan x="0" y="0">会员专享商品</tspan></text><rect fill="#333" height="40" rx="20" width="120" x="512" y="110"/><text fill="#d6bc6f" font-family="PingFang SC Regular, PingFang SC" font-size="22" transform="translate(528 138)"><tspan x="0" y="0">点击进入</tspan></text></svg>