<?xml version="1.0" encoding="UTF-8"?>
<svg width="24px" height="24px" viewBox="0 0 24 24" version="1.1" xmlns="http://www.w3.org/2000/svg" xmlns:xlink="http://www.w3.org/1999/xlink">
    <title>address_icon_ default</title>
    <g id="商品详情页" stroke="none" stroke-width="1" fill="none" fill-rule="evenodd">
        <g id="购买订单" transform="translate(-12.000000, -190.000000)" fill="#B0B3BF" fill-rule="nonzero">
            <g id="编组-4" transform="translate(0.000000, 172.000000)">
                <g id="address_icon_-default" transform="translate(12.000000, 18.000000)">
                    <rect id="矩形" opacity="0" x="0" y="0" width="24" height="24"></rect>
                    <path d="M12.0046875,21.5015625 L6.25078125,15.8625 C4.8515625,14.3859375 4.08046875,12.4523438 4.08046875,10.415625 C4.08046875,9.346875 4.2890625,8.30859375 4.70390625,7.33359375 C5.10234375,6.39140625 5.67421875,5.54296875 6.40078125,4.81640625 C7.12734375,4.08984375 7.97578125,3.51796875 8.91796875,3.11953125 C9.8953125,2.70703125 10.93125,2.49609375 12,2.49609375 C13.06875,2.49609375 14.1070312,2.7046875 15.0820312,3.11953125 C16.0242187,3.51796875 16.8726562,4.08984375 17.5992187,4.81640625 C18.3257812,5.54296875 18.8976562,6.39140625 19.2960937,7.33359375 C19.7085937,8.3109375 19.9195312,9.346875 19.9195312,10.415625 C19.9195312,12.5132813 19.1085937,14.4890625 17.634375,15.9820313 L17.6179687,15.9984375 L17.4515625,16.1625 L12.0046875,21.5015625 L12.0046875,21.5015625 Z M7.246875,15.6585937 L7.25390625,15.665625 L12.0046875,20.3203125 L16.8679687,15.553125 L16.8726562,15.5484375 L17.0390625,15.3867188 C18.3539062,14.0554688 19.078125,12.2882812 19.078125,10.415625 C19.078125,6.51328125 15.9046875,3.33984375 12.0023437,3.33984375 C8.1,3.33984375 4.9265625,6.51328125 4.9265625,10.415625 C4.9265625,12.2320312 5.61328125,13.9570312 6.86015625,15.2765625 L7.246875,15.6585937 Z M12,13.8445312 C10.1109375,13.8445312 8.5734375,12.3070312 8.5734375,10.4179688 C8.5734375,8.52890625 10.1109375,6.99140625 12,6.99140625 C13.8890625,6.99140625 15.4265625,8.52890625 15.4265625,10.4179687 C15.4265625,12.3070312 13.8890625,13.8445312 12,13.8445312 Z M12,7.83515625 C10.575,7.83515625 9.4171875,8.99296875 9.4171875,10.4179687 C9.4171875,11.8429687 10.575,13.0007812 12,13.0007812 C13.425,13.0007812 14.5828125,11.8429687 14.5828125,10.4179687 C14.5828125,8.99296875 13.425,7.83515625 12,7.83515625 L12,7.83515625 Z" id="形状"></path>
                </g>
            </g>
        </g>
    </g>
</svg>