<svg xmlns="http://www.w3.org/2000/svg" width="40" height="75" viewBox="0 0 40 75">
  <g id="组_3559" data-name="组 3559" transform="translate(-842 -4772)">
    <text id="有礼" transform="translate(842 4840)" fill="#333" font-size="20" font-family="PingFang SC Regular, PingFang SC"><tspan x="0" y="0">有礼</tspan></text>
    <g id="组_3557" data-name="组 3557" transform="translate(106 -44)">
      <rect id="矩形_1735" data-name="矩形 1735" width="40" height="40" transform="translate(736 4816)" fill="none"/>
      <g id="组_964" data-name="组 964" transform="translate(-885 946)">
        <rect id="矩形_17" data-name="矩形 17" width="33.929" height="38" rx="5" transform="translate(1624 3871)" fill="#fff"/>
        <path id="减去_1" data-name="减去 1" d="M31.928,23.6H2a2,2,0,0,1-2-2V0A35.088,35.088,0,0,0,16.964,4.37,35.089,35.089,0,0,0,33.928,0V21.6A2,2,0,0,1,31.928,23.6Z" transform="translate(1624 3885.404)" fill="#f52d2d"/>
        <path id="交叉_1" data-name="交叉 1" d="M0,12.142V2A2,2,0,0,1,2,0H31.928a2,2,0,0,1,2,2V12.126q-.963.54-1.964,1.024a34.635,34.635,0,0,1-15,3.362A34.9,34.9,0,0,1,0,12.142Z" transform="translate(1624 3871)" fill="#f52d2d"/>
        <g id="组_693" data-name="组 693" transform="translate(1632.482 3879.369)">
          <circle id="椭圆_10" data-name="椭圆 10" cx="8.482" cy="8.482" r="8.482" transform="translate(0 0)" fill="#fff"/>
          <g id="组_11" data-name="组 11" transform="translate(3.958 3.393)">
            <line id="直线_135" data-name="直线 135" x2="9.048" transform="translate(0 6.968)" fill="none" stroke="#ffc500" stroke-linecap="round" stroke-miterlimit="10" stroke-width="2"/>
            <line id="直线_136" data-name="直线 136" x2="9.048" transform="translate(0 3.224)" fill="none" stroke="#ffc500" stroke-linecap="round" stroke-miterlimit="10" stroke-width="2"/>
            <line id="直线_137" data-name="直线 137" y2="7.072" transform="translate(4.472 3.536)" fill="none" stroke="#ffc500" stroke-linecap="round" stroke-miterlimit="10" stroke-width="2"/>
            <g id="组_690" data-name="组 690" transform="translate(0.728 0)">
              <line id="直线_138" data-name="直线 138" x1="2.288" y2="3.016" transform="translate(5.304)" fill="none" stroke="#ffc500" stroke-linecap="round" stroke-miterlimit="10" stroke-width="2"/>
              <line id="直线_139" data-name="直线 139" x2="2.288" y2="3.016" fill="none" stroke="#ffc500" stroke-linecap="round" stroke-miterlimit="10" stroke-width="2"/>
            </g>
          </g>
        </g>
      </g>
    </g>
  </g>
</svg>
