<svg xmlns="http://www.w3.org/2000/svg" width="258" height="366" viewBox="0 0 258 366">
  <g id="组_3483" data-name="组 3483" transform="translate(6995.243 1749.243)">
    <g id="组_3482" data-name="组 3482" transform="translate(-6993.243 -1747.243)">
      <path id="路径_24" data-name="路径 24" d="M257,129.121c0,69.677-56.838,126.121-127,126.121a127.663,127.663,0,0,1-69.121-20.262c-5.621-3.722-32.062,12.405-37.059,7.857-5.2-4.755,11.034-29.98,6.662-35.355A124.659,124.659,0,0,1,3,129.121C3,59.445,59.838,3,130,3S257,59.445,257,129.121Z" transform="translate(-3 -3)" fill="#fff" stroke="#999" stroke-miterlimit="10" stroke-width="4"/>
      <path id="路径_25" data-name="路径 25" stroke="#c9c9c9" d="M18.392,117.522c4-13.873,13.75-26.341,6.736-32.576C9.636,65.534-3.085,41.8.661,0" fill="none" transform="matrix(1, -0.017, 0.017, 1, 12.751, 113.039)" stroke-linecap="round" stroke-linejoin="round" stroke-miterlimit="10" stroke-width="12" opacity="0.2"/>
      <g id="组_468" data-name="组 468" transform="translate(68.485 99.395)">
        <line id="直线_78" data-name="直线 78" x2="117.03" stroke-width="4" stroke="#999" stroke-linecap="round" stroke-linejoin="round" stroke-miterlimit="10" fill="#fff"/>
        <line id="直线_79" data-name="直线 79" x2="104.711" transform="translate(0 45.17)" fill="#fff" stroke="#999" stroke-linecap="round" stroke-linejoin="round" stroke-miterlimit="10" stroke-width="4"/>
      </g>
    </g>
    <text id="还没有留言" transform="translate(-6943.313 -1393.243)" fill="#999" font-size="30" font-family="PingFang SC Regular, PingFang SC"><tspan x="0" y="0">还没有留言</tspan></text>
  </g>
</svg>
