<svg height="366" viewBox="0 0 258 366" width="258" xmlns="http://www.w3.org/2000/svg"><g stroke-miterlimit="10"><path d="m257 129.121c0 69.677-56.838 126.121-127 126.121a127.663 127.663 0 0 1 -69.121-20.262c-5.621-3.722-32.062 12.405-37.059 7.857-5.2-4.755 11.034-29.98 6.662-35.355a124.659 124.659 0 0 1 -27.482-78.361c0-69.676 56.838-126.121 127-126.121s127 56.445 127 126.121z" fill="#fff" stroke="#999" stroke-width="4" transform="translate(-1 -1)"/><path d="m18.392 117.522c4-13.873 13.75-26.341 6.736-32.576-15.492-19.412-28.213-43.146-24.467-84.946" style="stroke:#c9c9c9;fill:none;stroke-linecap:round;stroke-linejoin:round;stroke-width:12;opacity:.2" transform="matrix(1 -.017 .017 1 14.751 115.039)"/><path d="m70.485 101.395h117.03" fill="#fff" stroke="#999" stroke-linecap="round" stroke-linejoin="round" stroke-width="4"/><path d="m70.485 146.565h104.711" fill="#fff" stroke="#999" stroke-linecap="round" stroke-linejoin="round" stroke-width="4"/></g><text fill="#999" font-family="PingFang SC Regular, PingFang SC" font-size="30" transform="translate(51.93 356)"><tspan x="0" y="0">还没有留言</tspan></text></svg>