<svg height="266" viewBox="0 0 409 266" width="409" xmlns="http://www.w3.org/2000/svg"><path d="m134.574 176.682 162.839-23.062a8.725 8.725 0 0 0 7.471-8.553v-66.153a5.361 5.361 0 0 0 -5.414-5.414h-195.97z" fill="#e5e5e5" transform="translate(5.737 27.923)"/><g fill="none"><path d="m134.574 176.682 162.839-23.062a8.725 8.725 0 0 0 7.471-8.553v-66.153a5.361 5.361 0 0 0 -5.414-5.414h-195.97z" transform="translate(-.024 18.707)"/><path d="m43.5 29.5h36.812l12.235 40.493 37.57 124.078" stroke="#b3b3b3" stroke-linecap="round" stroke-linejoin="round" stroke-miterlimit="10" stroke-width="5" transform="translate(11.143 20.828)"/><path d="m89 67h195.97a5.361 5.361 0 0 1 5.414 5.414v66.153a8.55 8.55 0 0 1 -7.471 8.553l-162.839 23.062" stroke="#b3b3b3" stroke-linecap="round" stroke-linejoin="round" stroke-miterlimit="10" stroke-width="5" transform="translate(14.906 23.93)"/><path d="m161.29 121.245 23.82 40.06" stroke="#b3b3b3" stroke-linecap="round" stroke-linejoin="round" stroke-miterlimit="10" stroke-width="5"/><path d="m197.019 121.245 23.82 40.06" stroke="#b3b3b3" stroke-linecap="round" stroke-linejoin="round" stroke-miterlimit="10" stroke-width="5"/><path d="m232.748 121.245 23.82 40.06" stroke="#b3b3b3" stroke-linecap="round" stroke-linejoin="round" stroke-miterlimit="10" stroke-width="5"/><ellipse cx="158.041" cy="228.433" rx="21.654" ry="21.654" stroke="#b3b3b3" stroke-linecap="round" stroke-linejoin="round" stroke-miterlimit="10" stroke-width="5"/><ellipse cx="280.387" cy="228.433" rx="21.654" ry="21.654" stroke="#b3b3b3" stroke-linecap="round" stroke-linejoin="round" stroke-miterlimit="10" stroke-width="5"/><path d="m179.696 228.433h79.038" stroke="#b3b3b3" stroke-linecap="round" stroke-linejoin="round" stroke-miterlimit="10" stroke-width="5"/><path d="m0 0a19.546 19.546 0 0 1 19.489 19.489" stroke="#b3b3b3" stroke-linecap="round" stroke-linejoin="round" stroke-miterlimit="10" stroke-width="5" transform="matrix(.98768834 -.15643447 .15643447 .98768834 312.29 198.679)"/><path d="m264.1 172.994a16.883 16.883 0 0 1 18.523 14.969" stroke="#b3b3b3" stroke-linecap="round" stroke-linejoin="round" stroke-miterlimit="10" stroke-width="5" transform="translate(34.283 32.154)"/><ellipse cx="395.673" cy="195.129" rx="10.827" ry="10.827" stroke="#f1f1f1" stroke-linecap="round" stroke-linejoin="round" stroke-miterlimit="10" stroke-width="5"/><path d="m359.971 94.305h19.489" stroke="#e5e5e5" stroke-linecap="round" stroke-linejoin="round" stroke-miterlimit="10" stroke-width="5"/><path d="m369.715 84.561v19.489" stroke="#e5e5e5" stroke-linecap="round" stroke-linejoin="round" stroke-miterlimit="10" stroke-width="5"/><path d="m14.326 263.5h75.789" stroke="#b3b3b3" stroke-linecap="round" stroke-linejoin="round" stroke-miterlimit="10" stroke-width="5"/><path d="m103.404 263.5h158.075" stroke="#b3b3b3" stroke-linecap="round" stroke-linejoin="round" stroke-miterlimit="10" stroke-width="5"/><path d="m276.901 263.5h28.15" stroke="#b3b3b3" stroke-linecap="round" stroke-linejoin="round" stroke-miterlimit="10" stroke-width="5"/><path d="m313.767 263.5h12.992" stroke="#b3b3b3" stroke-linecap="round" stroke-linejoin="round" stroke-miterlimit="10" stroke-width="5"/><path d="m334.5 263.5h71.459" stroke="#b3b3b3" stroke-linecap="round" stroke-linejoin="round" stroke-miterlimit="10" stroke-width="5"/><path d="m54.97 195.572h19.489" stroke="#e5e5e5" stroke-linecap="round" stroke-linejoin="round" stroke-miterlimit="10" stroke-width="5"/><path d="m64.714 185.828v19.489" stroke="#e5e5e5" stroke-linecap="round" stroke-linejoin="round" stroke-miterlimit="10" stroke-width="5"/><ellipse cx="13.327" cy="95.594" rx="10.827" ry="10.827" stroke="#e5e5e5" stroke-linecap="round" stroke-linejoin="round" stroke-miterlimit="10" stroke-width="5"/><ellipse cx="295.781" cy="22.112" rx="10.827" ry="10.827" stroke="#e5e5e5" stroke-linecap="round" stroke-linejoin="round" stroke-miterlimit="10" stroke-width="5"/><path d="m148.078 12.245h19.489" stroke="#e5e5e5" stroke-linecap="round" stroke-linejoin="round" stroke-miterlimit="10" stroke-width="5"/><path d="m157.822 2.5v19.489" stroke="#e5e5e5" stroke-linecap="round" stroke-linejoin="round" stroke-miterlimit="10" stroke-width="5"/></g></svg>