<svg height="135" viewBox="0 0 135 135" width="135" xmlns="http://www.w3.org/2000/svg"><circle cx="67.5" cy="67.5" opacity=".6" r="67.5"/><g fill="none" stroke="#fff" stroke-linecap="round" stroke-linejoin="round" stroke-width="3" transform="matrix(.996 .087 -.087 .996 -292.059 -2163.71)"><path d="m527.8 2196.875 19.4 19.405a32.266 32.266 0 0 0 31.909 8.309l.213-.064a13.817 13.817 0 0 0 5.274-2.948 6.4 6.4 0 0 0 .2-9.266l-10.796-10.789a6.358 6.358 0 0 0 -9.129.056l-.1.105a6.877 6.877 0 0 1 -10 .4l-12.79-12.79a6.877 6.877 0 0 1 .4-10l.105-.1a6.359 6.359 0 0 0 .056-9.129l-10.79-10.79a6.4 6.4 0 0 0 -9.265.2 13.816 13.816 0 0 0 -2.948 5.274l-.064.214a32.267 32.267 0 0 0 8.325 31.913z"/><path d="m521.412 2160.867 19.705 19.706"/><path d="m564.034 2203.489 18.394 18.414"/></g></svg>