<svg xmlns="http://www.w3.org/2000/svg" width="25.67" height="23.418" viewBox="0 0 25.67 23.418">
  <path id="路径_6" data-name="路径 6" d="M231.508,270.15a2.437,2.437,0,0,1,.935.183,2.532,2.532,0,0,1,.783.506,2.227,2.227,0,0,1,.519.77,2.475,2.475,0,0,1,0,1.87,2.27,2.27,0,0,1-.519.77,2.685,2.685,0,0,1-.783.519,2.306,2.306,0,0,1-.935.2,2.263,2.263,0,0,1-.949-.2,2.808,2.808,0,0,1-.77-.519,2.228,2.228,0,0,1-.519-.77,2.475,2.475,0,0,1,0-1.87,2.271,2.271,0,0,1,.519-.77,2.524,2.524,0,0,1,.77-.506A2.391,2.391,0,0,1,231.508,270.15Zm10.823.054a2.538,2.538,0,0,1,.949.183,2.338,2.338,0,0,1,.783.506,2.507,2.507,0,0,1,.519.77,2.319,2.319,0,0,1,0,1.87,2.562,2.562,0,0,1-.519.77,2.466,2.466,0,0,1-.783.519,2.4,2.4,0,0,1-.949.2,2.291,2.291,0,0,1-.935-.2,2.562,2.562,0,0,1-.77-.519,2.507,2.507,0,0,1-.519-.77,2.319,2.319,0,0,1,0-1.87,2.562,2.562,0,0,1,.519-.77,2.325,2.325,0,0,1,.77-.506A2.371,2.371,0,0,1,242.332,270.2Zm4.376-14.783a2.65,2.65,0,0,1,1.132.2,1.278,1.278,0,0,1,.573.483,1.1,1.1,0,0,1,.157.613,2.183,2.183,0,0,1-.089.559c-.054.157-.161.479-.327.962s-.353,1.02-.559,1.6-.412,1.159-.613,1.732-.353,1.025-.456,1.351a2.911,2.911,0,0,1-.859,1.445,2.029,2.029,0,0,1-1.275.4H230.726l.389,2.345h13.119c.832,0,1.248.353,1.248,1.069a1.6,1.6,0,0,1-.246.9,1.092,1.092,0,0,1-.975.376H230.623a1.528,1.528,0,0,1-.872-.233,1.972,1.972,0,0,1-.586-.613,3.592,3.592,0,0,1-.376-.819,7.221,7.221,0,0,1-.219-.832c-.018-.1-.067-.353-.143-.756s-.174-.9-.286-1.494-.237-1.266-.376-2-.277-1.481-.416-2.224q-.5-2.631-1.119-5.857h-1.951a1.046,1.046,0,0,1-.649-.2,1.653,1.653,0,0,1-.43-.47,1.748,1.748,0,0,1-.233-.586,2.752,2.752,0,0,1-.067-.573,1.127,1.127,0,0,1,.353-.859,1.316,1.316,0,0,1,.949-.34h2.631a1.876,1.876,0,0,1,.832.157,1.417,1.417,0,0,1,.5.389,1.471,1.471,0,0,1,.26.5c.054.174.094.322.13.443a4.878,4.878,0,0,1,.1.586c.036.251.072.506.1.77.054.313.1.64.157.989h17.794Zm0,0" transform="translate(-222.9 -251.6)" fill="#fff"/>
</svg>
