<?xml version="1.0" standalone="no"?><!DOCTYPE svg PUBLIC "-//W3C//DTD SVG 1.1//EN" "http://www.w3.org/Graphics/SVG/1.1/DTD/svg11.dtd"><svg t="1584602189091" class="icon" viewBox="0 0 1024 1024" version="1.1" xmlns="http://www.w3.org/2000/svg" p-id="3593" xmlns:xlink="http://www.w3.org/1999/xlink" width="100" height="100"><defs><style type="text/css"></style></defs><path d="M512 0a512 512 0 1 0 512 512 512 512 0 0 0-512-512z m203.52 352.64L556.8 512l156.8 156.8a32 32 0 0 1 0 42.88 32 32 0 0 1-43.52 0L512 557.44l-158.08 157.44a31.36 31.36 0 0 1-44.8-44.8L465.92 512 308.48 354.56a32 32 0 0 1 0-45.44 30.72 30.72 0 0 1 44.8 0L512 466.56l158.72-158.08a32 32 0 0 1 45.44 0 32 32 0 0 1 0 44.8z" p-id="3594" fill="#d81e06"></path></svg>