<?xml version="1.0" standalone="no"?><!DOCTYPE svg PUBLIC "-//W3C//DTD SVG 1.1//EN" "http://www.w3.org/Graphics/SVG/1.1/DTD/svg11.dtd"><svg t="1528369617925" class="icon" style="" viewBox="0 0 1024 1024" version="1.1" xmlns="http://www.w3.org/2000/svg" p-id="1622" xmlns:xlink="http://www.w3.org/1999/xlink" width="200" height="200"><defs><style type="text/css"></style></defs><path d="M837.632 186.368C750.592 99.328 634.88 51.2 512 51.2s-238.592 48.128-325.632 135.168S51.2 389.12 51.2 512s48.128 238.592 135.168 325.632S389.12 972.8 512 972.8s238.592-48.128 325.632-135.168S972.8 634.88 972.8 512s-48.128-238.592-135.168-325.632zM512 931.84c-231.424 0-419.84-188.416-419.84-419.84s188.416-419.84 419.84-419.84 419.84 188.416 419.84 419.84-188.416 419.84-419.84 419.84z" fill="#333333" p-id="1623"></path><path d="M735.744 428.544c11.264 0 20.48-9.216 20.48-20.48s-9.216-20.48-20.48-20.48h-96.256l90.624-136.192c6.144-9.216 3.584-22.016-5.632-28.672-9.216-6.144-22.016-3.584-28.672 5.632l-105.984 158.72h-70.656c-2.048-1.024-4.608-1.536-7.168-1.536s-5.12 0.512-7.168 1.536H434.176l-105.984-158.72c-6.144-9.216-18.944-11.776-28.672-5.632-9.216 6.144-11.776 18.944-5.632 28.672l90.624 136.192H288.256c-11.264 0-20.48 9.216-20.48 20.48s9.216 20.48 20.48 20.48H491.52v155.648H288.256c-11.264 0-20.48 9.216-20.48 20.48s9.216 20.48 20.48 20.48H491.52v158.72c0 11.264 9.216 20.48 20.48 20.48s20.48-9.216 20.48-20.48v-158.72h203.264c11.264 0 20.48-9.216 20.48-20.48s-9.216-20.48-20.48-20.48H532.48V428.544h203.264z" fill="#333333" p-id="1624"></path></svg>