<svg xmlns="http://www.w3.org/2000/svg" width="135" height="135" viewBox="0 0 135 135">
  <g id="组_3494" data-name="组 3494" transform="translate(6925 1170)">
    <circle id="椭圆_433" data-name="椭圆 433" cx="67.5" cy="67.5" r="67.5" transform="translate(-6925 -1170)" opacity="0.6"/>
    <g id="组_3491" data-name="组 3491" transform="translate(-6894.533 -1139.609)">
      <path id="路径_248" data-name="路径 248" d="M12.241,15.052A3.037,3.037,0,0,0,7.79,12.488,13.361,13.361,0,0,0,0,24.667,13.911,13.911,0,0,0,7.79,37.06,3.037,3.037,0,0,0,12.241,34.5Z" transform="translate(0 14.877)" fill="none" stroke="#fff" stroke-width="3"/>
      <path id="路径_249" data-name="路径 249" d="M29.5,34.509a3.037,3.037,0,0,0,4.451,2.564,13.752,13.752,0,0,0,0-24.785A3.037,3.037,0,0,0,29.5,14.852Z" transform="translate(33.042 14.65)" fill="none" stroke="#fff" stroke-width="3"/>
      <path id="路径_250" data-name="路径 250" d="M4.418,28.154C4.418,12.77,17.585-.5,33.61-.5A28.349,28.349,0,0,1,62.248,27.628" transform="translate(3.781 -0.5)" fill="none" stroke="#fff" stroke-miterlimit="10" stroke-width="3"/>
      <path id="路径_251" data-name="路径 251" d="M44.62,23.419C42.343,33.858,34.581,44.026,18.556,43.6" transform="translate(21.237 29.247)" fill="none" stroke="#fff" stroke-linecap="round" stroke-miterlimit="10" stroke-width="3"/>
      <ellipse id="椭圆_231" data-name="椭圆 231" cx="4.273" cy="2.958" rx="4.273" ry="2.958" transform="translate(36.056 69.192)" fill="#fff"/>
    </g>
  </g>
</svg>
