<svg xmlns="http://www.w3.org/2000/svg" width="90" height="90" viewBox="0 0 90 90">
  <g id="组_2166" data-name="组 2166" transform="translate(-15514 -4619)">
    <rect id="矩形_1012" data-name="矩形 1012" width="90" height="90" rx="5" transform="translate(15514 4619)" fill="#d1d1d1"/>
    <path id="路径_320" data-name="路径 320" d="M167.954,264.19c-.276-.091-2.024-.9-.931-4.294h-.015a19.175,19.175,0,0,0,5.02-12.58c0-7.307-4.749-11.137-10.267-11.137s-10.244,3.83-10.244,11.137a19.112,19.112,0,0,0,5.026,12.61c1.115,3-.88,4.109-1.3,4.264-5.78,2.14-12.56,6.039-12.56,9.888v1.441c0,5.244,9.935,6.436,19.129,6.436s19.018-1.192,19.018-6.436v-1.441c0-3.966-6.815-7.833-12.878-9.888Zm0,0" transform="translate(15397.189 4393.431)" fill="#fff"/>
    <text id="未授权" transform="translate(15535 4699)" fill="#fff" font-size="16" font-family="PingFang SC Regular, PingFang SC"><tspan x="0" y="0">未授权</tspan></text>
  </g>
</svg>
