<svg xmlns="http://www.w3.org/2000/svg" width="114" height="123.299" viewBox="0 0 114 123.299">
  <g id="组_3498" data-name="组 3498" transform="translate(5713 2669)">
    <rect id="矩形_1715" data-name="矩形 1715" width="114" height="123" transform="translate(-5713 -2669)" fill="none"/>
    <g id="组_3497" data-name="组 3497" transform="translate(-6167 -3162.777)">
      <ellipse id="椭圆_162" data-name="椭圆 162" cx="43.689" cy="43.979" rx="43.689" ry="43.979" transform="translate(463.02 512.286)" fill="#f4f4f4"/>
      <g id="组_728" data-name="组 728" transform="translate(454 496)">
        <path id="路径_92" data-name="路径 92" d="M2.2,20.839A59.419,59.419,0,0,1,46.611.5a59.539,59.539,0,0,1,0,119.075A58.308,58.308,0,0,1,2.567,99.606" transform="translate(6.104 -0.5)" fill="none" stroke="gray" stroke-linecap="round" stroke-miterlimit="10" stroke-width="4"/>
        <path id="路径_94" data-name="路径 94" d="M2.292,5.2.043,20.566A1.733,1.733,0,0,0,2.666,22.44l14.243-5.622c1.5-.375,1.5-2.249.375-3.373L5.29,4.075A1.887,1.887,0,0,0,2.292,5.2Z" transform="translate(0.016 8.294)" fill="gray"/>
      </g>
      <g id="组_731" data-name="组 731" transform="translate(489.656 537.037)">
        <line id="直线_135" data-name="直线 135" x2="32.571" transform="translate(0 25.084)" fill="none" stroke="#707070" stroke-linecap="round" stroke-miterlimit="10" stroke-width="4"/>
        <line id="直线_136" data-name="直线 136" x2="32.571" transform="translate(0 11.606)" fill="none" stroke="#707070" stroke-linecap="round" stroke-miterlimit="10" stroke-width="4"/>
        <line id="直线_137" data-name="直线 137" y2="25.458" transform="translate(16.098 12.729)" fill="none" stroke="#707070" stroke-linecap="round" stroke-miterlimit="10" stroke-width="4"/>
        <g id="组_690" data-name="组 690" transform="translate(2.621)">
          <line id="直线_138" data-name="直线 138" x1="8.236" y2="10.857" transform="translate(19.094)" fill="none" stroke="#707070" stroke-linecap="round" stroke-miterlimit="10" stroke-width="4"/>
          <line id="直线_139" data-name="直线 139" x2="8.236" y2="10.857" fill="none" stroke="#707070" stroke-linecap="round" stroke-miterlimit="10" stroke-width="4"/>
        </g>
      </g>
    </g>
  </g>
</svg>
