<svg height="123.299" viewBox="0 0 114 123.299" width="114" xmlns="http://www.w3.org/2000/svg"><path d="m0 0h114v123h-114z" fill="none"/><ellipse cx="52.709" cy="62.488" fill="#f4f4f4" rx="43.689" ry="43.979"/><path d="m2.2 20.839a59.419 59.419 0 0 1 44.411-20.339 59.539 59.539 0 0 1 0 119.075 58.308 58.308 0 0 1 -44.044-19.969" fill="none" stroke="#808080" stroke-linecap="round" stroke-miterlimit="10" stroke-width="4" transform="translate(6.104 1.723)"/><path d="m2.292 5.2-2.249 15.366a1.733 1.733 0 0 0 2.623 1.874l14.243-5.622c1.5-.375 1.5-2.249.375-3.373l-11.994-9.37a1.887 1.887 0 0 0 -2.998 1.125z" fill="#808080" transform="translate(.016 10.517)"/><g fill="none" stroke="#707070" stroke-linecap="round" stroke-miterlimit="10" stroke-width="4"><path d="m35.656 68.344h32.571"/><path d="m35.656 54.866h32.571"/><path d="m51.754 55.989v25.458"/><path d="m65.607 43.26-8.236 10.857"/><path d="m38.277 43.26 8.236 10.857"/></g></svg>