<svg xmlns="http://www.w3.org/2000/svg" width="90" height="90" viewBox="0 0 90 90">
  <g id="组_4561" data-name="组 4561" transform="translate(-79 -1150.5)">
    <path id="路径_6972" data-name="路径 6972" d="M45,0A45,45,0,1,1,0,45,45,45,0,0,1,45,0Z" transform="translate(79 1150.5)" fill="#2ba9ea"/>
    <path id="路径_6971" data-name="路径 6971" d="M122.654,118.154h36a4.5,4.5,0,0,1,4.5,4.5v36a4.5,4.5,0,0,1-4.5,4.5h-36a4.5,4.5,0,0,1-4.5-4.5v-36a4.5,4.5,0,0,1,4.5-4.5Zm2.25,6.75a2.25,2.25,0,0,0-2.25,2.25v9a2.25,2.25,0,0,0,2.25,2.25h18a2.25,2.25,0,0,0,2.25-2.25v-9a2.25,2.25,0,0,0-2.25-2.25h-18Zm0,18a2.25,2.25,0,1,0,0,4.5h31.5a2.25,2.25,0,0,0,0-4.5H124.9Zm0,9a2.25,2.25,0,0,0,0,4.5h18a2.25,2.25,0,0,0,0-4.5h-18Zm27-27a2.25,2.25,0,0,0,0,4.5h4.5a2.25,2.25,0,0,0,0-4.5Zm0,9a2.25,2.25,0,0,0,0,4.5h4.5a2.25,2.25,0,0,0,0-4.5Z" transform="translate(-16.154 1054.846)" fill="#fff"/>
  </g>
</svg>
