<svg xmlns="http://www.w3.org/2000/svg" width="750" height="112" viewBox="0 0 750 112">
  <g id="组_3513" data-name="组 3513" transform="translate(5786 2037)">
    <rect id="矩形_1716" data-name="矩形 1716" width="750" height="112" transform="translate(-5786 -2037)" fill="#fff"/>
    <g id="组_3504" data-name="组 3504" transform="translate(791 184)">
      <rect id="矩形_1717" data-name="矩形 1717" width="50" height="50" transform="translate(-6517 -2192)" fill="none"/>
      <g id="组_3503" data-name="组 3503" transform="translate(-6570 -2952)">
        <g id="椭圆_218" data-name="椭圆 218" transform="translate(55 762)" fill="none" stroke="#45424e" stroke-width="3">
          <circle cx="23" cy="23" r="23" stroke="none"/>
          <circle cx="23" cy="23" r="21.5" fill="none"/>
        </g>
        <g id="组_1219" data-name="组 1219" transform="translate(71.902 775.142)">
          <line id="直线_135" data-name="直线 135" x2="11.261" transform="translate(0.469 13.909)" fill="none" stroke="#45424e" stroke-linecap="round" stroke-miterlimit="10" stroke-width="3"/>
          <line id="直线_136" data-name="直线 136" x2="11.261" transform="translate(0.469 7.696)" fill="none" stroke="#45424e" stroke-linecap="round" stroke-miterlimit="10" stroke-width="3"/>
          <line id="直线_137" data-name="直线 137" y2="11.736" transform="translate(6.013 8.214)" fill="none" stroke="#45424e" stroke-linecap="round" stroke-miterlimit="10" stroke-width="3"/>
          <g id="组_690" data-name="组 690" transform="translate(0 0)">
            <line id="直线_139" data-name="直线 139" x2="5.474" y2="5.474" fill="none" stroke="#45424e" stroke-linecap="round" stroke-miterlimit="10" stroke-width="3"/>
            <line id="直线_245" data-name="直线 245" x1="5.474" y2="5.474" transform="translate(6.569)" fill="none" stroke="#45424e" stroke-linecap="round" stroke-miterlimit="10" stroke-width="3"/>
          </g>
        </g>
      </g>
    </g>
    <g id="组_3507" data-name="组 3507" transform="translate(872 179)">
      <rect id="矩形_1718" data-name="矩形 1718" width="50" height="50" transform="translate(-6423 -2185)" fill="none"/>
      <g id="组_3506" data-name="组 3506" transform="translate(-6420.304 -2180.424)">
        <path id="路径_281" data-name="路径 281" d="M386.5,636a8.77,8.77,0,0,1,8.77,8.769c0,4.843-2.852,8.769-7.695,8.769" transform="translate(-358.45 -633.019)" fill="none" stroke="#45424e" stroke-linecap="round" stroke-linejoin="round" stroke-miterlimit="10" stroke-width="3"/>
        <path id="路径_282" data-name="路径 282" d="M387,667c8.749,0,14.767,7.093,14.767,15.842" transform="translate(-358.158 -646.48)" fill="none" stroke="#45424e" stroke-linecap="round" stroke-miterlimit="10" stroke-width="3"/>
        <path id="路径_283" data-name="路径 283" d="M396,695" transform="translate(-365.042 -654.152)" fill="none" stroke="#45424e" stroke-linecap="round" stroke-miterlimit="10" stroke-width="3"/>
        <g id="椭圆_238" data-name="椭圆 238" transform="translate(7.31)" fill="none" stroke="#45424e" stroke-linecap="round" stroke-linejoin="round" stroke-miterlimit="10" stroke-width="3">
          <circle cx="11.072" cy="11.072" r="11.072" stroke="none"/>
          <circle cx="11.072" cy="11.072" r="9.572" fill="none"/>
        </g>
        <path id="路径_284" data-name="路径 284" d="M348,684.059a18.059,18.059,0,1,1,36.118,0" transform="translate(-348 -644.931)" fill="none" stroke="#45424e" stroke-linecap="round" stroke-linejoin="round" stroke-miterlimit="10" stroke-width="3"/>
      </g>
    </g>
    <g id="组_3509" data-name="组 3509" transform="translate(971 175)">
      <rect id="矩形_1719" data-name="矩形 1719" width="50" height="50" transform="translate(-6356 -2181)" fill="none"/>
      <g id="组_3508" data-name="组 3508" transform="translate(-6354 -2176.665)">
        <path id="路径_82" data-name="路径 82" d="M2,34.289V4.048A3.057,3.057,0,0,1,5.048,1H36.323a3.057,3.057,0,0,1,3.048,3.048v9.79L47.6,18.906v18" transform="translate(-2 -1)" fill="none" stroke="#45424e" stroke-linecap="round" stroke-linejoin="round" stroke-miterlimit="10" stroke-width="3"/>
        <circle id="椭圆_153" data-name="椭圆 153" cx="5" cy="5" r="5" transform="translate(5.592 30.234)" fill="#fff" stroke="#45424e" stroke-linecap="round" stroke-miterlimit="10" stroke-width="3"/>
        <circle id="椭圆_154" data-name="椭圆 154" cx="5" cy="5" r="5" transform="translate(29.479 30.234)" fill="#fff" stroke="#45424e" stroke-linecap="round" stroke-miterlimit="10" stroke-width="3"/>
        <line id="直线_112" data-name="直线 112" x2="12.586" transform="translate(16.508 34.806)" fill="none" stroke="#45424e" stroke-linecap="round" stroke-miterlimit="10" stroke-width="3"/>
        <path id="路径_83" data-name="路径 83" d="M40,13v6.293h6.293" transform="translate(-10.025 2.695)" fill="none" stroke="#45424e" stroke-linecap="round" stroke-linejoin="round" stroke-miterlimit="10" stroke-width="3"/>
      </g>
    </g>
    <text id="支付开团_或参团" data-name="支付开团
或参团" transform="translate(-5658 -1981)" fill="#595757" font-size="16" font-family="PingFang SC Regular, PingFang SC"><tspan x="0" y="0">支付开团</tspan><tspan x="0" y="19">或参团</tspan></text>
    <text id="邀请好友_一起拼团" data-name="邀请好友
一起拼团" transform="translate(-5491 -1981)" fill="#595757" font-size="16" font-family="PingFang SC Regular, PingFang SC"><tspan x="0" y="0">邀请好友</tspan><tspan x="0" y="19">一起拼团</tspan></text>
    <text id="达到人数_分别发货" data-name="达到人数
分别发货" transform="translate(-5322 -1981)" fill="#595757" font-size="16" font-family="PingFang SC Regular, PingFang SC"><tspan x="0" y="0">达到人数</tspan><tspan x="0" y="19">分别发货</tspan></text>
    <g id="组_3512" data-name="组 3512" transform="translate(-5791 -3482)">
      <rect id="矩形_653" data-name="矩形 653" width="56" height="56" transform="translate(569 1470)" fill="none"/>
      <g id="组_1487" data-name="组 1487" transform="translate(572.901 1475.692)">
        <path id="路径_285" data-name="路径 285" d="M462.77,756.391a22.308,22.308,0,1,1,6.345-15.583,22.473,22.473,0,0,1-.666,6.665c-.651,2.1-1.357,2.338-1.357,2.338" transform="translate(-424.5 -718.5)" fill="none" stroke="#45424e" stroke-linecap="round" stroke-linejoin="round" stroke-miterlimit="10" stroke-width="3"/>
        <path id="路径_286" data-name="路径 286" d="M-1.242-1.994,7.038,4.875l-9.185,6.362" transform="translate(48.13 28.369) rotate(104)" fill="none" stroke="#45424e" stroke-linecap="round" stroke-linejoin="round" stroke-width="3"/>
        <g id="组_1484" data-name="组 1484" transform="translate(16.021 13.335)">
          <line id="直线_135-2" data-name="直线 135" x2="11.398" transform="translate(0.475 14.078)" fill="none" stroke="#45424e" stroke-linecap="round" stroke-miterlimit="10" stroke-width="3"/>
          <line id="直线_136-2" data-name="直线 136" x2="11.398" transform="translate(0.475 7.79)" fill="none" stroke="#45424e" stroke-linecap="round" stroke-miterlimit="10" stroke-width="3"/>
          <line id="直线_137-2" data-name="直线 137" y2="11.878" transform="translate(6.086 8.314)" fill="none" stroke="#45424e" stroke-linecap="round" stroke-miterlimit="10" stroke-width="3"/>
          <g id="组_690-2" data-name="组 690" transform="translate(0 0)">
            <line id="直线_139-2" data-name="直线 139" x2="5.541" y2="5.541" transform="translate(0 0)" fill="none" stroke="#45424e" stroke-linecap="round" stroke-miterlimit="10" stroke-width="3"/>
            <line id="直线_245-2" data-name="直线 245" x1="5.541" y2="5.541" transform="translate(6.649 0)" fill="none" stroke="#45424e" stroke-linecap="round" stroke-miterlimit="10" stroke-width="3"/>
          </g>
        </g>
      </g>
    </g>
    <text id="人数不够_自动退款" data-name="人数不够
自动退款" transform="translate(-5154 -1981)" fill="#595757" font-size="16" font-family="PingFang SC Regular, PingFang SC"><tspan x="0" y="0">人数不够</tspan><tspan x="0" y="19">自动退款</tspan></text>
  </g>
</svg>
