<svg height="112" viewBox="0 0 750 112" width="750" xmlns="http://www.w3.org/2000/svg"><g transform="translate(5786 2037)"><path d="m-5786-2037h750v112h-750z" fill="#fff"/><g fill="none"><path d="m-5726-2008h50v50h-50z"/><g stroke="#45424e" stroke-width="3"><circle cx="-5701" cy="-1983" r="23" stroke="none"/><circle cx="-5701" cy="-1983" fill="none" r="21.5"/></g><path d="m-5706.629-1978.949h11.261" stroke="#45424e" stroke-linecap="round" stroke-miterlimit="10" stroke-width="3"/><path d="m-5706.629-1985.162h11.261" stroke="#45424e" stroke-linecap="round" stroke-miterlimit="10" stroke-width="3"/><path d="m-5701.085-1984.644v11.736" stroke="#45424e" stroke-linecap="round" stroke-miterlimit="10" stroke-width="3"/><path d="m-5707.098-1992.858 5.474 5.474" stroke="#45424e" stroke-linecap="round" stroke-miterlimit="10" stroke-width="3"/><path d="m-5695.055-1992.858-5.474 5.474" stroke="#45424e" stroke-linecap="round" stroke-miterlimit="10" stroke-width="3"/><path d="m-5551-2006h50v50h-50z"/><g stroke="#45424e" stroke-linecap="round" stroke-miterlimit="10" stroke-width="3" transform="translate(-5548.304 -2001.424)"><path d="m386.5 636a8.77 8.77 0 0 1 8.77 8.769c0 4.843-2.852 8.769-7.695 8.769" stroke-linejoin="round" transform="translate(-358.45 -633.019)"/><path d="m387 667c8.749 0 14.767 7.093 14.767 15.842" transform="translate(-358.158 -646.48)"/><g stroke-linejoin="round"><g><circle cx="18.382" cy="11.072" r="11.072" stroke="none"/><circle cx="18.382" cy="11.072" fill="none" r="9.572"/></g><path d="m348 684.059a18.059 18.059 0 1 1 36.118 0" transform="translate(-348 -644.931)"/></g></g><path d="m-5385-2006h50v50h-50z"/><path d="m2 34.289v-30.241a3.057 3.057 0 0 1 3.048-3.048h31.275a3.057 3.057 0 0 1 3.048 3.048v9.79l8.229 5.068v18" stroke="#45424e" stroke-linecap="round" stroke-linejoin="round" stroke-miterlimit="10" stroke-width="3" transform="translate(-5385 -2002.665)"/></g><circle cx="-5372.408" cy="-1966.431" fill="#fff" r="5" stroke="#45424e" stroke-linecap="round" stroke-miterlimit="10" stroke-width="3"/><circle cx="-5348.521" cy="-1966.431" fill="#fff" r="5" stroke="#45424e" stroke-linecap="round" stroke-miterlimit="10" stroke-width="3"/><path d="m-5366.492-1966.859h12.586" fill="none" stroke="#45424e" stroke-linecap="round" stroke-miterlimit="10" stroke-width="3"/><path d="m40 13v6.293h6.293" style="fill:none;stroke:#45424e;stroke-linecap:round;stroke-linejoin:round;stroke-miterlimit:10;stroke-width:3" transform="translate(-5393.025 -1998.97)"/><text fill="#595757" font-family="PingFang SC Regular, PingFang SC" font-size="16" transform="translate(-5658 -1981)"><tspan x="0" y="0">支付开团</tspan><tspan x="0" y="19">或参团</tspan></text><text fill="#595757" font-family="PingFang SC Regular, PingFang SC" font-size="16" transform="translate(-5491 -1981)"><tspan x="0" y="0">邀请好友</tspan><tspan x="0" y="19">一起拼团</tspan></text><text fill="#595757" font-family="PingFang SC Regular, PingFang SC" font-size="16" transform="translate(-5322 -1981)"><tspan x="0" y="0">达到人数</tspan><tspan x="0" y="19">分别发货</tspan></text><path d="m-5222-2012h56v56h-56z" fill="none"/><path d="m462.77 756.391a22.308 22.308 0 1 1 6.345-15.583 22.473 22.473 0 0 1 -.666 6.665c-.651 2.1-1.357 2.338-1.357 2.338" style="fill:none;stroke:#45424e;stroke-linecap:round;stroke-linejoin:round;stroke-miterlimit:10;stroke-width:3" transform="translate(-5642.599 -2724.808)"/><path d="m-1.242-1.994 8.28 6.869-9.185 6.362" fill="none" stroke="#45424e" stroke-linecap="round" stroke-linejoin="round" stroke-width="3" transform="matrix(-.2419219 .97029573 -.97029573 -.2419219 -5169.969 -1977.939)"/><path d="m-5201.603-1978.895h11.398" fill="none" stroke="#45424e" stroke-linecap="round" stroke-miterlimit="10" stroke-width="3"/><path d="m-5201.603-1985.183h11.398" fill="none" stroke="#45424e" stroke-linecap="round" stroke-miterlimit="10" stroke-width="3"/><path d="m-5195.992-1984.659v11.878" fill="none" stroke="#45424e" stroke-linecap="round" stroke-miterlimit="10" stroke-width="3"/><path d="m-5202.078-1992.973 5.541 5.541" fill="none" stroke="#45424e" stroke-linecap="round" stroke-miterlimit="10" stroke-width="3"/><path d="m-5189.888-1992.973-5.541 5.541" fill="none" stroke="#45424e" stroke-linecap="round" stroke-miterlimit="10" stroke-width="3"/><text fill="#595757" font-family="PingFang SC Regular, PingFang SC" font-size="16" transform="translate(-5154 -1981)"><tspan x="0" y="0">人数不够</tspan><tspan x="0" y="19">自动退款</tspan></text></g></svg>