<svg xmlns="http://www.w3.org/2000/svg" width="32" height="32" viewBox="0 0 32 32"><defs><style>.a{fill:none;}.b{fill:#2195ff;}.c{fill:#fff;}</style></defs><g transform="translate(-80 -302)"><rect class="a" width="32" height="32" transform="translate(80 302)"/><g transform="translate(1675 -2858.998)"><path class="b" d="M235.769,942.959H212.15a4.2,4.2,0,0,0-4.15,4.213v16.47a4.209,4.209,0,0,0,4.213,4.213h23.556a4.209,4.209,0,0,0,4.213-4.213v-16.47a4.294,4.294,0,0,0-4.213-4.213Z" transform="translate(-1803 2222.039)"/><path class="c" d="M622.753,1081.377h-7.086a.894.894,0,1,0,0,1.787h7.086a.894.894,0,1,0,0-1.787Zm0,5.3h-5.3a.894.894,0,1,0,0,1.787h5.3a.894.894,0,1,0,0-1.787Zm0,5.362h-5.3a.894.894,0,1,0,0,1.787h5.3a.894.894,0,1,0,0-1.787Zm0,0" transform="translate(-2191.388 2089.877)"/><path d="M874.66,1400.58" transform="translate(-2439.528 1785.102)"/><rect class="a" width="32" height="24.938" transform="translate(-1595 3165)"/><path class="c" d="M310.092,1063.995a4.357,4.357,0,0,0,1.851-3.575,4.469,4.469,0,1,0-7.086,3.575c-2.043.766-3.639,2.49-3.639,5.682v.894h12.448v-.894c.064-3.192-1.532-4.915-3.575-5.682Z" transform="translate(-1892.006 2114.154)"/></g></g></svg>