<svg height="32" viewBox="0 0 32 32" width="32" xmlns="http://www.w3.org/2000/svg"><path d="m0 0h32v32h-32z" fill="none"/><path d="m235.769 942.959h-23.619a4.2 4.2 0 0 0 -4.15 4.213v16.47a4.209 4.209 0 0 0 4.213 4.213h23.556a4.209 4.209 0 0 0 4.213-4.213v-16.47a4.294 4.294 0 0 0 -4.213-4.213z" fill="#2195ff" transform="translate(-208 -938.959)"/><path d="m622.753 1081.377h-7.086a.894.894 0 1 0 0 1.787h7.086a.894.894 0 1 0 0-1.787zm0 5.3h-5.3a.894.894 0 1 0 0 1.787h5.3a.894.894 0 1 0 0-1.787zm0 5.362h-5.3a.894.894 0 1 0 0 1.787h5.3a.894.894 0 1 0 0-1.787zm0 0" fill="#fff" transform="translate(-596.388 -1071.121)"/><path d="m0 4.002h32v24.938h-32z" fill="none"/><path d="m310.092 1063.995a4.357 4.357 0 0 0 1.851-3.575 4.469 4.469 0 1 0 -7.086 3.575c-2.043.766-3.639 2.49-3.639 5.682v.894h12.448v-.894c.064-3.192-1.532-4.915-3.575-5.682z" fill="#fff" transform="translate(-297.006 -1046.844)"/></svg>