<svg xmlns="http://www.w3.org/2000/svg" width="199.999" height="229.107" viewBox="0 0 199.999 229.107">
  <g id="组_3451" data-name="组 3451" transform="translate(-284 -268.144)">
    <path id="路径_802" data-name="路径 802" d="M284.042,119.964V13A12.835,12.835,0,0,0,271.147,0H134.061a12.991,12.991,0,0,0-13,13V198.389a12.991,12.991,0,0,0,13,13H224.43a54.739,54.739,0,0,0,59.612-91.426Z" transform="translate(178.608 279.203)" fill="#e0e0e0"/>
    <path id="联合_39" data-name="联合 39" d="M97.225,202.766H8a8,8,0,0,1-8-8V8A8,8,0,0,1,8,0H146.839a8,8,0,0,1,8,8V120.5a50.235,50.235,0,0,1-57.614,82.261Z" transform="translate(288.608 271.697)" fill="#fff"/>
    <path id="路径_798" data-name="路径 798" d="M238.5,146.877H346.309a3.226,3.226,0,0,0,3.277-3.277v-.846a3.293,3.293,0,0,0-3.277-3.277H238.5a3.293,3.293,0,0,0-3.277,3.277v.846a3.293,3.293,0,0,0,3.277,3.277Zm0,33.822H346.309a3.226,3.226,0,0,0,3.277-3.277v-.846a3.293,3.293,0,0,0-3.277-3.277H238.5a3.293,3.293,0,0,0-3.277,3.277v.846A3.293,3.293,0,0,0,238.5,180.7Zm53.9,30.546V210.4a3.293,3.293,0,0,0-3.277-3.277H238.5a3.293,3.293,0,0,0-3.277,3.277v.846a3.293,3.293,0,0,0,3.277,3.277h50.734a3.139,3.139,0,0,0,3.171-3.277Z" transform="translate(73.086 158.365)" fill="#999"/>
    <path id="路径_799" data-name="路径 799" d="M284.042,119.964V13A12.835,12.835,0,0,0,271.147,0H134.061a12.991,12.991,0,0,0-13,13V198.389a12.991,12.991,0,0,0,13,13H224.43a54.739,54.739,0,0,0,59.612-91.426ZM134.061,204.1a5.684,5.684,0,0,1-5.708-5.708V13a5.684,5.684,0,0,1,5.708-5.708H271.147A5.684,5.684,0,0,1,276.854,13V115.313a54.152,54.152,0,0,0-26.318-6.764A54.721,54.721,0,0,0,214.072,204.1H134.061Zm116.476,6.553A47.351,47.351,0,1,1,297.888,163.3a47.409,47.409,0,0,1-47.351,47.351Z" transform="translate(162.939 268.143)" fill="#999"/>
    <path id="路径_800" data-name="路径 800" d="M713.48,892.72m-4.228,0a4.228,4.228,0,1,0,4.228-4.228A4.228,4.228,0,0,0,709.252,892.72Z" transform="translate(-300.004 -431.155)" fill="#999"/>
    <path id="路径_801" data-name="路径 801" d="M715.433,673.414c2.008,0,3.7-1.163,3.7-2.537V629.445c0-1.374-1.691-2.537-3.7-2.537s-3.7,1.163-3.7,2.537v41.432C711.734,672.252,713.425,673.414,715.433,673.414Z" transform="translate(-301.958 -225.273)" fill="#999"/>
  </g>
</svg>
