<svg xmlns="http://www.w3.org/2000/svg" width="478" height="66" viewBox="0 0 478 66">
  <g id="组_3515" data-name="组 3515" transform="translate(-258.691 -1290)">
    <text id="技术支持" transform="translate(547.691 1340)" fill="#999" font-size="47" font-family="PingFang SC Regular, PingFang SC" letter-spacing="0.006em"><tspan x="0" y="0">技术支持</tspan></text>
    <g id="组_1020" data-name="组 1020" transform="translate(341.151 1298.383)">
      <path id="路径_179" data-name="路径 179" d="M49.134.7h1.778V16.31H66.72v2.371l-7.706.2h-8.1V30.34h14.03v2.371H50.912v5.335c0,2.174-.2,3.754-.2,4.545a11.564,11.564,0,0,1-.4,2.569,3.821,3.821,0,0,1-.988,1.778s3.359.2,10.473.2H70.079v2.371H27.2V47.136l10.078-.2H46.96V32.909H40.044l-6.718-.2.2-.988V30.34H46.96V18.682H35.7l-.79,1.186a16.481,16.481,0,0,1-1.581,2.371,22.541,22.541,0,0,1-2.174,2.174A12,12,0,0,1,29.176,25.8a5.141,5.141,0,0,1-1.383.593c-.2,0-.2-.4-.2-.988v-.988l.593-.4a6.3,6.3,0,0,0,1.383-1.186,19.138,19.138,0,0,0,1.383-1.778,8.049,8.049,0,0,0,1.186-2.174,12.781,12.781,0,0,0,.79-2.569,26.439,26.439,0,0,0,.4-5.138V7.616h4.742l-.2,2.174a12.894,12.894,0,0,1-.4,3.359c-.2.79-.4,1.383-.593,2.174s-.4.79-.4.988H46.762l.2-7.706V.7h2.174Z" transform="translate(24.575 -0.303)" fill="#a1c7d2"/>
      <g id="组_1017" data-name="组 1017" transform="translate(101.771)">
        <path id="路径_180" data-name="路径 180" d="M61.8,7.4H64.17v4.742a43.564,43.564,0,0,1-.2,6.126c-.2.988-.2,1.778-.4,2.569s-.593,1.581-.79,2.569A13.158,13.158,0,0,1,61.6,25.777a13.29,13.29,0,0,1-1.383,2.174,17.814,17.814,0,0,1-1.778,1.976A46.41,46.41,0,0,1,53.7,33.286a2.868,2.868,0,0,1-.2-1.186v-.988l.593-.4a8.6,8.6,0,0,1,1.383-1.186,14.368,14.368,0,0,0,1.581-1.778A11.554,11.554,0,0,0,59.033,24a28.462,28.462,0,0,0,1.186-10.078V7.4Z" transform="translate(-53.5 7.222)" fill="#a1c7d2"/>
        <path id="路径_181" data-name="路径 181" d="M66.454,0V22.724c0,15.215.2,21.736-.2,23.712-.2.593-.4,2.964-1.976,4.545a3.338,3.338,0,0,1-.988.4H62.7V0Z" transform="translate(-44.521)" fill="#a1c7d2"/>
        <path id="路径_182" data-name="路径 182" d="M67.89,7.3a25.359,25.359,0,0,1,2.766,1.778c5.533,4.545,8.5,11.263,10.275,17.586,0,0-.79,0-2.964.2l-3.162.4C73.621,21.725,73.621,15.8,67.89,9.078l-.79-.79S67.693,7.3,67.89,7.3Z" transform="translate(-40.227 7.125)" fill="#a1c7d2"/>
      </g>
      <g id="组_1018" data-name="组 1018" transform="translate(147.023 0.79)">
        <path id="路径_183" data-name="路径 183" d="M105.947.6c0,1.976-1.186,4.742-2.766,5.335H122.15V8.3H87.57V20.95c0,8.5-.2,13.239-.4,14.227-.2.79-.79,7.114-5.138,11.461-.4.4-.988.79-1.581,1.383A20.83,20.83,0,0,1,78.283,49.4a4.891,4.891,0,0,0-1.186.79,2.4,2.4,0,0,1-.2-.988v-.988l.593-.4a12.622,12.622,0,0,0,4.15-5.335c1.976-3.754,2.174-10.67,2.174-21.341V4.747H87.57v.988H101.8L101.6.4A30.594,30.594,0,0,0,105.947.6Zm-1.383,10.67h2.371v6.718h13.634l-.2,1.383v1.186h-6.718l-6.718.2v2.174a14.059,14.059,0,0,1-.2,3.162,5.759,5.759,0,0,1-.988,3.162,2.841,2.841,0,0,0-.4.593h8.3V25.3h3.754V43.081a7.524,7.524,0,0,1-.2,2.569,6.689,6.689,0,0,1-.593,1.581c-.2.4-.4.988-.79,1.186a3.469,3.469,0,0,1-.988.79,2.856,2.856,0,0,1-1.383.4V44.86H96.265a1.969,1.969,0,0,1-.2.79,8.554,8.554,0,0,1-.988,2.371,6.707,6.707,0,0,1-1.186,1.186c-.593.2-1.383.4-1.383.4V25.3h3.754v4.347h6.521V11.268Zm.2,20.55h-8.3V42.884l8.3-.2h9.09V31.818Z" transform="translate(-76.9 -0.4)" fill="#a1c7d2"/>
      </g>
      <g id="组_1019" data-name="组 1019" transform="translate(0 0.002)">
        <path id="路径_184" data-name="路径 184" d="M19.167,8.2c-.4,2.569-5.138,9.88-6.323,11.066v9.682l-.2,10.078-.2.79a3.972,3.972,0,0,1-.79,1.581,2.381,2.381,0,0,1-.988.988,1.781,1.781,0,0,1-.988.2h-.4V23.215C7.9,24.8,2.766,29.538.988,30.329c-.2,0-.79-.79-.988-.988C5.73,24.4,12.646,14.718,14.622,8A45.475,45.475,0,0,0,19.167,8.2Z" transform="translate(0 6.82)" fill="#a1c7d2"/>
        <path id="路径_185" data-name="路径 185" d="M36.452,30.234c0-1.581-.2-3.557-.2-3.557l-.593.2a2.446,2.446,0,0,0-.593.4v.79a36.416,36.416,0,0,1-1.383,8.694,3.273,3.273,0,0,1-2.964,2.174c-.988,0-8.5.2-8.5.2a2.429,2.429,0,0,1-2.174-2.569V27.665C24,25.294,31.314,19.168,32.7,12.45a.194.194,0,0,0-.2-.2c-.2,0-3.557-.593-3.754-.593l-.4.4c-.2.2-2.766,7.706-8.3,11.461v-7.9l-.2-7.311H15.7V26.479l-.79.4c-.593.4-1.383.79-1.976,1.186-.79.4-1.778.79-2.569,1.186-.4.2-.988.4-1.383.593s-.988.2-.988.4a.726.726,0,0,0-.2.593v.79s1.976-.4,3.162-.79c1.581-.4,3.162-.988,4.94-1.581V33a24.145,24.145,0,0,0,.2,4.347c.2.4.2.988.4,1.581a4.134,4.134,0,0,0,.79,1.186,6.255,6.255,0,0,0,2.371,1.581c2.569.2,10.67-.4,12.844-.4,2.964-.2,3.952-2.569,3.952-4.545V30.234Z" transform="translate(7.613 7.113)" fill="#a1c7d2"/>
        <path id="路径_186" data-name="路径 186" d="M38.841,6.23H32.716V.5H28.961V6.23H15.722V.5H11.77V6.23H1.1V8.6H11.968V14.53h0a2.93,2.93,0,0,0,1.383-.2C15.722,13.146,15.92,8.6,15.92,8.6H28.961V14.53h0a2.93,2.93,0,0,0,1.383-.2c2.371-1.186,2.569-5.73,2.569-5.73H43.189V6.23Z" transform="translate(1.074 -0.5)" fill="#a1c7d2"/>
      </g>
    </g>
    <g id="组_3539" data-name="组 3539" transform="translate(258.691 1293.05)">
      <circle id="椭圆_441" data-name="椭圆 441" cx="30" cy="30" r="30" fill="#a1c7d2"/>
      <g id="组_3537" data-name="组 3537" transform="translate(12 11.76)">
        <g id="组_1050" data-name="组 1050" transform="translate(0 0)">
          <path id="XMLID_17_" d="M20.058,2.856a17.84,17.84,0,0,0-1.23,1.435c-2.152,2.767-1.844,4.509-4.3,6.558C12.168,12.9,7.762,12.386,3.458,16.69a11.566,11.566,0,0,0,0,16.5,11.566,11.566,0,0,0,16.5,0c4.3-4.3,3.894-8.71,5.841-11.067,2.049-2.357,3.791-2.049,6.558-4.3a5.392,5.392,0,0,0,1.435-1.23,9.834,9.834,0,0,0,0-13.833A9.8,9.8,0,0,0,20.058,2.856Z" transform="translate(0 0)" fill="#fff"/>
          <g id="组_1047" data-name="组 1047" transform="translate(8.816 32.848) rotate(-40)">
            <ellipse id="椭圆_198" data-name="椭圆 198" cx="0.814" cy="0.814" rx="0.814" ry="0.814" transform="translate(0 0)" fill="#f05638"/>
            <ellipse id="椭圆_199" data-name="椭圆 199" cx="0.814" cy="0.814" rx="0.814" ry="0.814" transform="translate(0 0)" fill="#f05638"/>
            <ellipse id="椭圆_200" data-name="椭圆 200" cx="0.814" cy="0.814" rx="0.814" ry="0.814" transform="translate(4.419 0)" fill="#f05638"/>
            <ellipse id="椭圆_201" data-name="椭圆 201" cx="0.814" cy="0.814" rx="0.814" ry="0.814" transform="translate(8.838 0)" fill="#f05638"/>
            <ellipse id="椭圆_202" data-name="椭圆 202" cx="0.814" cy="0.814" rx="0.814" ry="0.814" transform="translate(13.256 0)" fill="#f05638"/>
            <ellipse id="椭圆_203" data-name="椭圆 203" cx="0.814" cy="0.814" rx="0.814" ry="0.814" transform="translate(2.326 3.256)" fill="#f05638"/>
            <ellipse id="椭圆_204" data-name="椭圆 204" cx="0.814" cy="0.814" rx="0.814" ry="0.814" transform="translate(2.326 3.256)" fill="#f05638"/>
            <ellipse id="椭圆_205" data-name="椭圆 205" cx="0.814" cy="0.814" rx="0.814" ry="0.814" transform="translate(6.744 3.256)" fill="#f05638"/>
            <ellipse id="椭圆_206" data-name="椭圆 206" cx="0.814" cy="0.814" rx="0.814" ry="0.814" transform="translate(11.163 3.256)" fill="#f05638"/>
          </g>
          <g id="组_1048" data-name="组 1048" transform="translate(28.044 15.102) rotate(-40)">
            <ellipse id="椭圆_203-2" data-name="椭圆 203" cx="0.814" cy="0.814" rx="0.814" ry="0.814" transform="translate(0 0)" fill="#f05638"/>
            <ellipse id="椭圆_204-2" data-name="椭圆 204" cx="0.814" cy="0.814" rx="0.814" ry="0.814" transform="translate(0 0)" fill="#f05638"/>
            <ellipse id="椭圆_205-2" data-name="椭圆 205" cx="0.814" cy="0.814" rx="0.814" ry="0.814" transform="translate(4.419 0)" fill="#f05638"/>
          </g>
        </g>
        <g id="组_1185" data-name="组 1185" transform="translate(5.026 6.414)">
          <path id="减去_1" data-name="减去 1" d="M9.039,32.537h0a11.457,11.457,0,0,1-4.291-.826A11.166,11.166,0,0,1,.994,29.232,11.28,11.28,0,0,1,0,28.095a11.6,11.6,0,0,0,6.72,2.137,11.4,11.4,0,0,0,8.21-3.458,17.107,17.107,0,0,0,4.222-7.51,10.747,10.747,0,0,1,1.619-3.557,8.794,8.794,0,0,1,3.314-2.336A14.577,14.577,0,0,0,27.329,11.4a5.407,5.407,0,0,0,1.435-1.23A9.869,9.869,0,0,0,31.058,0a9.338,9.338,0,0,1,1.625,2.667,9.777,9.777,0,0,1,0,7.224,9.33,9.33,0,0,1-2.075,3.151,5.4,5.4,0,0,1-1.434,1.23,13.964,13.964,0,0,1-3.082,1.851,8.178,8.178,0,0,0-3.271,2.35,10.158,10.158,0,0,0-1.634,3.5,24.768,24.768,0,0,1-1.365,3.479,14.491,14.491,0,0,1-2.739,3.78,11.167,11.167,0,0,1-3.753,2.479A11.451,11.451,0,0,1,9.039,32.537ZM1.829,12.37h0a14.355,14.355,0,0,1,2.945-1.964q.222-.112.453-.22A14.6,14.6,0,0,0,1.829,12.37ZM6.043,9.832q.263-.107.542-.212Q6.325,9.718,6.043,9.832Z" transform="translate(0 0)" fill="#84adb8" opacity="0.75"/>
        </g>
      </g>
    </g>
  </g>
</svg>
