<svg xmlns="http://www.w3.org/2000/svg" width="360" height="50" viewBox="0 0 360 50">
  <g id="组_3517" data-name="组 3517" transform="translate(7246 2691)">
    <text id="技术支持" transform="translate(-7031 -2653)" fill="#999" font-size="36" font-family="PingFang SC Regular, PingFang SC" letter-spacing="0.006em"><tspan x="0" y="0">技术支持</tspan></text>
    <g id="组_3516" data-name="组 3516" transform="translate(-7210.725 -2689.298)">
      <path id="路径_179" data-name="路径 179" d="M47.154.7h1.618V14.9H63.153v2.157l-7.011.18h-7.37V27.665H61.535v2.157H48.772v4.854c0,1.977-.18,3.416-.18,4.135a10.521,10.521,0,0,1-.36,2.337,3.476,3.476,0,0,1-.9,1.618s3.056.18,9.528.18h9.348V45.1H27.2V42.945l9.168-.18h8.808V30H38.885l-6.112-.18.18-.9V27.665H45.176V17.059H34.93l-.719,1.079a14.994,14.994,0,0,1-1.438,2.157A20.507,20.507,0,0,1,30.8,22.272,10.912,10.912,0,0,1,29,23.53a4.677,4.677,0,0,1-1.258.539c-.18,0-.18-.36-.18-.9v-.9l.539-.36a5.736,5.736,0,0,0,1.258-1.079,17.41,17.41,0,0,0,1.258-1.618,7.323,7.323,0,0,0,1.079-1.977,11.628,11.628,0,0,0,.719-2.337,24.053,24.053,0,0,0,.36-4.674V6.992h4.314l-.18,1.977a11.73,11.73,0,0,1-.36,3.056c-.18.719-.36,1.258-.539,1.977s-.36.719-.36.9H45l.18-7.011V.7h1.977Z" transform="translate(19.902 -0.339)" fill="#a1c7d2"/>
      <g id="组_1017" data-name="组 1017" transform="translate(92.586)">
        <path id="路径_180" data-name="路径 180" d="M61.05,7.4h2.157v4.314a39.633,39.633,0,0,1-.18,5.573c-.18.9-.18,1.618-.36,2.337s-.539,1.438-.719,2.337a11.971,11.971,0,0,1-1.079,2.157A12.091,12.091,0,0,1,59.612,26.1a16.206,16.206,0,0,1-1.618,1.8,42.222,42.222,0,0,1-4.314,3.056,2.609,2.609,0,0,1-.18-1.079v-.9l.539-.36A7.819,7.819,0,0,1,55.3,27.534a13.071,13.071,0,0,0,1.438-1.618,10.511,10.511,0,0,0,1.8-3.416,25.893,25.893,0,0,0,1.079-9.168V7.4Z" transform="translate(-53.5 5.903)" fill="#a1c7d2"/>
        <path id="路径_181" data-name="路径 181" d="M66.116,0V20.673c0,13.842.18,19.774-.18,21.572-.18.539-.36,2.7-1.8,4.135a3.037,3.037,0,0,1-.9.36H62.7V0Z" transform="translate(-46.162)" fill="#a1c7d2"/>
        <path id="路径_182" data-name="路径 182" d="M67.819,7.3a23.07,23.07,0,0,1,2.517,1.618c5.033,4.135,7.73,10.247,9.348,16,0,0-.719,0-2.7.18l-2.876.36c-1.079-5.033-1.079-10.426-6.292-16.538L67.1,8.2S67.639,7.3,67.819,7.3Z" transform="translate(-42.652 5.823)" fill="#a1c7d2"/>
      </g>
      <g id="组_1018" data-name="组 1018" transform="translate(133.754 0.719)">
        <path id="路径_183" data-name="路径 183" d="M103.325.58c0,1.8-1.079,4.314-2.517,4.854h17.257V7.591H86.607V19.1a127.764,127.764,0,0,1-.36,12.943c-.18.719-.719,6.472-4.674,10.426-.36.36-.9.719-1.438,1.258a18.949,18.949,0,0,1-1.977,1.258,4.449,4.449,0,0,0-1.079.719,2.181,2.181,0,0,1-.18-.9v-.9l.539-.36a11.482,11.482,0,0,0,3.775-4.854c1.8-3.416,1.977-9.707,1.977-19.415V4.355h3.416v.9H99.55L99.371.4A27.833,27.833,0,0,0,103.325.58Zm-1.258,9.707h2.157V16.4h12.4l-.18,1.258v1.079h-6.112l-6.112.18v1.977a12.79,12.79,0,0,1-.18,2.876,5.239,5.239,0,0,1-.9,2.876,2.585,2.585,0,0,0-.36.539h7.55V23.05h3.416V39.229a6.845,6.845,0,0,1-.18,2.337A6.086,6.086,0,0,1,113.033,43c-.18.36-.36.9-.719,1.079a3.156,3.156,0,0,1-.9.719,2.6,2.6,0,0,1-1.258.36V40.847H94.517a1.791,1.791,0,0,1-.18.719,7.782,7.782,0,0,1-.9,2.157A6.1,6.1,0,0,1,92.36,44.8c-.539.18-1.258.36-1.258.36V23.05h3.416v3.955h5.932V10.287Zm.18,18.7H94.7V39.049l7.55-.18h8.269V28.983Z" transform="translate(-76.9 -0.4)" fill="#a1c7d2"/>
      </g>
      <g id="组_1019" data-name="组 1019" transform="translate(0 0.002)">
        <path id="路径_184" data-name="路径 184" d="M17.437,8.18c-.36,2.337-4.674,8.988-5.752,10.067v8.808l-.18,9.168-.18.719a3.613,3.613,0,0,1-.719,1.438,2.166,2.166,0,0,1-.9.9,1.621,1.621,0,0,1-.9.18h-.36V21.842C7.191,23.28,2.517,27.594.9,28.313c-.18,0-.719-.719-.9-.9C5.213,22.92,11.5,14.112,13.3,8A41.371,41.371,0,0,0,17.437,8.18Z" transform="translate(0 5.482)" fill="#a1c7d2"/>
        <path id="路径_185" data-name="路径 185" d="M33.866,28.254c0-1.438-.18-3.236-.18-3.236l-.539.18a2.225,2.225,0,0,0-.539.36v.719a33.129,33.129,0,0,1-1.258,7.91,2.978,2.978,0,0,1-2.7,1.977c-.9,0-7.73.18-7.73.18a2.21,2.21,0,0,1-1.977-2.337V25.917c3.6-2.157,10.247-7.73,11.5-13.842a.176.176,0,0,0-.18-.18c-.18,0-3.236-.539-3.416-.539l-.36.36c-.18.18-2.517,7.011-7.55,10.426V14.951L18.766,8.3H14.991V24.838l-.719.36c-.539.36-1.258.719-1.8,1.079-.719.36-1.618.719-2.337,1.079-.36.18-.9.36-1.258.539s-.9.18-.9.36a.66.66,0,0,0-.18.539v.719s1.8-.36,2.876-.719c1.438-.36,2.876-.9,4.494-1.438v3.416a21.966,21.966,0,0,0,.18,3.955c.18.36.18.9.36,1.438a3.76,3.76,0,0,0,.719,1.079,5.691,5.691,0,0,0,2.157,1.438c2.337.18,9.707-.36,11.685-.36,2.7-.18,3.6-2.337,3.6-4.135V28.254Z" transform="translate(6.222 5.722)" fill="#a1c7d2"/>
        <path id="路径_186" data-name="路径 186" d="M35.435,5.713H29.862V.5H26.447V5.713H14.4V.5h-3.6V5.713H1.1V7.87h9.887v5.393h0a2.665,2.665,0,0,0,1.258-.18C14.4,12,14.582,7.87,14.582,7.87H26.447v5.393h0a2.665,2.665,0,0,0,1.258-.18C29.862,12,30.042,7.87,30.042,7.87H39.39V5.713Z" transform="translate(0.877 -0.5)" fill="#a1c7d2"/>
      </g>
    </g>
    <text id="X" transform="translate(-7246 -2653)" fill="#999" font-size="36" font-family="PingFang SC Regular, PingFang SC" letter-spacing="0.006em"><tspan x="0" y="0">X</tspan></text>
  </g>
</svg>
