<svg xmlns="http://www.w3.org/2000/svg" width="80" height="80" viewBox="0 0 80 80">
  <g id="组_1499" data-name="组 1499" transform="translate(-290 -661)">
    <rect id="矩形_634" data-name="矩形 634" width="80" height="80" transform="translate(290 661)" fill="none"/>
    <path id="减去_17" data-name="减去 17" d="M25.132,70.527a3.009,3.009,0,0,1-2.141-.886l-4.536-4.536A9.13,9.13,0,0,0,21.3,58.453a9.234,9.234,0,0,0-9.223-9.225,9.132,9.132,0,0,0-6.654,2.843L.885,47.535a3.03,3.03,0,0,1,0-4.28l9.49-9.487L36.76,60.154l-9.489,9.488A3,3,0,0,1,25.132,70.527ZM39.022,57.891h0L12.638,31.506,31.979,12.172,58.36,38.553,39.024,57.89Zm21.6-21.6h0L34.241,9.91,43.27.885a3.031,3.031,0,0,1,4.28,0l4.6,4.6a9.059,9.059,0,0,0-1.875,5.55,9.205,9.205,0,0,0,14.773,7.35l4.6,4.6a3.056,3.056,0,0,1,0,4.294L60.624,36.29Z" transform="translate(295.248 666.249)" fill="#d6bc6f"/>
  </g>
</svg>
