<svg xmlns="http://www.w3.org/2000/svg" width="70.5" height="60" viewBox="0 0 70.5 60">
  <g id="组_4204" data-name="组 4204" transform="translate(-50 -469)">
    <g id="组_4162" data-name="组 4162" transform="translate(-1 -130)">
      <rect id="矩形_1760" data-name="矩形 1760" width="50" height="50" transform="translate(51 604)" fill="none"/>
      <g id="组_4158" data-name="组 4158" transform="translate(-25 -1)">
        <path id="联合_11" data-name="联合 11" d="M-5760.319,28.66l-2.006-13.226a3.517,3.517,0,0,1-.674.065,3.5,3.5,0,0,1-3.5-3.5,3.5,3.5,0,0,1,3.5-3.5,3.5,3.5,0,0,1,3.5,3.5,3.479,3.479,0,0,1-.434,1.689l7.078,2.606,5.3-9.16A3.5,3.5,0,0,1-5749.5,4,3.5,3.5,0,0,1-5746,.5a3.5,3.5,0,0,1,3.5,3.5,3.5,3.5,0,0,1-1.944,3.136l5.214,9.16,7.064-2.8A3.489,3.489,0,0,1-5732.5,12a3.5,3.5,0,0,1,3.5-3.5,3.5,3.5,0,0,1,3.5,3.5,3.5,3.5,0,0,1-3.5,3.5,3.521,3.521,0,0,1-.536-.041l-2.185,13.2Z" transform="translate(5847 610)" fill="#fff"/>
        <path id="减去_26" data-name="减去 26" d="M-5740,16h-16a7.009,7.009,0,0,1-7-7h30A7.008,7.008,0,0,1-5740,16Z" transform="translate(5849 632)" fill="#fff"/>
      </g>
    </g>
    <path id="路径_6602" data-name="路径 6602" d="M3509.035,469v60" transform="translate(-3389.035)" fill="none" stroke="#fff" stroke-width="1"/>
  </g>
</svg>
