<svg xmlns="http://www.w3.org/2000/svg" xmlns:xlink="http://www.w3.org/1999/xlink" width="64" height="64" viewBox="0 0 64 64"><defs><style>.a{fill:none;}.b{fill:url(#a);}</style><linearGradient id="a" x1="0.044" y1="0.818" x2="0.973" y2="0.152" gradientUnits="objectBoundingBox"><stop offset="0" stop-color="#efd37f"/><stop offset="0.502" stop-color="#f7db86"/><stop offset="1" stop-color="#f4e1a7"/></linearGradient></defs><g transform="translate(511 -793)"><rect class="a" width="64" height="64" transform="translate(-511 793)"/><g transform="translate(-505.24 800.039)"><path class="b" d="M7.912,36.046,5.343,19.117A4.479,4.479,0,1,1,8.4,16.883l9.06,3.336L24.249,8.494a4.48,4.48,0,1,1,3.983,0l6.674,11.725,9.042-3.586a4.474,4.474,0,1,1,3.366,2.515l-2.8,16.9Z" transform="translate(0 0)"/><path class="b" d="M29.44,8.96H8.96A8.97,8.97,0,0,1,0,0H38.4A8.97,8.97,0,0,1,29.44,8.96Z" transform="translate(7.04 39.04)"/></g></g></svg>