<svg xmlns="http://www.w3.org/2000/svg" xmlns:xlink="http://www.w3.org/1999/xlink" width="80" height="80" viewBox="0 0 80 80">
  <defs>
    <linearGradient id="linear-gradient" x1="0.824" x2="0.174" y2="1" gradientUnits="objectBoundingBox">
      <stop offset="0" stop-color="#ead38f"/>
      <stop offset="1" stop-color="#d6bc6f"/>
    </linearGradient>
  </defs>
  <g id="组_4164" data-name="组 4164" transform="translate(-2482 -1832)">
    <rect id="矩形_1763" data-name="矩形 1763" width="80" height="80" transform="translate(2482 1832)" fill="none"/>
    <g id="折扣" transform="translate(2493.2 1836.8)">
      <path id="减去_55" data-name="减去 55" d="M-3742.088-826.5h0a8.93,8.93,0,0,1-6.754-2.87l-15.144-16.817a8.984,8.984,0,0,1-2.137-7.206,11.743,11.743,0,0,1,3.874-7.287l21.271-19.151a6.59,6.59,0,0,1,4.288-1.729l25.327-.24c.049,0,.1,0,.149,0a3.33,3.33,0,0,1,2.452,1.085,3.318,3.318,0,0,1,.829,2.693l-2.882,25.168a6.583,6.583,0,0,1-2.183,4.089l-21.27,19.165A11.74,11.74,0,0,1-3742.088-826.5Zm-2.148-18.981a5.106,5.106,0,0,0-2.035.422,5.154,5.154,0,0,0-2.991,5.748,5.158,5.158,0,0,0,5.023,4.1h.171a5.128,5.128,0,0,0,3.575-1.62,5.151,5.151,0,0,0,.458-6.464A5.138,5.138,0,0,0-3744.236-845.478Zm12.2-6.464a2.236,2.236,0,0,0-.375.035l-24.574,4.346a1.2,1.2,0,0,0-1.1,1.566c.132.75.533,1.131,1.191,1.131a2.107,2.107,0,0,0,.375-.035l24.575-4.346a1.2,1.2,0,0,0,1.1-1.566C-3730.976-851.561-3731.377-851.942-3732.035-851.942Zm-12.667-9.7a5.108,5.108,0,0,0-2.035.422,5.152,5.152,0,0,0-2.991,5.748,5.153,5.153,0,0,0,5.022,4.095h.014a5.139,5.139,0,0,0,3.733-1.618,5.155,5.155,0,0,0,.458-6.464A5.138,5.138,0,0,0-3744.7-861.637Zm17.755-4.374a1.719,1.719,0,0,0-1.119.511l-6.3,5.614a1.671,1.671,0,0,0-.643,1.119,1.67,1.67,0,0,0,.51,1.186l.073.082a1.624,1.624,0,0,0,1.186.645,1.719,1.719,0,0,0,1.119-.511l6.3-5.614a1.671,1.671,0,0,0,.643-1.119,1.67,1.67,0,0,0-.51-1.186l-.074-.081A1.627,1.627,0,0,0-3726.947-866.011Zm8.783-11.494a5.269,5.269,0,0,0-3.529,1.356,5.239,5.239,0,0,0-1.739,3.644,5.238,5.238,0,0,0,1.349,3.807,5.286,5.286,0,0,0,3.923,1.746,5.264,5.264,0,0,0,3.529-1.356,5.239,5.239,0,0,0,1.739-3.645,5.247,5.247,0,0,0-1.348-3.807A5.289,5.289,0,0,0-3718.164-877.5Zm-26.074,39.518a2.385,2.385,0,0,1-1.127-.284,2.39,2.39,0,0,1-1.2-2.649,2.392,2.392,0,0,1,2.248-1.842h.076v.034a2.393,2.393,0,0,1,2.157,1.431,2.391,2.391,0,0,1-.414,2.555A2.4,2.4,0,0,1-3744.238-837.986Zm-.468-16.158a2.388,2.388,0,0,1-1.147-.295,2.387,2.387,0,0,1-1.165-2.686,2.385,2.385,0,0,1,2.312-1.794,2.388,2.388,0,0,1,2.192,1.438,2.388,2.388,0,0,1-.45,2.582A2.393,2.393,0,0,1-3744.706-854.144Z" transform="translate(3766.199 898.497)" fill="url(#linear-gradient)"/>
      <path id="路径_6606" data-name="路径 6606" d="M557.2,26.98a2.058,2.058,0,0,1-1.962-2.7,15.211,15.211,0,0,0-6.608-18.211,12.852,12.852,0,0,0-6.443-1.956,2.058,2.058,0,1,1,0-4.117,16.893,16.893,0,0,1,8.536,2.525,19.492,19.492,0,0,1,8.44,23.027A2.058,2.058,0,0,1,557.2,26.98Z" transform="translate(-508.999 0)" fill="#d6bc6f"/>
      <path id="路径_6607" data-name="路径 6607" d="M763.968,242.386a5.277,5.277,0,0,1,4.042.782,20.091,20.091,0,0,0,0-5.153l-4.117.041A15.885,15.885,0,0,1,763.968,242.386Z" transform="translate(-717.033 -221.28)" fill="#d6bc6f"/>
    </g>
  </g>
</svg>
