<svg xmlns="http://www.w3.org/2000/svg" width="27.791" height="23.734" viewBox="0 0 27.791 23.734"><defs><style>.a{fill:none;stroke-linecap:round;stroke-linejoin:round;stroke-miterlimit:10;}.b,.d{fill:#fff;}.c,.d{stroke:none;}</style></defs><g transform="translate(-674.104 -315.705)"><g class="a" transform="translate(671.104 72.505)"><path class="c" d="M22.954,243.2H10.837A7.828,7.828,0,0,0,3,251.037v2.89a7.864,7.864,0,0,0,7.837,7.837v5.169l11.116-5.169h1a7.828,7.828,0,0,0,7.837-7.837v-2.89A7.864,7.864,0,0,0,22.954,243.2Z"/><path class="d" d="M 10.83706855773926 245.1999816894531 C 9.274497985839844 245.1999816894531 7.807737350463867 245.8062133789063 6.706977844238281 246.906982421875 C 5.606218338012695 248.0077514648438 4.999998092651367 249.4744873046875 4.999998092651367 251.0370788574219 L 4.999998092651367 253.9273681640625 C 4.999998092651367 255.4710998535156 5.607437133789063 256.9317016601563 6.710428237915039 258.0401000976563 C 7.816967010498047 259.1520690917969 9.282506942749023 259.7644653320313 10.83706855773926 259.7644653320313 C 11.94163703918457 259.7644653320313 12.83706855773926 260.659912109375 12.83706855773926 261.7644653320313 L 12.83706855773926 263.7979125976563 L 21.11018753051758 259.950927734375 C 21.37433815002441 259.828125 21.66214752197266 259.7644653320313 21.95346832275391 259.7644653320313 L 22.95394897460938 259.7644653320313 C 24.51651763916016 259.7644653320313 25.98327827453613 259.1582641601563 27.08403778076172 258.0574951171875 C 28.1847972869873 256.9566955566406 28.79101753234863 255.4899444580078 28.79101753234863 253.9273681640625 L 28.79101753234863 251.0370788574219 C 28.79101753234863 249.4933471679688 28.18357849121094 248.0327453613281 27.08058738708496 246.9243469238281 C 25.97404861450195 245.8123779296875 24.50850677490234 245.1999816894531 22.95394897460938 245.1999816894531 L 10.83706855773926 245.1999816894531 M 10.83706855773926 243.1999816894531 L 22.95394897460938 243.1999816894531 C 27.28934860229492 243.1999816894531 30.79101753234863 246.7572631835938 30.79101753234863 251.0370788574219 L 30.79101753234863 253.9273681640625 C 30.79101753234863 258.2627563476563 27.28933715820313 261.7644653320313 22.95394897460938 261.7644653320313 L 21.95346832275391 261.7644653320313 L 10.83706855773926 266.9335632324219 L 10.83706855773926 261.7644653320313 C 6.501667022705078 261.7644653320313 2.999998092651367 258.2071838378906 2.999998092651367 253.9273681640625 L 2.999998092651367 251.0370788574219 C 2.999998092651367 246.7016906738281 6.501667022705078 243.1999816894531 10.83706855773926 243.1999816894531 Z"/></g><ellipse class="b" cx="1.223" cy="1.223" rx="1.223" ry="1.223" transform="translate(679.774 324.043)"/><ellipse class="b" cx="1.223" cy="1.223" rx="1.223" ry="1.223" transform="translate(686.555 324.043)"/><ellipse class="b" cx="1.223" cy="1.223" rx="1.223" ry="1.223" transform="translate(693.28 324.043)"/></g></svg>