<svg id="组_3527" data-name="组 3527" xmlns="http://www.w3.org/2000/svg" width="240" height="240" viewBox="0 0 240 240">
  <path id="路径_152" data-name="路径 152" d="M120,0A120,120,0,1,1,0,120,120,120,0,0,1,120,0Z" opacity="0.2"/>
  <g id="路径_18" data-name="路径 18" fill="none">
    <path d="M120,0A120,120,0,1,1,0,120,120,120,0,0,1,120,0Z" stroke="none"/>
    <path d="M 120 4 C 112.1269302368164 4 104.2599945068359 4.792938232421875 96.61773681640625 6.356765747070313 C 89.17170715332031 7.88043212890625 81.84756469726563 10.15396118164063 74.84880065917969 13.11419677734375 C 67.97616577148438 16.02110290527344 61.34722900390625 19.61920166015625 55.14610290527344 23.80859375 C 49.00283813476563 27.95889282226563 43.225830078125 32.72537231445313 37.97560119628906 37.97560119628906 C 32.72537231445313 43.225830078125 27.95889282226563 49.00283813476563 23.80859375 55.14610290527344 C 19.61920166015625 61.34722900390625 16.02110290527344 67.97616577148438 13.11419677734375 74.84880065917969 C 10.15396118164063 81.84756469726563 7.88043212890625 89.17170715332031 6.356765747070313 96.61773681640625 C 4.792938232421875 104.2599945068359 4 112.1269302368164 4 120 C 4 127.8730697631836 4.792938232421875 135.739990234375 6.356765747070313 143.3822631835938 C 7.88043212890625 150.8283081054688 10.15396118164063 158.1524353027344 13.11419677734375 165.1511993408203 C 16.02110290527344 172.0238342285156 19.61920166015625 178.6527709960938 23.80859375 184.8538970947266 C 27.95889282226563 190.9971618652344 32.72537231445313 196.774169921875 37.97560119628906 202.0243988037109 C 43.225830078125 207.2746276855469 49.00283813476563 212.0411071777344 55.14610290527344 216.19140625 C 61.34722900390625 220.3807983398438 67.97616577148438 223.9788970947266 74.84880065917969 226.8858032226563 C 81.84756469726563 229.8460388183594 89.17170715332031 232.1195678710938 96.61773681640625 233.6432342529297 C 104.2599945068359 235.2070617675781 112.1269302368164 236 120 236 C 127.8730697631836 236 135.739990234375 235.2070617675781 143.3822631835938 233.6432342529297 C 150.8283081054688 232.1195678710938 158.1524353027344 229.8460388183594 165.1511993408203 226.8858032226563 C 172.0238342285156 223.9788970947266 178.6527709960938 220.3807983398438 184.8538970947266 216.19140625 C 190.9971618652344 212.0411071777344 196.774169921875 207.2746276855469 202.0243988037109 202.0243988037109 C 207.2746276855469 196.774169921875 212.0411071777344 190.9971618652344 216.19140625 184.8538970947266 C 220.3807983398438 178.6527709960938 223.9788970947266 172.0238342285156 226.8858032226563 165.1511993408203 C 229.8460388183594 158.1524353027344 232.1195678710938 150.8283081054688 233.6432342529297 143.3822631835938 C 235.2070617675781 135.739990234375 236 127.8730697631836 236 120 C 236 112.1269302368164 235.2070617675781 104.2599945068359 233.6432342529297 96.61773681640625 C 232.1195678710938 89.17170715332031 229.8460388183594 81.84756469726563 226.8858032226563 74.84880065917969 C 223.9788970947266 67.97616577148438 220.3807983398438 61.34722900390625 216.19140625 55.14610290527344 C 212.0411071777344 49.00283813476563 207.2746276855469 43.225830078125 202.0243988037109 37.97560119628906 C 196.774169921875 32.72537231445313 190.9971618652344 27.95889282226563 184.8538970947266 23.80859375 C 178.6527709960938 19.61920166015625 172.0238342285156 16.02110290527344 165.1511993408203 13.11419677734375 C 158.1524353027344 10.15396118164063 150.8283081054688 7.88043212890625 143.3822631835938 6.356765747070313 C 135.739990234375 4.792938232421875 127.8730697631836 4 120 4 M 120 0 C 186.274169921875 0 240 53.725830078125 240 120 C 240 186.274169921875 186.274169921875 240 120 240 C 53.725830078125 240 0 186.274169921875 0 120 C 0 53.725830078125 53.725830078125 0 120 0 Z" stroke="none" fill="#fff"/>
  </g>
  <path id="路径_19" data-name="路径 19" d="M68.629,37,6.694,1A4.185,4.185,0,0,0,.5,4.871V76.1c0,3.1,3.484,5.419,6.194,3.871L68.242,44.355C71.339,42.419,71.339,38.549,68.629,37Z" transform="translate(91.5 79.54)" fill="#fff"/>
</svg>
