<svg id="组_3480" data-name="组 3480" xmlns="http://www.w3.org/2000/svg" width="176" height="176" viewBox="0 0 176 176">
  <circle id="椭圆_179" data-name="椭圆 179" cx="88" cy="88" r="88" fill="#fdc522"/>
  <g id="组_772" data-name="组 772" transform="translate(13.16 13.16)">
    <path id="路径_134" data-name="路径 134" d="M25.971,2a49.958,49.958,0,0,0-7.871.416A74.631,74.631,0,0,1,90.185,76.841a75.063,75.063,0,0,1-66.7,74.425h2.486a74.659,74.659,0,0,0,74.571-74.841C100.542,35.679,66.985,2,25.971,2Z" transform="translate(49.138 -2)" fill="#f8931e"/>
    <circle id="椭圆_177" data-name="椭圆 177" cx="74.84" cy="74.84" r="74.84" transform="translate(0 0)" fill="none" stroke="#000" stroke-miterlimit="10" stroke-width="4"/>
  </g>
  <g id="组_773" data-name="组 773" transform="translate(49.496 46.376)">
    <g id="矩形_449" data-name="矩形 449" transform="translate(0 8.934)" fill="none" stroke="#000" stroke-width="4">
      <path d="M0,0H76.752a0,0,0,0,1,0,0V66.473a5,5,0,0,1-5,5H5a5,5,0,0,1-5-5V0A0,0,0,0,1,0,0Z" stroke="none"/>
      <path d="M4,2H72.752a2,2,0,0,1,2,2V66.473a3,3,0,0,1-3,3H5a3,3,0,0,1-3-3V4A2,2,0,0,1,4,2Z" fill="none"/>
    </g>
    <g id="矩形_448" data-name="矩形 448" fill="#fff" stroke="#000" stroke-width="4">
      <rect width="76.752" height="17.868" rx="4" stroke="none"/>
      <rect x="2" y="2" width="72.752" height="13.868" rx="2" fill="none"/>
    </g>
    <path id="路径_133" data-name="路径 133" d="M0,27.791v-14.4S-.366,0,17.188,0C34.942,0,35.125,13.388,35.125,13.388v14.4" transform="translate(56.426 56.172) rotate(180)" fill="none" stroke="#000" stroke-width="4"/>
    <circle id="椭圆_174" data-name="椭圆 174" cx="3.35" cy="3.35" r="3.35" transform="translate(18.059 26.802)"/>
    <circle id="椭圆_175" data-name="椭圆 175" cx="3.35" cy="3.35" r="3.35" transform="translate(53.049 26.802)"/>
  </g>
</svg>
