<svg xmlns="http://www.w3.org/2000/svg" width="90" height="90" viewBox="0 0 90 90">
  <path id="路径_6974" data-name="路径 6974" d="M87.688,44.608a45,45,0,1,0,45,45A44.974,44.974,0,0,0,87.688,44.608ZM93.9,68.5a3.519,3.519,0,1,1-3.576,3.523A3.566,3.566,0,0,1,93.9,68.5Zm13.945,42.215H67a1.813,1.813,0,1,1,0-3.625h40.889a1.811,1.811,0,0,1,1.844,1.814,1.845,1.845,0,0,1-1.883,1.812Zm-42.695-10.66A1.809,1.809,0,0,1,67,98.244H90.319a1.812,1.812,0,0,1,0,3.623H67a1.809,1.809,0,0,1-1.844-1.812Zm44.867-6.674a1.853,1.853,0,0,1-1.623.91H67a1.939,1.939,0,0,1-1.664-.98,1.746,1.746,0,0,1,.15-1.883l12.841-17.3a1.872,1.872,0,0,1,2.7-.283L94.311,85.192,99,80.077a1.877,1.877,0,0,1,1.475-.58,1.947,1.947,0,0,1,1.4.76l8.033,11.24a1.728,1.728,0,0,1,.107,1.883Z" transform="translate(-42.688 -44.608)" fill="#d5700a"/>
</svg>
