<svg xmlns="http://www.w3.org/2000/svg" width="40" height="74" viewBox="0 0 40 74">
  <g id="组_3553" data-name="组 3553" transform="translate(-833 -4634)">
    <text id="分享" transform="translate(833 4701)" font-size="20" font-family="PingFang SC Regular, PingFang SC"><tspan x="0" y="0">分享</tspan></text>
    <g id="组_3551" data-name="组 3551" transform="translate(-196 1560)">
      <rect id="矩形_1734" data-name="矩形 1734" width="40" height="40" transform="translate(1029 3074)" fill="none"/>
      <g id="组_3547" data-name="组 3547" transform="translate(1035.661 3077.948)">
        <path id="路径_234" data-name="路径 234" d="M6.58,13.8h-4A1.784,1.784,0,0,0,.8,15.579V33.364a1.784,1.784,0,0,0,1.779,1.779H25.7a1.784,1.784,0,0,0,1.779-1.779V15.579A1.784,1.784,0,0,0,25.7,13.8h-4" transform="translate(-0.8 -2.239)" fill="none" stroke="#333" stroke-linecap="round" stroke-linejoin="round" stroke-miterlimit="10" stroke-width="2"/>
        <line id="直线_224" data-name="直线 224" y2="23.566" transform="translate(13.339 0)" fill="none" stroke="#333" stroke-linecap="round" stroke-linejoin="round" stroke-miterlimit="10" stroke-width="2"/>
        <path id="路径_235" data-name="路径 235" d="M7.3,8.27,14.859.8l7.47,7.47" transform="translate(-1.52 -0.8)" fill="none" stroke="#333" stroke-linecap="round" stroke-linejoin="round" stroke-miterlimit="10" stroke-width="2"/>
      </g>
    </g>
  </g>
</svg>
