<svg xmlns="http://www.w3.org/2000/svg" width="80" height="80" viewBox="0 0 80 80"><defs><style>.a{fill:#fe0000;}.b{fill:#fff;}</style></defs><g transform="translate(-51 -1141)"><circle class="a" cx="40" cy="40" r="40" transform="translate(51 1141)"/><g transform="translate(-941.764 300.104)"><path class="b" d="M4.441,0H37.087a2.176,2.176,0,0,1,2.176,2.176l3.265,42.44a2.176,2.176,0,0,1-2.176,2.176H1.176A2.176,2.176,0,0,1-1,44.616L2.265,2.176A2.176,2.176,0,0,1,4.441,0Z" transform="translate(1012 858)"/><circle class="a" cx="3.265" cy="3.265" r="3.265" transform="translate(1017.529 865.617)"/><circle class="a" cx="3.265" cy="3.265" r="3.265" transform="translate(1041.469 865.617)"/><path class="a" d="M13.059,13.058A12.972,12.972,0,0,1,3.825,9.233,12.972,12.972,0,0,1,0,0H3.264A9.73,9.73,0,0,0,6.136,6.922a9.727,9.727,0,0,0,6.922,2.872A9.8,9.8,0,0,0,22.852,0h3.265a12.972,12.972,0,0,1-3.824,9.233A12.972,12.972,0,0,1,13.059,13.058Z" transform="translate(1019.705 868.882)"/><rect class="a" width="30.469" height="4.353" rx="2.176" transform="translate(1017.529 896.087)"/></g></g></svg>