<svg xmlns="http://www.w3.org/2000/svg" width="90" height="90" viewBox="0 0 90 90">
  <g id="组_4564" data-name="组 4564" transform="translate(-330 -1151)">
    <g id="椭圆_486" data-name="椭圆 486" transform="translate(330 1151)" fill="#08b907" stroke="#d4d4d4" stroke-width="1">
      <circle cx="45" cy="45" r="45" stroke="none"/>
      <circle cx="45" cy="45" r="44.5" fill="none"/>
    </g>
    <path id="形状_19" data-name="形状 19" d="M332.614,898.543a17.5,17.5,0,0,1,1.894.115c-1.7-7.834-10.172-13.656-19.841-13.656C303.856,885,295,892.288,295,901.54c0,5.34,2.947,9.725,7.87,13.127l-1.967,5.851,6.874-3.41a34.067,34.067,0,0,0,6.889.977c.617,0,1.228-.03,1.836-.078a14.311,14.311,0,0,1-.608-4.074c0-8.5,7.378-15.391,16.72-15.391Zm-10.572-5.273a2.431,2.431,0,1,1,0,4.862c-1.475,0-2.953-.976-2.953-2.434s1.478-2.428,2.953-2.428Zm-13.763,4.862c-1.475,0-2.962-.976-2.962-2.434s1.487-2.428,2.962-2.428a2.431,2.431,0,1,1,0,4.862ZM350.564,913.7c0-7.775-7.868-14.113-16.7-14.113-9.357,0-16.726,6.337-16.726,14.113s7.369,14.11,16.726,14.11a24.913,24.913,0,0,0,5.9-.974l5.4,2.921-1.479-4.859c3.948-2.93,6.889-6.813,6.889-11.2Zm-22.128-2.434a1.945,1.945,0,1,1,0-3.89,2,2,0,1,1,0,3.89Zm10.817,0a1.945,1.945,0,1,1,0-3.89,2,2,0,1,1,0,3.89Zm0,0" transform="translate(52.273 288.31)" fill="#fff"/>
  </g>
</svg>
