<svg height="225" viewBox="0 0 225 225" width="225" xmlns="http://www.w3.org/2000/svg"><path d="m-717 315.5a112.5 112.5 0 0 0 -112.5 112.5 112.5 112.5 0 0 0 112.5 112.5 112.5 112.5 0 0 0 112.5-112.5 112.5 112.5 0 0 0 -112.5-112.5zm0 215.816a103.316 103.316 0 0 1 -103.316-103.316 103.317 103.317 0 0 1 103.316-103.316 103.316 103.316 0 0 1 103.316 103.316 103.316 103.316 0 0 1 -103.316 103.316z" fill="#fff" transform="translate(829.5 -315.5)"/><path d="m0 0h150.599v2.755h-150.599z" fill="#fff" stroke="#fff" stroke-miterlimit="10" transform="matrix(.92316326 -.38440811 .38440811 .92316326 29.266 106.983)"/><path d="m0 0h150.599v2.755h-150.599z" fill="#fff" stroke="#fff" stroke-miterlimit="10" transform="matrix(.92316326 -.38440811 .38440811 .92316326 57.368 174.208)"/><path d="m-598.5 541.175a66.148 66.148 0 0 1 -63.939 49.22 65.828 65.828 0 0 1 -31.556-8l-1.507 2.945a69.121 69.121 0 0 0 33.062 8.36 69.455 69.455 0 0 0 66.946-50.979z" fill="#fff" transform="translate(775.338 -411.301)"/><path d="m-754.433 437.578a66.149 66.149 0 0 1 64.083-49.772 65.814 65.814 0 0 1 33.031 8.831l.03-.014 2.394-2.394a69.1 69.1 0 0 0 -35.455-9.729 69.455 69.455 0 0 0 -67.315 52.375z" fill="#fff" transform="translate(803.248 -340.957)"/><g fill="none" stroke="#fff" stroke-linecap="round" stroke-linejoin="round" stroke-width="1.5"><path d="m-557.5 622.5s14.327 5.51 20.388 6.612 6.612 3.857 3.306 3.306-11.571-1.1-20.939-4.959 17.082 1.1 17.082 8.265" transform="translate(713.378 -447.815)"/><path d="m-532.69 620.5-21.49 14.878s-2.2.551.551-2.2c0 0 14.878-11.571 16.531-11.02a.54.54 0 0 1 .551.551" transform="translate(712.262 -446.917)"/><path d="m-542.9 630.115s1.1-9.918 6.612-15.429c0 0 1.653-1.1 1.1 2.2 0 0-1.653 15.429-5.51 19.286 0 0-1.1-.551-.551-4.408 0 0 2.2-14.327 2.755-16.531 0 0 1.1-.551 1.1 3.857a47.528 47.528 0 0 0 .61 10.074 7.664 7.664 0 0 0 1.594 3.7s1.653 2.2 1.653 0c0 0-7.163-19.837-9.367-20.388 0 0-1.1-.551 0 3.857 0 0 3.022 6.745 4.266 9.709a13.7 13.7 0 0 0 1.795 3.515" transform="translate(707.042 -443.307)"/><path d="m-557.5 622.5s14.327 5.51 20.388 6.612 6.612 3.857 3.306 3.306-11.571-1.1-20.939-4.959 17.082 1.1 17.082 8.265" transform="translate(665.434 -430.311)"/><path d="m-532.69 620.5-21.49 14.878s-2.2.551.551-2.2c0 0 14.878-11.571 16.531-11.02a.54.54 0 0 1 .551.551" transform="translate(664.318 -429.413)"/><path d="m-542.9 630.115s1.1-9.918 6.612-15.429c0 0 1.653-1.1 1.1 2.2 0 0-1.653 15.429-5.51 19.286 0 0-1.1-.551-.551-4.408 0 0 2.2-14.327 2.755-16.531 0 0 1.1-.551 1.1 3.857a47.528 47.528 0 0 0 .61 10.074 7.664 7.664 0 0 0 1.594 3.7s1.653 2.2 1.653 0c0 0-7.163-19.837-9.367-20.388 0 0-1.1-.551 0 3.857 0 0 3.022 6.745 4.266 9.709a13.7 13.7 0 0 0 1.795 3.515" transform="translate(659.098 -425.803)"/><path d="m-557.5 622.5s14.327 5.51 20.388 6.612 6.612 3.857 3.306 3.306-11.571-1.1-20.939-4.959 17.082 1.1 17.082 8.265" transform="translate(739.252 -488.148)"/><path d="m-532.69 620.5-21.49 14.878s-2.2.551.551-2.2c0 0 14.878-11.571 16.531-11.02a.54.54 0 0 1 .551.551" transform="translate(738.136 -487.25)"/><path d="m-542.9 630.115s1.1-9.918 6.612-15.429c0 0 1.653-1.1 1.1 2.2 0 0-1.653 15.429-5.51 19.286 0 0-1.1-.551-.551-4.408 0 0 2.2-14.327 2.755-16.531 0 0 1.1-.551 1.1 3.857a47.528 47.528 0 0 0 .61 10.074 7.664 7.664 0 0 0 1.594 3.7s1.653 2.2 1.653 0c0 0-7.163-19.837-9.367-20.388 0 0-1.1-.551 0 3.857 0 0 3.022 6.745 4.266 9.709a13.7 13.7 0 0 0 1.795 3.515" transform="translate(732.916 -483.64)"/><path d="m-557.5 622.5s14.327 5.51 20.388 6.612 6.612 3.857 3.306 3.306-11.571-1.1-20.939-4.959 17.082 1.1 17.082 8.265" transform="translate(619.773 -442.488)"/><path d="m-532.69 620.5-21.49 14.878s-2.2.551.551-2.2c0 0 14.878-11.571 16.531-11.02a.54.54 0 0 1 .551.551" transform="translate(618.657 -441.59)"/><path d="m-542.9 630.115s1.1-9.918 6.612-15.429c0 0 1.653-1.1 1.1 2.2 0 0-1.653 15.429-5.51 19.286 0 0-1.1-.551-.551-4.408 0 0 2.2-14.327 2.755-16.531 0 0 1.1-.551 1.1 3.857a47.528 47.528 0 0 0 .61 10.074 7.664 7.664 0 0 0 1.594 3.7s1.653 2.2 1.653 0c0 0-7.163-19.837-9.367-20.388 0 0-1.1-.551 0 3.857 0 0 3.022 6.745 4.266 9.709a13.7 13.7 0 0 0 1.795 3.515" transform="translate(613.437 -437.98)"/><path d="m0 0s14.327 5.51 20.388 6.612 6.612 3.857 3.306 3.306-11.572-1.102-20.939-4.959 17.082 1.1 17.082 8.265" transform="matrix(-.99862953 .05233596 -.05233596 -.99862953 44.15247746928 92.29058144004)"/><path d="m22.325 0-21.49 14.878s-2.2.551.551-2.2c0 0 14.878-11.571 16.531-11.02a.54.54 0 0 1 .551.551" transform="matrix(-.99862953 .05233596 -.05233596 -.99862953 42.84302787063 93.46271911134)"/><path d="m.49 17.655s1.102-9.919 6.61-15.429c0 0 1.653-1.1 1.1 2.2 0 0-1.653 15.429-5.51 19.286 0 0-1.1-.551-.551-4.408 0 0 2.2-14.327 2.755-16.531 0 0 1.1-.551 1.1 3.857a47.531 47.531 0 0 0 .61 10.074 7.665 7.665 0 0 0 1.596 3.706s1.653 2.2 1.653 0c.004 0-7.159-19.837-9.363-20.388 0 0-1.1-.551 0 3.857 0 0 3.022 6.745 4.267 9.709a13.7 13.7 0 0 0 1.794 3.512" transform="matrix(-.99862953 .05233596 -.05233596 -.99862953 36.67665677472 98.22196442496)"/><path d="m0 0s14.327 5.51 20.388 6.612 6.612 3.857 3.306 3.306-11.572-1.102-20.939-4.959 17.082 1.1 17.082 8.265" transform="matrix(-.99862953 .05233596 -.05233596 -.99862953 69.26547746928 52.71758144004)"/><path d="m22.325 0-21.49 14.878s-2.2.551.551-2.2c0 0 14.878-11.571 16.531-11.02a.54.54 0 0 1 .551.551" transform="matrix(-.99862953 .05233596 -.05233596 -.99862953 67.95602787063 53.88971911134)"/><path d="m.49 17.655s1.102-9.919 6.61-15.429c0 0 1.653-1.1 1.1 2.2 0 0-1.653 15.429-5.51 19.286 0 0-1.1-.551-.551-4.408 0 0 2.2-14.327 2.755-16.531 0 0 1.1-.551 1.1 3.857a47.531 47.531 0 0 0 .61 10.074 7.665 7.665 0 0 0 1.596 3.706s1.653 2.2 1.653 0c.004 0-7.159-19.837-9.363-20.388 0 0-1.1-.551 0 3.857 0 0 3.022 6.745 4.267 9.709a13.7 13.7 0 0 0 1.794 3.512" transform="matrix(-.99862953 .05233596 -.05233596 -.99862953 61.78965677472 58.64896442496)"/><path d="m0 0s14.327 5.51 20.388 6.612 6.612 3.857 3.306 3.306-11.572-1.102-20.939-4.959 17.082 1.1 17.082 8.265" transform="matrix(-.99862953 .05233596 -.05233596 -.99862953 116.44847746928 32.17058144004)"/><path d="m22.325 0-21.49 14.878s-2.2.551.551-2.2c0 0 14.878-11.571 16.531-11.02a.54.54 0 0 1 .551.551" transform="matrix(-.99862953 .05233596 -.05233596 -.99862953 115.13902787063 33.34271911134)"/><path d="m.49 17.655s1.102-9.919 6.61-15.429c0 0 1.653-1.1 1.1 2.2 0 0-1.653 15.429-5.51 19.286 0 0-1.1-.551-.551-4.408 0 0 2.2-14.327 2.755-16.531 0 0 1.1-.551 1.1 3.857a47.531 47.531 0 0 0 .61 10.074 7.665 7.665 0 0 0 1.596 3.706s1.653 2.2 1.653 0c.004 0-7.159-19.837-9.363-20.388 0 0-1.1-.551 0 3.857 0 0 3.022 6.745 4.267 9.709a13.7 13.7 0 0 0 1.794 3.512" transform="matrix(-.99862953 .05233596 -.05233596 -.99862953 108.97265677472 38.10196442496)"/><path d="m0 0s14.327 5.51 20.388 6.612 6.612 3.857 3.306 3.306-11.572-1.102-20.939-4.959 17.082 1.1 17.082 8.265" transform="matrix(-.99862953 .05233596 -.05233596 -.99862953 162.10947746928 42.06358144004)"/><path d="m22.325 0-21.49 14.878s-2.2.551.551-2.2c0 0 14.878-11.571 16.531-11.02a.54.54 0 0 1 .551.551" transform="matrix(-.99862953 .05233596 -.05233596 -.99862953 160.80002787063 43.23571911134)"/><path d="m.49 17.655s1.102-9.919 6.61-15.429c0 0 1.653-1.1 1.1 2.2 0 0-1.653 15.429-5.51 19.286 0 0-1.1-.551-.551-4.408 0 0 2.2-14.327 2.755-16.531 0 0 1.1-.551 1.1 3.857a47.531 47.531 0 0 0 .61 10.074 7.665 7.665 0 0 0 1.596 3.706s1.653 2.2 1.653 0c.004 0-7.159-19.837-9.363-20.388 0 0-1.1-.551 0 3.857 0 0 3.022 6.745 4.267 9.709a13.7 13.7 0 0 0 1.794 3.512" transform="matrix(-.99862953 .05233596 -.05233596 -.99862953 154.63365677472 47.99496442496)"/></g><text fill="#fff" font-family="AlibabaPuHuiTiH, Alibaba PuHuiTi" font-size="56" transform="matrix(.92050485 -.39073113 .39073113 .92050485 43.847 161.897)"><tspan x="0" y="0">已售罄</tspan></text></svg>