<svg xmlns="http://www.w3.org/2000/svg" width="150" height="150" viewBox="0 0 150 150">
  <g id="组_3536" data-name="组 3536" transform="translate(7952 1885)">
    <circle id="椭圆_439" data-name="椭圆 439" cx="75" cy="75" r="75" transform="translate(-7952 -1885)" fill="#333"/>
    <g id="组_3534" data-name="组 3534" transform="translate(-8163 -1889)">
      <path id="路径_28" data-name="路径 28" d="M16,37.721a38.524,38.524,0,0,0,7.1.574c12.529,0,22.6-8.447,22.6-18.9S35.626.5,23.1.5.5,8.947.5,19.4c0,6.084,3.431,11.453,8.651,14.889L7.3,40.025Z" transform="translate(246.111 77.779)" fill="#3fb838" fill-rule="evenodd"/>
    </g>
    <path id="路径_330" data-name="路径 330" d="M314,354H253.529l-.011-.019c-.55-.06-.721-.37-1.518-1.907-4.4-8.175-1.247-2.381-4.756-9.086-.783-1.692-1.531-1.988-3.25-1.988H232a5,5,0,0,0,0,10h7.99l3.4,8.092.783,1.755c.4.792,1.317,3.6,4.721,3.6h51.728a5.418,5.418,0,0,1,2.33.371,2.485,2.485,0,0,1,1.059,3.071l-7.241,25.1c-1,3-1.652,4.671-4.652,4.671H284A28.242,28.242,0,0,1,280.978,407H301c2.75,0,4-2,5-5l12.594-41.849A4.967,4.967,0,0,0,314,354Z" transform="translate(-8150 -2189)" fill="#fff"/>
  </g>
</svg>
