<svg height="100" viewBox="0 0 100 100" width="100" xmlns="http://www.w3.org/2000/svg"><path d="m0 0h100v100h-100z" fill="#fff"/><path d="m14.651 44.736h69.8v41.313h-69.8z" fill="#fff3d2"/><rect fill="#18c5ff" height="17.907" rx="1" width="21.193" x="22.945" y="58.577"/><path d="m0 16.677v-7.012l9.971-9.665h7.7l-17.536 17.179a1 1 0 0 1 -.135-.502z" fill="#4de8ff" transform="translate(22.945 58.577)"/><path d="m0 17.685 17.719-17.685h.44a1 1 0 0 1 1 1v1.944l-14.728 14.741z" fill="#4de8ff" transform="translate(24.979 58.577)"/><rect fill="#f1f8ff" height="4.575" rx=".5" width="26.106" x="20.443" y="75.323"/><path d="m.5 2.288a.5.5 0 0 1 -.5-.5v-1.788h26.106v1.787a.5.5 0 0 1 -.5.5z" fill="#d4dff1" transform="translate(20.443 77.611)"/><rect fill="#ffca3d" height="5.466" rx="1" width="55.69" x="21.886" y="23.492"/><path d="m478.055 744.657a7.106 7.106 0 0 0 -.036.713v4.6a7.007 7.007 0 0 0 7.007 7.007h1.005a7.007 7.007 0 0 0 7.007-7.007v-4.6a7.106 7.106 0 0 0 -.036-.713z" fill="#ff5a68" transform="translate(-450.866 -706.834)"/><path d="m546.645 744.657a7.106 7.106 0 0 0 -.036.713v4.6a7.007 7.007 0 0 0 7.007 7.007h1a7.007 7.007 0 0 0 7.007-7.007v-4.6a7.034 7.034 0 0 0 -.036-.713z" fill="#fc1a19" transform="translate(-504.535 -706.834)"/><path d="m615.235 744.657a7.017 7.017 0 0 0 -.036.713v4.6a7.006 7.006 0 0 0 7.007 7.007h1a7.007 7.007 0 0 0 7.007-7.007v-4.6a7.017 7.017 0 0 0 -.036-.713z" fill="#ff5a68" transform="translate(-558.203 -706.834)"/><path d="m683.824 744.657a7.07 7.07 0 0 0 -.036.713v4.6a7.007 7.007 0 0 0 7.007 7.007h1.005a7.007 7.007 0 0 0 7.007-7.007v-4.6a7.07 7.07 0 0 0 -.036-.713z" fill="#fc1a19" transform="translate(-611.871 -706.834)"/><path d="m434.89 708.739h-11.532l-9.066 6.558c-1.748 1.448-1.8 2.363-1.8 2.363h15z" fill="#e80115" transform="translate(-400.227 -679.781)"/><path d="m722.5 707.981h11.132l9.252 6.679c1.695 1.185 1.859 2.263 1.859 2.263h-15.01z" fill="#e80115" transform="translate(-657.785 -679.024)"/><path d="m489.18 708.739-7.44 8.866h14.84l3.06-8.866z" fill="#ff8383" transform="translate(-454.535 -679.782)"/><path d="m639.866 724.7-2.239 8.921h14.973l-3.236-8.921z" fill="#e80115" transform="translate(-595.573 -695.74)"/><path d="m495.227 927.057v-5.932a1.835 1.835 0 0 0 -1.922-1.734h-71.054a1.835 1.835 0 0 0 -1.922 1.734v5.932z" fill="#f1f8ff" transform="translate(-408.227 -834.616)"/><path d="m523.97 617.449h-4.839a15.4 15.4 0 0 0 -27.908 0h-4.839c-.859 0-1.555.962-1.555 2.149v5.923h40.7v-5.921c-.005-1.189-.701-2.151-1.559-2.151z" fill="#fe0000" transform="translate(-454.386 -601.97)"/><path d="m491.882 708.739 7.267 8.951h-15l-3.178-8.951z" fill="#ff8383" transform="translate(-427.157 -679.782)"/><path d="m683.824 744.657a7.07 7.07 0 0 0 -.036.713v4.6a7.007 7.007 0 0 0 7.007 7.007h1.005a7.007 7.007 0 0 0 7.007-7.007v-4.6a7.07 7.07 0 0 0 -.036-.713z" fill="#fc1a19" transform="translate(-671.557 -706.834)"/><rect fill="#18c5ff" height="17.907" rx="1" width="21.193" x="54.497" y="58.577"/><path d="m0 16.677v-7.012l9.971-9.665h7.7l-17.536 17.179a1 1 0 0 1 -.135-.502z" fill="#4de8ff" transform="translate(54.497 58.577)"/><path d="m0 17.685 17.719-17.685h.44a1 1 0 0 1 1 1v1.944l-14.728 14.741z" fill="#4de8ff" transform="translate(56.531 58.577)"/><rect fill="#f1f8ff" height="4.575" rx=".5" width="26.106" x="51.995" y="75.323"/><g fill="#d4dff1"><path d="m.5 2.288a.5.5 0 0 1 -.5-.5v-1.788h26.106v1.787a.5.5 0 0 1 -.5.5z" transform="translate(51.995 77.611)"/><path d="m0 3.833v-3.833h74.9v3.833z" transform="translate(12.103 88.607)"/></g></svg>