<svg xmlns="http://www.w3.org/2000/svg" xmlns:xlink="http://www.w3.org/1999/xlink" width="500" height="500" viewBox="0 0 500 500">
  <defs>
    <filter id="椭圆_540" x="20" y="20.804" width="460" height="460" filterUnits="userSpaceOnUse">
      <feOffset input="SourceAlpha"/>
      <feGaussianBlur stdDeviation="5" result="blur"/>
      <feFlood flood-color="#de0000" flood-opacity="0.51"/>
      <feComposite operator="in" in2="blur"/>
      <feComposite in="SourceGraphic"/>
    </filter>
    <clipPath id="clip-path">
      <path id="路径_20597" data-name="路径 20597" d="M205,0C318.218,0,410,91.782,410,205S318.218,410,205,410,0,318.218,0,205,91.782,0,205,0Z" transform="translate(45 45)" fill="#fefefd"/>
    </clipPath>
  </defs>
  <g id="组_4883" data-name="组 4883" transform="translate(0 0.804)">
    <g id="椭圆_539" data-name="椭圆 539" transform="translate(0 -0.804)" fill="#f3a93c" stroke="#ffd58c" stroke-width="3">
      <circle cx="250" cy="250" r="250" stroke="none"/>
      <circle cx="250" cy="250" r="248.5" fill="none"/>
    </g>
    <g transform="matrix(1, 0, 0, 1, 0, -0.8)" filter="url(#椭圆_540)">
      <g id="椭圆_540-2" data-name="椭圆 540" transform="translate(35 35.8)" fill="#fc715f" stroke="#ff5245" stroke-width="2">
        <circle cx="215" cy="215" r="215" stroke="none"/>
        <circle cx="215" cy="215" r="214" fill="none"/>
      </g>
    </g>
    <g id="组_4882" data-name="组 4882" transform="translate(2.567 6.25)">
      <g id="组_4867" data-name="组 4867" transform="translate(-2723.876 -1085.709) rotate(-30)">
        <g id="椭圆_542" data-name="椭圆 542" transform="translate(1901 2399)" fill="rgba(255,255,255,0.55)" stroke="#fff" stroke-width="2">
          <circle cx="7.5" cy="7.5" r="7.5" stroke="none"/>
          <circle cx="7.5" cy="7.5" r="6.5" fill="none"/>
        </g>
        <g id="椭圆_543" data-name="椭圆 543" transform="translate(1901 2860)" fill="rgba(255,255,255,0.55)" stroke="#fff" stroke-width="2">
          <circle cx="7.5" cy="7.5" r="7.5" stroke="none"/>
          <circle cx="7.5" cy="7.5" r="6.5" fill="none"/>
        </g>
      </g>
      <g id="组_4868" data-name="组 4868" transform="matrix(0.966, -0.259, 0.259, 0.966, -2278.542, -1809.44)">
        <g id="椭圆_542-2" data-name="椭圆 542" transform="translate(1901 2399)" fill="#fff351" stroke="#fff" stroke-width="2">
          <circle cx="7.5" cy="7.5" r="7.5" stroke="none"/>
          <circle cx="7.5" cy="7.5" r="6.5" fill="none"/>
        </g>
        <g id="椭圆_543-2" data-name="椭圆 543" transform="translate(1901 2860)" fill="#fff351" stroke="#fff" stroke-width="2">
          <circle cx="7.5" cy="7.5" r="7.5" stroke="none"/>
          <circle cx="7.5" cy="7.5" r="6.5" fill="none"/>
        </g>
      </g>
      <g id="组_4869" data-name="组 4869" transform="translate(-1661.067 -2393.25)">
        <g id="椭圆_542-3" data-name="椭圆 542" transform="translate(1901 2399)" fill="rgba(255,255,255,0.55)" stroke="#fff" stroke-width="2">
          <circle cx="7.5" cy="7.5" r="7.5" stroke="none"/>
          <circle cx="7.5" cy="7.5" r="6.5" fill="none"/>
        </g>
        <g id="椭圆_543-3" data-name="椭圆 543" transform="translate(1901 2860)" fill="rgba(255,255,255,0.55)" stroke="#fff" stroke-width="2">
          <circle cx="7.5" cy="7.5" r="7.5" stroke="none"/>
          <circle cx="7.5" cy="7.5" r="6.5" fill="none"/>
        </g>
      </g>
      <g id="组_4870" data-name="组 4870" transform="translate(-913.531 -2797.353) rotate(15)">
        <g id="椭圆_542-4" data-name="椭圆 542" transform="translate(1901 2399)" fill="#fff351" stroke="#fff" stroke-width="2">
          <circle cx="7.5" cy="7.5" r="7.5" stroke="none"/>
          <circle cx="7.5" cy="7.5" r="6.5" fill="none"/>
        </g>
        <g id="椭圆_543-4" data-name="椭圆 543" transform="translate(1901 2860)" fill="#fff351" stroke="#fff" stroke-width="2">
          <circle cx="7.5" cy="7.5" r="7.5" stroke="none"/>
          <circle cx="7.5" cy="7.5" r="6.5" fill="none"/>
        </g>
      </g>
      <g id="组_4871" data-name="组 4871" transform="translate(-86.876 -2994.209) rotate(30)">
        <g id="椭圆_542-5" data-name="椭圆 542" transform="translate(1901 2399)" fill="rgba(255,255,255,0.55)" stroke="#fff" stroke-width="2">
          <circle cx="7.5" cy="7.5" r="7.5" stroke="none"/>
          <circle cx="7.5" cy="7.5" r="6.5" fill="none"/>
        </g>
        <g id="椭圆_543-5" data-name="椭圆 543" transform="translate(1901 2860)" fill="rgba(255,255,255,0.55)" stroke="#fff" stroke-width="2">
          <circle cx="7.5" cy="7.5" r="7.5" stroke="none"/>
          <circle cx="7.5" cy="7.5" r="6.5" fill="none"/>
        </g>
      </g>
      <g id="组_4872" data-name="组 4872" transform="translate(762.56 -2970.404) rotate(45)">
        <g id="椭圆_542-6" data-name="椭圆 542" transform="translate(1901 2399)" fill="#fff351" stroke="#fff" stroke-width="2">
          <circle cx="7.5" cy="7.5" r="7.5" stroke="none"/>
          <circle cx="7.5" cy="7.5" r="6.5" fill="none"/>
        </g>
        <g id="椭圆_543-6" data-name="椭圆 543" transform="translate(1901 2860)" fill="#fff351" stroke="#fff" stroke-width="2">
          <circle cx="7.5" cy="7.5" r="7.5" stroke="none"/>
          <circle cx="7.5" cy="7.5" r="6.5" fill="none"/>
        </g>
      </g>
      <g id="组_4873" data-name="组 4873" transform="translate(1576.892 -2727.56) rotate(60)">
        <g id="椭圆_542-7" data-name="椭圆 542" transform="translate(1901 2399)" fill="rgba(255,255,255,0.55)" stroke="#fff" stroke-width="2">
          <circle cx="7.5" cy="7.5" r="7.5" stroke="none"/>
          <circle cx="7.5" cy="7.5" r="6.5" fill="none"/>
        </g>
        <g id="椭圆_543-7" data-name="椭圆 543" transform="translate(1901 2860)" fill="rgba(255,255,255,0.55)" stroke="#fff" stroke-width="2">
          <circle cx="7.5" cy="7.5" r="7.5" stroke="none"/>
          <circle cx="7.5" cy="7.5" r="6.5" fill="none"/>
        </g>
      </g>
      <g id="组_4874" data-name="组 4874" transform="matrix(0.259, 0.966, -0.966, 0.259, 2300.623, -2282.225)">
        <g id="椭圆_542-8" data-name="椭圆 542" transform="translate(1901 2399)" fill="#fff351" stroke="#fff" stroke-width="2">
          <circle cx="7.5" cy="7.5" r="7.5" stroke="none"/>
          <circle cx="7.5" cy="7.5" r="6.5" fill="none"/>
        </g>
        <g id="椭圆_543-8" data-name="椭圆 543" transform="translate(1901 2860)" fill="#fff351" stroke="#fff" stroke-width="2">
          <circle cx="7.5" cy="7.5" r="7.5" stroke="none"/>
          <circle cx="7.5" cy="7.5" r="6.5" fill="none"/>
        </g>
      </g>
      <g id="组_4875" data-name="组 4875" transform="translate(2884.433 -1664.75) rotate(90)">
        <g id="椭圆_542-9" data-name="椭圆 542" transform="translate(1901 2399)" fill="rgba(255,255,255,0.55)" stroke="#fff" stroke-width="2">
          <circle cx="7.5" cy="7.5" r="7.5" stroke="none"/>
          <circle cx="7.5" cy="7.5" r="6.5" fill="none"/>
        </g>
        <g id="椭圆_543-9" data-name="椭圆 543" transform="translate(1901 2860)" fill="rgba(255,255,255,0.55)" stroke="#fff" stroke-width="2">
          <circle cx="7.5" cy="7.5" r="7.5" stroke="none"/>
          <circle cx="7.5" cy="7.5" r="6.5" fill="none"/>
        </g>
      </g>
      <g id="组_4876" data-name="组 4876" transform="translate(3288.535 -917.214) rotate(105)">
        <g id="椭圆_542-10" data-name="椭圆 542" transform="translate(1901 2399)" fill="#fff351" stroke="#fff" stroke-width="2">
          <circle cx="7.5" cy="7.5" r="7.5" stroke="none"/>
          <circle cx="7.5" cy="7.5" r="6.5" fill="none"/>
        </g>
        <g id="椭圆_543-10" data-name="椭圆 543" transform="translate(1901 2860)" fill="#fff351" stroke="#fff" stroke-width="2">
          <circle cx="7.5" cy="7.5" r="7.5" stroke="none"/>
          <circle cx="7.5" cy="7.5" r="6.5" fill="none"/>
        </g>
      </g>
      <g id="组_4877" data-name="组 4877" transform="translate(3485.392 -90.56) rotate(120)">
        <g id="椭圆_542-11" data-name="椭圆 542" transform="translate(1901 2399)" fill="rgba(255,255,255,0.55)" stroke="#fff" stroke-width="2">
          <circle cx="7.5" cy="7.5" r="7.5" stroke="none"/>
          <circle cx="7.5" cy="7.5" r="6.5" fill="none"/>
        </g>
        <g id="椭圆_543-11" data-name="椭圆 543" transform="translate(1901 2860)" fill="rgba(255,255,255,0.55)" stroke="#fff" stroke-width="2">
          <circle cx="7.5" cy="7.5" r="7.5" stroke="none"/>
          <circle cx="7.5" cy="7.5" r="6.5" fill="none"/>
        </g>
      </g>
      <g id="组_4878" data-name="组 4878" transform="translate(3461.587 758.877) rotate(135)">
        <g id="椭圆_542-12" data-name="椭圆 542" transform="translate(1901 2399)" fill="#fff351" stroke="#fff" stroke-width="2">
          <circle cx="7.5" cy="7.5" r="7.5" stroke="none"/>
          <circle cx="7.5" cy="7.5" r="6.5" fill="none"/>
        </g>
        <g id="椭圆_543-12" data-name="椭圆 543" transform="translate(1901 2860)" fill="#fff351" stroke="#fff" stroke-width="2">
          <circle cx="7.5" cy="7.5" r="7.5" stroke="none"/>
          <circle cx="7.5" cy="7.5" r="6.5" fill="none"/>
        </g>
      </g>
    </g>
    <g id="蒙版组_4" data-name="蒙版组 4" clip-path="url(#clip-path)">
      <g id="组_4881" data-name="组 4881">
        <path id="路径_20591" data-name="路径 20591" d="M205,205V0A204.9,204.9,0,0,1,382.565,102.483Zm0,0h0Z" transform="translate(-30.035 174.964) rotate(-30)" fill="#fbcc96"/>
        <path id="路径_20592" data-name="路径 20592" d="M382.564,0V205A204.9,204.9,0,0,1,205,102.517Zm0,0h0Z" transform="translate(-81.311 441.283) rotate(-30)" fill="#fff"/>
        <path id="路径_20593" data-name="路径 20593" d="M205,205V0A204.9,204.9,0,0,1,382.565,102.483Zm0,0h0Z" transform="translate(45 455) rotate(-90)" fill="#fff"/>
        <path id="路径_20594" data-name="路径 20594" d="M382.564,0V205A204.9,204.9,0,0,1,205,102.517Zm0,0h0Z" transform="translate(250 632.565) rotate(-90)" fill="#fbcc96"/>
        <path id="路径_20595" data-name="路径 20595" d="M205,205V0A204.9,204.9,0,0,1,382.565,102.483Zm0,0h0Z" transform="translate(325.035 530.035) rotate(-150)" fill="#fbcc96"/>
        <path id="路径_20596" data-name="路径 20596" d="M382.564,0V205A204.9,204.9,0,0,1,205,102.517Zm0,0h0Z" transform="translate(581.311 441.283) rotate(-150)" fill="#fff"/>
      </g>
    </g>
  </g>
</svg>
