<svg xmlns="http://www.w3.org/2000/svg" width="240" height="240" viewBox="0 0 240 240">
  <g id="组_3535" data-name="组 3535" transform="translate(-213 -1069)">
    <g id="矩形_627" data-name="矩形 627" transform="translate(213 1069)" fill="#fff" stroke="#c2c2c2" stroke-width="2">
      <rect width="240" height="240" rx="10" stroke="none"/>
      <rect x="1" y="1" width="238" height="238" rx="9" fill="none"/>
    </g>
    <g id="组_1417" data-name="组 1417" transform="translate(287 1145)">
      <g id="组_1399" data-name="组 1399" transform="translate(0 7.234)">
        <g id="组_1389" data-name="组 1389" transform="translate(0 0)">
          <path id="路径_265" data-name="路径 265" d="M113.592,93.965a6.838,6.838,0,0,1-6.916,6.821H29.85a6.894,6.894,0,0,1-6.916-6.821V43.389a6.838,6.838,0,0,1,6.916-6.821H42.8a7.232,7.232,0,0,0,5.753-3.948H49c2.064-3.86,5.665-6.558,12.142-6.558H75.08c5.753,0,10.429,2.237,12.405,6.733l.549,1.162H88.3a6.319,6.319,0,0,0,3.14,2.61h15.194a6.894,6.894,0,0,1,6.916,6.821V93.965Zm0,0" transform="translate(-22.934 -26.062)" fill="#c2c2c2"/>
        </g>
        <path id="路径_263" data-name="路径 263" d="M343.432,341.3a20.31,20.31,0,1,0,20.332,20.31,20.3,20.3,0,0,0-20.332-20.31Zm0,34.039A13.752,13.752,0,1,1,357.2,361.588a13.767,13.767,0,0,1-13.767,13.752Zm0,0" transform="translate(-298.026 -317.679)" fill="#fff"/>
      </g>
      <g id="组_1400" data-name="组 1400" transform="translate(68)">
        <g id="椭圆_236" data-name="椭圆 236" transform="translate(0)" fill="#707070" stroke="#707070" stroke-width="1">
          <circle cx="22" cy="22" r="22" stroke="none"/>
          <circle cx="22" cy="22" r="21.5" fill="none"/>
        </g>
        <g id="组_1392" data-name="组 1392" transform="translate(8.462 8.462)">
          <line id="直线_221" data-name="直线 221" x2="27.077" transform="translate(0 13.538)" fill="none" stroke="#fff" stroke-linecap="round" stroke-width="4"/>
          <line id="直线_222" data-name="直线 222" y2="27.077" transform="translate(13.538)" fill="none" stroke="#fff" stroke-linecap="round" stroke-width="4"/>
        </g>
      </g>
    </g>
  </g>
</svg>
