<?xml version="1.0" standalone="no"?><!DOCTYPE svg PUBLIC "-//W3C//DTD SVG 1.1//EN" "http://www.w3.org/Graphics/SVG/1.1/DTD/svg11.dtd"><svg t="1615868798744" class="icon" viewBox="0 0 1024 1024" version="1.1" xmlns="http://www.w3.org/2000/svg" p-id="2053" xmlns:xlink="http://www.w3.org/1999/xlink" width="64" height="64"><defs><style type="text/css"></style></defs><path d="M512 407.5c-82.5 0-149.3 66.9-149.3 149.3 0 82.5 66.9 149.3 149.3 149.3 82.5 0 149.3-66.9 149.3-149.3 0-82.5-66.8-149.3-149.3-149.3z m388.3-149.4H721.1l-59.7-89.6H362.7L303 258.1H123.7c-33 0-59.7 26.7-59.7 59.7v477.9c0 33 26.7 59.7 59.7 59.7h776.5c33 0 59.7-26.7 59.7-59.7V317.9c0.1-33-26.6-59.8-59.6-59.8zM512 750.9c-107.2 0-194.1-86.9-194.1-194.1S404.8 362.7 512 362.7s194.1 86.9 194.1 194.1S619.2 750.9 512 750.9z m298.7-388.2c-16.5 0-29.9-13.4-29.9-29.9s13.4-29.9 29.9-29.9 29.9 13.4 29.9 29.9-13.4 29.9-29.9 29.9z" fill="#8a8a8a" p-id="2054"></path></svg>