<svg xmlns="http://www.w3.org/2000/svg" xmlns:xlink="http://www.w3.org/1999/xlink" width="710" height="200" viewBox="0 0 710 200"><defs><style>.a{fill:none;}.b{fill:url(#a);}.c{fill:#020202;opacity:0.11;}.d{fill:url(#b);}.e{clip-path:url(#c);}.f{fill:#c29221;}.g{fill:#be922e;}.h{fill:url(#d);}.i{fill:#c59422;}.j{fill:url(#e);}.k{clip-path:url(#f);}.l{fill:url(#g);}.m{fill:url(#h);}.n{clip-path:url(#i);}.o{fill:url(#j);}.p{fill:url(#k);}.q{fill:url(#m);}.r{fill:url(#o);}.s{fill:url(#q);}.t{fill:url(#s);}.u{fill:url(#t);}.v{fill:url(#u);}.w{fill:url(#v);}.x{fill:url(#y);}.y{fill:#bc8e21;}.z{clip-path:url(#z);}.aa{fill:#ad831e;}.ab{fill:#896718;}.ac{fill:#c39322;}.ad{clip-path:url(#aa);}.ae{fill:#856417;}.af{clip-path:url(#ab);}.ag{fill:#946f1a;}.ah{fill:#99731a;}.ai{fill:#9e771b;}.aj{fill:#a37b1c;}.ak{fill:#a87f1d;}.al{fill:#b3861f;}.am{fill:#b88a20;}.an{fill:#8f6c19;}.ao{fill:#8a6818;}.ap{fill:url(#ac);}.aq{fill:url(#ad);}.ar{fill:url(#ae);}.as{fill:url(#af);}.at{fill:url(#ag);}.au{fill:url(#ah);}.av{fill:url(#ai);}.aw{fill:#a26a63;}.ax{fill:url(#aj);}.ay{fill:url(#ak);}.az{fill:url(#al);}.ba{fill:url(#am);}.bb{fill:url(#an);}.bc{fill:url(#ao);}.bd{fill:url(#ap);}.be{fill:url(#aq);}.bf{fill:url(#ar);}.bg{fill:url(#as);}.bh{fill:url(#at);}.bi{fill:url(#au);}.bj{fill:url(#av);}.bk{fill:url(#aw);}.bl{fill:url(#ax);}.bm{fill:url(#ay);}.bn{fill:url(#az);}.bo{fill:url(#ba);}.bp{fill:url(#bb);}.bq{fill:url(#bc);}.br{fill:url(#bd);}.bs{fill:url(#be);}.bt{fill:url(#bf);}.bu{fill:url(#bg);}.bv{fill:url(#bh);}.bw{fill:url(#bi);}.bx{fill:url(#bj);}.by,.cq{fill:#d6bc6f;}.bz{fill:url(#bk);}.ca{fill:url(#bl);}.cb{fill:url(#bm);}.cc{fill:url(#bn);}.cd{fill:url(#bo);}.ce{fill:url(#bp);}.cf{fill:url(#bq);}.cg{fill:url(#br);}.ch{fill:#24242d;}.ci{fill:url(#bs);}.cj{fill:url(#bt);}.ck{fill:url(#bu);}.cl{fill:url(#bv);}.cm{fill:url(#bw);}.cn{fill:#404040;}.co,.cp{fill:#333;}.co{font-size:28px;font-family:PingFang SC Bold, PingFang SC;}.cq{font-size:22px;font-family:PingFang SC Regular, PingFang SC;}</style><linearGradient id="a" x1="0.076" y1="0.326" x2="0.971" y2="0.959" gradientUnits="objectBoundingBox"><stop offset="0" stop-color="#f6de96"/><stop offset="1" stop-color="#ceb15a"/></linearGradient><linearGradient id="b" x1="1.439" y1="-1.158" x2="1.934" y2="-1.739" gradientUnits="objectBoundingBox"><stop offset="0" stop-color="#f1d98f"/><stop offset="1" stop-color="#ac790c"/></linearGradient><clipPath id="c"><path class="a" d="M1235.511,772.366l17.5,10.171c-.088.1-5.939,3.435-12.3,7.1-3.211,1.854-6.552,3.794-9.343,5.441-4.818,2.843-8.245,7.431-11,11.118-1.966,2.632-3.677,4.922-5.377,5.9l-17.5-10.171c1.7-.982,3.411-3.271,5.377-5.9,2.754-3.687,6.181-8.275,11-11.118,2.791-1.647,6.132-3.588,9.343-5.441C1229.572,775.8,1235.423,772.469,1235.511,772.366Z" transform="translate(-1197.496 -772.366)"/></clipPath><linearGradient id="d" x1="1.179" y1="-0.502" x2="0.747" y2="0.156" xlink:href="#b"/><linearGradient id="e" x1="1.365" y1="0.811" x2="0.262" y2="0.14" gradientUnits="objectBoundingBox"><stop offset="0" stop-color="#f1d98f"/><stop offset="0.631" stop-color="#e9ce80"/><stop offset="1" stop-color="#ac790c"/></linearGradient><clipPath id="f"><path class="a" d="M1471,1435.911l17.5-10.171c-.088-.1-5.938-3.435-12.3-7.1-3.211-1.854-6.552-3.794-9.343-5.441-4.818-2.843-8.245-7.431-11-11.118-1.966-2.632-3.677-4.922-5.377-5.9l-17.5,10.171c1.7.981,3.411,3.271,5.377,5.9,2.754,3.687,6.181,8.275,11,11.118,2.792,1.647,6.133,3.587,9.343,5.441C1465.056,1432.477,1470.907,1435.808,1471,1435.911Z" transform="translate(-1432.98 -1396.173)"/></clipPath><linearGradient id="g" x1="1.054" y1="0.288" x2="0.622" y2="0.945" xlink:href="#b"/><linearGradient id="h" x1="0.243" y1="0.813" x2="0.738" y2="0.232" xlink:href="#b"/><clipPath id="i"><path class="a" d="M99.195,1406.742l-17.5-10.171c.088-.1,5.938-3.435,12.3-7.1,3.211-1.854,6.552-3.794,9.343-5.442,4.818-2.842,8.245-7.431,11-11.118,1.966-2.632,3.677-4.922,5.377-5.9l17.5,10.171c-1.7.982-3.411,3.272-5.377,5.9-2.754,3.687-6.181,8.275-11,11.118-2.791,1.647-6.132,3.588-9.343,5.442C105.133,1403.307,99.283,1406.639,99.195,1406.742Z" transform="translate(-81.693 -1367.003)"/></clipPath><linearGradient id="j" x1="0.639" y1="0.288" x2="0.207" y2="0.945" xlink:href="#b"/><linearGradient id="k" x1="0" y1="0.5" x2="1" y2="0.5" xlink:href="#b"/><linearGradient id="m" x1="-0.367" y1="3.28" x2="0.633" y2="3.28" xlink:href="#b"/><linearGradient id="o" x1="0" y1="8.184" x2="1" y2="8.184" xlink:href="#b"/><linearGradient id="q" x1="-4.545" y1="3.223" x2="-3.453" y2="3.223" xlink:href="#b"/><linearGradient id="s" y1="0.5" x2="1" y2="0.5" gradientUnits="objectBoundingBox"><stop offset="0" stop-color="#282733"/><stop offset="1" stop-color="#454554"/></linearGradient><linearGradient id="t" y1="0.5" x2="1" y2="0.5" gradientUnits="objectBoundingBox"><stop offset="0" stop-color="#282733"/><stop offset="1" stop-color="#3f3f4b"/></linearGradient><linearGradient id="u" x1="0.5" x2="0.5" y2="1" gradientUnits="objectBoundingBox"><stop offset="0" stop-color="#d4b058"/><stop offset="1" stop-color="#be922e"/></linearGradient><linearGradient id="v" x1="0.5" x2="0.5" y2="1" gradientUnits="objectBoundingBox"><stop offset="0" stop-color="#be922e"/><stop offset="1" stop-color="#ac790c"/></linearGradient><linearGradient id="y" y1="0.5" x2="1" y2="0.5" gradientUnits="objectBoundingBox"><stop offset="0" stop-color="#282733"/><stop offset="1" stop-color="#353544"/></linearGradient><clipPath id="z"><path class="a" d="M5.386,0,5.381,1.857C3.587,3.716,1.793,5.293,0,7.188L.005,5.33C1.8,3.435,3.593,1.859,5.386,0Z" transform="translate(0)"/></clipPath><clipPath id="aa"><path class="a" d="M2.869,2.919,2.864,4.777c0-.91-1.023-1.856-2.864-2.919L.005,0C1.847,1.063,2.872,2.01,2.869,2.919Z"/></clipPath><clipPath id="ab"><path class="a" d="M19.356,0,19.35,1.857c0,1.278-.938,2.564-3.112,3.828C11.089,8.678,4.877,7.774,0,4.959L.005,3.1c4.877,2.816,11.09,3.719,16.239.726C18.418,2.564,19.352,1.278,19.356,0Z"/></clipPath><linearGradient id="ac" x1="0.708" y1="0.188" x2="0.312" y2="1.157" xlink:href="#b"/><linearGradient id="ad" x1="0.744" y1="-0.096" x2="0.234" y2="1.151" xlink:href="#b"/><linearGradient id="ae" x1="0.688" y1="0.161" x2="0.292" y2="1.407" xlink:href="#b"/><linearGradient id="af" x1="0.919" y1="0.543" x2="0.027" y2="0.626" gradientUnits="objectBoundingBox"><stop offset="0" stop-color="#eacf82"/><stop offset="1" stop-color="#af7e13"/></linearGradient><linearGradient id="ag" y1="0.5" x2="1" y2="0.5" gradientUnits="objectBoundingBox"><stop offset="0" stop-color="#545454" stop-opacity="0.502"/><stop offset="1" stop-color="#333" stop-opacity="0.8"/></linearGradient><linearGradient id="ah" x1="0.07" y1="0.17" x2="0.827" y2="0.403" gradientUnits="objectBoundingBox"><stop offset="0" stop-color="#cba649"/><stop offset="1" stop-color="#d6b55e"/></linearGradient><linearGradient id="ai" y1="0.5" x2="1" y2="0.5" gradientUnits="objectBoundingBox"><stop offset="0" stop-color="#c39937"/><stop offset="1" stop-color="#f0d78d"/></linearGradient><linearGradient id="aj" x1="0.109" y1="0.136" x2="0.575" y2="0.769" gradientUnits="objectBoundingBox"><stop offset="0" stop-color="#292834"/><stop offset="1" stop-color="#3c3c48"/></linearGradient><linearGradient id="ak" x1="1" y1="0.813" x2="0.089" y2="0.813" gradientUnits="objectBoundingBox"><stop offset="0" stop-color="#424251"/><stop offset="1" stop-color="#2c2b38"/></linearGradient><linearGradient id="al" x1="0.265" y1="0.382" x2="0.5" y2="1" gradientUnits="objectBoundingBox"><stop offset="0" stop-color="#cea84e"/><stop offset="1" stop-color="#c09533"/></linearGradient><linearGradient id="am" x1="0.5" y1="0.5" x2="0.5" y2="1" gradientUnits="objectBoundingBox"><stop offset="0" stop-color="#ba8c27"/><stop offset="1" stop-color="#ae7c10"/></linearGradient><linearGradient id="an" x1="0.178" y1="0.227" x2="0.649" y2="0.831" xlink:href="#aj"/><linearGradient id="ao" x1="0.873" y1="0.5" x2="0.21" y2="0.766" gradientUnits="objectBoundingBox"><stop offset="0" stop-color="#434352"/><stop offset="1" stop-color="#2c2b37"/></linearGradient><linearGradient id="ap" x1="0.5" x2="0.5" y2="1" gradientUnits="objectBoundingBox"><stop offset="0" stop-color="#333342"/><stop offset="1" stop-color="#2d2d3a"/></linearGradient><linearGradient id="aq" x1="0.5" y1="0.273" x2="0.325" y2="0.5" gradientUnits="objectBoundingBox"><stop offset="0" stop-color="#eed489"/><stop offset="1" stop-color="#c19735"/></linearGradient><linearGradient id="ar" x1="0.183" y1="0.11" x2="0.5" y2="1" gradientUnits="objectBoundingBox"><stop offset="0" stop-color="#ba8c26"/><stop offset="1" stop-color="#ae7c10"/></linearGradient><linearGradient id="as" x1="1" y1="0.5" x2="0.5" y2="1" gradientUnits="objectBoundingBox"><stop offset="0" stop-color="#d0aa50"/><stop offset="1" stop-color="#c09432"/></linearGradient><linearGradient id="at" x1="0.5" x2="0.5" y2="1" gradientUnits="objectBoundingBox"><stop offset="0" stop-color="#efd68c"/><stop offset="1" stop-color="#b5851d"/></linearGradient><linearGradient id="au" x1="0.5" x2="0.5" y2="1" gradientUnits="objectBoundingBox"><stop offset="0" stop-color="#ccac58"/><stop offset="1" stop-color="#b2821a"/></linearGradient><linearGradient id="av" x1="0.875" y1="0.5" x2="0.176" y2="0.751" gradientUnits="objectBoundingBox"><stop offset="0" stop-color="#cea84c"/><stop offset="1" stop-color="#ac790c"/></linearGradient><linearGradient id="aw" x1="0.5" x2="0.5" y2="1" gradientUnits="objectBoundingBox"><stop offset="0" stop-color="#424251"/><stop offset="1" stop-color="#333"/></linearGradient><linearGradient id="ax" x1="0.5" x2="0.5" y2="1" gradientUnits="objectBoundingBox"><stop offset="0" stop-color="#3c3c48"/><stop offset="1" stop-color="#333"/></linearGradient><linearGradient id="ay" x1="0.785" x2="0.154" y2="0.5" gradientUnits="objectBoundingBox"><stop offset="0" stop-color="#454553"/><stop offset="1" stop-color="#292834"/></linearGradient><linearGradient id="az" x1="0.241" y1="0.186" x2="0.66" y2="1" gradientUnits="objectBoundingBox"><stop offset="0" stop-color="#3b3a46"/><stop offset="1" stop-color="#424244"/></linearGradient><linearGradient id="ba" x1="0.116" y1="0.684" x2="0.721" y2="1" gradientUnits="objectBoundingBox"><stop offset="0" stop-color="#2e2d39"/><stop offset="1" stop-color="#3c3c48"/></linearGradient><linearGradient id="bb" x1="0.743" y1="0.394" x2="0.156" y2="0.864" gradientUnits="objectBoundingBox"><stop offset="0" stop-color="#3d3d4b"/><stop offset="1" stop-color="#2c2c39"/></linearGradient><linearGradient id="bc" x1="0.854" y1="0.137" x2="0.284" y2="0.785" gradientUnits="objectBoundingBox"><stop offset="0" stop-color="#31313f"/><stop offset="1" stop-color="#333"/></linearGradient><linearGradient id="bd" x1="0.058" y1="0.5" x2="0.794" y2="0.5" gradientUnits="objectBoundingBox"><stop offset="0" stop-color="#2a2935"/><stop offset="1" stop-color="#3c3c48"/></linearGradient><linearGradient id="be" x1="0.745" y1="0.166" x2="0.254" y2="0.714" xlink:href="#ao"/><linearGradient id="bf" x1="0.5" x2="0.5" y2="1" gradientUnits="objectBoundingBox"><stop offset="0" stop-color="#cfa94e"/><stop offset="1" stop-color="#c09532"/></linearGradient><linearGradient id="bg" x1="0.5" x2="0.5" y2="1" gradientUnits="objectBoundingBox"><stop offset="0" stop-color="#b98b25"/><stop offset="1" stop-color="#af7d11"/></linearGradient><linearGradient id="bh" x1="0.735" x2="0.258" y2="0.794" gradientUnits="objectBoundingBox"><stop offset="0" stop-color="#f0d88d"/><stop offset="1" stop-color="#b98a24"/></linearGradient><linearGradient id="bi" x1="0.139" y1="0.5" x2="1" y2="0.5" gradientUnits="objectBoundingBox"><stop offset="0" stop-color="#c19735"/><stop offset="1" stop-color="#eed489"/></linearGradient><linearGradient id="bj" x1="0.5" x2="0.5" y2="1" gradientUnits="objectBoundingBox"><stop offset="0" stop-color="#4a4a4a"/><stop offset="1" stop-color="#333"/></linearGradient><linearGradient id="bk" x1="0.32" y1="0.619" x2="0.622" y2="0.846" gradientUnits="objectBoundingBox"><stop offset="0" stop-color="#bf9330"/><stop offset="1" stop-color="#8a6818"/></linearGradient><linearGradient id="bl" x1="0.067" y1="0.281" x2="0.937" y2="0.884" gradientUnits="objectBoundingBox"><stop offset="0" stop-color="#ead083"/><stop offset="1" stop-color="#c39939"/></linearGradient><linearGradient id="bm" x1="0.951" y1="0.877" x2="-0.042" y2="0.12" gradientUnits="objectBoundingBox"><stop offset="0" stop-color="#ac790c"/><stop offset="1" stop-color="#d6bc6f"/></linearGradient><linearGradient id="bn" x1="0.5" x2="0.5" y2="1" gradientUnits="objectBoundingBox"><stop offset="0" stop-color="#f1d98f"/><stop offset="1" stop-color="#b88922"/></linearGradient><linearGradient id="bo" y1="0.277" x2="0.5" y2="1" gradientUnits="objectBoundingBox"><stop offset="0" stop-color="#d6bc6f"/><stop offset="1" stop-color="#be922e"/></linearGradient><linearGradient id="bp" x1="0.5" x2="0.5" y2="1" gradientUnits="objectBoundingBox"><stop offset="0" stop-color="#c19634"/><stop offset="1" stop-color="#896718"/></linearGradient><linearGradient id="bq" x1="0.138" y1="0.246" x2="0.5" y2="1" gradientUnits="objectBoundingBox"><stop offset="0" stop-color="#4a4a4a"/><stop offset="1" stop-color="#292834"/></linearGradient><linearGradient id="br" x1="0.5" x2="0.5" y2="1" gradientUnits="objectBoundingBox"><stop offset="0" stop-color="#e8cd7e"/><stop offset="1" stop-color="#ae7c10"/></linearGradient><linearGradient id="bs" x1="0.5" x2="0.5" y2="1" gradientUnits="objectBoundingBox"><stop offset="0" stop-color="#333"/><stop offset="1" stop-color="#1a1a1a"/></linearGradient><linearGradient id="bt" x1="0.862" y1="0.029" x2="0.289" y2="0.764" gradientUnits="objectBoundingBox"><stop offset="0" stop-color="#393939"/><stop offset="1" stop-color="#333"/></linearGradient><linearGradient id="bu" x1="0.762" y1="0.149" x2="0.236" y2="0.853" gradientUnits="objectBoundingBox"><stop offset="0" stop-color="#464545"/><stop offset="1" stop-color="#292935"/></linearGradient><linearGradient id="bv" x1="0.863" y1="0.067" x2="0.167" y2="0.858" gradientUnits="objectBoundingBox"><stop offset="0" stop-color="#585858"/><stop offset="1" stop-color="#2b2a36"/></linearGradient><linearGradient id="bw" x1="0.5" x2="0.5" y2="1" gradientUnits="objectBoundingBox"><stop offset="0" stop-color="#404040"/><stop offset="1" stop-color="#2b2b2b"/></linearGradient></defs><g transform="translate(-20 -859)"><rect class="b" width="710" height="200" rx="10" transform="translate(20 859)"/><g transform="translate(-44.082 661.287)"><path class="c" d="M448.077,1422.56l-31.715,20.695,7.119-19.2Z" transform="translate(-291.856 -1079.64)"/><path class="c" d="M1350.684,1450.057a19.688,19.688,0,0,1,8.679,4.668c3.476,3.524,11.6,11.594,14.762,12.705l-5.438-18.654Z" transform="translate(-1116.906 -1102.791)"/><path class="c" d="M946.783,659.494l65.295-33.5-89.077-59Z" transform="translate(-754.754 -300.592)"/><g transform="translate(192.876 260.43)"><path class="d" d="M950.576,1029.515l-.034.015-.221.095-.046.019-.237.1-.051.022-.229.1-.016.007-.238.106-.053.024-.232.1-.032.014-.212.1-.045.02-.225.1-.047.022-.219.1-.012.006-.223.1-.051.024-.216.1-.031.015-.195.093-.041.02-.208.1-.043.021-.2.1-.012.006-.2.1-.045.022-.193.095-.031.015-.173.086-.032.016-.185.092-.037.018-.18.09,0,0-.177.089-.037.019-.165.084-.028.014-.143.073-.029.015-.153.079-.029.015-.149.077h0l-.142.074-.029.015-.131.068-.02.011-.111.058-.022.012-.113.059-.026.014-.105.056h0l-.1.053-.023.013-.09.047-.007,0-.083.044-.005,0-.073.04-.014.007-.056.03-.014.007-.046.025-.01.005-.041.023-.006,0-.027.015-.005,0-.019.01-.006,0-.007,0-6.795,3.884,18.118,10.409,6.178-4.122.007,0,.006,0,.019-.01,0,0,.031-.017h0l.043-.023.01-.005.046-.025.014-.007.056-.03.014-.007.072-.039.009,0,.08-.043.008,0,.091-.049.02-.011.211-.112.023-.012.115-.061.022-.011.112-.059.02-.01.131-.068.029-.015.142-.074h0l.148-.076.03-.016.152-.078.031-.016.14-.072.03-.015.165-.084.035-.018.177-.09,0,0,.179-.09.039-.02.183-.091.035-.017.172-.085.031-.016.193-.095.046-.022.2-.1.009,0,.2-.1.043-.021.208-.1.039-.018.2-.094.031-.015.216-.1.05-.024.223-.1.015-.007.216-.1.049-.023.225-.1.043-.02.213-.1.031-.014.232-.1.053-.024.238-.105.016-.007.228-.1.052-.023.236-.1.046-.02.221-.095.034-.015.242-.1.054-.023.245-.1.078-.032.193-.079.106-.043.165-.067.115-.046.157-.062.118-.046.154-.06.12-.046.152-.058.121-.046.15-.056.122-.045.148-.054.123-.044.147-.052.122-.043.146-.051.121-.042.146-.049.119-.04.148-.048.117-.038.148-.047.114-.036.152-.046.106-.032.163-.047.093-.027.206-.057.047-.013.236-.062.072-.019.162-.041.084-.02.151-.035.082-.019.164-.035.062-.014.22-.043.042-.008.174-.031.072-.012.125-.02.173-.024.08-.011c.083-.01.164-.02.244-.027.993-.094,1.825-.149,2.558-.2l.211-.014.072,0,.165-.011.06,0,.211-.015.04,0,.168-.012.062,0,.165-.013.04,0,.195-.016.049,0,.149-.014.056-.005.189-.019h.007l.179-.02.054-.006.142-.017.048-.006.181-.025.036-.005.1-.015.024,0q.143-.022.286-.047l.051-.009q.135-.024.27-.052l.035-.007q.144-.03.29-.065l.063-.015c.1-.023.2-.048.3-.075l.009,0,.114-.032.079-.022.149-.044.06-.018.213-.067.045-.015.173-.058.082-.029.141-.05.094-.035.134-.05.1-.039.132-.052.107-.043.1-.042.035-.015.072-.03.164-.07.077-.033.187-.082.054-.024.246-.112.062-.029.195-.091.086-.041.189-.091.081-.04.274-.136q.125-.062.25-.135l-17.5-10.171q-.125.072-.25.135l-.274.136-.081.039-.189.091-.086.041-.195.092-.062.029-.246.112-.054.024-.187.083-.077.033-.164.07-.071.03-.138.056-.106.043-.133.052-.1.039-.135.05-.093.035-.144.051-.078.028-.176.059-.042.014-.213.068-.06.018-.149.044-.079.022-.123.034c-.1.027-.2.052-.3.075l-.063.015c-.1.023-.194.045-.29.065l-.035.007q-.135.028-.27.052l-.051.009q-.143.025-.286.047l-.126.019-.034,0-.182.025-.047.006-.144.018-.053.006-.182.02h-.005l-.19.019-.055.005-.15.014-.049,0-.2.016-.04,0-.164.013-.062,0-.168.012-.04,0-.212.015-.06,0-.166.011-.071,0-.212.014c-.733.048-1.565.1-2.558.2-.08.008-.161.017-.244.027l-.08.011-.173.024-.04.005-.085.014-.073.012-.173.031-.043.008-.22.043-.062.013-.163.035-.082.019-.151.035-.084.02-.162.04-.073.018-.234.062h0l-.049.014-.2.057-.094.027-.162.047-.106.032-.152.046-.114.036-.148.047-.116.038-.147.048-.119.04-.147.049-.122.042-.146.051-.123.043-.147.052-.123.044-.149.054-.122.045-.15.056-.121.046-.152.058-.12.046-.154.06-.118.046-.158.063-.114.045-.166.067-.105.042-.192.079-.078.032-.005,0-.24.1-.054.022Z" transform="translate(-937.085 -995.613)"/><g transform="translate(30.456)"><g class="e"><g transform="translate(0 -0.001)"><path class="f" d="M1540.1,782.529h0l-17.5-10.171" transform="translate(-1484.576 -772.36)"/><path class="g" d="M1321.141,772.512l3.639,9.976,13.863.2c-.406.279-6.1,3.524-12.274,7.088-3.211,1.854-6.552,3.794-9.343,5.441a26.013,26.013,0,0,0-5.032,3.952l-17.5-10.171a26.018,26.018,0,0,1,5.032-3.952c2.791-1.647,6.132-3.588,9.343-5.441,6.173-3.564,11.868-6.808,12.274-7.088" transform="translate(-1283.148 -772.494)"/><path class="h" d="M1197.5,926.507l17.5,10.171a8.218,8.218,0,0,0,1.621-1.29c.308-.3.618-.64.932-1h0c.433-.5.874-1.047,1.327-1.631l-3.708-2.154,3.708,2.154c.484-.625.982-1.291,1.5-1.98.558-.747,1.143-1.53,1.762-2.329.677-.874,1.394-1.766,2.16-2.646.646-.744,1.326-1.479,2.045-2.19l-17.5-10.171c-.719.711-1.4,1.447-2.045,2.19-.765.881-1.483,1.772-2.16,2.646-.619.8-1.2,1.582-1.762,2.329-.515.689-1.012,1.355-1.5,1.98h0c-.453.584-.894,1.132-1.327,1.631h0c-.315.362-.625.7-.933,1A8.222,8.222,0,0,1,1197.5,926.507Z" transform="translate(-1197.496 -896.938)"/></g></g></g><g transform="translate(0.229 0.017)"><path class="i" d="M969.268,802.062q-.125.072-.25.135a15.219,15.219,0,0,1-7.354,1.906c-.734.048-1.566.1-2.558.2-4.573.433-13.411,5.3-13.5,5.348l-6.566,3.791,6.566-3.844c.089-.05,8.935-4.92,13.517-5.354.993-.094,1.825-.148,2.559-.2a15.18,15.18,0,0,0,7.338-1.9q.124-.062.248-.134c1.687-.974,3.391-3.257,5.35-5.879,2.759-3.693,6.192-8.291,11.024-11.141,2.787-1.644,6.12-3.58,9.326-5.431,6.363-3.674,12.2-6.995,12.291-7.045-.088.1-5.917,3.418-12.274,7.088-3.211,1.854-6.552,3.794-9.343,5.441-4.818,2.843-8.245,7.431-11,11.118C972.679,798.791,970.969,801.081,969.268,802.062Z" transform="translate(-939.041 -772.512)"/></g><path class="c" d="M1425.486,848.644l-15.555-11.209,7.039,16.251Z" transform="translate(-1354.63 -829.825)"/></g><g transform="translate(209.705 329.847)"><path class="j" d="M1187.787,1316.12l-.034-.015-.221-.095-.045-.02-.237-.1-.051-.022-.229-.1-.016-.007-.237-.106-.053-.024-.232-.1-.032-.014-.211-.1-.045-.02-.225-.1-.047-.022-.219-.1-.012-.005-.223-.1-.051-.024-.216-.1-.031-.015-.195-.093-.041-.019-.208-.1-.043-.021-.2-.1-.012-.006-.2-.1-.045-.022-.193-.095-.031-.016-.173-.086-.032-.016-.185-.092-.037-.018-.18-.09,0,0-.177-.089-.036-.019-.166-.084-.028-.014-.143-.073-.03-.015-.153-.079-.029-.015-.148-.077h0l-.142-.074-.029-.015-.131-.068-.02-.01-.112-.058-.022-.012-.113-.06-.027-.014-.1-.056h0l-.1-.053-.023-.012-.09-.048-.008,0-.083-.044-.005,0-.073-.04-.014-.008-.056-.03-.014-.008-.046-.025-.01-.005-.041-.023-.006,0-.027-.015-.005,0-.019-.01-.006,0-.008,0-6.566-3.791,17.5-10.171,6.566,3.791.007,0,.006,0,.019.01,0,0,.031.017h0l.043.024.01.005.046.025.013.008.056.03.014.007.073.039.009,0,.08.043.008,0,.091.049.02.011.211.112.023.012.115.06.022.011.112.059.02.011.131.068.029.015.142.074h0l.148.076.031.015.152.078.031.016.14.072.031.016.165.084.035.018.177.09,0,0,.179.09.039.02.183.091.035.018.172.085.031.015.193.095.046.022.2.1.009,0,.2.1.043.021.208.1.039.019.2.094.031.014.216.1.05.024.223.1.015.007.216.1.049.023.225.1.043.02.213.1.031.014.232.1.053.024.237.106.016.007.228.1.052.023.236.1.046.02.221.094.034.015.242.1.053.023.245.1.078.032.193.079.106.043.166.067.115.046.157.062.118.046.154.06.12.046.152.058.121.046.15.056.123.045.148.054.123.044.147.052.123.043.146.051.121.042.147.049.119.04.147.048.117.038.148.047.114.036.153.046.106.032.163.047.093.027.206.057.047.013.236.062.072.018.163.041.083.02.151.035.082.019.164.036.062.013.22.043.042.008.174.031.072.012.125.02.173.024.08.011c.083.01.164.019.244.027.993.094,1.825.148,2.558.2l.211.014.072,0,.165.011.061,0,.212.015.04,0,.168.012.062.005.165.012.04,0,.2.016.049,0,.149.013.056.005.189.019h.008l.179.02.054.006.142.018.048.006.181.025.036.005.1.015.024,0,.286.047.051.01q.135.025.27.052l.035.007c.1.02.193.042.29.065l.063.015c.1.023.2.048.3.075l.01,0,.114.032.079.022.149.044.06.018.213.068.045.015.173.058.081.029.141.05.094.035.134.05.1.04.133.052.107.043.1.042.035.015.072.03.164.07.078.033.187.082.054.024.246.112.062.029.194.091.086.041.188.091.082.04.274.135c.083.042.166.087.25.135l-17.5,10.171q-.125-.072-.25-.135l-.274-.135-.081-.04-.189-.091-.086-.041-.195-.092-.062-.029-.246-.112-.053-.024-.187-.083-.077-.033-.164-.07-.072-.03-.138-.057-.106-.043-.133-.052-.1-.039-.135-.05-.093-.035-.144-.051-.078-.028-.176-.059-.042-.014-.213-.068-.06-.018-.149-.044-.079-.022-.123-.034c-.1-.027-.2-.052-.3-.075l-.063-.015q-.145-.035-.29-.065l-.035-.007q-.135-.028-.27-.052l-.051-.009q-.142-.025-.286-.047l-.126-.019-.034-.005-.182-.025-.047-.006-.144-.018-.053-.006-.182-.02h0l-.19-.019-.055-.005-.15-.013-.049,0-.195-.016-.041,0-.164-.013-.062,0-.168-.012-.04,0-.211-.015-.06,0-.166-.011-.071,0-.212-.014c-.733-.048-1.565-.1-2.558-.2-.08-.007-.162-.017-.244-.027l-.08-.011-.173-.024-.04-.005-.085-.014-.073-.012-.173-.031-.043-.008-.22-.044-.062-.013-.163-.035-.082-.019-.151-.035-.084-.02-.162-.04-.072-.018-.233-.062h0l-.049-.014-.2-.057-.094-.027-.162-.047-.106-.032-.152-.046-.114-.036-.148-.047-.116-.037-.148-.048-.119-.04-.147-.049-.121-.042-.146-.051-.123-.043-.146-.052-.123-.044-.149-.054-.122-.045-.15-.056-.122-.046-.152-.058-.12-.046-.154-.06-.118-.046-.158-.063-.114-.045-.166-.067-.105-.042-.192-.079-.078-.032,0,0-.24-.1-.054-.022Z" transform="translate(-1174.525 -1298.909)"/><g transform="translate(30.227 11.375)"><g class="k"><path class="f" d="M1775.584,1648.994h0l-17.5,10.171" transform="translate(-1720.06 -1619.425)"/><path class="g" d="M1556.625,1534.568l3.639-9.976,13.863-.195c-.406-.279-6.1-3.524-12.274-7.088-3.211-1.854-6.552-3.794-9.343-5.442a26,26,0,0,1-5.032-3.952l-17.5,10.171a26.013,26.013,0,0,0,5.032,3.952c2.791,1.647,6.133,3.588,9.343,5.441,6.173,3.564,11.868,6.809,12.274,7.088" transform="translate(-1518.632 -1494.847)"/><path class="l" d="M1432.98,1406.344l17.5-10.171a8.239,8.239,0,0,1,1.621,1.291c.308.3.618.64.933,1h0c.433.5.874,1.047,1.326,1.631l-3.707,2.155,3.707-2.155c.484.625.982,1.291,1.5,1.98.557.747,1.143,1.531,1.761,2.329.677.874,1.395,1.765,2.16,2.646.646.744,1.326,1.479,2.045,2.19l-17.5,10.171c-.719-.711-1.4-1.447-2.045-2.19-.765-.881-1.482-1.773-2.16-2.646-.619-.8-1.2-1.582-1.762-2.329-.515-.689-1.012-1.355-1.5-1.98h0c-.452-.584-.893-1.132-1.326-1.63h0c-.315-.362-.625-.7-.933-1A8.222,8.222,0,0,0,1432.98,1406.344Z" transform="translate(-1432.98 -1396.173)"/></g></g><g transform="translate(0 10.171)"><path class="i" d="M1204.752,1397.25q-.125-.072-.25-.135a15.221,15.221,0,0,0-7.354-1.906c-.733-.048-1.565-.1-2.558-.2-4.573-.432-13.411-5.3-13.5-5.348l-6.566-3.791,6.566,3.844c.089.05,8.935,4.921,13.517,5.354.993.094,1.825.148,2.56.2a15.177,15.177,0,0,1,7.338,1.9q.125.062.249.134c1.687.974,3.391,3.256,5.35,5.879,2.759,3.693,6.193,8.29,11.024,11.141,2.787,1.645,6.12,3.58,9.326,5.432,6.363,3.674,12.2,6.995,12.291,7.045-.088-.1-5.917-3.418-12.274-7.088-3.211-1.853-6.552-3.794-9.343-5.441-4.818-2.843-8.245-7.431-11-11.118C1208.163,1400.522,1206.453,1398.232,1204.752,1397.25Z" transform="translate(-1174.525 -1385.875)"/></g><path class="c" d="M1232.729,1338.623l20.064-9-7.5-3.759-16.63,10.726Z" transform="translate(-1225.8 -1324.097)"/></g><g transform="translate(93.693 330.962)"><path class="m" d="M441.2,1284.449l.034-.015.221-.095.046-.02.237-.1.051-.022.229-.1.016-.007.237-.106.053-.024.232-.1.032-.014.211-.1.045-.02.225-.1.047-.022.219-.1.012-.006.223-.1.051-.024.216-.1.031-.015.195-.093.041-.019.208-.1.043-.021.2-.1.012-.006.2-.1.045-.022.193-.095.031-.016.173-.086.032-.016.185-.092.037-.018.18-.091h0l.177-.09.037-.018.166-.084.028-.014.143-.073.029-.015.153-.079.029-.015.149-.077h0l.142-.074.029-.015.131-.068.02-.011.111-.058.022-.012.113-.059.027-.014.1-.056h0l.1-.053.023-.012.089-.048.008,0,.083-.044.005,0,.074-.04.014-.007.055-.03.014-.008.046-.025.01-.006.041-.022.006,0,.027-.015.005,0,.019-.01.006,0,.008,0,6.794-3.884-18.118-10.409-6.178,4.122-.008,0-.006,0-.019.01,0,0-.031.017h0l-.043.023-.01.005-.046.025-.014.007-.056.03-.014.008-.072.039-.009,0-.08.043-.008,0-.091.049-.02.01-.211.112-.023.012-.115.06-.022.011-.112.059-.02.011-.131.068-.029.015-.142.074h0l-.148.076-.03.016-.152.078-.031.016-.141.072-.03.016-.165.084-.035.018-.178.09,0,0-.179.09-.039.02-.183.091-.035.017-.172.085-.031.016-.193.095-.045.022-.2.1-.009,0-.2.1-.043.021-.208.1-.039.019-.2.094-.031.015-.216.1-.05.023-.223.1-.015.007-.216.1-.049.023-.225.1-.043.019-.213.1-.031.014-.232.1-.053.024-.237.106-.016.007-.228.1-.052.023-.236.1-.046.02-.221.095-.034.015-.242.1-.054.023-.245.1-.078.032-.192.079-.106.043-.166.067-.115.045-.157.063-.118.046-.154.06-.12.046-.152.058-.121.046-.15.056-.123.045-.148.054-.123.044-.147.052-.122.043-.146.051-.122.042-.147.049-.119.04-.147.048-.117.038-.148.047-.114.035-.153.046-.106.032-.163.047-.093.027-.206.057-.047.013-.236.062-.072.018-.163.04-.084.02-.151.035-.081.018-.164.035-.062.013-.22.044-.042.008-.174.031-.072.012-.125.02-.173.024-.08.011c-.082.01-.164.019-.244.027-.993.094-1.825.148-2.558.2l-.211.014-.072,0-.165.011-.06,0-.211.015-.04,0-.168.012-.062,0-.165.013-.04,0-.2.016-.049,0-.149.014-.056.005-.189.019H412.5l-.179.02-.054.006-.142.017-.048.006-.181.025-.036.005-.1.015-.024,0q-.143.022-.286.047l-.051.009-.27.052-.035.007q-.144.03-.29.065l-.063.015c-.1.024-.2.048-.3.075l-.009,0-.114.032-.079.022-.149.044-.06.018-.213.068-.045.015-.172.058-.082.029-.141.05-.094.035-.134.05-.1.04-.132.052-.107.044-.1.042-.035.015-.072.03-.164.07-.077.033-.187.082-.054.024-.246.112-.062.029-.195.091-.086.041-.189.091-.082.04-.274.136c-.083.042-.166.087-.25.134l17.5,10.171q.125-.072.25-.135l.274-.136.081-.04.189-.091.086-.041.195-.091.062-.029.246-.112.054-.024.187-.082.077-.033.164-.07.072-.03.138-.057.107-.043.133-.052.1-.039.135-.05.093-.035.144-.051.078-.028.176-.059.042-.014.213-.067.06-.018.149-.044.079-.022.123-.034c.1-.027.2-.052.3-.075l.063-.015q.146-.035.29-.065l.035-.007q.135-.028.27-.052l.051-.009q.143-.025.286-.047l.126-.019.034-.005.182-.025.047-.006.144-.018.053-.006.182-.02h.005l.19-.019.055-.005.15-.014.049,0,.2-.016.04,0,.164-.013.062,0,.168-.012.04,0,.211-.015.06,0,.166-.011.071,0,.212-.014c.733-.048,1.565-.1,2.558-.2.08-.008.162-.017.244-.027l.08-.011.173-.024.04-.006.085-.014.073-.012.173-.031.044-.008.22-.044.063-.013.163-.035.082-.019.151-.035.084-.02.162-.04.073-.018.233-.062h0l.049-.014.2-.056.094-.027.162-.047.106-.032.152-.046.114-.036.148-.047.116-.038.148-.048.119-.04.147-.049.121-.042.146-.051.123-.043.147-.052.123-.045.149-.054.122-.045.15-.056.121-.046.152-.058.12-.046.154-.06.118-.046.158-.063.114-.045.166-.067.105-.043.193-.079.078-.032.005,0,.24-.1.054-.022Z" transform="translate(-368.72 -1266.907)"/><g transform="translate(0 11.707)"><g class="n"><g transform="translate(-0.008)"><path class="f" d="M81.626,1619.825h0l17.5,10.171" transform="translate(-81.626 -1590.256)"/><path class="g" d="M99.383,1505.4l-3.639-9.976-13.863-.195c.406-.28,6.1-3.524,12.274-7.088,3.211-1.854,6.552-3.794,9.343-5.441a26.011,26.011,0,0,0,5.032-3.952l17.5,10.171a26,26,0,0,1-5.032,3.953c-2.791,1.647-6.132,3.588-9.343,5.441-6.173,3.564-11.868,6.809-12.274,7.088" transform="translate(-81.851 -1465.677)"/><path class="o" d="M338.585,1377.174,321.083,1367a8.224,8.224,0,0,0-1.621,1.29c-.308.3-.618.64-.933,1h0c-.433.5-.874,1.047-1.326,1.631l3.707,2.155-3.707-2.155c-.484.625-.982,1.291-1.5,1.98-.558.747-1.143,1.53-1.762,2.329-.677.874-1.394,1.765-2.16,2.646-.646.743-1.326,1.479-2.045,2.19l17.5,10.171c.719-.711,1.4-1.447,2.045-2.19.765-.881,1.483-1.773,2.16-2.646.619-.8,1.2-1.582,1.762-2.329.515-.689,1.012-1.355,1.5-1.98h0c.452-.583.893-1.132,1.326-1.631h0c.315-.362.625-.7.933-1A8.227,8.227,0,0,1,338.585,1377.174Z" transform="translate(-283.06 -1367.003)"/></g></g></g><g transform="translate(17.524 10.502)"><path class="i" d="M269.522,1368.08q.125-.072.25-.135a15.222,15.222,0,0,1,7.354-1.906c.733-.048,1.565-.1,2.558-.2,4.573-.433,13.411-5.3,13.5-5.348l6.566-3.791-6.566,3.844c-.089.049-8.935,4.92-13.517,5.354-.993.094-1.825.148-2.56.2a15.176,15.176,0,0,0-7.338,1.9q-.124.062-.248.134c-1.687.974-3.391,3.256-5.35,5.879-2.759,3.694-6.192,8.29-11.024,11.141-2.787,1.645-6.12,3.58-9.326,5.431-6.363,3.674-12.2,7-12.291,7.045.088-.1,5.917-3.418,12.274-7.088,3.211-1.854,6.552-3.794,9.343-5.441,4.818-2.843,8.245-7.431,11-11.118C266.111,1371.352,267.821,1369.062,269.522,1368.08Z" transform="translate(-231.529 -1356.705)"/></g></g><path class="p" d="M885.856,1537.884l3.784-1.043s3.294,2.887,3.294,4.972l-3.294.642S888.161,1538.365,885.856,1537.884Z" transform="translate(-706.442 -1180.555)"/><path class="p" d="M296.53,1164.9l-3.784-1.043s-2.18-.625-3.088,3.472l3.294.642S293.966,1164.191,296.53,1164.9Z" transform="translate(-179.971 -851.161)"/><path class="q" d="M1647.144,1333.04l-3.784,1.042s-3.294-2.887-3.294-4.972l3.294-.641S1644.839,1332.558,1647.144,1333.04Z" transform="translate(-1372.444 -996.553)"/><path class="p" d="M1232.373,1664.278l-.937.818,1.327.9,1.325-.858Z" transform="translate(-1011.605 -1293.088)"/><path class="r" d="M782.061,1657.564l-.937-.614,1.327-.672,1.326.643Z" transform="translate(-613.958 -1286.023)"/><path class="p" d="M631.426,1517.005l-.937.819,1.327.9,1.326-.858Z" transform="translate(-480.94 -1163.039)"/><path class="s" d="M255.6,1250l-1.265-.6-.824,1.374,1.692.863Z" transform="translate(-148.048 -926.737)"/><path class="p" d="M1767.706,1424.811l-.937.819,1.327.9,1.325-.858Z" transform="translate(-1484.329 -1081.628)"/><g transform="translate(127.296 213.997)"><g transform="translate(65.044 44.247)"><path class="t" d="M565.281,786.541V719.853l59.054-34.1V752.42Z" transform="translate(-565.281 -685.752)"/></g><g transform="translate(6.152 44.341)"><g transform="translate(0)"><path class="u" d="M407.9,752.661V686l58.9,34v66.7Z" transform="translate(-407.896 -686.004)"/></g></g><path d="M407.893,628.987,466.976,594.9,525.84,628.9,466.787,663Z" transform="translate(-401.742 -584.651)"/><g transform="translate(89.563 56.884)"><g transform="translate(0 0)"><path class="v" d="M631.493,795.14V728.914l17.583-7.451v63.5Z" transform="translate(-630.809 -721.476)"/></g></g><g transform="translate(26.803 58.71)"><g transform="translate(0 0)"><path class="w" d="M484.344,797.8V730.645l-17.452-6.373v63.434Z" transform="translate(-467.892 -724.052)"/></g></g><g transform="translate(65.035 37.54)"><path class="t" d="M565.259,718.964V705.486l65.214-37.657v13.454Z" transform="translate(-565.259 -667.829)"/></g><g transform="translate(0.001 37.644)"><path class="u" d="M391.457,681.55V668.106L456.5,705.654v13.49Z" transform="translate(-391.457 -668.106)"/></g><path class="x" d="M391.454,605.143,456.7,567.5l65,37.537L456.491,642.7Z" transform="translate(-391.454 -567.505)"/></g><g transform="translate(164.492 225.168) rotate(3)"><g transform="translate(12.408 2.745)"><path class="y" d="M7.97,0,7.965,1.858,0,9.968.005,8.111Z" transform="translate(0 0)"/></g><g transform="translate(7.027 10.856)"><g class="z" transform="translate(0 0)"><g transform="translate(0)"><path class="aa" d="M5.386,0,5.381,1.857C3.587,3.716,1.793,5.293,0,7.188L.005,5.33C1.8,3.435,3.593,1.859,5.386,0"/></g></g></g><g transform="translate(0 17.107)"><path class="ab" d="M5.4,3.117,5.4,4.974,0,1.858.005,0Z" transform="translate(0 0)"/></g><g transform="translate(5.399 11.139)"><path class="ac" d="M29.519,0l-.005,1.857L0,10.942.005,9.085Z" transform="translate(0 0)"/></g><g transform="translate(20.932 15.911)"><path class="i" d="M22.556,0l-.005,1.857L0,14.962.005,13.1Z" transform="translate(0 0)"/></g><g transform="translate(16.393 26.395)"><path class="ab" d="M4.545,2.621,4.539,4.478,0,1.858.005,0Z" transform="translate(0 0)"/></g><g transform="translate(52.044 25.244)"><path class="ab" d="M2.582,1.488,2.577,3.345,0,1.857.005,0Z" transform="translate(0 0)"/></g><g transform="translate(44.639 25.244)"><path class="i" d="M7.411,0,7.405,1.857,0,6.161.005,4.3Z" transform="translate(0 0)"/></g><g transform="translate(54.622 26.732)"><g class="ad" transform="translate(0 0)"><path class="ae" d="M2.869,2.919,2.864,4.777c0-.91-1.023-1.856-2.864-2.919L.005,0C1.847,1.063,2.872,2.01,2.869,2.919"/></g></g><g transform="translate(41.074 31.619)"><path class="ab" d="M3.042,1.753,3.037,3.611,0,1.857.005,0Z" transform="translate(0 0)"/></g><g transform="translate(28.52 33.656)"><path class="ab" d="M4.545,2.621,4.539,4.478,0,1.858.005,0Z" transform="translate(0 0)"/></g><g transform="translate(33.059 31.619)"><path class="i" d="M8.02,0,8.014,1.857,0,6.515.005,4.657Z" transform="translate(0 0)"/></g><g transform="translate(44.11 30.272)"><g class="af" transform="translate(0 0)"><g transform="translate(0 0)"><path class="ag" d="M.006,0,0,1.857c0,.023,0,.046,0,.069L.005.069c0-.023,0-.046,0-.069" transform="translate(19.349 0)"/><path class="ah" d="M.056,0,.05,1.857A2.632,2.632,0,0,1,0,2.3L.005.44A2.642,2.642,0,0,0,.056,0" transform="translate(19.299 0.069)"/><path class="ai" d="M.13,0,.125,1.857A2.8,2.8,0,0,1,0,2.293L.005.435A2.818,2.818,0,0,0,.13,0" transform="translate(19.174 0.509)"/><path class="aj" d="M.219,0,.214,1.858A3.241,3.241,0,0,1,0,2.314L.005.456A3.221,3.221,0,0,0,.219,0" transform="translate(18.96 0.945)"/><path class="ak" d="M.349,0,.344,1.858A4.065,4.065,0,0,1,0,2.367L.005.509A4.087,4.087,0,0,0,.349,0" transform="translate(18.616 1.401)"/><path class="aa" d="M.617,0,.612,1.858A5.6,5.6,0,0,1,0,2.512L.005.654A5.6,5.6,0,0,0,.617,0" transform="translate(18.004 1.91)"/><path class="al" d="M1.589,0,1.584,1.857A9.765,9.765,0,0,1,0,3.014L.005,1.156A9.755,9.755,0,0,0,1.589,0" transform="translate(16.42 2.564)"/><path class="am" d="M2.8,0,2.794,1.857l-.181.107A13.5,13.5,0,0,1,0,3.133L.005,1.275A13.488,13.488,0,0,0,2.619.107L2.8,0" transform="translate(13.626 3.721)"/><path class="al" d="M1.807,0,1.8,1.858A13.84,13.84,0,0,1,0,2.311L.005.454A13.844,13.844,0,0,0,1.807,0" transform="translate(11.824 4.996)"/><path class="aa" d="M1.156,0,1.151,1.857q-.573.1-1.151.161L.005.161Q.583.1,1.156,0" transform="translate(10.673 5.449)"/><path class="ak" d="M.982,0,.977,1.858Q.49,1.906,0,1.923L.005.065Q.495.048.982,0" transform="translate(9.696 5.611)"/><path class="aj" d="M.923,0,.917,1.857q-.458.016-.917,0L.005,0Q.464.015.923,0" transform="translate(8.778 5.676)"/><path class="ai" d="M.93.05.925,1.907Q.462,1.9,0,1.858L.005,0Q.467.038.93.05" transform="translate(7.853 5.63)"/><path class="ah" d="M.986.11.981,1.968Q.49,1.927,0,1.858L.005,0Q.494.07.986.11" transform="translate(6.872 5.519)"/><path class="ag" d="M1.1.191,1.093,2.049Q.544,1.971,0,1.858L.005,0Q.549.113,1.1.191" transform="translate(5.779 5.328)"/><path class="an" d="M1.314.323,1.309,2.18Q.65,2.043,0,1.857L.005,0Q.654.185,1.314.323" transform="translate(4.471 5.006)"/><path class="ao" d="M1.79.606,1.785,2.464Q.879,2.205,0,1.858L.005,0Q.883.346,1.79.606" transform="translate(2.686 4.399)"/><path class="ae" d="M2.691,1.3,2.686,3.155A20.252,20.252,0,0,1,0,1.858L.005,0A20.226,20.226,0,0,0,2.691,1.3" transform="translate(0 3.101)"/></g></g></g><g transform="translate(0.005 0)"><g transform="translate(0 0)"><g transform="translate(0)"><path class="ap" d="M34.912,11.139,5.4,20.224,0,17.107,15.619,0l4.755,2.745-7.965,8.111c-1.794,1.859-3.588,3.436-5.381,5.33l.153.089c3.235-1.063,6.011-2.072,9.215-3.117L30.311,8.483Z"/></g></g><g transform="translate(16.393 13.29)"><g transform="translate(0 0)"><path class="aq" d="M27.09,2.621l-22.55,13.1L0,13.105,22.551,0Z" transform="translate(0)"/></g></g><g transform="translate(28.52 20.551)"><g transform="translate(0 0)"><path class="ar" d="M30,4.3c5.03,2.9,7.159,6.145,1.825,9.244-5.15,2.993-11.362,2.089-16.239-.726l-3.037-1.753L4.539,15.726,0,13.1,22.551,0ZM18.849,10.573c3.128,1.806,5.942,1.912,8.532.407C30,9.456,29.23,7.987,26.1,6.181L23.524,4.693,16.119,9l2.73,1.576"/></g></g></g></g></g><g transform="translate(71.251 -107.756)"><g transform="translate(135.316 999.588) rotate(-3)"><g transform="translate(0)"><path class="as" d="M279.755,81.734,130.94,4.5a4.631,4.631,0,0,0-4.188,0L.857,73.7a1.284,1.284,0,0,0,.014,2.427L150.52,156.406a4.632,4.632,0,0,0,4.189,0L279.77,84.16A1.284,1.284,0,0,0,279.755,81.734Zm-5.318,2.128L154.089,152.746a4.422,4.422,0,0,1-4,0L7.193,76.367a1.226,1.226,0,0,1-.013-2.317l120.192-65.9a4.423,4.423,0,0,1,4,0L274.424,81.546A1.226,1.226,0,0,1,274.438,83.862Z" transform="translate(4.071 3.353)"/><path class="at" d="M241.355,69.548a1.1,1.1,0,0,1,.012,2.085L132.976,134.539a3.982,3.982,0,0,1-3.6,0L.749,65.421a1.1,1.1,0,0,1-.011-2.086L109.025,2.427a3.981,3.981,0,0,1,3.6,0Z" transform="translate(23.858 11.315)"/><path class="au" d="M-3168.806,142.245h0a3.748,3.748,0,0,1-1.658-.347l-.239-.112c-13.3-6.206-129.964-60.645-131.443-61.243-1.548-.625-1.539-1.463-1.539-1.472V75.21a1.44,1.44,0,0,0,.753.759l132.067,62.291a3.564,3.564,0,0,0,1.59.342,3.759,3.759,0,0,0,2.005-.53l104.952-68.492a1.493,1.493,0,0,0,.635-.744c-.018,1.173-.026,2.658.01,3.308a2.506,2.506,0,0,1-1.018,1.808c-1,.647-99.754,64.81-102.607,66.978A5.79,5.79,0,0,1-3168.806,142.245Z" transform="translate(3326.989 173.734) rotate(3)"/></g><path class="av" d="M227.965,65.484,106.366,2.4a3.761,3.761,0,0,0-3.4,0L.7,59.819a1.042,1.042,0,0,0,.011,1.97l121.5,65a3.76,3.76,0,0,0,3.4,0l102.26-59.434C228.185,67.267,228.9,66.026,227.965,65.484ZM222.848,67.1,125.1,123.821a2.725,2.725,0,0,1-3.147-.165L5.839,61.984a1,1,0,0,1-.01-1.881L103.47,5.374a3.59,3.59,0,0,1,3.246,0L222.837,65.215A1,1,0,0,1,222.848,67.1Z" transform="translate(30.572 15.596)"/></g><g transform="translate(295.896 1055.809) rotate(-22)"><g transform="translate(0 0)"><g transform="translate(0 1.67)"><g transform="translate(5.271 0)"><path class="aw" d="M0,2.413,22.577,26l32.737-2.412L32.736,0Z"/></g><g transform="translate(0 2.413)"><path class="ax" d="M5.271,0,0,14.033,22.577,37.62l5.271-14.034Z"/></g><g transform="translate(22.577 23.587)"><path class="ay" d="M5.271,2.412,0,16.446l32.737-2.413L38.008,0Z"/></g></g><path class="az" d="M13.6,0,6.407,18.785,0,19.257,7.191.472Z" transform="translate(38.375 21.318)"/><path class="ba" d="M7.079,0,0,18.494l4.454,4.629L11.533,4.629Z" transform="translate(6.813 6.741)"/><g transform="translate(2.342 0)"><g transform="translate(0 2.212)"><path class="bb" d="M2.689,0,0,7.093,23.028,30.815l2.689-7.093Z"/></g><g transform="translate(23.028 23.722)"><path class="bc" d="M2.689,2.211,0,9.3,33.165,7.093,35.854,0Z"/></g><g transform="translate(2.689 0)"><path class="bd" d="M0,2.211,23.028,25.934l33.165-2.212L33.165,0Z"/></g><path class="be" d="M3.451.546,10.8,0l8.962,9.232,13.407-.885,5.15,5.249-13.437.911,8.946,9.216-7.346.546-8.989-9.26L5.1,15.848,0,10.536,12.357,9.72Z" transform="translate(11.623 0.863)"/></g></g></g><g transform="matrix(0.951, -0.309, 0.309, 0.951, 240.674, 1076.163)"><path class="bf" d="M4.1,0,0,13.782,27.831,37.594l4.1-13.782Z" transform="translate(0 10.392)"/><path class="bg" d="M4.1,3.946,0,17.728l33.37-3.946L37.467,0Z" transform="translate(27.831 30.259)"/><path class="bh" d="M0,4.385,29.138,29.527l37.083-4.385L37.082,0Z" transform="translate(4.077)"/><path class="bi" d="M2.921,0,0,9.736,29.138,34.878l2.921-9.736Z" transform="translate(1.155 4.385)"/><path class="bj" d="M2.921,4.385,0,14.121,37.083,9.736,40,0Z" transform="translate(30.293 25.142)"/><path class="bk" d="M12.164,0,6.53,18.489,0,19.261,5.633.772Z" transform="translate(43.94 26.85)"/><path class="bl" d="M5.562,0,0,18.256l4.99,4.282L10.552,4.282Z" transform="translate(10.145 14.542)"/><path class="bm" d="M4.99,8.177,42.549,4.112,37.781,0,0,3.895Z" transform="translate(15.707 10.647)"/><path class="bn" d="M30.024,25.994,0,.754,6.251,0l30.3,25.221Z" transform="translate(19.549 1.629)"/></g><g transform="translate(275.246 1032.962) rotate(20)"><path class="bo" d="M0,0,2.481,6.011l16.56.453L16.56.453Z" transform="translate(1.717 14.199)"/><path class="bp" d="M0,10.882l2.481,6.011L13.09,6.011,10.61,0Z" transform="translate(18.277 3.77)"/><path class="bq" d="M0,12.093l17.4.549L29.188.548,11.79,0Z"/><path class="br" d="M0,0,1.743,4.254l17.4.549L17.4.549Z" transform="translate(0 12.093)"/><path class="bs" d="M0,12.093l1.743,4.254L13.533,4.254,11.79,0Z" transform="translate(17.398 0.549)"/><path class="bt" d="M2.076,0l3.28,8.1L3.28,10.233,0,2.13Z" transform="translate(22.608 5.188)"/><path class="bu" d="M0,0,3.239,8l2.973.086-3.239-8Z" transform="translate(6.979 12.354)"/><path class="bv" d="M2.973,12.205,15.022.089,12.175,0,0,12.119Z" transform="translate(6.979 0.235)"/><path class="bw" d="M17.737,2.375,0,2.044,1.983,0,19.814.245Z" transform="translate(4.87 4.943)"/></g><g transform="matrix(0.848, 0.53, -0.53, 0.848, 230.189, 992.737)"><path class="bx" d="M2.6,4.188A9.431,9.431,0,0,1,6.587.467a4.8,4.8,0,0,1,4.174.022,6.051,6.051,0,0,1,2.321,2.175l3.834,5.9a1.673,1.673,0,0,1-.084,1.646c-.314.5-.786.566-1.055.153l-3.835-5.9a4.325,4.325,0,0,0-2.922-2.08,4.494,4.494,0,0,0-3.392.995,8.6,8.6,0,0,0-2.056,2.3,13.777,13.777,0,0,0-1.861,5,13.966,13.966,0,0,0,.057,5.206,8.574,8.574,0,0,0,1.138,2.861l3.835,5.9a1.673,1.673,0,0,1-.084,1.646c-.314.5-.786.566-1.055.153l-3.835-5.9A12.127,12.127,0,0,1,.046,14.87a18.679,18.679,0,0,1,.74-6.623A16.335,16.335,0,0,1,2.6,4.188" transform="translate(6.396 6.649)"/><path class="by" d="M0,47.693l17.184-2.37L45.858,0,28.674,2.369Z" transform="translate(25.251 38.962)"/><path class="bz" d="M0,47.528l15.4-2.2L44.07,0,35.8,3.479,28.674,2.2Z"/><path class="ca" d="M33.565,41.6,6.525,2.638,0,0,24.893,38.571Z" transform="translate(8.87 42.685)"/><path class="cb" d="M0,4.843,8.87,0,33.763,38.572l-8.512,5.4Z" transform="translate(0 42.685)"/><path class="cc" d="M27.04,84.285,0,45.323,28.674,0l27.04,38.962Z" transform="translate(15.395 0)"/><path class="cd" d="M0,0,7.124,1.275l3.065,4.749-3.423,5.41Z" transform="translate(28.674 2.205)"/><path class="ce" d="M8.271,0,0,3.479,3.065,8.228Z" transform="translate(35.799)"/><path class="cf" d="M2.6,4.188A9.427,9.427,0,0,1,6.587.467,4.794,4.794,0,0,1,10.76.488a6.049,6.049,0,0,1,2.322,2.176l3.834,5.9a1.673,1.673,0,0,1-.084,1.646c-.314.5-.786.566-1.055.153l-3.835-5.9A4.324,4.324,0,0,0,9.021,2.382a4.5,4.5,0,0,0-3.392,1,8.59,8.59,0,0,0-2.056,2.3,13.763,13.763,0,0,0-1.861,5,13.953,13.953,0,0,0,.057,5.207,8.563,8.563,0,0,0,1.138,2.86l3.835,5.9a1.673,1.673,0,0,1-.084,1.646c-.315.5-.786.566-1.055.153l-3.835-5.9A12.133,12.133,0,0,1,.046,14.87a18.674,18.674,0,0,1,.74-6.622A16.336,16.336,0,0,1,2.6,4.188" transform="translate(19.776 8.261)"/></g><g transform="matrix(0.899, -0.438, 0.438, 0.899, 297.212, 1032.174)"><path class="cg" d="M5.851,0a3.075,3.075,0,0,1,1.7.527,1.565,1.565,0,0,1,.67,1.187,1.974,1.974,0,0,1-.24,1.011L6.93,4.773a.546.546,0,0,1-.481.243c-.192-.008-.288-.131-.214-.274L7.286,2.7A1.415,1.415,0,0,0,7.4,1.533a1.469,1.469,0,0,0-.832-.8,2.813,2.813,0,0,0-.987-.21A4.477,4.477,0,0,0,3.866.8,4.56,4.56,0,0,0,2.4,1.664a2.8,2.8,0,0,0-.627.786L.72,4.493a.547.547,0,0,1-.481.244C.047,4.727-.049,4.6.024,4.462L1.076,2.419a3.961,3.961,0,0,1,1.33-1.408,6.083,6.083,0,0,1,2-.864A5.344,5.344,0,0,1,5.851,0" transform="translate(13.023)"/><path class="ch" d="M0,0,3.457,4.491l17.5.789L17.5.789Z" transform="translate(0 16.901)"/><path class="ci" d="M0,0,3.12,4.01l17.5.79L18.3,3.017,17.5.789Z" transform="translate(7.007 3.398)"/><path class="cj" d="M.546,16.263,7.217,2.279,6.908,0,0,13.312Z" transform="translate(2.911 5.129)"/><path class="ck" d="M7.007,0,9.819,1.731,2.911,15.043,0,13.5Z" transform="translate(0 3.398)"/><path class="cl" d="M0,13.984,6.671,0l17.5.79L17.5,14.774Z" transform="translate(3.457 7.408)"/><path class="cm" d="M2.147,0,2.94,2.228,2.089,3.867,0,3.772Z" transform="translate(22.364 4.187)"/><path class="cn" d="M3.178,1.782.851,0,0,1.639Z" transform="translate(24.453 6.415)"/><path class="cg" d="M5.851,0a3.085,3.085,0,0,1,1.7.527,1.567,1.567,0,0,1,.67,1.187,1.974,1.974,0,0,1-.241,1.011L6.93,4.773a.544.544,0,0,1-.48.243c-.193-.008-.289-.131-.215-.274L7.286,2.7A1.415,1.415,0,0,0,7.4,1.533a1.468,1.468,0,0,0-.832-.8,2.821,2.821,0,0,0-.987-.21A4.5,4.5,0,0,0,3.865.8,4.551,4.551,0,0,0,2.4,1.664a2.8,2.8,0,0,0-.627.786L.719,4.494a.547.547,0,0,1-.481.243c-.192-.009-.288-.131-.214-.275L1.076,2.419a3.954,3.954,0,0,1,1.33-1.408,6.093,6.093,0,0,1,2-.863A5.332,5.332,0,0,1,5.851,0" transform="translate(14.734 4.057)"/></g><g transform="translate(275.246 1022.64) rotate(20)"><path class="bo" d="M0,0,2.481,6.011l16.56.453L16.56.453Z" transform="translate(1.717 14.199)"/><path class="bp" d="M0,10.882l2.481,6.011L13.09,6.011,10.61,0Z" transform="translate(18.277 3.77)"/><path class="bq" d="M0,12.093l17.4.549L29.188.548,11.79,0Z"/><path class="br" d="M0,0,1.743,4.254l17.4.549L17.4.549Z" transform="translate(0 12.093)"/><path class="bs" d="M0,12.093l1.743,4.254L13.533,4.254,11.79,0Z" transform="translate(17.398 0.549)"/><path class="bt" d="M2.076,0l3.28,8.1L3.28,10.233,0,2.13Z" transform="translate(22.608 5.188)"/><path class="bu" d="M0,0,3.239,8l2.973.086-3.239-8Z" transform="translate(6.979 12.354)"/><path class="bv" d="M2.973,12.205,15.022.089,12.175,0,0,12.119Z" transform="translate(6.979 0.235)"/><path class="bw" d="M17.737,2.375,0,2.044,1.983,0,19.814.245Z" transform="translate(4.87 4.943)"/></g></g><path class="p" d="M302.7,1165.865l-7.184-1.979s-4.14-1.187-5.862,6.591l6.254,1.218S297.837,1164.524,302.7,1165.865Z" transform="translate(-44.205 -248.322)"/><path class="q" d="M1648.888,1334.166l-4.717,1.3s-4.106-3.6-4.106-6.2l4.106-.8S1646.015,1333.566,1648.888,1334.166Z" transform="translate(-1156.475 -365.583)"/><path class="p" d="M1233.215,1664.277l-1.78,1.554,2.52,1.7,2.516-1.628Z" transform="translate(-774.88 -629.663)"/><path class="r" d="M782.9,1658.719l-1.78-1.166,2.52-1.277,2.516,1.221Z" transform="translate(-430.551 -626.439)"/><path class="p" d="M632.268,1517.005l-1.779,1.554,2.52,1.7,2.516-1.628Z" transform="translate(-337.361 -500.089)"/><path class="p" d="M1768.548,1424.811l-1.78,1.554,2.52,1.7,2.516-1.628Z" transform="translate(-1321.353 -427.365)"/><text class="co" transform="translate(532 939)"><tspan x="0" y="0">会员专享商品</tspan></text><rect class="cp" width="120" height="40" rx="20" transform="translate(532 969)"/><text class="cq" transform="translate(548 997)"><tspan x="0" y="0">点击进入</tspan></text></g></svg>