<svg xmlns="http://www.w3.org/2000/svg" width="40" height="25" viewBox="0 0 40 25"><defs><style>.a{fill:#333;}.b{fill:none;}.c{fill:#d6bc6f;}</style></defs><g transform="translate(-48 -1556)"><rect class="a" width="40" height="25" rx="5" transform="translate(48 1556)"/><g transform="translate(-472 897)"><rect class="b" width="20" height="20" transform="translate(530 661)"/><g transform="translate(531.4 663.6)"><path class="c" d="M12.756,8.863H1.236L0,2.844a1.2,1.2,0,0,0,.7-.408L4.088,4.846,6.6,0a1.2,1.2,0,0,0,.387.064A1.2,1.2,0,0,0,7.331.012L9.62,4.846l3.624-2.434a1.2,1.2,0,0,0,.724.433L12.756,8.863Z" transform="translate(1.618 2.536)"/><circle class="c" cx="1.2" cy="1.2" r="1.2" transform="translate(14.8 2.8)"/><rect class="c" width="13.6" height="2.4" rx="1" transform="translate(1.8 12.2)"/><circle class="c" cx="1.2" cy="1.2" r="1.2" transform="translate(7.4 0)"/><circle class="c" cx="1.2" cy="1.2" r="1.2" transform="translate(0 2.8)"/></g></g></g></svg>