<svg xmlns="http://www.w3.org/2000/svg" width="50" height="35" viewBox="0 0 50 35">
  <g id="组_1821" data-name="组 1821" transform="translate(-379.979 -1612)">
    <rect id="矩形_330" data-name="矩形 330" width="50" height="35" rx="5" transform="translate(379.979 1612)" fill="#333"/>
    <g id="组_1819" data-name="组 1819" transform="translate(-47.195 684.767)">
      <path id="减去_18" data-name="减去 18" d="M18.831,13.084H1.825L0,4.2a1.774,1.774,0,0,0,1.034-.6l5,3.559L9.736,0a1.767,1.767,0,0,0,.571.094,1.77,1.77,0,0,0,.515-.076L14.2,7.154,19.55,3.56A1.771,1.771,0,0,0,20.62,4.2l-1.789,8.885Z" transform="translate(441.889 937.244)" fill="#d6bc6f"/>
      <circle id="椭圆_314" data-name="椭圆 314" cx="1.771" cy="1.771" r="1.771" transform="translate(461.348 937.633)" fill="#d6bc6f"/>
      <rect id="矩形_1529" data-name="矩形 1529" width="20.076" height="3.543" rx="1" transform="translate(442.157 951.51)" fill="#d6bc6f"/>
      <circle id="椭圆_315" data-name="椭圆 315" cx="1.771" cy="1.771" r="1.771" transform="translate(450.424 933.5)" fill="#d6bc6f"/>
      <circle id="椭圆_316" data-name="椭圆 316" cx="1.771" cy="1.771" r="1.771" transform="translate(439.5 937.633)" fill="#d6bc6f"/>
    </g>
  </g>
</svg>
