<svg xmlns="http://www.w3.org/2000/svg" width="40" height="25" viewBox="0 0 40 25">
  <g id="组_1816" data-name="组 1816" transform="translate(-20.02 -490)">
    <rect id="矩形_1531" data-name="矩形 1531" width="40" height="25" rx="12.5" transform="translate(20.02 490)" fill="#333"/>
    <g id="组_1815" data-name="组 1815" transform="translate(-408.07 -439.042)">
      <path id="减去_18" data-name="减去 18" d="M12.742,8.854H1.235L0,2.84a1.2,1.2,0,0,0,.7-.408L4.083,4.841,6.588,0a1.2,1.2,0,0,0,.386.064A1.2,1.2,0,0,0,7.323.012L9.609,4.841l3.62-2.432a1.2,1.2,0,0,0,.723.432l-1.21,6.012Z" transform="translate(441.116 936.034)" fill="#d6bc6f"/>
      <circle id="椭圆_314" data-name="椭圆 314" cx="1.199" cy="1.199" r="1.199" transform="translate(454.284 936.297)" fill="#d6bc6f"/>
      <rect id="矩形_1529" data-name="矩形 1529" width="13.585" height="2.397" rx="1" transform="translate(441.298 945.687)" fill="#d6bc6f"/>
      <circle id="椭圆_315" data-name="椭圆 315" cx="1.199" cy="1.199" r="1.199" transform="translate(446.892 933.5)" fill="#d6bc6f"/>
      <circle id="椭圆_316" data-name="椭圆 316" cx="1.199" cy="1.199" r="1.199" transform="translate(439.5 936.297)" fill="#d6bc6f"/>
    </g>
  </g>
</svg>
