<svg xmlns="http://www.w3.org/2000/svg" width="40" height="35" viewBox="0 0 40 35">
  <g id="组_1821" data-name="组 1821" transform="translate(-323.979 -1997)">
    <rect id="矩形_659" data-name="矩形 659" width="40" height="35" rx="5" transform="translate(323.979 1997)" fill="#333"/>
    <g id="组_1819" data-name="组 1819" transform="translate(-107.332 1070.5)">
      <path id="减去_18" data-name="减去 18" d="M17.551,12.195H1.7L0,3.912a1.653,1.653,0,0,0,.964-.562l4.66,3.317L9.074,0a1.647,1.647,0,0,0,.532.088,1.65,1.65,0,0,0,.48-.071l3.149,6.651,4.986-3.349a1.65,1.65,0,0,0,1,.6l-1.667,8.281Z" transform="translate(441.726 936.99)" fill="#d6bc6f"/>
      <circle id="椭圆_314" data-name="椭圆 314" cx="1.651" cy="1.651" r="1.651" transform="translate(459.862 937.352)" fill="#d6bc6f"/>
      <rect id="矩形_1529" data-name="矩形 1529" width="18.711" height="3.302" rx="1" transform="translate(441.976 950.285)" fill="#d6bc6f"/>
      <circle id="椭圆_315" data-name="椭圆 315" cx="1.651" cy="1.651" r="1.651" transform="translate(449.681 933.5)" fill="#d6bc6f"/>
      <circle id="椭圆_316" data-name="椭圆 316" cx="1.651" cy="1.651" r="1.651" transform="translate(439.5 937.352)" fill="#d6bc6f"/>
    </g>
  </g>
</svg>
