<svg xmlns="http://www.w3.org/2000/svg" width="30" height="30" viewBox="0 0 30 30">
  <g id="组_5007" data-name="组 5007" transform="translate(875 -166)">
    <circle id="椭圆_428" data-name="椭圆 428" cx="15" cy="15" r="15" transform="translate(-875 166)" fill="#f50"/>
    <path id="路径_20316" data-name="路径 20316" d="M117.5,4.326a7.561,7.561,0,1,1-.04,0ZM124.979.892A.4.4,0,0,0,125.1.649a.525.525,0,0,0-.485-.525h-4.647a.444.444,0,0,0-.485.364l-1.495,2.748a8.3,8.3,0,0,1,4.929,1.98Zm-7.96,2.344-1.5-2.869A.444.444,0,0,0,115.039,0h-4.566a.566.566,0,0,0-.606.485c0,.121,0,.242.121.242l2.1,4.323A9.912,9.912,0,0,1,117.019,3.235Zm0,0" transform="translate(-977.483 171.362)" fill="#fff"/>
    <path id="多边形_3" data-name="多边形 3" d="M4.046.989a.5.5,0,0,1,.909,0l.8,1.752a.5.5,0,0,0,.383.286L8.016,3.3a.5.5,0,0,1,.284.847L6.9,5.551a.5.5,0,0,0-.138.437L7.1,7.963a.5.5,0,0,1-.739.52L4.746,7.569a.5.5,0,0,0-.492,0l-1.619.914a.5.5,0,0,1-.739-.52l.339-1.975A.5.5,0,0,0,2.1,5.551L.7,4.144A.5.5,0,0,1,.984,3.3l1.873-.269a.5.5,0,0,0,.383-.286Z" transform="translate(-864.5 178)" fill="#f50"/>
  </g>
</svg>
