<svg xmlns="http://www.w3.org/2000/svg" width="30" height="30" viewBox="0 0 30 30">
  <defs>
    <style>
      .cls-1 {
        fill: #f50;
      }

      .cls-2 {
        fill: #fff;
      }
    </style>
  </defs>
  <g id="组_4815" data-name="组 4815" transform="translate(880 141)">
    <circle id="椭圆_428" data-name="椭圆 428" class="cls-1" cx="15" cy="15" r="15" transform="translate(-880 -141)"/>
    <path id="路径_20316" data-name="路径 20316" class="cls-2" d="M116.652,3.844a6.718,6.718,0,1,1-.036,0Zm3.375,6.031L118.7,11.2l.323,1.867c.108.646-.215.9-.754.539l-1.651-.862-1.651.862c-.539.323-.862,0-.754-.539l.323-1.867-1.292-1.328c-.431-.431-.323-.9.323-.969l1.759-.215.754-1.651c.215-.539.646-.539.969,0L117.8,8.69l1.867.215c.646.215.862.539.323.969ZM123.294.792A.359.359,0,0,0,123.4.577a.467.467,0,0,0-.431-.467h-4.129a.4.4,0,0,0-.431.323l-1.328,2.441a7.371,7.371,0,0,1,4.38,1.759Zm-7.072,2.082L114.893.325A.4.4,0,0,0,114.462,0h-4.057a.5.5,0,0,0-.538.431c0,.108,0,.215.108.215l1.867,3.841A8.807,8.807,0,0,1,116.221,2.874Zm0,0" transform="translate(-981.634 -134.564)"/>
  </g>
</svg>
