<svg xmlns="http://www.w3.org/2000/svg" width="55" height="55" viewBox="0 0 55 55">
  <g id="组_4441" data-name="组 4441" transform="translate(225 -3289)">
    <rect id="矩形_1911" data-name="矩形 1911" width="55" height="55" transform="translate(-225 3289)" fill="none"/>
    <g id="组_4440" data-name="组 4440" transform="translate(-353.5 3202)">
      <path id="路径_6698" data-name="路径 6698" d="M332.243,317.013a1.413,1.413,0,0,0-1.413-1.413H316.713a1.413,1.413,0,1,0,0,2.825h14.118A1.416,1.416,0,0,0,332.243,317.013Zm-15.531,8a1.413,1.413,0,1,0,0,2.825h9.41a1.413,1.413,0,1,0,0-2.825Z" transform="translate(-167.272 -209.185)" fill="#d1ab5a"/>
      <path id="路径_6699" data-name="路径 6699" d="M171.087,103.59A1.413,1.413,0,0,0,169.675,105v15.647a9.293,9.293,0,0,1-9.294,9.294H143.528a.207.207,0,0,1-.207-.207v-29.7a.207.207,0,0,1,.207-.207h27.56a1.413,1.413,0,1,0,0-2.825h-27.56a3.029,3.029,0,0,0-3.028,3.028v29.7a3.029,3.029,0,0,0,3.028,3.028H160.38A12.116,12.116,0,0,0,172.5,120.645V105A1.407,1.407,0,0,0,171.087,103.59Z" fill="#d1ab5a"/>
    </g>
  </g>
</svg>
