<svg xmlns="http://www.w3.org/2000/svg" width="55" height="55" viewBox="0 0 55 55">
  <g id="组_4260" data-name="组 4260" transform="translate(-40 -800)">
    <rect id="矩形_663" data-name="矩形 663" width="55" height="55" transform="translate(40 800)" fill="none"/>
    <g id="组_4257" data-name="组 4257" transform="translate(-77.814 -263.484)">
      <path id="路径_6665" data-name="路径 6665" stroke="#d1ab5a" d="M459.738,434.558l-2.708-9.748,0-.015,0-.014c-.32-1.457-.843-1.742-1.638-1.742H444.4c-.8,0-1.318.285-1.638,1.742l0,.014,0,.015-2.707,9.748a1,1,0,0,0,.129.912,1.567,1.567,0,0,0,1.412.573c.027,0,.054,0,.081,0h16.443c.027,0,.054,0,.081,0a1.565,1.565,0,0,0,1.411-.573A1,1,0,0,0,459.738,434.558Z" fill="none" transform="translate(-305.165 652.96)" stroke-linecap="round" stroke-linejoin="round" stroke-miterlimit="10" stroke-width="2" stroke-dasharray="35 6"/>
      <path id="路径_6666" data-name="路径 6666" d="M459.738,434.558l-2.708-9.748,0-.015,0-.014c-.32-1.457-.843-1.742-1.638-1.742H444.4c-.8,0-1.318.285-1.638,1.742l0,.014,0,.015-2.707,9.748a1,1,0,0,0,.129.912,1.567,1.567,0,0,0,1.412.573c.027,0,.054,0,.081,0h16.443c.027,0,.054,0,.081,0a1.565,1.565,0,0,0,1.411-.573A1,1,0,0,0,459.738,434.558Z" transform="translate(-316 668.983)" fill="none" stroke="#d1ab5a" stroke-miterlimit="10" stroke-width="2"/>
      <path id="路径_6667" data-name="路径 6667" d="M459.738,434.558l-2.708-9.748,0-.015,0-.014c-.32-1.457-.843-1.742-1.638-1.742H444.4c-.8,0-1.318.285-1.638,1.742l0,.014,0,.015-2.707,9.748a1,1,0,0,0,.129.912,1.567,1.567,0,0,0,1.412.573c.027,0,.054,0,.081,0h16.443c.027,0,.054,0,.081,0a1.565,1.565,0,0,0,1.411-.573A1,1,0,0,0,459.738,434.558Z" transform="translate(-293.789 668.983)" fill="none" stroke="#d1ab5a" stroke-miterlimit="10" stroke-width="2"/>
    </g>
  </g>
</svg>
