<svg xmlns="http://www.w3.org/2000/svg" width="150" height="150" viewBox="0 0 150 150">
  <defs>
    <style>
      .cls-1, .cls-2, .cls-4, .cls-5 {
        fill: none;
      }

      .cls-2, .cls-4, .cls-5 {
        stroke: #d1ab5a;
        stroke-linecap: round;
        stroke-width: 4px;
      }

      .cls-2 {
        stroke-miterlimit: 10;
      }

      .cls-3 {
        fill: #fff;
      }

      .cls-4 {
        stroke-linejoin: round;
      }

      .cls-6, .cls-7 {
        stroke: none;
      }

      .cls-7 {
        fill: #d1ab5a;
      }
    </style>
  </defs>
  <g id="组_3881" data-name="组 3881" transform="translate(-300 -311)">
    <rect id="矩形_645" data-name="矩形 645" class="cls-1" width="150" height="150" transform="translate(300 311)"/>
    <g id="组_3879" data-name="组 3879" transform="translate(-1216.61 -1838.948)">
      <g id="组_285" data-name="组 285" transform="translate(1537.117 2154.519)">
        <g id="组_284" data-name="组 284" transform="translate(0 0)">
          <g id="组_282" data-name="组 282" transform="translate(0 24.369)">
            <path id="路径_450" data-name="路径 450" class="cls-2" d="M281.709,420.192H232.057a9.685,9.685,0,0,1-9.657-9.658V332.7a9.686,9.686,0,0,1,9.657-9.657h74.071a9.686,9.686,0,0,1,9.658,9.657V343.8" transform="translate(-222.4 -323.04)"/>
            <path id="路径_450-2" data-name="路径 450" class="cls-2" d="M321.83,372.4v21.414" transform="translate(-228.444 -326.04)"/>
            <line id="直线_77" data-name="直线 77" class="cls-2" y2="11.427" transform="translate(93.386 27.169)"/>
          </g>
          <g id="组_283" data-name="组 283" transform="translate(59.657 90.871)">
            <path id="路径_452" data-name="路径 452" class="cls-2" d="M54.348,75.941a24.074,24.074,0,0,1-11.62,2.935A24.354,24.354,0,1,1,65.159,63.991" transform="translate(-18.38 -30.18)"/>
            <path id="路径_453" data-name="路径 453" class="cls-2" d="M36.97,42.85a19.515,19.515,0,0,1-4.853,5.294" transform="translate(7.592 -4.906)"/>
          </g>
          <g id="联合_13" data-name="联合 13" class="cls-3" transform="translate(24.348 0)">
            <path class="cls-6" d="M 42.18210220336914 31.35400009155273 L 3.999600887298584 31.35400009155273 C 2.897020816802979 31.35400009155273 2.000000715255737 30.45657920837402 2.000000715255737 29.35350036621094 L 2.000000715255737 16.82819938659668 C 2.000000715255737 15.72562026977539 2.897020816802979 14.82859992980957 3.999600887298584 14.82859992980957 L 12.82860088348389 14.82859992980957 L 14.82860088348389 14.82859992980957 L 14.82860088348389 12.82859992980957 L 14.82860088348389 3.999599933624268 C 14.82860088348389 2.897020101547241 15.72562122344971 2 16.82820129394531 2 L 29.35350036621094 2 C 30.45658111572266 2 31.35400009155273 2.897020101547241 31.35400009155273 3.999599933624268 L 31.35400009155273 12.82859992980957 L 31.35400009155273 14.82859992980957 L 33.35400009155273 14.82859992980957 L 42.18210220336914 14.82859992980957 C 43.2846794128418 14.82859992980957 44.18170166015625 15.72562026977539 44.18170166015625 16.82819938659668 L 44.18170166015625 29.35350036621094 C 44.18170166015625 30.45657920837402 43.2846794128418 31.35400009155273 42.18210220336914 31.35400009155273 Z"/>
            <path class="cls-7" d="M 42.18210220336914 29.35400009155273 L 42.18157577514648 29.35400009155273 C 42.18161773681641 29.35395812988281 42.18165969848633 29.35391616821289 42.18170166015625 29.35387420654297 C 42.18170166015625 29.35375213623047 42.18170166015625 29.3536262512207 42.18170166015625 29.35350036621094 L 42.18151092529297 16.82859992980957 L 33.35400009155273 16.82859992980957 L 29.35400009155273 16.82859992980957 L 29.35400009155273 12.82859992980957 L 29.35381126403809 4.000001430511475 C 29.35371017456055 4.000000953674316 29.35360527038574 4 29.35350036621094 4 L 16.82859992980957 4.000189781188965 L 16.82859992980957 12.82859992980957 L 16.82859992980957 16.82859992980957 L 12.82860088348389 16.82859992980957 L 4.000000953674316 16.82879066467285 L 4.000000953674316 29.35350036621094 C 4.000000953674316 29.3536262512207 4.000000953674316 29.35375213623047 4.000001907348633 29.35387420654297 C 4.000042915344238 29.35391616821289 4.00008487701416 29.35395812988281 3.999600887298584 29.35400009155273 L 42.18210220336914 29.35400009155273 M 42.18210220336914 33.35400009155273 L 3.999600887298584 33.35400009155273 C 1.791000843048096 33.35400009155273 8.300781360048859e-07 31.5629997253418 8.300781360048859e-07 29.35350036621094 L 8.300781360048859e-07 16.82819938659668 C 8.300781360048859e-07 14.61960029602051 1.791000843048096 12.82859992980957 3.999600887298584 12.82859992980957 L 12.82860088348389 12.82859992980957 L 12.82860088348389 3.999599933624268 C 12.82860088348389 1.791000008583069 14.61960124969482 4.577636758540393e-08 16.82820129394531 4.577636758540393e-08 L 29.35350036621094 4.577636758540393e-08 C 31.56300163269043 4.577636758540393e-08 33.35400009155273 1.791000008583069 33.35400009155273 3.999599933624268 L 33.35400009155273 12.82859992980957 L 42.18210220336914 12.82859992980957 C 44.39070129394531 12.82859992980957 46.18170166015625 14.61960029602051 46.18170166015625 16.82819938659668 L 46.18170166015625 29.35350036621094 C 46.18170166015625 31.5629997253418 44.39070129394531 33.35400009155273 42.18210220336914 33.35400009155273 Z"/>
          </g>
          <path id="路径_454" data-name="路径 454" class="cls-4" d="M1264.593,2227.359l7.069,6.247,12.988-12.166" transform="translate(-1191.223 -2113.106)"/>
        </g>
        <path id="路径_456" data-name="路径 456" class="cls-5" d="M1222.029,2174.823h56.047" transform="translate(-1203.876 -2123.841)"/>
        <path id="路径_458" data-name="路径 458" class="cls-5" d="M1222.029,2174.823h56.047" transform="translate(-1203.876 -2099.468)"/>
        <path id="路径_460" data-name="路径 460" class="cls-5" d="M1222.029,2174.823h32.623" transform="translate(-1203.876 -2076.377)"/>
      </g>
    </g>
  </g>
</svg>
