<svg xmlns="http://www.w3.org/2000/svg" xmlns:xlink="http://www.w3.org/1999/xlink" width="60" height="60" viewBox="0 0 60 60">
  <defs>
    <style>
      .cls-1 {
        fill: none;
      }

      .cls-2 {
        fill: url(#linear-gradient);
      }

      .cls-3 {
        fill: #fffefd;
      }

      .cls-4 {
        fill: #fff;
      }

      .cls-5 {
        fill: #dfbe5a;
      }
    </style>
    <linearGradient id="linear-gradient" x1="0.079" y1="0.11" x2="0.805" y2="0.902" gradientUnits="objectBoundingBox">
      <stop offset="0" stop-color="#f0d88d"/>
      <stop offset="1" stop-color="#b88922"/>
    </linearGradient>
  </defs>
  <g id="组_4357" data-name="组 4357" transform="translate(3303 -5526)">
    <rect id="矩形_1815" data-name="矩形 1815" class="cls-1" width="60" height="60" transform="translate(-3303 5526)"/>
    <g id="组_4344" data-name="组 4344" transform="translate(-3297 5531.998)">
      <path id="路径_6711" data-name="路径 6711" class="cls-2" d="M24,24,0,24A24,24,0,1,0,24,0,24,24,0,0,0,0,24Z"/>
      <path id="路径_6712" data-name="路径 6712" class="cls-3" d="M218.15,134.4a5.106,5.106,0,0,0,3.75,3.75,6.624,6.624,0,0,0-2.4,1.35,8.075,8.075,0,0,0-1.35,2.55,5.106,5.106,0,0,0-3.75-3.75,6.625,6.625,0,0,0,2.4-1.35A8.075,8.075,0,0,0,218.15,134.4Zm25.35,8.4a5.106,5.106,0,0,0,3.75,3.75,5.106,5.106,0,0,0-3.75,3.75,4.779,4.779,0,0,0-1.35-2.4,6.624,6.624,0,0,0-2.4-1.35,5.106,5.106,0,0,0,3.75-3.75Z" transform="translate(-204.35 -128.1)"/>
      <path id="路径_6713" data-name="路径 6713" class="cls-4" d="M360.35,368h10.5l1.95,7.65H358.4Z" transform="translate(-341.6 -350.75)"/>
      <path id="路径_6714" data-name="路径 6714" class="cls-5" d="M358.85,489.6h13.5l.45,1.95H358.4Z" transform="translate(-341.6 -466.65)"/>
      <path id="路径_6715" data-name="路径 6715" class="cls-4" d="M181.15,550.4h10.5l1.95,7.65H179.2Z" transform="translate(-170.8 -524.6)"/>
      <path id="路径_6716" data-name="路径 6716" class="cls-5" d="M179.65,675.2h13.5l.45,1.95H179.2Z" transform="translate(-170.8 -643.55)"/>
      <path id="路径_6717" data-name="路径 6717" class="cls-4" d="M529.95,550.4h10.5l1.95,7.65H528Z" transform="translate(-503.25 -524.6)"/>
      <path id="路径_6718" data-name="路径 6718" class="cls-5" d="M528.45,675.2h13.5l.45,1.95H528Z" transform="translate(-503.25 -643.55)"/>
    </g>
  </g>
</svg>
