<svg xmlns="http://www.w3.org/2000/svg" xmlns:xlink="http://www.w3.org/1999/xlink" width="60" height="60" viewBox="0 0 60 60">
  <defs>
    <style>
      .cls-1, .cls-6 {
        fill: none;
      }

      .cls-2 {
        fill: url(#linear-gradient);
      }

      .cls-3 {
        fill: #fffefd;
      }

      .cls-4 {
        fill: #fff;
      }

      .cls-5 {
        fill: #dfbe5a;
      }

      .cls-6 {
        stroke: #fff;
        stroke-linecap: round;
        stroke-miterlimit: 10;
        stroke-width: 1.5px;
      }
    </style>
    <linearGradient id="linear-gradient" x1="0.079" y1="0.11" x2="0.805" y2="0.902" gradientUnits="objectBoundingBox">
      <stop offset="0" stop-color="#f0d88d"/>
      <stop offset="1" stop-color="#b88922"/>
    </linearGradient>
  </defs>
  <g id="组_4364" data-name="组 4364" transform="translate(-4212 -808)">
    <rect id="矩形_1815" data-name="矩形 1815" class="cls-1" width="60" height="60" transform="translate(4212 808)"/>
    <path id="路径_6711" data-name="路径 6711" class="cls-2" d="M24,24,0,24A24,24,0,1,0,24,0,24,24,0,0,0,0,24Z" transform="translate(4218 813.998)"/>
    <path id="路径_6712" data-name="路径 6712" class="cls-3" d="M218.15,134.4a5.106,5.106,0,0,0,3.75,3.75,6.624,6.624,0,0,0-2.4,1.35,8.075,8.075,0,0,0-1.35,2.55,5.106,5.106,0,0,0-3.75-3.75,6.625,6.625,0,0,0,2.4-1.35A8.075,8.075,0,0,0,218.15,134.4Zm25.35,8.4a5.106,5.106,0,0,0,3.75,3.75,5.106,5.106,0,0,0-3.75,3.75,4.779,4.779,0,0,0-1.35-2.4,6.624,6.624,0,0,0-2.4-1.35,5.106,5.106,0,0,0,3.75-3.75Z" transform="translate(4013.65 685.898)"/>
    <g id="组_4363" data-name="组 4363" transform="translate(1 -1)">
      <rect id="矩形_1984" data-name="矩形 1984" class="cls-2" width="18" height="21" rx="4" transform="translate(4231 830)"/>
      <g id="组_4361" data-name="组 4361" transform="translate(4151.458 746.192)">
        <path id="路径_6721" data-name="路径 6721" class="cls-4" d="M100.435,92.046h0A8.6,8.6,0,0,0,97.663,90.5V86.668a2.308,2.308,0,0,0-.955-1.777,6.888,6.888,0,0,0-2.117-1.123,22.435,22.435,0,0,0-12.976,0A6.889,6.889,0,0,0,79.5,84.89a2.308,2.308,0,0,0-.955,1.778v15.62a2.308,2.308,0,0,0,.955,1.778,6.889,6.889,0,0,0,2.117,1.123,20.144,20.144,0,0,0,6.488.959c.8,0,1.59-.037,2.356-.11a8.624,8.624,0,0,0,9.727-.543.729.729,0,1,0-.891-1.155,7.086,7.086,0,0,1-4.366,1.486A7.155,7.155,0,1,1,99.5,93.167h0a7.165,7.165,0,0,1,2.1,8.081.729.729,0,1,0,1.361.526,8.623,8.623,0,0,0-2.531-9.729ZM82.1,85.142a21.017,21.017,0,0,1,12,0c1.451.514,2.1,1.137,2.1,1.526v.206a4.3,4.3,0,0,1-2.047,1.247,21.114,21.114,0,0,1-12.073,0A4.087,4.087,0,0,1,80,86.817v-.149C80,86.279,80.651,85.656,82.1,85.142ZM80,96.466a7.365,7.365,0,0,0,1.412.7,17.643,17.643,0,0,0,4.916.981c-.01.173-.016.348-.016.523a8.664,8.664,0,0,0,.288,2.222,16.925,16.925,0,0,1-4.654-.875A4.174,4.174,0,0,1,80,98.8Zm6.476.522c-3.657-.242-5.9-1.246-6.476-2.086V92.533a7.728,7.728,0,0,0,1.662.794,19.407,19.407,0,0,0,5.855.943A8.511,8.511,0,0,0,86.477,96.988Zm2.28,7.691q-.326.009-.654.009a18.672,18.672,0,0,1-6-.875c-1.451-.514-2.1-1.137-2.1-1.526v-1.924a7.569,7.569,0,0,0,1.545.749,18.668,18.668,0,0,0,5.468.969A8.6,8.6,0,0,0,88.757,104.679Zm.08-12.1q-.256.256-.488.53H88.1a18.819,18.819,0,0,1-6.049-.883A4.31,4.31,0,0,1,80,90.976v-2.57a7.629,7.629,0,0,0,1.693.816,22.248,22.248,0,0,0,12.853,0A7.719,7.719,0,0,0,96.2,88.43v1.721a8.606,8.606,0,0,0-7.368,2.427Z"/>
        <path id="路径_6722" data-name="路径 6722" class="cls-4" d="M782.135,498.832a.584.584,0,1,0-.767.88,3.682,3.682,0,0,1,.734,4.676.584.584,0,1,0,1,.6,4.849,4.849,0,0,0-.966-6.16Z" transform="translate(-682.591 -404.021)"/>
      </g>
      <circle id="椭圆_458" data-name="椭圆 458" class="cls-4" cx="9" cy="9" r="9" transform="translate(4237 836)"/>
      <circle id="椭圆_459" data-name="椭圆 459" class="cls-5" cx="7.5" cy="7.5" r="7.5" transform="translate(4238.5 837.5)"/>
      <g id="组_4362" data-name="组 4362" transform="translate(4242.5 841.425)">
        <line id="直线_135" data-name="直线 135" class="cls-6" x2="7.173" transform="translate(0 5.524)"/>
        <line id="直线_136" data-name="直线 136" class="cls-6" x2="7.173" transform="translate(0 2.556)"/>
        <line id="直线_137" data-name="直线 137" class="cls-6" y2="5.607" transform="translate(3.545 2.803)"/>
        <g id="组_690" data-name="组 690" transform="translate(0.577)">
          <line id="直线_138" data-name="直线 138" class="cls-6" x1="1.814" y2="2.391" transform="translate(4.205)"/>
          <line id="直线_139" data-name="直线 139" class="cls-6" x2="1.814" y2="2.391"/>
        </g>
      </g>
    </g>
  </g>
</svg>
