<svg xmlns="http://www.w3.org/2000/svg" xmlns:xlink="http://www.w3.org/1999/xlink" width="60" height="60" viewBox="0 0 60 60">
  <defs>
    <style>
      .cls-1 {
        fill: #fff;
      }

      .cls-2 {
        fill: url(#linear-gradient);
      }

      .cls-3 {
        stroke: #fff;
        fill: url(#linear-gradient-2);
      }
    </style>
    <linearGradient id="linear-gradient" x1="0.079" y1="0.11" x2="0.805" y2="0.902" gradientUnits="objectBoundingBox">
      <stop offset="0" stop-color="#f0d88d"/>
      <stop offset="1" stop-color="#b88922"/>
    </linearGradient>
    <linearGradient id="linear-gradient-2" x1="0.079" y1="0.11" x2="0.805" y2="0.902" gradientUnits="objectBoundingBox">
      <stop offset="0" stop-color="#fff"/>
      <stop offset="1" stop-color="#b88922"/>
    </linearGradient>
  </defs>
  <g id="组_4432" data-name="组 4432" transform="translate(204 -3138)">
    <rect id="矩形_1815" data-name="矩形 1815" class="cls-1" width="60" height="60" transform="translate(-204 3138)"/>
    <g id="组_4431" data-name="组 4431" transform="translate(-1)">
      <path id="联合_21" data-name="联合 21" class="cls-2" d="M9780.517-1623h-5.354A10.161,10.161,0,0,1,9765-1633.16v-27.679A10.161,10.161,0,0,1,9775.162-1671h27.677A10.162,10.162,0,0,1,9813-1660.839v35.807a2.033,2.033,0,0,1-2.033,2.032Z" transform="translate(-9962.001 4815.69)"/>
      <path id="减去_78" data-name="减去 78" class="cls-3" d="M35.4,10.724H7.4l4.155-8.911A2.01,2.01,0,0,1,13.373.657a1.983,1.983,0,0,1,.844.188L35.4,10.722Z" transform="translate(-193 3153.776)"/>
      <path id="减去_77" data-name="减去 77" class="cls-3" d="M21.6,4.967H4.706L5.7,1.9A2,2,0,0,1,8.222.618L21.6,4.965Z" transform="translate(-193 3159.533)"/>
      <rect id="矩形_2000" data-name="矩形 2000" class="cls-1" width="35" height="21" rx="2" transform="translate(-190 3164)"/>
      <rect id="矩形_2005" data-name="矩形 2005" class="cls-2" width="27" height="3" rx="1.5" transform="translate(-186 3169)"/>
      <rect id="矩形_2006" data-name="矩形 2006" class="cls-2" width="4" height="3" rx="1.5" transform="translate(-163 3180)"/>
      <rect id="矩形_2007" data-name="矩形 2007" class="cls-2" width="4" height="3" rx="1.5" transform="translate(-168 3180)"/>
    </g>
  </g>
</svg>
