<svg xmlns="http://www.w3.org/2000/svg" xmlns:xlink="http://www.w3.org/1999/xlink" width="30" height="30" viewBox="0 0 30 30">
  <defs>
    <style>
      .cls-1 {
        fill: url(#linear-gradient);
      }

      .cls-2 {
        fill: #fff;
      }

      .cls-3 {
        fill: #dfbe5a;
      }

      .cls-4 {
        fill: none;
        stroke: #fff;
        stroke-linecap: round;
        stroke-miterlimit: 10;
        stroke-width: 1.5px;
      }
    </style>
    <linearGradient id="linear-gradient" x1="0.079" y1="0.11" x2="0.805" y2="0.902" gradientUnits="objectBoundingBox">
      <stop offset="0" stop-color="#f0d88d"/>
      <stop offset="1" stop-color="#b88922"/>
    </linearGradient>
  </defs>
  <g id="组_4363" data-name="组 4363" transform="translate(-4230 -829)">
    <rect id="矩形_1984" data-name="矩形 1984" class="cls-1" width="21.6" height="25.2" rx="4" transform="translate(4231.2 830.2)"/>
    <g id="组_4361" data-name="组 4361" transform="translate(4230 829)">
      <path id="路径_6721" data-name="路径 6721" class="cls-2" d="M104.813,93.893h0a10.324,10.324,0,0,0-3.325-1.851v-4.6a2.77,2.77,0,0,0-1.146-2.133A8.266,8.266,0,0,0,97.8,83.959a26.922,26.922,0,0,0-15.572,0,8.267,8.267,0,0,0-2.541,1.348,2.77,2.77,0,0,0-1.146,2.133v18.744a2.77,2.77,0,0,0,1.146,2.133,8.267,8.267,0,0,0,2.541,1.348,24.172,24.172,0,0,0,7.786,1.15c.959,0,1.908-.044,2.827-.131a10.349,10.349,0,0,0,11.673-.652.875.875,0,0,0-1.069-1.386,8.5,8.5,0,0,1-5.24,1.784,8.586,8.586,0,1,1,5.488-15.19h0a8.6,8.6,0,0,1,2.524,9.7.875.875,0,1,0,1.633.631,10.348,10.348,0,0,0-3.037-11.675Zm-22-8.284a25.221,25.221,0,0,1,14.4,0c1.741.617,2.521,1.364,2.521,1.831v.247a5.164,5.164,0,0,1-2.456,1.5,25.337,25.337,0,0,1-14.488,0,4.905,4.905,0,0,1-2.5-1.565V87.44C80.293,86.973,81.073,86.226,82.814,85.609ZM80.293,99.2a8.837,8.837,0,0,0,1.695.84,21.171,21.171,0,0,0,5.9,1.177c-.012.208-.019.417-.019.628a10.4,10.4,0,0,0,.346,2.666,20.31,20.31,0,0,1-5.584-1.05A5.009,5.009,0,0,1,80.293,102Zm7.771.626c-4.388-.29-7.084-1.5-7.771-2.5V94.478a9.274,9.274,0,0,0,1.995.953,23.288,23.288,0,0,0,7.026,1.132A10.213,10.213,0,0,0,88.064,99.824Zm2.736,9.229q-.391.01-.785.011a22.406,22.406,0,0,1-7.2-1.05c-1.741-.617-2.521-1.364-2.521-1.831v-2.309a9.083,9.083,0,0,0,1.854.9,22.4,22.4,0,0,0,6.561,1.163A10.319,10.319,0,0,0,90.8,109.054Zm.1-14.521q-.308.308-.585.636l-.3,0a22.583,22.583,0,0,1-7.259-1.06,5.172,5.172,0,0,1-2.462-1.5V89.525a9.155,9.155,0,0,0,2.032.979,26.7,26.7,0,0,0,15.424,0,9.263,9.263,0,0,0,1.988-.949V91.62A10.327,10.327,0,0,0,90.9,94.533Z" transform="translate(-78.542 -82.808)"/>
      <path id="路径_6722" data-name="路径 6722" class="cls-2" d="M782.329,498.86a.7.7,0,0,0-.92,1.056,4.418,4.418,0,0,1,.881,5.611.7.7,0,1,0,1.2.725,5.819,5.819,0,0,0-1.159-7.392Z" transform="translate(-757.126 -484.458)"/>
    </g>
    <circle id="椭圆_458" data-name="椭圆 458" class="cls-2" cx="10.8" cy="10.8" r="10.8" transform="translate(4238.4 837.4)"/>
    <circle id="椭圆_459" data-name="椭圆 459" class="cls-3" cx="9" cy="9" r="9" transform="translate(4240.2 839.2)"/>
    <g id="组_4362" data-name="组 4362" transform="translate(4245 843.91)">
      <line id="直线_135" data-name="直线 135" class="cls-4" x2="8.608" transform="translate(0 6.629)"/>
      <line id="直线_136" data-name="直线 136" class="cls-4" x2="8.608" transform="translate(0 3.067)"/>
      <line id="直线_137" data-name="直线 137" class="cls-4" y2="6.728" transform="translate(4.255 3.364)"/>
      <g id="组_690" data-name="组 690" transform="translate(0.693)">
        <line id="直线_138" data-name="直线 138" class="cls-4" x1="2.177" y2="2.869" transform="translate(5.046)"/>
        <line id="直线_139" data-name="直线 139" class="cls-4" x2="2.177" y2="2.869"/>
      </g>
    </g>
  </g>
</svg>
