<svg xmlns="http://www.w3.org/2000/svg" xmlns:xlink="http://www.w3.org/1999/xlink" width="108" height="108" viewBox="0 0 108 108">
  <defs>
    <style>
      .cls-1 {
        fill: #fff;
      }

      .cls-2 {
        fill: #ff5454;
      }

      .cls-3 {
        fill: none;
      }

      .cls-4 {
        fill: #333;
        font-size: 18px;
        font-family: PingFang SC Regular, PingFang SC;
      }

      .cls-5 {
        filter: url(#椭圆_460);
      }
    </style>
    <filter id="椭圆_460" x="0" y="0" width="108" height="108" filterUnits="userSpaceOnUse">
      <feOffset dy="3" input="SourceAlpha"/>
      <feGaussianBlur stdDeviation="3" result="blur"/>
      <feFlood flood-opacity="0.161"/>
      <feComposite operator="in" in2="blur"/>
      <feComposite in="SourceGraphic"/>
    </filter>
  </defs>
  <g id="组_4471" data-name="组 4471" transform="translate(-815 -2353)">
    <g class="cls-5" transform="matrix(1, 0, 0, 1, 815, 2353)">
      <circle id="椭圆_460-2" data-name="椭圆 460" class="cls-1" cx="45" cy="45" r="45" transform="translate(9 6)"/>
    </g>
    <g id="组_4472" data-name="组 4472">
      <g id="组_4470" data-name="组 4470" transform="translate(721 826)">
        <path id="路径_6733" data-name="路径 6733" class="cls-2" d="M4119.385,1570.477l2.154-1.656h2.491l1.905,1.656,1.009,2.665-1.009,2.74-6.551,6.638-5.567-4.484-2.242-2.827v-4.06l2.242-1.669h2.416Z" transform="translate(-3963)"/>
        <g id="组_4467" data-name="组 4467" transform="translate(-3687 71)">
          <rect id="矩形_2021" data-name="矩形 2021" class="cls-3" width="45" height="45" transform="translate(3813 1473)"/>
          <g id="组_4466" data-name="组 4466" transform="translate(3763.168 1462.64)">
            <path id="路径_6731" data-name="路径 6731" d="M199.866,212.9a5.364,5.364,0,0,0-7.506-.126,5.409,5.409,0,0,0-7.272,7.992l6.462,6.462a2.855,2.855,0,0,0,.594.36.931.931,0,0,0,1.062-.36l6.7-6.7A5.4,5.4,0,0,0,199.866,212.9Zm-1.638,5.976-5.868,5.868-5.634-5.634a3.067,3.067,0,1,1,4.338-4.338l.468.468a1.071,1.071,0,0,0,1.3.234.89.89,0,0,0,.468-.234l.7-.7a3.119,3.119,0,0,1,4.338,0A3.233,3.233,0,0,1,198.228,218.878Zm-22.9-12.672a1.17,1.17,0,0,0,0,2.34h8.226a1.17,1.17,0,0,0,0-2.34Zm12.33-5.868a1.105,1.105,0,0,0-1.17-1.17H174.738a1.17,1.17,0,1,0,0,2.34h11.736A1.182,1.182,0,0,0,187.662,200.338Zm0,0" transform="translate(-112.632 -177.346)"/>
            <path id="路径_6732" data-name="路径 6732" d="M69.738,43.53H59.172V17.7H80.3V30.606a1.17,1.17,0,0,0,2.34,0V17.592A2.257,2.257,0,0,0,80.3,15.36H59.172a2.246,2.246,0,0,0-2.34,2.232V43.656a2.257,2.257,0,0,0,2.34,2.232H69.738a1.179,1.179,0,0,0,0-2.358Zm0,0"/>
          </g>
        </g>
      </g>
      <text id="心愿单" class="cls-4" transform="translate(843 2434)"><tspan x="0" y="0">心愿单</tspan></text>
    </g>
  </g>
</svg>
