<svg xmlns="http://www.w3.org/2000/svg" width="32" height="32" viewBox="0 0 32 32">
  <g id="组_3964" data-name="组 3964" transform="translate(-133 -1181)">
    <rect id="矩形_1986" data-name="矩形 1986" width="32" height="32" transform="translate(133 1181)" fill="none"/>
    <g id="组_3945" data-name="组 3945" transform="translate(18.389 1067.501)">
      <path id="路径_6839" data-name="路径 6839" d="M547.5,539.334H542.45a1.8,1.8,0,0,0-1.8,1.8v5.052a1.793,1.793,0,0,0,1.8,1.793H547.5a1.8,1.8,0,0,0,1.8-1.8v-5.048A1.8,1.8,0,0,0,547.5,539.334Z" transform="translate(-407.918 -407.417)" fill="#636363"/>
      <path id="路径_6840" data-name="路径 6840" d="M135.488,117.81H129a2.313,2.313,0,0,0-2.311,2.311v6.5A2.3,2.3,0,0,0,129,128.922h6.49a2.313,2.313,0,0,0,2.311-2.311v-6.49a2.314,2.314,0,0,0-2.311-2.311Zm.115,8.551a.366.366,0,0,1-.365.368h-6a.367.367,0,0,1-.362-.365v-6a.366.366,0,0,1,.365-.368h5.993a.366.366,0,0,1,.365.368v5.993Z" transform="translate(-7.829)" fill="#636363"/>
      <path id="路径_6841" data-name="路径 6841" d="M141.653,149.982h-.1a.962.962,0,0,0-.958.958v1.5a13.16,13.16,0,0,0-7.518-4.286,1.059,1.059,0,0,0-.368-.091c-.027-.005-.054-.016-.081-.019v.008a1.036,1.036,0,0,0,0,2.072v.011a11.15,11.15,0,0,1,8.012,6,.971.971,0,0,0,.384.395.937.937,0,0,0,.529.183h.1a.962.962,0,0,0,.958-.958v-4.8a.963.963,0,0,0-.958-.964ZM128.85,168.4c-.005,0-.008,0-.011,0a11.173,11.173,0,0,1-8.28-5.913.956.956,0,0,0-.888-.612h-.1a.954.954,0,0,0-.9.676.929.929,0,0,0-.043.212.638.638,0,0,0-.013.07v.048a1.257,1.257,0,0,0,0,.142v4.616a.962.962,0,0,0,.958.958h.1a.962.962,0,0,0,.958-.958v-1.487a13.169,13.169,0,0,0,7.789,4.233,1.122,1.122,0,0,0,.459.062c.005,0,.008,0,.011,0h.005v0a.988.988,0,0,0,1-1,1.044,1.044,0,0,0-1.044-1.044Z" transform="translate(0 -29.311)" fill="#636363"/>
    </g>
  </g>
</svg>
