<svg xmlns="http://www.w3.org/2000/svg" width="32" height="32" viewBox="0 0 32 32">
  <g id="组_3963" data-name="组 3963" transform="translate(-3259 95)">
    <rect id="矩形_1991" data-name="矩形 1991" width="32" height="32" transform="translate(3259 -95)" fill="none"/>
    <path id="路径_6846" data-name="路径 6846" d="M86.059,74.432a3.706,3.706,0,0,1-.366,2.23,4.066,4.066,0,0,1-1.731,1.731V89.478a4.421,4.421,0,0,1-.333,1.748,4.087,4.087,0,0,1-.915,1.348,4.289,4.289,0,0,1-1.331.882,4.024,4.024,0,0,1-1.581.316H61.094a4.317,4.317,0,0,1-1.664-.316,4.237,4.237,0,0,1-1.348-.882,3.885,3.885,0,0,1-.9-1.348,4.625,4.625,0,0,1-.316-1.748V78.393a4.582,4.582,0,0,1-1.731-1.748,3.347,3.347,0,0,1-.366-2.214l1.664-8.022a2.428,2.428,0,0,1,.782-1.348,2.105,2.105,0,0,1,1.448-.549h23.4a2.463,2.463,0,0,1,1.648.549,2.357,2.357,0,0,1,.816,1.348Zm-4.228,4.927a4.6,4.6,0,0,1-.965.1,5.205,5.205,0,0,1-2-.383,5.418,5.418,0,0,1-1.648-1.049,4.954,4.954,0,0,1-1.581-3.5,5.113,5.113,0,0,1-.433,1.931,4.867,4.867,0,0,1-1.1,1.565,5.232,5.232,0,0,1-3.628,1.431,5.136,5.136,0,0,1-2.014-.4,5.246,5.246,0,0,1-1.648-1.082,5.009,5.009,0,0,1-1.1-1.6,4.816,4.816,0,0,1-.4-1.947,4.5,4.5,0,0,1-.433,1.947,5.2,5.2,0,0,1-1.165,1.6,5.561,5.561,0,0,1-1.714,1.082,5.383,5.383,0,0,1-2.047.4,5.08,5.08,0,0,1-1-.1v3.861a1.9,1.9,0,0,0,.183.8,2.383,2.383,0,0,0,.483.7,2.551,2.551,0,0,0,.666.483,1.625,1.625,0,0,0,.732.183H79.8a1.689,1.689,0,0,0,.7-.166,2.641,2.641,0,0,0,.666-.433,2.027,2.027,0,0,0,.483-.649,1.8,1.8,0,0,0,.183-.782V79.358Z" transform="translate(3204.283 -158.094)" fill="#d1483e"/>
  </g>
</svg>
