<svg xmlns="http://www.w3.org/2000/svg" width="60" height="60" viewBox="0 0 60 60">
  <g id="组_4379" data-name="组 4379" transform="translate(54 -1888)">
    <rect id="矩形_1880" data-name="矩形 1880" width="60" height="60" transform="translate(-54 1888)" fill="none"/>
    <path id="路径_6726" data-name="路径 6726" d="M205.982,221.829l11.09-20.939a1.7,1.7,0,0,1,2.709-.407l12.825,12.824a1.7,1.7,0,0,1,0,2.409L215.741,232.58a1.7,1.7,0,0,1-2.409,0l-6.747-6.749a3.407,3.407,0,0,1-.6-4Z" transform="translate(-231.35 1709.107)" fill="#d7d7d7"/>
    <path id="路径_6721" data-name="路径 6721" d="M188.653,207.077l1.054-15.808a1.7,1.7,0,0,1,1.586-1.588l15.81-1.054a1.7,1.7,0,0,1,1.318.494l7,7a1.7,1.7,0,0,1,.3,1.995L204.131,220.25a1.7,1.7,0,0,1-2.712.414L189.149,208.4a1.7,1.7,0,0,1-.494-1.318Zm17.329,14.752,11.09-20.939a1.7,1.7,0,0,1,2.709-.407l12.825,12.824a1.7,1.7,0,0,1,0,2.409L215.741,232.58a1.7,1.7,0,0,1-2.409,0l-6.747-6.749a3.407,3.407,0,0,1-.6-4Z" transform="translate(-234.885 1708.4)" fill="none" stroke="#333" stroke-width="1"/>
    <g id="椭圆_458" data-name="椭圆 458" transform="translate(-41.853 1900.049)" fill="#fff" stroke="#333" stroke-width="1">
      <circle cx="2.5" cy="2.5" r="2.5" stroke="none"/>
      <circle cx="2.5" cy="2.5" r="2" fill="none"/>
    </g>
  </g>
</svg>
