<svg xmlns="http://www.w3.org/2000/svg" width="64" height="64" viewBox="0 0 64 64">
  <g id="组_3568" data-name="组 3568" transform="translate(-7208 269)">
    <rect id="矩形_1669" data-name="矩形 1669" width="64" height="64" transform="translate(7208 -269)" fill="none"/>
    <g id="组_3575" data-name="组 3575" transform="translate(-214 -2173)">
      <g id="组_3575-2" data-name="组 3575" transform="matrix(0.966, -0.259, 0.259, 0.966, 7436.221, 1924.074)">
        <path id="XMLID_1_" d="M31.723,12.965a4.513,4.513,0,0,1,4.491-4.491V2.318A2.288,2.288,0,0,0,33.9,0H2.318A2.288,2.288,0,0,0,0,2.318V8.546a4.513,4.513,0,0,1,4.491,4.491A4.451,4.451,0,0,1,0,17.455v6.229A2.334,2.334,0,0,0,2.318,26H33.969a2.334,2.334,0,0,0,2.318-2.318V17.455A4.483,4.483,0,0,1,31.723,12.965Z" fill="#e0e0e0" stroke="#000" stroke-linecap="round" stroke-linejoin="round" stroke-miterlimit="10" stroke-width="2"/>
        <line id="直线_170" data-name="直线 170" x2="12.747" transform="translate(11.733 9.053)" fill="none" stroke="#000" stroke-linecap="round" stroke-linejoin="round" stroke-miterlimit="10" stroke-width="2"/>
        <line id="直线_171" data-name="直线 171" x2="12.747" transform="translate(11.733 15.934)" fill="none" stroke="#000" stroke-linecap="round" stroke-linejoin="round" stroke-miterlimit="10" stroke-width="2"/>
      </g>
      <g id="组_3576" data-name="组 3576" transform="matrix(0.966, -0.259, 0.259, 0.966, 7430, 1933.405)">
        <path id="XMLID_1_2" data-name="XMLID_1_" d="M31.723,12.965a4.513,4.513,0,0,1,4.491-4.491V2.318A2.288,2.288,0,0,0,33.9,0H2.318A2.288,2.288,0,0,0,0,2.318V8.546a4.513,4.513,0,0,1,4.491,4.491A4.451,4.451,0,0,1,0,17.455v6.229A2.334,2.334,0,0,0,2.318,26H33.969a2.334,2.334,0,0,0,2.318-2.318V17.455A4.483,4.483,0,0,1,31.723,12.965Z" fill="#fff" stroke="#000" stroke-linecap="round" stroke-linejoin="round" stroke-miterlimit="10" stroke-width="2"/>
        <line id="直线_170-2" data-name="直线 170" x2="12.747" transform="translate(11.733 9.053)" fill="none" stroke="#000" stroke-linecap="round" stroke-linejoin="round" stroke-miterlimit="10" stroke-width="2"/>
        <line id="直线_171-2" data-name="直线 171" x2="12.747" transform="translate(11.733 15.934)" fill="none" stroke="#000" stroke-linecap="round" stroke-linejoin="round" stroke-miterlimit="10" stroke-width="2"/>
      </g>
    </g>
  </g>
</svg>
