<svg xmlns="http://www.w3.org/2000/svg" width="64" height="64" viewBox="0 0 64 64"><defs><style>.a{fill:none;}.b,.c{fill:#fff;}.c,.e{stroke:#333;stroke-width:2px;}.d,.g{fill:#333;}.e{fill:#e0e0e0;stroke-linecap:round;stroke-linejoin:round;stroke-miterlimit:10;}.f,.g{stroke:none;}</style></defs><g transform="translate(-7208 269)"><rect class="a" width="64" height="64" transform="translate(7208 -269)"/><g transform="translate(6606 -1113.256)"><g transform="translate(606.032 854.256)"><g class="b" transform="translate(36.619 0) rotate(71)"><path class="f" d="M 8.879992485046387 17.64797592163086 L 1.480002641677856 17.64797592163086 C 1.215332627296448 17.64797592163086 1.00000262260437 17.43264579772949 1.00000262260437 17.16797637939453 L 1.00000262260437 1.479996085166931 C 1.00000262260437 1.215326070785522 1.215332627296448 0.9999960660934448 1.480002641677856 0.9999960660934448 L 8.879992485046387 0.9999960660934448 C 9.144662857055664 0.9999960660934448 9.359982490539551 1.215326070785522 9.359982490539551 1.479996085166931 L 9.359982490539551 17.16797637939453 C 9.359982490539551 17.43264579772949 9.144662857055664 17.64797592163086 8.879992485046387 17.64797592163086 Z"/><path class="g" d="M 2.000002861022949 1.999996185302734 L 2.000002861022949 16.64797592163086 L 8.359982490539551 16.64797592163086 L 8.359982490539551 1.999996185302734 L 2.000002861022949 1.999996185302734 M 1.479992866516113 -3.814697265625e-06 L 8.879982948303223 -3.814697265625e-06 C 9.697362899780273 -3.814697265625e-06 10.35998249053955 0.6626167297363281 10.35998249053955 1.479995727539063 L 10.35998249053955 17.16797637939453 C 10.35998249053955 17.98535537719727 9.697362899780273 18.64797592163086 8.879982948303223 18.64797592163086 L 1.479992866516113 18.64797592163086 C 0.6626129150390625 18.64797592163086 2.86102294921875e-06 17.98535537719727 2.86102294921875e-06 17.16797637939453 L 2.86102294921875e-06 1.479995727539063 C 2.86102294921875e-06 0.6626167297363281 0.6626129150390625 -3.814697265625e-06 1.479992866516113 -3.814697265625e-06 Z"/></g><g class="c" transform="translate(2.476 5.844)"><rect class="f" width="44.4" height="35.52" rx="5"/><rect class="a" x="1" y="1" width="42.4" height="33.52" rx="4"/></g><g transform="translate(16.875 28.855) rotate(180)"><g class="c"><path class="f" d="M5.625,0H15a1.875,1.875,0,0,1,1.875,1.875v7.5A1.875,1.875,0,0,1,15,11.25H5.625A5.625,5.625,0,0,1,0,5.625v0A5.625,5.625,0,0,1,5.625,0Z"/><path class="a" d="M5.625,1h8.929a1.321,1.321,0,0,1,1.321,1.321V8.929a1.321,1.321,0,0,1-1.321,1.321H5.625A4.625,4.625,0,0,1,1,5.625v0A4.625,4.625,0,0,1,5.625,1Z"/></g><circle class="d" cx="1.125" cy="1.125" r="1.125" transform="translate(4.125 4.5)"/></g></g><path class="e" d="M8.1,28.123H31.538a11.669,11.669,0,0,0-8.957-11.384A8.414,8.414,0,0,0,28.19,8.871a8.371,8.371,0,1,0-11.133,7.868A11.669,11.669,0,0,0,8.1,28.123Z" transform="translate(629.494 869.454)"/></g></g></svg>