<svg xmlns="http://www.w3.org/2000/svg" width="64" height="64" viewBox="0 0 64 64"><defs><style>.a,.b,.d{fill:none;}.b{stroke:gray;}.b,.d{stroke-linecap:round;stroke-miterlimit:10;stroke-width:2.8px;}.c{fill:gray;}.d{stroke:#707070;}</style></defs><g transform="translate(-408 -434)"><rect class="a" width="64" height="64" transform="translate(408 434)"/><g transform="translate(-38 -55)"><g transform="translate(454 496)"><path class="b" d="M2.2,9.18A25.4,25.4,0,1,1,21.3,51.316,25.152,25.152,0,0,1,2.358,42.794" transform="translate(1.296 -0.5)"/><path class="c" d="M.956,4.331.009,10.8a.73.73,0,0,0,1.1.789l6-2.367c.631-.158.631-.947.158-1.42L2.218,3.858A.794.794,0,0,0,.956,4.331Z" transform="translate(0.016 1.35)"/></g><g transform="translate(468.246 511.584)"><line class="d" x2="18.079" transform="translate(0 13.923)"/><line class="d" x2="18.079" transform="translate(0 6.442)"/><line class="d" y2="14.131" transform="translate(8.936 7.065)"/><g transform="translate(1.455)"><line class="d" x1="4.572" y2="6.026" transform="translate(10.598)"/><line class="d" x2="4.572" y2="6.026"/></g></g></g></g></svg>