<?xml version="1.0" standalone="no"?><!DOCTYPE svg PUBLIC "-//W3C//DTD SVG 1.1//EN" "http://www.w3.org/Graphics/SVG/1.1/DTD/svg11.dtd"><svg t="1608108639887" class="icon" viewBox="0 0 1024 1024" version="1.1" xmlns="http://www.w3.org/2000/svg" p-id="5943" xmlns:xlink="http://www.w3.org/1999/xlink" width="32" height="32"><defs><style type="text/css"></style></defs><path d="M923.63904 424.82944c0-231.85792-184.29568-419.80544-411.64416-419.80544-227.34208 0-411.63904 187.94752-411.63904 419.80544 0 7.35872 0.7104 14.47168 1.08288 21.67552-0.33792 3.5584-1.08288 6.99008-1.08288 10.64192 0 258.38592 379.97952 551.06688 379.97952 551.06688s31.66336 24.21504 63.328 0c31.66336-24.24192 379.97952-292.68096 379.97952-551.06688 0-3.65184-0.74496-7.08352-1.08288-10.64192C922.92864 439.30112 923.63904 432.18816 923.63904 424.82944L923.63904 424.82944zM511.99488 586.336c-87.44832 0-158.31936-72.29312-158.31936-161.50656 0-89.15072 70.86976-161.4464 158.31936-161.4464 87.45344 0 158.32832 72.29568 158.32832 161.4464C670.3232 514.04288 599.44832 586.336 511.99488 586.336L511.99488 586.336zM511.99488 586.336" p-id="5944" fill="#0679F6"></path></svg>