<svg xmlns="http://www.w3.org/2000/svg" width="64" height="64" viewBox="0 0 64 64"><defs><style>.a{fill:none;}.b,.c{fill:#fff;}.b,.d{stroke:#333;stroke-width:2px;}.d{fill:#e0e0e0;}.e,.f{stroke:none;}.f{fill:#333;}</style></defs><g transform="translate(-7523 269)"><rect class="a" width="64" height="64" transform="translate(7523 -269)"/><g transform="translate(7753 -2740)"><g class="b" transform="translate(-205.8 2485.6)"><rect class="e" width="27.733" height="11.267"/><rect class="a" x="1" y="1" width="25.733" height="9.267"/></g><g class="c" transform="translate(-224 2483)"><path class="e" d="M 46.99980163574219 41.46649932861328 L 5.000401020050049 41.46649932861328 C 2.794571161270142 41.46649932861328 1.000001072883606 39.67192840576172 1.000001072883606 37.46609878540039 L 1.000001072883606 10.60019969940186 L 1.000001072883606 5.000399589538574 C 1.000001072883606 2.794569730758667 2.794571161270142 0.9999996423721313 5.000401020050049 0.9999996423721313 L 20.99970054626465 0.9999996423721313 C 23.20553016662598 0.9999996423721313 25.00010108947754 2.794569730758667 25.00010108947754 5.000399589538574 L 25.00010108947754 7.800299644470215 L 25.00010108947754 8.800299644470215 L 26.00010108947754 8.800299644470215 L 46.99980163574219 8.800299644470215 C 49.20563125610352 8.800299644470215 51.00020217895508 10.59447002410889 51.00020217895508 12.79979991912842 L 51.00020217895508 37.46609878540039 C 51.00020217895508 39.67192840576172 49.20563125610352 41.46649932861328 46.99980163574219 41.46649932861328 Z"/><path class="f" d="M 46.99980163574219 40.46649932861328 C 48.65423202514648 40.46649932861328 50.00020217895508 39.12052917480469 50.00020217895508 37.46609878540039 L 50.00020217895508 12.79979991912842 C 50.00020217895508 11.14586925506592 48.65423202514648 9.800299644470215 46.99980163574219 9.800299644470215 L 26.00010108947754 9.800299644470215 L 24.00010108947754 9.800299644470215 L 24.00010108947754 7.800299644470215 L 24.00010108947754 5.000399589538574 C 24.00010108947754 3.345969676971436 22.65413093566895 1.999999642372131 20.99970054626465 1.999999642372131 L 5.000401020050049 1.999999642372131 C 3.34597110748291 1.999999642372131 2.000001192092896 3.345969676971436 2.000001192092896 5.000399589538574 L 2.000001192092896 10.60019969940186 L 2.000001192092896 37.46609878540039 C 2.000001192092896 39.12052917480469 3.34597110748291 40.46649932861328 5.000401020050049 40.46649932861328 L 46.99980163574219 40.46649932861328 M 46.99980163574219 42.46649932861328 L 5.000401020050049 42.46649932861328 C 2.238301038742065 42.46649932861328 1.089477564164554e-06 40.22819900512695 1.089477564164554e-06 37.46609878540039 L 1.089477564164554e-06 10.60019969940186 L 1.089477564164554e-06 5.000399589538574 C 1.089477564164554e-06 2.238299608230591 2.238301038742065 -3.356933575560106e-07 5.000401020050049 -3.356933575560106e-07 L 20.99970054626465 -3.356933575560106e-07 C 23.76090049743652 -3.356933575560106e-07 26.00010108947754 2.238299608230591 26.00010108947754 5.000399589538574 L 26.00010108947754 7.800299644470215 L 46.99980163574219 7.800299644470215 C 49.76100158691406 7.800299644470215 52.00020217895508 10.03859996795654 52.00020217895508 12.79979991912842 L 52.00020217895508 37.46609878540039 C 52.00020217895508 40.22819900512695 49.76100158691406 42.46649932861328 46.99980163574219 42.46649932861328 Z"/></g><path class="d" d="M9.985,133.387a.837.837,0,0,0-.758.478L6.8,138.779a.865.865,0,0,1-.643.47l-5.433.791a.853.853,0,0,0-.47,1.451l3.933,3.817a.878.878,0,0,1,.247.75l-.915,5.392a.857.857,0,0,0,.841,1,.773.773,0,0,0,.4-.107l4.856-2.548a.821.821,0,0,1,.4-.091.957.957,0,0,1,.4.091l4.856,2.548a.817.817,0,0,0,.4.107.857.857,0,0,0,.841-1l-.94-5.4a.818.818,0,0,1,.247-.75l3.933-3.826a.849.849,0,0,0-.47-1.451l-5.433-.791a.846.846,0,0,1-.643-.47l-2.424-4.914a.887.887,0,0,0-.783-.462Z" transform="translate(-208 2364.613)"/></g></g></svg>