<svg xmlns="http://www.w3.org/2000/svg" width="64" height="64" viewBox="0 0 64 64"><defs><style>.a,.b{fill:none;}.b,.c{stroke:#333;stroke-linecap:round;stroke-linejoin:round;stroke-miterlimit:10;stroke-width:2px;}.c{fill:#e0e0e0;}</style></defs><g transform="translate(-7356 269)"><rect class="a" width="64" height="64" transform="translate(7356 -269)"/><g transform="translate(7361.5 -257.5)"><g transform="translate(0.5 2.551)"><path class="b" d="M15.581,2.2A10.89,10.89,0,0,0,4.723,13.058a10.7,10.7,0,0,0,7.239,10.135A15.275,15.275,0,0,0,.5,37.912H6.894" transform="translate(-0.5 -2.2)"/><path class="b" d="M31.1,2.2A10.89,10.89,0,0,1,41.958,13.058a10.7,10.7,0,0,1-7.239,10.135A15.038,15.038,0,0,1,46.181,37.912H39.787" transform="translate(5.819 -2.2)"/></g><path class="c" d="M8.1,40.314H41.882a16.819,16.819,0,0,0-12.91-16.408,12.127,12.127,0,0,0,8.084-11.341A12.065,12.065,0,1,0,21.01,23.906,16.819,16.819,0,0,0,8.1,40.314Z" transform="translate(1.569)"/></g></g></svg>