<svg height="64" viewBox="0 0 64 64" width="64" xmlns="http://www.w3.org/2000/svg"><path d="m0 0h64v64h-64z" fill="none"/><g stroke="#707070" stroke-linecap="round" stroke-miterlimit="10" stroke-width="2.5"><path d="m8.594 2h-4.329a3.776 3.776 0 0 0 -3.765 3.765v37.647a3.776 3.776 0 0 0 3.765 3.765h35.764a3.776 3.776 0 0 0 3.765-3.765v-37.647a3.776 3.776 0 0 0 -3.765-3.765h-4.329" fill="none" transform="translate(9.5 8.824)"/><rect fill="#fff" height="5.647" rx="1" width="16.941" x="23.176" y="8"/><path d="m18.094 26.824h3.765" fill="none"/><path d="m26.565 26.824h18.824" fill="none"/><path d="m18.094 34.353h3.765" fill="none"/><path d="m26.565 34.353h18.824" fill="none"/><path d="m18.094 41.882h3.765" fill="none"/><path d="m26.565 41.882h18.824" fill="none"/></g></svg>