<?xml version="1.0" standalone="no"?><!DOCTYPE svg PUBLIC "-//W3C//DTD SVG 1.1//EN" "http://www.w3.org/Graphics/SVG/1.1/DTD/svg11.dtd"><svg t="1608108599567" class="icon" viewBox="0 0 1024 1024" version="1.1" xmlns="http://www.w3.org/2000/svg" p-id="5019" xmlns:xlink="http://www.w3.org/1999/xlink" width="32" height="32"><defs><style type="text/css"></style></defs><path d="M789.85475 713.420429c-56.890708-21.75549-110.774943-49.748031-173.238576 8.559956-38.553061 35.985586-66.429968 32.04688-91.638093 18.648732C499.786329 727.233016 344.582501 568.779168 323.393923 516.943592c-21.186532-51.835575-9.742898-58.84113 0-74.553996 9.728572-15.735379 77.310783-52.43728 36.652781-167.765935-40.672328-115.331725-72.604598-202.183815-238.250242 0-17.183358 20.969591 0 111.843274 0 111.843274s116.799146 381.794519 513.137916 540.566616C696.461687 951.674765 835.415412 912.650983 891.505895 815.18823 918.999063 767.42439 879.124913 747.554854 789.85475 713.420429z" p-id="5020" fill="#0679F6"></path></svg>