<svg xmlns="http://www.w3.org/2000/svg" xmlns:xlink="http://www.w3.org/1999/xlink" width="710" height="130" viewBox="0 0 710 130"><defs><style>.a,.c{fill:#fff;}.b{fill:url(#a);}.c{font-size:28px;font-family:PingFang SC Regular, PingFang SC;}.d{fill:url(#b);}.e{fill:url(#c);}.f{opacity:0.58;fill:url(#d);}.g{fill:url(#f);}.h{fill:url(#g);}.i{fill:url(#h);}.j{fill:url(#i);}.k{opacity:0.16;fill:url(#j);}.l{fill:#ffcb43;font-size:36px;font-family:FZPWJW--GB1-0, FZPangWa-M18S;}</style><linearGradient id="a" x1="1" y1="1" x2="0" y2="0.143" gradientUnits="objectBoundingBox"><stop offset="0" stop-color="#fe0000"/><stop offset="1" stop-color="#ff2f6d"/></linearGradient><linearGradient id="b" x1="0.5" x2="0.5" y2="1" gradientUnits="objectBoundingBox"><stop offset="0" stop-color="#ff2f6d"/><stop offset="1" stop-color="#fe0000"/></linearGradient><linearGradient id="c" x1="0.5" x2="0.5" y2="1" gradientUnits="objectBoundingBox"><stop offset="0" stop-color="#fe0000"/><stop offset="1" stop-color="#b11342"/></linearGradient><linearGradient id="d" x1="0.062" y1="0.5" x2="0.876" y2="0.5" gradientUnits="objectBoundingBox"><stop offset="0" stop-color="#9a2121"/><stop offset="0.524" stop-color="#d9091f"/><stop offset="1" stop-color="#b11342"/></linearGradient><linearGradient id="f" x1="0.5" y1="0.056" x2="0.5" y2="1" gradientUnits="objectBoundingBox"><stop offset="0" stop-color="#ff2f6d"/><stop offset="1" stop-color="#e01111"/></linearGradient><linearGradient id="g" x1="0.073" y1="0.913" x2="0.939" y2="0.003" gradientUnits="objectBoundingBox"><stop offset="0" stop-color="#ffba03"/><stop offset="0.655" stop-color="#ffba03"/><stop offset="1" stop-color="#ff5703"/></linearGradient><linearGradient id="h" x1="0.064" y1="0.911" x2="0.827" y2="0.079" gradientUnits="objectBoundingBox"><stop offset="0" stop-color="#ffba03"/><stop offset="0.745" stop-color="#ffba03"/><stop offset="1" stop-color="#ff6e00"/></linearGradient><linearGradient id="i" x1="0.5" y1="0.579" x2="0.5" y2="1" gradientUnits="objectBoundingBox"><stop offset="0" stop-color="#ffba03"/><stop offset="1" stop-color="#ffa200"/></linearGradient><linearGradient id="j" x1="0.194" y1="0.145" x2="0.787" y2="0.901" gradientUnits="objectBoundingBox"><stop offset="0" stop-color="#fff"/><stop offset="0.368" stop-color="#f8e8e8"/><stop offset="0.628" stop-color="#cfcbcb"/><stop offset="1" stop-color="gray"/></linearGradient></defs><g transform="translate(-20 -830)"><rect class="a" width="710" height="130" rx="5" transform="translate(20 830)"/><g transform="translate(-52 -205)"><rect class="b" width="150" height="50" rx="25" transform="translate(562 1075)"/><text class="c" transform="translate(580 1110)"><tspan x="0" y="0">去推广</tspan></text><path class="a" d="M0,0,18,10.045,0,20.319Z" transform="translate(676 1090)"/></g><g transform="translate(-143 -86.303)"><path class="d" d="M43.649,0C68.037,0,87.532,26.321,87.532,47.9s-19.5,30.251-43.883,30.251S-.785,69.484-.785,47.9,19.261,0,43.649,0Z" transform="translate(233.468 953.149)"/><path class="e" d="M6712.731,968.407c2.275,5.355,9.924,15.741,26.006,15.741s27.375-15.638,28.4-19.624S6712.731,968.407,6712.731,968.407Z" transform="translate(-6461.993 -15.365)"/><path class="f" d="M6712.731,968.407c2.275,5.355,9.924,15.741,26.006,15.741s27.375-15.638,28.4-19.624S6712.731,968.407,6712.731,968.407Z" transform="translate(-6461.993 -15.365)"/><path class="d" d="M6700.126,946.839c-.2,7.923,7.719,6.968,13.878,5.985s5.784,5.378,10.41,5.378,9.628-5.754,15.411-5.378,8.067,5.2,15.99,0,5.436-9.629,2.139-10.988-6.563,2.487-13.5,2.487-5.863-4.959-13.474-5.581-9.484,2.516-15.44,3.094S6700.328,938.916,6700.126,946.839Z" transform="translate(-6453.804 0.701)"/><path class="g" d="M6700.126,946.839c-.2,7.923,7.719,6.968,13.878,5.985s5.784,5.378,10.41,5.378,9.628-5.754,15.411-5.378,8.067,5.2,15.99,0,5.436-9.629,2.139-10.988-6.563,2.487-13.5,2.487-5.863-4.959-13.474-5.581-9.484,2.516-15.44,3.094S6700.328,938.916,6700.126,946.839Z" transform="translate(-6453.804 0)"/><path class="h" d="M23.782,0C17.109,1.764,3.856,9.844,0,22.558c.619,1.658,2.816,1.922,2.816,1.922s5.423-17,23.242-20.873C26.059,1.408,23.782,0,23.782,0Z" transform="matrix(0.899, -0.438, 0.438, 0.899, 233.948, 974.346)"/><path class="i" d="M6683.154,1001.649c-6.673,1.764-19.925,9.844-23.782,22.558.619,1.658,2.817,1.922,2.817,1.922s5.423-17,23.242-20.873C6685.431,1003.057,6683.154,1001.649,6683.154,1001.649Z" transform="translate(-6427.335 -40.912)"/><path class="j" d="M24.181,15.338h0a25.572,25.572,0,0,1-8.9-1.721A37.61,37.61,0,0,1,7.666,9.686a38.954,38.954,0,0,1-5.4-4.294A9.414,9.414,0,0,1,0,2.583,2.12,2.12,0,0,1,.534,1.291a2.475,2.475,0,0,1,1.785-.9c3.746,4.167,10.55,9.134,21.7,9.134,9.313,0,16.6-5.143,21.078-9.457A2.384,2.384,0,0,1,45.656,0c.737,0,2.085.366,2.826,2.815a17.738,17.738,0,0,1-2.44,2.669,41.767,41.767,0,0,1-5.22,4.155,36.762,36.762,0,0,1-7.351,3.872,26.354,26.354,0,0,1-8.836,1.821C24.485,15.336,24.332,15.338,24.181,15.338Z" transform="translate(252.728 959.257)"/><g transform="translate(227 982.588)"><circle class="a" cx="4.907" cy="4.907" r="4.907"/><circle class="k" cx="4.206" cy="4.206" r="4.206" transform="translate(1.051 1.402)"/></g><g transform="translate(240.318 991.35)"><circle class="a" cx="4.907" cy="4.907" r="4.907"/><circle class="k" cx="4.206" cy="4.206" r="4.206" transform="translate(1.402 1.402)"/></g><text class="l" transform="translate(257.491 1011.528)"><tspan x="0" y="0">￥</tspan></text></g></g></svg>