<svg height="64" viewBox="0 0 64 64" width="64" xmlns="http://www.w3.org/2000/svg"><path d="m0 0h64v64h-64z" fill="none"/><g stroke="#707070" stroke-width="2.5" transform="translate(-1782 677)"><g fill="#fff"><path d="m944.251 843.5h28.885a2.759 2.759 0 0 1 2.751 2.751v5.5h8.533l5.909 9.821v13.562a1.378 1.378 0 0 1 -.028.279 2.75 2.75 0 0 1 -2.723 2.472h-43.327a2.759 2.759 0 0 1 -2.751-2.751v-28.883a2.759 2.759 0 0 1 2.751-2.751z" stroke-linejoin="round" transform="translate(848.585 -1508.693)"/><circle cx="1826.987" cy="-630.5" r="6.5" stroke="none"/><circle cx="1826.987" cy="-630.5" fill="none" r="5.25"/><circle cx="1801.987" cy="-630.5" r="6.5" stroke="none"/><circle cx="1801.987" cy="-630.5" fill="none" r="5.25"/></g><path d="m1791.823-654.128v6h6" fill="none" stroke-linecap="round" stroke-linejoin="round" transform="translate(35.84 2)"/></g></svg>