<svg xmlns="http://www.w3.org/2000/svg" xmlns:xlink="http://www.w3.org/1999/xlink" width="70" height="70" viewBox="0 0 70 70">
  <defs>
    <style>
      .cls-1 {
        fill: none;
      }

      .cls-2 {
        stroke: rgba(0,0,0,0);
        stroke-miterlimit: 10;
        fill: url(#linear-gradient);
      }

      .cls-3 {
        fill: url(#linear-gradient-2);
      }

      .cls-4 {
        fill: url(#linear-gradient-3);
      }

      .cls-5 {
        fill: #fff9e7;
      }
    </style>
    <linearGradient id="linear-gradient" x1="8.376" y1="-5.789" x2="10.098" y2="-4.181" gradientUnits="objectBoundingBox">
      <stop offset="0" stop-color="#ffc45c"/>
      <stop offset="1" stop-color="#ffefa8"/>
    </linearGradient>
    <linearGradient id="linear-gradient-2" x1="0.776" y1="0.638" x2="0.064" y2="0.043" gradientUnits="objectBoundingBox">
      <stop offset="0" stop-color="#fff3cb"/>
      <stop offset="1" stop-color="#ffd24b"/>
    </linearGradient>
    <linearGradient id="linear-gradient-3" x1="1" y1="0.898" x2="0.218" y2="0.246" gradientUnits="objectBoundingBox">
      <stop offset="0" stop-color="#ffefa8"/>
      <stop offset="1" stop-color="#ffc45c"/>
    </linearGradient>
  </defs>
  <g id="组_4908" data-name="组 4908" transform="translate(-340 -304)">
    <rect id="矩形_2405" data-name="矩形 2405" class="cls-1" width="70" height="70" transform="translate(340 304)"/>
    <g id="组_4897" data-name="组 4897" transform="translate(-13724 11929)">
      <path id="减去_142" data-name="减去 142" class="cls-2" d="M698.17-547.388a46.482,46.482,0,0,1-14.464-2.081c-3.919-1.335-6.3-3.143-6.706-5.09v-5.917c2.688,3.794,10.8,6.151,21.17,6.151,1.862,0,3.7-.084,5.457-.249a22.214,22.214,0,0,0,7.455,5.586A48.72,48.72,0,0,1,698.17-547.388Zm0-7.725a46.5,46.5,0,0,1-14.464-2.08c-3.919-1.335-6.3-3.142-6.706-5.089V-568.2c2.688,3.794,10.8,6.151,21.17,6.151.4,0,.8,0,1.186-.011a21.886,21.886,0,0,0,3.655,6.745C701.427-555.18,699.8-555.113,698.17-555.113Zm0-7.723a46.5,46.5,0,0,1-14.464-2.08c-3.919-1.335-6.3-3.142-6.706-5.089v-5.918c2.687,3.793,10.8,6.15,21.17,6.15h.084c-.009.248-.013.509-.013.777a22.032,22.032,0,0,0,.872,6.154C698.756-562.838,698.448-562.836,698.17-562.836Zm.125-7.722h-.125a46.485,46.485,0,0,1-14.464-2.081c-3.919-1.335-6.3-3.142-6.706-5.089v-5.917c2.687,3.793,10.8,6.15,21.17,6.15.595,0,1.195-.009,1.783-.026a21.86,21.86,0,0,0-1.659,6.964Zm-.125-7.724a46.485,46.485,0,0,1-14.464-2.081c-3.919-1.335-6.3-3.142-6.706-5.089v-5.917c2.688,3.793,10.8,6.15,21.17,6.15a56.179,56.179,0,0,0,7.8-.523,22.219,22.219,0,0,0-5.664,7.422C699.6-578.294,698.877-578.281,698.17-578.281Zm.068-7.915a52,52,0,0,1-14.464-1.877c-3.855-1.161-6.3-2.731-6.706-4.307v-4.826c.405-1.573,2.787-3.033,6.706-4.112A56.786,56.786,0,0,1,698.238-603a56.791,56.791,0,0,1,14.465,1.681c3.919,1.079,6.3,2.539,6.706,4.112v4.826a3.176,3.176,0,0,1-.943,1.455,21.93,21.93,0,0,0-11.017,4.028A58.61,58.61,0,0,1,698.238-586.2Zm20.767-4.766,0,0c.118-.134.231-.27.333-.4v.391l-.333.016Z" transform="translate(13390.76 -11015.003)"/>
      <g id="组_4886" data-name="组 4886" transform="translate(13677.209 -11998.791)">
        <circle id="椭圆_534" data-name="椭圆 534" class="cls-3" cx="21" cy="21" r="21" transform="translate(412.791 393.791)"/>
        <circle id="椭圆_535" data-name="椭圆 535" class="cls-4" cx="15" cy="15" r="15" transform="translate(418.791 399.791)"/>
        <path id="路径_20532" data-name="路径 20532" class="cls-5" d="M579.482,595.144a1.132,1.132,0,0,0,0-2.264h-2.544l3.613-5.88a1.132,1.132,0,0,0-1.929-1.186l-4.251,6.919-4.251-6.919A1.132,1.132,0,0,0,568.189,587l3.613,5.88h-3a1.132,1.132,0,1,0,0,2.264h4.385V596.7h-4.385a1.132,1.132,0,0,0,0,2.265h4.385v2.846a1.132,1.132,0,0,0,2.265,0v-2.846h4.026a1.132,1.132,0,0,0,0-2.265h-4.026v-1.558Z" transform="translate(-140.639 -179.161)"/>
      </g>
    </g>
  </g>
</svg>
