<svg xmlns="http://www.w3.org/2000/svg" width="70" height="70" viewBox="0 0 70 70">
  <defs>
    <style>
      .cls-1 {
        fill: none;
      }

      .cls-2 {
        fill: #febe3a;
      }
    </style>
  </defs>
  <g id="组_4836" data-name="组 4836" transform="translate(-580 -304)">
    <rect id="矩形_2406" data-name="矩形 2406" class="cls-1" width="70" height="70" transform="translate(580 304)"/>
    <g id="组_4830" data-name="组 4830" transform="translate(-5.001 1.221)">
      <path id="减去_108" data-name="减去 108" class="cls-2" d="M56.014,36.235h-37.9V0h37.9a4,4,0,0,1,4,4V32.234A4,4,0,0,1,56.014,36.235ZM29.771,21.109a1.278,1.278,0,1,0,0,2.557h4.951v3.212a1.278,1.278,0,0,0,2.556,0V23.666h4.546a1.278,1.278,0,0,0,0-2.557H37.278V19.35h4.546a1.278,1.278,0,0,0,0-2.557H38.951l4.079-6.637a1.278,1.278,0,1,0-2.178-1.338l-4.8,7.811-4.8-7.811a1.278,1.278,0,1,0-2.178,1.338l4.078,6.637H29.771a1.278,1.278,0,1,0,0,2.557h4.951v1.759ZM14.72,36.235H4a4.005,4.005,0,0,1-4-4V24.911a6.756,6.756,0,0,0,4.8-1.993,6.75,6.75,0,0,0,1.992-4.8A6.8,6.8,0,0,0,0,11.323V4A4,4,0,0,1,4,0H14.72Z" transform="translate(585.001 325.323)"/>
      <path id="减去_112" data-name="减去 112" class="cls-2" d="M56.014,36.235H53.291V13.058a4,4,0,0,0-4-4H18.118V0h37.9a4,4,0,0,1,4,4V32.234A4,4,0,0,1,56.014,36.235ZM14.72,9.059H0V4A4,4,0,0,1,4,0H14.72V9.058Z" transform="translate(593.988 314)"/>
    </g>
  </g>
</svg>
