<svg xmlns="http://www.w3.org/2000/svg" xmlns:xlink="http://www.w3.org/1999/xlink" width="70" height="70" viewBox="0 0 70 70">
  <defs>
    <style>
      .cls-1, .cls-2 {
        fill: #febe3a;
      }

      .cls-2 {
        stroke: rgba(0,0,0,0);
        stroke-miterlimit: 10;
      }

      .cls-3 {
        fill: none;
      }

      .cls-4 {
        clip-path: url(#clip-path);
      }
    </style>
    <clipPath id="clip-path">
      <rect id="矩形_1605" data-name="矩形 1605" class="cls-1" width="36.101" height="42.159"/>
    </clipPath>
  </defs>
  <g id="组_4835" data-name="组 4835" transform="translate(-340 -304)">
    <rect id="矩形_2405" data-name="矩形 2405" class="cls-3" width="70" height="70" transform="translate(340 304)"/>
    <g id="组_4829" data-name="组 4829" transform="translate(-58.561 -10.371)">
      <g id="组_3157" data-name="组 3157" transform="translate(426.486 334.213)">
        <g id="组_3156" data-name="组 3156" transform="translate(0)">
          <g id="组_3155" data-name="组 3155" class="cls-4" transform="translate(0 0)">
            <path id="路径_700" data-name="路径 700" class="cls-1" d="M45.043-12.851a50.709,50.709,0,0,0,10.408-1.009,20.467,20.467,0,0,0,7.634-2.983v3.991c0,1.084-.8,2.082-2.42,3.01a21.9,21.9,0,0,1-6.578,2.194,47.173,47.173,0,0,1-9.045.81A47.365,47.365,0,0,1,36-7.646a21.742,21.742,0,0,1-6.578-2.2Q27-11.23,27-12.856v-4a20.468,20.468,0,0,0,7.634,2.983,50.324,50.324,0,0,0,10.408,1.019Zm0,18.043A50.719,50.719,0,0,0,55.451,4.183,20.464,20.464,0,0,0,63.085,1.2V5.192c0,1.084-.8,2.082-2.42,3.01A21.91,21.91,0,0,1,54.088,10.4a47.189,47.189,0,0,1-9.045.81A47.348,47.348,0,0,1,36,10.4,21.91,21.91,0,0,1,29.42,8.2C27.8,7.274,27,6.276,27,5.192v-4a20.467,20.467,0,0,0,7.634,2.983A50.333,50.333,0,0,0,45.043,5.192Zm0-9.024A50.723,50.723,0,0,0,55.451-4.84a20.464,20.464,0,0,0,7.634-2.983v3.992c0,1.084-.8,2.082-2.42,3.01a21.91,21.91,0,0,1-6.578,2.194,47.347,47.347,0,0,1-9.045.81A47.226,47.226,0,0,1,36,1.372,21.759,21.759,0,0,1,29.42-.822Q27-2.206,27-3.832v-4a20.468,20.468,0,0,0,7.634,2.983A50.554,50.554,0,0,0,45.043-3.832Zm0-27.061a47.225,47.225,0,0,1,9.045.81,21.8,21.8,0,0,1,6.578,2.2q2.422,1.384,2.42,3v3c0,1.084-.8,2.082-2.42,3.01a21.9,21.9,0,0,1-6.578,2.194,47.172,47.172,0,0,1-9.045.81A47.369,47.369,0,0,1,36-16.67a21.9,21.9,0,0,1-6.578-2.194C27.8-19.793,27-20.791,27-21.874v-3.01q0-1.618,2.42-3a21.908,21.908,0,0,1,6.572-2.2,47.4,47.4,0,0,1,9.051-.8Zm0,0" transform="translate(-27 30.9)"/>
          </g>
        </g>
      </g>
      <path id="减去_95" data-name="减去 95" class="cls-2" d="M19.663,50.437h0a56.968,56.968,0,0,1-8.878-.951A26.442,26.442,0,0,1,2.9,46.855C.949,45.734,0,44.555,0,43.248v-4.79a24.646,24.646,0,0,0,9.151,3.577,58.724,58.724,0,0,0,10.472,1.186v6.7a3.456,3.456,0,0,0,.04.516Zm-.04-10.824h0a54.735,54.735,0,0,1-8.838-.942A26.261,26.261,0,0,1,2.9,36.042C.976,34.942,0,33.729,0,32.436V27.645A24.634,24.634,0,0,0,9.151,31.22a60.779,60.779,0,0,0,10.472,1.194v7.2Zm0-10.8h0a57.115,57.115,0,0,1-8.838-.946A26.2,26.2,0,0,1,2.9,25.226C.976,24.127,0,22.914,0,21.619V16.827A24.634,24.634,0,0,0,9.151,20.4a58.69,58.69,0,0,0,10.472,1.2v7.211Zm0-10.812h0a57.526,57.526,0,0,1-8.838-.95A26.452,26.452,0,0,1,2.9,14.417C.949,13.3,0,12.116,0,10.81V7.2c0-1.29.976-2.5,2.9-3.6A26.4,26.4,0,0,1,10.776.966,57.121,57.121,0,0,1,21.238,0h.388A56.905,56.905,0,0,1,32.465.973a26.335,26.335,0,0,1,7.883,2.635c1.924,1.1,2.9,2.311,2.9,3.6V9.2c-1.323-.12-2.693-.181-4.073-.181a36.016,36.016,0,0,0-13.992,2.526,12.929,12.929,0,0,0-4.131,2.674,4.4,4.4,0,0,0-1.429,3.043V18Z" transform="translate(404.266 322.361)"/>
    </g>
  </g>
</svg>
