<svg xmlns="http://www.w3.org/2000/svg" xmlns:xlink="http://www.w3.org/1999/xlink" width="70" height="70" viewBox="0 0 70 70">
  <defs>
    <style>
      .cls-1, .cls-3 {
        fill: none;
      }

      .cls-2 {
        fill: url(#linear-gradient);
      }

      .cls-3 {
        stroke: #dae8ff;
        stroke-linecap: round;
        stroke-width: 2px;
        stroke-dasharray: 2 5;
      }

      .cls-4 {
        fill: url(#linear-gradient-2);
      }

      .cls-5 {
        fill: url(#linear-gradient-4);
      }
    </style>
    <linearGradient id="linear-gradient" x1="0.19" y1="0.223" x2="0.889" y2="0.832" gradientUnits="objectBoundingBox">
      <stop offset="0" stop-color="#798ce5"/>
      <stop offset="1" stop-color="#a7b8fd"/>
    </linearGradient>
    <linearGradient id="linear-gradient-2" x1="-0.134" y1="-1.046" x2="0.5" y2="1" gradientUnits="objectBoundingBox">
      <stop offset="0" stop-color="#a2b9fe"/>
      <stop offset="1" stop-color="#e6ecff"/>
    </linearGradient>
    <linearGradient id="linear-gradient-4" x1="0.139" y1="0.824" x2="0.784" y2="0.5" gradientUnits="objectBoundingBox">
      <stop offset="0" stop-color="#afbffd"/>
      <stop offset="1" stop-color="#d1dcfd"/>
    </linearGradient>
  </defs>
  <g id="组_4911" data-name="组 4911" transform="translate(-340 -464)">
    <rect id="矩形_2429" data-name="矩形 2429" class="cls-1" width="70" height="70" transform="translate(340 464)"/>
    <g id="组_4900" data-name="组 4900" transform="translate(-193.977 47.969)">
      <g id="组_4881" data-name="组 4881" transform="matrix(0.899, -0.438, 0.438, 0.899, 533.977, 446.523)">
        <path id="减去_122" data-name="减去 122" class="cls-2" d="M53.962,38.791H5a5.006,5.006,0,0,1-5-5V26.335a7.087,7.087,0,0,0,.776.043,6.983,6.983,0,0,0,0-13.965A7.091,7.091,0,0,0,0,12.455V5A5.006,5.006,0,0,1,5,0H53.962a5.006,5.006,0,0,1,5,5v7.412a6.983,6.983,0,0,0,0,13.965v7.412A5.006,5.006,0,0,1,53.962,38.791Z" transform="translate(0 0)"/>
        <path id="路径_20548" data-name="路径 20548" class="cls-3" d="M0,0V31.033" transform="translate(15.357 4.904)"/>
        <rect id="矩形_2530" data-name="矩形 2530" class="cls-4" width="15.516" height="4.655" rx="2.327" transform="translate(22.732 9.821)"/>
        <rect id="矩形_2531" data-name="矩形 2531" class="cls-4" width="23.274" height="4.655" rx="2.327" transform="translate(22.732 19.907)"/>
      </g>
      <path id="减去_125" data-name="减去 125" class="cls-5" d="M3.036,20.064a5.027,5.027,0,0,1-3.131-1.1L38.678.049a5.4,5.4,0,0,0,1.2.136A5.426,5.426,0,0,0,41.283,0l1.2,4.493a5.006,5.006,0,0,1-3.536,6.124L4.329,19.893A5,5,0,0,1,3.036,20.064Z" transform="translate(557.925 459.649)"/>
    </g>
  </g>
</svg>
