<svg xmlns="http://www.w3.org/2000/svg" xmlns:xlink="http://www.w3.org/1999/xlink" width="70" height="70" viewBox="0 0 70 70">
  <defs>
    <style>
      .cls-1 {
        fill: none;
      }

      .cls-2 {
        fill: url(#linear-gradient);
      }

      .cls-3 {
        fill: #ffc5bd;
      }

      .cls-4 {
        fill: url(#linear-gradient-2);
      }

      .cls-5 {
        fill: #ffefec;
      }
    </style>
    <linearGradient id="linear-gradient" x1="1" y1="0.197" x2="0.135" y2="0.584" gradientUnits="objectBoundingBox">
      <stop offset="0" stop-color="#ffada3"/>
      <stop offset="1" stop-color="#ff7772"/>
    </linearGradient>
    <linearGradient id="linear-gradient-2" x1="0.353" y1="0.623" x2="0.658" y2="0.901" gradientUnits="objectBoundingBox">
      <stop offset="0" stop-color="#ff998e"/>
      <stop offset="1" stop-color="#ff7772"/>
    </linearGradient>
  </defs>
  <g id="组_4907" data-name="组 4907" transform="translate(-100 -304)">
    <rect id="矩形_2404" data-name="矩形 2404" class="cls-1" width="70" height="70" transform="translate(100 304)"/>
    <g id="组_4895" data-name="组 4895" transform="translate(-266.31 -113.64)">
      <rect id="矩形_2519" data-name="矩形 2519" class="cls-2" width="62" height="47" rx="5" transform="translate(368.31 435.64)"/>
      <path id="减去_117" data-name="减去 117" class="cls-3" d="M33.67,8.323H0L26.01.371a5,5,0,0,1,6.243,3.32l1.416,4.631Z" transform="translate(389.918 426.148)"/>
      <path id="减去_119" data-name="减去 119" class="cls-4" d="M4.949,13.741v0h0L0,13.741l17.994-12.6A5.015,5.015,0,0,1,22.415.486a4.953,4.953,0,0,1,2.541,1.885l2.777,3.966Z" transform="translate(386.079 420.731)"/>
      <rect id="矩形_2525" data-name="矩形 2525" class="cls-3" width="25" height="13" rx="2" transform="translate(410.31 452.64)"/>
      <circle id="椭圆_536" data-name="椭圆 536" class="cls-5" cx="3" cy="3" r="3" transform="translate(413.31 456.64)"/>
    </g>
  </g>
</svg>
