<svg xmlns="http://www.w3.org/2000/svg" xmlns:xlink="http://www.w3.org/1999/xlink" width="70" height="70" viewBox="0 0 70 70">
  <defs>
    <style>
      .cls-1 {
        fill: none;
      }

      .cls-2 {
        fill: url(#linear-gradient);
      }

      .cls-3 {
        fill: #ffadd0;
      }

      .cls-4 {
        fill: url(#linear-gradient-2);
      }

      .cls-5 {
        fill: url(#linear-gradient-3);
      }

      .cls-6 {
        fill: #f9cbde;
      }
    </style>
    <linearGradient id="linear-gradient" x1="0.5" x2="0.5" y2="1" gradientUnits="objectBoundingBox">
      <stop offset="0" stop-color="#eb63a6"/>
      <stop offset="1" stop-color="#fa91c2"/>
    </linearGradient>
    <linearGradient id="linear-gradient-2" x1="0.616" y1="1" x2="0.125" y2="0.265" gradientUnits="objectBoundingBox">
      <stop offset="0" stop-color="#ffa9cf"/>
      <stop offset="1" stop-color="#f96caf"/>
    </linearGradient>
    <linearGradient id="linear-gradient-3" x1="0.5" x2="0.5" y2="1" gradientUnits="objectBoundingBox">
      <stop offset="0" stop-color="#ffa9d1"/>
      <stop offset="1" stop-color="#ff61aa"/>
    </linearGradient>
  </defs>
  <g id="组_4910" data-name="组 4910" transform="translate(-100 -464)">
    <rect id="矩形_2428" data-name="矩形 2428" class="cls-1" width="70" height="70" transform="translate(100 464)"/>
    <g id="组_4899" data-name="组 4899" transform="translate(-353.037 -1125.064)">
      <path id="减去_13" data-name="减去 13" class="cls-2" d="M51,33.441H5a5.006,5.006,0,0,1-5-5V-1H56V28.441A5.006,5.006,0,0,1,51,33.441Z" transform="translate(460.037 1618.689)"/>
      <rect id="矩形_2535" data-name="矩形 2535" class="cls-3" width="10" height="34" transform="translate(483.037 1618.064)"/>
      <rect id="矩形_152" data-name="矩形 152" class="cls-4" width="62" height="13" rx="2" transform="translate(457.037 1605.065)"/>
      <path id="路径_20501" data-name="路径 20501" class="cls-5" d="M32.1,5.8c-1.582-.958-6.739-3.652-9.811-5.364-2.682-1.493-3.493,1.708-3.749,3.9S18.286,9.383,21.1,9.383H31.416c2.812,0,2.812-2.276.682-3.583Z" transform="translate(454.012 1595.921)"/>
      <path id="路径_20502" data-name="路径 20502" class="cls-5" d="M19.954,5.8c1.582-.958,6.739-3.652,9.811-5.364,2.682-1.493,3.493,1.708,3.749,3.9s.256,5.043-2.556,5.043H20.64c-2.812,0-2.812-2.276-.682-3.583Z" transform="translate(469.238 1595.921)"/>
      <rect id="矩形_2552" data-name="矩形 2552" class="cls-6" width="10" height="13" transform="translate(483.037 1605.064)"/>
    </g>
  </g>
</svg>
