<svg xmlns="http://www.w3.org/2000/svg" width="70" height="70" viewBox="0 0 70 70">
  <defs>
    <style>
      .cls-1 {
        fill: none;
      }

      .cls-2 {
        fill: #febe3a;
      }
    </style>
  </defs>
  <g id="组_4834" data-name="组 4834" transform="translate(-100 -304)">
    <rect id="矩形_2404" data-name="矩形 2404" class="cls-1" width="70" height="70" transform="translate(100 304)"/>
    <path id="减去_92" data-name="减去 92" class="cls-2" d="M-12995.251,11851.815c-.365,0-.738,0-1.1-.008l-.193,0-.188,0c-.357,0-.728-.008-1.085-.008h-28.6l-1,0h-.486c-.419,0-.825,0-1.219,0-3.974,0-6.785-.153-9.562-2.192-2.095-1.54-3.731-4.335-4.607-7.868a26.468,26.468,0,0,1-.174-11.334c1.652-8.261,5.291-15.007,10.244-18.993l.173-.14.023-.019a41.7,41.7,0,0,1,4.688-3.431l3.118-1.612-1.61-1.721a15.918,15.918,0,0,1-3.014-6.141c-1.139-4.638,1.457-7.207,4.266-8.064a7.681,7.681,0,0,1,2.178-.405,3.913,3.913,0,0,1,.574.042,9.26,9.26,0,0,1,1.441.375l.009,0,.012,0a7.118,7.118,0,0,0,1.4.348,8.99,8.99,0,0,1,3.846-2.286l1.824-.365c.119,0,.236,0,.352,0a10.531,10.531,0,0,1,5.881,1.405l1.669,1.3c.405-.089.8-.215,1.178-.337l.01,0a11.834,11.834,0,0,1,1.675-.441,6.212,6.212,0,0,1,1.017-.086,6.25,6.25,0,0,1,4.829,2.366,6.668,6.668,0,0,1,1.381,5.573,13.448,13.448,0,0,1-4.991,8.329l.048.106a18.65,18.65,0,0,1,5.37,3.148l.66.492a29.467,29.467,0,0,1,7.628,8.234,36.721,36.721,0,0,1,4.491,11.38,29.691,29.691,0,0,1,.52,6.506,21.891,21.891,0,0,1-1.954,9.975,10.591,10.591,0,0,1-6.471,5.423A14.735,14.735,0,0,1-12995.251,11851.815Zm-25.867-17.657a1.634,1.634,0,0,0-1.632,1.633,1.636,1.636,0,0,0,1.632,1.635h6.329v4.107a1.636,1.636,0,0,0,1.635,1.632,1.634,1.634,0,0,0,1.633-1.632v-4.107h5.813a1.635,1.635,0,0,0,1.631-1.635,1.634,1.634,0,0,0-1.631-1.633h-5.813v-2.247h5.813a1.635,1.635,0,0,0,1.631-1.636,1.633,1.633,0,0,0-1.631-1.631h-3.674l5.213-8.484a1.622,1.622,0,0,0,.2-1.235,1.621,1.621,0,0,0-.734-1.012,1.614,1.614,0,0,0-.853-.242,1.625,1.625,0,0,0-1.394.776l-6.134,9.982-6.134-9.982a1.631,1.631,0,0,0-1.4-.776,1.62,1.62,0,0,0-.854.242,1.637,1.637,0,0,0-.534,2.247l5.212,8.484h-4.325a1.633,1.633,0,0,0-1.632,1.631,1.636,1.636,0,0,0,1.632,1.636h6.329v2.247Z" transform="translate(13148 -11481.191)"/>
  </g>
</svg>
