<svg xmlns="http://www.w3.org/2000/svg" xmlns:xlink="http://www.w3.org/1999/xlink" width="70" height="70" viewBox="0 0 70 70">
  <defs>
    <style>
      .cls-1 {
        fill: none;
      }

      .cls-2 {
        fill: #ffe5d8;
      }

      .cls-3 {
        fill: url(#linear-gradient);
      }

      .cls-4 {
        fill: url(#linear-gradient-2);
      }

      .cls-5 {
        fill: url(#linear-gradient-3);
      }
    </style>
    <linearGradient id="linear-gradient" x1="0.5" x2="0.5" y2="1" gradientUnits="objectBoundingBox">
      <stop offset="0" stop-color="#ffdfc2"/>
      <stop offset="1" stop-color="#ffa56b"/>
    </linearGradient>
    <linearGradient id="linear-gradient-2" x1="0.5" x2="0.5" y2="1" gradientUnits="objectBoundingBox">
      <stop offset="0" stop-color="#ffe3cd"/>
      <stop offset="1" stop-color="#ffeae0"/>
    </linearGradient>
    <linearGradient id="linear-gradient-3" x1="0.5" x2="0.5" y2="1" gradientUnits="objectBoundingBox">
      <stop offset="0" stop-color="#e68f62"/>
      <stop offset="1" stop-color="#f2bd85"/>
    </linearGradient>
  </defs>
  <g id="组_4913" data-name="组 4913" transform="translate(-340 -464)">
    <rect id="矩形_2429" data-name="矩形 2429" class="cls-1" width="70" height="70" transform="translate(340 464)"/>
    <g id="组_4916" data-name="组 4916" transform="translate(-179.681 -32.071)">
      <path id="减去_147" data-name="减去 147" class="cls-2" d="M4.274,41.665a4.914,4.914,0,0,1-2.3-.964A5.009,5.009,0,0,1,.713,39.29a5.087,5.087,0,0,0,3.561,2.373Zm22.4-24.979A54.507,54.507,0,0,1,9.832,14.223C5.117,12.663,1.625,10.453,0,8V5A5.006,5.006,0,0,1,5,0H48.36a5.006,5.006,0,0,1,5,5V8c-1.628,2.455-5.12,4.665-9.833,6.224A54.546,54.546,0,0,1,26.679,16.686Z" transform="translate(528.001 517.426)"/>
      <g id="组_4914" data-name="组 4914" transform="translate(534.67 502.001)">
        <path id="减去_144" data-name="减去 144" class="cls-3" d="M38.021,45.579H2a2,2,0,0,1-2-2V2A2,2,0,0,1,2,0H13.341A6.391,6.391,0,0,0,15.3,4.6,6.707,6.707,0,0,0,20.011,6.51,6.6,6.6,0,0,0,26.681,0H38.021a2,2,0,0,1,2,2v41.58A2,2,0,0,1,38.021,45.579Z"/>
        <path id="路径_20569" data-name="路径 20569" class="cls-4" d="M3.421,6.4a1.285,1.285,0,0,0,0,1.69,1.127,1.127,0,0,0,1.62,0L8.985,4.077V19.009a1.2,1.2,0,0,0,2.395,0V1.33a.423.423,0,0,0-.07-.282,1.251,1.251,0,0,0-.282-.7,1.127,1.127,0,0,0-1.62,0ZM14.9,1.26v17.82a.423.423,0,0,0,.07.282.893.893,0,0,0,.282.634,1.15,1.15,0,0,0,1.69,0l5.987-6.057a1.2,1.2,0,0,0-1.69-1.69l-4.015,4.015v-15a1.187,1.187,0,0,0-1.2-1.2A1.131,1.131,0,0,0,14.9,1.26" transform="translate(6.565 9.826)"/>
      </g>
      <path id="减去_143" data-name="减去 143" class="cls-5" d="M48.363,33.721H5a5.006,5.006,0,0,1-5-5V0C1.626,2.456,5.117,4.667,9.835,6.227A54.53,54.53,0,0,0,26.682,8.69,54.536,54.536,0,0,0,43.53,6.228C48.246,4.668,51.738,2.457,53.363,0V28.721A5.006,5.006,0,0,1,48.363,33.721Z" transform="translate(527.998 525.422)"/>
    </g>
  </g>
</svg>
