<svg xmlns="http://www.w3.org/2000/svg" width="70" height="70" viewBox="0 0 70 70">
  <defs>
    <style>
      .cls-1 {
        fill: none;
      }

      .cls-2 {
        fill: #febe3a;
      }
    </style>
  </defs>
  <g id="组_4838" data-name="组 4838" transform="translate(-340 -464)">
    <rect id="矩形_2429" data-name="矩形 2429" class="cls-1" width="70" height="70" transform="translate(340 464)"/>
    <g id="组_4833" data-name="组 4833" transform="translate(-45.11 -238.922)">
      <path id="减去_96" data-name="减去 96" class="cls-2" d="M56.619,42.683H3.863a3.846,3.846,0,0,1-2.746-1.144A3.812,3.812,0,0,1,0,38.879V28.654A7.38,7.38,0,0,0,7.484,21.4,7.437,7.437,0,0,0,0,14.03V3.8A3.793,3.793,0,0,1,3.863,0H56.5a3.793,3.793,0,0,1,3.863,3.8V13.91a7.374,7.374,0,1,0,.122,14.744V38.879a3.731,3.731,0,0,1-1.162,2.7A3.933,3.933,0,0,1,56.619,42.683ZM19.543,24.611a2.2,2.2,0,1,0,0,4.391H41.9a2.2,2.2,0,1,0,0-4.391Zm0-9.879a2.2,2.2,0,1,0,0,4.39H41.9a2.2,2.2,0,1,0,0-4.39Z" transform="translate(389.938 724.123)"/>
      <path id="减去_97" data-name="减去 97" class="cls-2" d="M36.922,12.046H0L4.071,2.459A3.979,3.979,0,0,1,7.722,0,4.1,4.1,0,0,1,9.329.334L36.922,12.044Z" transform="translate(393.273 709.09)"/>
    </g>
  </g>
</svg>
