<svg xmlns="http://www.w3.org/2000/svg" width="48" height="78" viewBox="0 0 48 78">
  <g id="组_3638" data-name="组 3638" transform="translate(-135 -1829)">
    <g id="组_3609" data-name="组 3609" transform="translate(107 -86)">
      <text id="客服" transform="translate(28 1985)" font-size="24" font-family="PingFang SC Regular, PingFang SC"><tspan x="0" y="0">客服</tspan></text>
    </g>
    <g id="组_3637" data-name="组 3637" transform="translate(-12276 -2002)">
      <rect id="矩形_1723" data-name="矩形 1723" width="45" height="45" transform="translate(12413 3831)" fill="none"/>
      <g id="组_3636" data-name="组 3636" transform="translate(12416 3836)">
        <path id="路径_821" data-name="路径 821" d="M81.03,360.131a4.875,4.875,0,0,0,4.87-4.87V351.57a4.868,4.868,0,1,0-9.735,0v3.691A4.874,4.874,0,0,0,81.03,360.131Zm0-11.3a2.751,2.751,0,0,1,2.748,2.748v3.691a2.748,2.748,0,1,1-5.5,0v-3.691A2.753,2.753,0,0,1,81.03,348.826Zm-30.26,11.3a4.875,4.875,0,0,0,4.87-4.87V351.57a4.87,4.87,0,1,0-9.74,0v3.691A4.88,4.88,0,0,0,50.77,360.131Zm0-11.3a2.751,2.751,0,0,1,2.748,2.748v3.691a2.748,2.748,0,1,1-5.5,0v-3.691A2.753,2.753,0,0,1,50.77,348.826Z" transform="translate(-45.9 -336.275)"/>
        <path id="路径_822" data-name="路径 822" d="M235.885,136.915a12.4,12.4,0,0,0,12.385-12.385v-8.646a12.385,12.385,0,0,0-24.769,0v3.974a1.063,1.063,0,0,0,2.126,0v-3.974a10.26,10.26,0,1,1,20.521,0v8.646a10.274,10.274,0,0,1-10.263,10.263,1.061,1.061,0,1,0,0,2.122Z" transform="translate(-215.882 -103.5)"/>
        <path id="路径_823" data-name="路径 823" d="M432.948,830.964h6.713a.05.05,0,0,0,.051-.051v-2.461a.05.05,0,0,0-.051-.051h-6.709a.05.05,0,0,0-.051.051v2.461A.046.046,0,0,0,432.948,830.964Z" transform="translate(-416.302 -797.325)"/>
        <path id="路径_824" data-name="路径 824" d="M410.545,808.19h4.248a2.345,2.345,0,1,0,0-4.69h-4.248a2.345,2.345,0,1,0,0,4.69Zm4.248-2.564a.223.223,0,1,1,0,.446h-4.248a.227.227,0,0,1-.223-.223.23.23,0,0,1,.223-.223Z" transform="translate(-392.669 -773.492)"/>
      </g>
    </g>
  </g>
</svg>
