<svg xmlns="http://www.w3.org/2000/svg" width="48" height="78" viewBox="0 0 48 78">
  <g id="组_3610" data-name="组 3610" transform="translate(-44 -1899)">
    <text id="首页" transform="translate(44 1969)" font-size="24" font-family="PingFang SC Regular, PingFang SC"><tspan x="0" y="0">首页</tspan></text>
    <g id="组_3608" data-name="组 3608" transform="translate(14 -23)">
      <rect id="矩形_1719" data-name="矩形 1719" width="45" height="45" transform="translate(32 1922)" fill="none"/>
      <g id="组_3612" data-name="组 3612" transform="translate(36.5 1927.625)">
        <path id="路径_818" data-name="路径 818" d="M202.642,574.65a.954.954,0,1,0-1.9,0v10.635a.416.416,0,0,0,.033.2,1.6,1.6,0,0,1-.131.788,1.094,1.094,0,0,1-.788.263h-7.09l-.033-7.779a3.654,3.654,0,0,0-.591-2.462,2.218,2.218,0,0,0-1.772-.821h-2.593a2.126,2.126,0,0,0-1.772.821,3.591,3.591,0,0,0-.591,2.462l-.1,7.746h-7.09a.969.969,0,0,1-.788-.263,1.211,1.211,0,0,1-.131-.788c0-.066.033-.131.033-.2V574.618a.954.954,0,1,0-1.9,0v10.536a3.348,3.348,0,0,0,.558,2.363,2.764,2.764,0,0,0,2.3,1.017h8.042a.989.989,0,0,0,.952-1.017l.033-8.862v-.164a1.541,1.541,0,0,1,.131-.886q.049-.1.3-.1h2.626q.246,0,.3.1a1.541,1.541,0,0,1,.131.886v.164l.033,8.862a.989.989,0,0,0,.952,1.017h8.042a2.764,2.764,0,0,0,2.3-1.017,3.348,3.348,0,0,0,.558-2.363Z" transform="translate(-170.997 -554.493)"/>
        <path id="路径_819" data-name="路径 819" d="M103.645,125.793,89.827,109.873a5.31,5.31,0,0,0-3.643-1.969,5.186,5.186,0,0,0-4.169,2.166c-3.479,3.939-13.753,15.624-13.851,15.722a1.061,1.061,0,0,0,.033,1.444.914.914,0,0,0,1.346-.033c.1-.131,10.372-11.783,13.851-15.722a3.641,3.641,0,0,1,2.691-1.51,3.332,3.332,0,0,1,2.265,1.247.032.032,0,0,0,.033.033L102.234,127.2a.917.917,0,0,0,1.346.066A1.106,1.106,0,0,0,103.645,125.793Z" transform="translate(-67.897 -107.9)"/>
      </g>
    </g>
  </g>
</svg>
