<svg xmlns="http://www.w3.org/2000/svg" width="48" height="78" viewBox="0 0 48 78">
  <g id="组_3660" data-name="组 3660" transform="translate(-216 -2286)">
    <g id="组_3658" data-name="组 3658" transform="translate(188 371)">
      <text id="电话" transform="translate(28 1985)" font-size="24" font-family="PingFang SC Regular, PingFang SC"><tspan x="0" y="0">电话</tspan></text>
    </g>
    <g id="组_3659" data-name="组 3659" transform="translate(0 -1)">
      <rect id="矩形_1726" data-name="矩形 1726" width="45" height="45" transform="translate(217 2287)" fill="none"/>
      <g id="组_3657" data-name="组 3657" transform="translate(203.124 2293.994)">
        <path id="路径_834" data-name="路径 834" d="M44.815,20.385c-.983-.643-2.86-1.678-4.394-1.386a2.348,2.348,0,0,0-1.29.691l-.838.883a7.147,7.147,0,0,1-4.9-2.8,7.21,7.21,0,0,1-2.045-5.248l1.007-.707c1.278-.894,1.39-2.8.311-5.352-.871-2.061-3.2-5.8-5.843-5.3a2.449,2.449,0,0,0-.727.26l-1.75.977a4.761,4.761,0,0,0-2.472,4.079c-.08,5,2.3,10.7,6.538,15.592s9.514,8.092,14.474,8.743A4.9,4.9,0,0,0,44.4,30.77a4.761,4.761,0,0,0,2.9-1.8l1.2-1.6c.427-.563.975-1.786-.175-3.639a12.206,12.206,0,0,0-3.511-3.347Zm2.4,6.043-1.2,1.6a3.151,3.151,0,0,1-1.921,1.2,3.107,3.107,0,0,1-1,.028c-4.577-.6-9.486-3.595-13.467-8.2s-6.215-9.925-6.151-14.542A3.163,3.163,0,0,1,25.113,3.8l1.746-.959a.873.873,0,0,1,.259-.092c1.226-.235,3.091,2.061,4.057,4.354.711,1.678.8,3.015.248,3.411L29.905,11.6l-.04.08c-.555,2.132.324,4.873,2.3,7.157s4.573,3.547,6.762,3.319h.1l1.281-1.37a.75.75,0,0,1,.4-.215c1.469-.275,4.964,2,6.238,4.029.336.544.655,1.3.26,1.821l.007.009ZM48.809,5.6A14.542,14.542,0,0,0,39.1.017a.759.759,0,0,0-.251,0,.8.8,0,0,0,.052,1.6,13.024,13.024,0,0,1,11.263,14.57.8.8,0,0,0,.7.9.758.758,0,0,0,.251,0,.8.8,0,0,0,.647-.691,14.542,14.542,0,0,0-2.94-10.782L48.809,5.6Z" transform="translate(0 0)" stroke="#000" stroke-width="0.3"/>
        <path id="路径_835" data-name="路径 835" d="M511.888,157.652a.888.888,0,0,0-.252,0,.8.8,0,0,0,.048,1.6,8.171,8.171,0,0,1,7.065,9.154.8.8,0,0,0,.7.878.757.757,0,0,0,.251,0,.8.8,0,0,0,.647-.687,9.781,9.781,0,0,0-8.459-10.943Zm-.8,6.39a3.319,3.319,0,0,1,2.864,3.707.8.8,0,0,0,.695.9.757.757,0,0,0,.252,0,.8.8,0,0,0,.647-.687,4.92,4.92,0,0,0-4.286-5.492.763.763,0,0,0-.251,0,.8.8,0,1,0,.048,1.6Z" transform="translate(-473.407 -152.811)"/>
      </g>
    </g>
  </g>
</svg>
