<svg xmlns="http://www.w3.org/2000/svg" xmlns:xlink="http://www.w3.org/1999/xlink" width="750" height="100" viewBox="0 0 750 100" preserveAspectRatio="none meet">
  <defs>
    <style>
      .cls-1 {
        fill: url(#linear-gradient);
      }

      .cls-2 {
        fill: #fff;
      }

      .cls-3 {
        fill: none;
        stroke: #fff;
        stroke-linecap: round;
      }
    </style>
    <linearGradient id="linear-gradient" x1="1.071" y1="0.5" x2="0" y2="0.5" gradientUnits="objectBoundingBox">
      <stop offset="0" stop-color="#fe0000"/>
      <stop offset="1" stop-color="#ff2f6d"/>
    </linearGradient>
  </defs>
  <g id="组_4372" data-name="组 4372" transform="translate(0 -874)">
    <rect id="矩形_597" data-name="矩形 597" class="cls-1" width="750" height="100" transform="translate(0 874)"/>
    <path id="路径_6724" data-name="路径 6724" class="cls-2" d="M-20.745-26.375h7.25q4.125,5,12.125,8.25l-2.5,5.875a8.394,8.394,0,0,1-2-.875v1.875h-8V-9.5H-6V-4H-13.87v1.875h11.5v5.75H-31.62v-5.75h11.375V-4H-28.12V-9.5h7.875v-1.75H-28V-13.5a20.564,20.564,0,0,1-2.375,1.25L-32.745-18A33.234,33.234,0,0,0-20.745-26.375ZM-17.12-21a35.59,35.59,0,0,1-4.125,3.75H-13q-1.125-1-2.75-2.5Q-16.745-20.625-17.12-21ZM3.995-26.5h26.25V-14h-8.5l.25,1.375H31.62v6H23.37q1,3.375,2.375,3.5Q26.495-3,27.87-6.25l4.875,4.375q-2.5,5.625-6.75,5.75Q19.37,3,16.745-6.625H10.12v3.25q.75-.125,2.375-.375,2.5-.375,3.5-.625V1.5a96.833,96.833,0,0,1-13,2l-1-6q2.25-.125,2-1.875Zm20.5,5.875H10.12v1.25H24.495ZM15.62-14H9.995v1.375h5.75A7.024,7.024,0,0,1,15.62-14ZM-16.62,8.375l6.25.25q.25,0-.375,2.5H-1.62q-.5,9-3.25,14.75L-8.12,24q1.875,6.5,6.75,9L-5,38.875a22.907,22.907,0,0,1-6.375-8,21.529,21.529,0,0,1-6.875,8.25l-1.875-2h-4.75v1.5H-30v-9.5q-.875,1.125-.875,1l-1.625-7.25A21.643,21.643,0,0,0-28.37,15H-31.5V9.25H-18.87V15H-22a30.451,30.451,0,0,1-1.625,4.625H-21.5A21.941,21.941,0,0,0-16.62,8.375Zm3.875,9.125a11.119,11.119,0,0,1-.625,1.125H-8.5A8.864,8.864,0,0,1-8.12,17.5ZM-19.37,22v9.375Q-15.245,28-14.87,21a23.62,23.62,0,0,1-2.375,3.125Zm-5.5,3.875v5.5H-24v-5.5ZM7.745,8l6.25,1.5a29.9,29.9,0,0,1-3.25,7.125,25.3,25.3,0,0,0,7.75-7.5H24.37a23.557,23.557,0,0,0,8.75,7l-3,5.625-1.5-1.25V38.375H22.745v-18.5H27.87A38.828,38.828,0,0,1,21.745,14a44.216,44.216,0,0,1-6.5,6.25h5v5.625q0,9-4.875,13a26.617,26.617,0,0,0-4.625-2.75v2.75H4.87V26l-1.125.875L1.62,20A35.342,35.342,0,0,0,7.745,8Zm6.5,13.375-1,.75-2.5-4v16.5Q15.495,31,14.245,21.375Z" transform="translate(59 919)"/>
    <line id="直线_226" data-name="直线 226" class="cls-3" y2="59" transform="translate(115.5 894.5)"/>
  </g>
</svg>
