<svg height="200" viewBox="0 0 750 200" width="750" xmlns="http://www.w3.org/2000/svg"><path d="m0 0h750v200h-750z" fill="#fff" preserveAspectRatio="none meet"/><path d="m30 63h690" fill="none" stroke="#333" stroke-width=".5"/><text font-family="PingFang SC Regular, PingFang SC" font-size="24" transform="translate(30 45)"><tspan x="0" y="0">砍价流程</tspan></text><path d="m60 83h60v60h-60z" fill="none"/><path d="m26.6 52.19a25.6 25.6 0 0 1 -9.968-49.179 25.6 25.6 0 0 1 19.926 47.168 25.436 25.436 0 0 1 -9.958 2.011zm-7.522-31.673.013.007a34.749 34.749 0 0 1 2.974 2.176l-10.746 15.351a2.158 2.158 0 0 0 3.536 2.476l10.455-14.927a35.175 35.175 0 0 1 7.61 10.637 31.352 31.352 0 0 0 7.654-7.2l.075-.108.038-.054.038-.054.076-.108a31.469 31.469 0 0 0 4.148-9.654 35.207 35.207 0 0 1 -12.6-3.514l1.256-1.794a2.158 2.158 0 1 0 -3.536-2.476l-1.549 2.211a33.45 33.45 0 0 1 -3.076-2.061l-1.414 2.019-3.538 5.056-1.415 2.021z" fill="#333" transform="translate(63.405 86.405)"/><text fill="#333" font-family="PingFang SC Regular, PingFang SC" font-size="20" transform="translate(50 172)"><tspan x="0" y="0">发起砍价</tspan></text><text fill="#333" font-family="PingFang SC Regular, PingFang SC" font-size="20" transform="translate(223 172)"><tspan x="0" y="0">邀请好友帮砍</tspan></text><text fill="#333" font-family="PingFang SC Regular, PingFang SC" font-size="20" transform="translate(430 172)"><tspan x="0" y="0">砍到底价</tspan></text><text fill="#333" font-family="PingFang SC Regular, PingFang SC" font-size="20" transform="translate(620 172)"><tspan x="0" y="0">付款购买</tspan></text><path d="m250 83h60v60h-60z" fill="none"/><path d="m10.555 0a10.555 10.555 0 1 0 2.975 20.685 11.182 11.182 0 0 1 1.497-19.693 10.462 10.462 0 0 0 -4.472-.992z" fill="#333" transform="matrix(-1 0 0 -1 296.52 111.507)"/><path d="m13.325 0c-7.725.587-13.325 3.432-13.325 6.765a2.918 2.918 0 0 0 .022.36l-.006.025a.445.445 0 0 0 -.016.107 15.371 15.371 0 0 0 4.745 11.108 16.353 16.353 0 0 0 11.456 4.6 16.831 16.831 0 0 0 3.054-.279 17.654 17.654 0 0 1 -11.275-16.546.519.519 0 0 1 .02-.113v-.034a3.627 3.627 0 0 1 -.023-.4 4.427 4.427 0 0 1 1.443-3.093 12.022 12.022 0 0 1 3.906-2.5z" fill="#333" transform="matrix(-1 0 0 -1 302.412 135.59)"/><ellipse cx="274.779" cy="100.27" fill="#333" rx="11.178" ry="11.178"/><path d="m500 242.637a17.165 17.165 0 0 1 34.315 0 .639.639 0 0 1 -.023.138 3.2 3.2 0 0 1 .023.382c0 4.02-7.682 7.279-17.157 7.279s-17.158-3.259-17.158-7.279a3.091 3.091 0 0 1 .019-.312 1.238 1.238 0 0 1 -.019-.208z" fill="#333" transform="translate(-242.118 -113.434)"/><path d="m440 83h60v60h-60z" fill="none"/><path d="m-8707.806-2125.815a19.273 19.273 0 0 1 -3.107-5.544 19.16 19.16 0 0 1 -1.125-6.487 19.15 19.15 0 0 1 5.646-13.63 19.15 19.15 0 0 1 13.63-5.646 19.237 19.237 0 0 1 14.676 6.8l-11.092 9.429h-.884l3.358-5.816a1.53 1.53 0 0 0 -.56-2.086 1.515 1.515 0 0 0 -.759-.2 1.535 1.535 0 0 0 -1.327.761l-3.767 6.527-3.768-6.527a1.534 1.534 0 0 0 -1.326-.761 1.524 1.524 0 0 0 -.76.2 1.53 1.53 0 0 0 -.56 2.086l3.358 5.816h-2.545a1.528 1.528 0 0 0 -1.526 1.526 1.529 1.529 0 0 0 1.526 1.528h4.073v1.5l-1.946 1.557h-2.127a1.528 1.528 0 0 0 -1.526 1.526 1.506 1.506 0 0 0 .429 1.052l2.181-1.743-10.171 8.135z" fill="#333" transform="translate(9158.076 2248.242)"/><path d="m-8696.883-2125.275a19.164 19.164 0 0 1 -15.156-7.392l7.905-6.5a1.528 1.528 0 0 0 1.3.733h4.071v3.564a1.528 1.528 0 0 0 1.526 1.526 1.528 1.528 0 0 0 1.525-1.526v-3.564h4.073a1.528 1.528 0 0 0 1.526-1.526 1.528 1.528 0 0 0 -1.526-1.526h-4.073v-3.054h4.073a1.528 1.528 0 0 0 1.526-1.526 1.529 1.529 0 0 0 -1.526-1.528h-2.241l11.584-9.526a19.275 19.275 0 0 1 3.436 5.749 19.128 19.128 0 0 1 1.25 6.825 19.147 19.147 0 0 1 -5.646 13.628 19.146 19.146 0 0 1 -13.627 5.643zm-5.751-15.124 3.871-3.183v2.1h-2.545z" fill="#333" transform="translate(9171.571 2260.153)"/><path d="m9450.126 2068.972-45.692 38.16" fill="none" stroke="#333" stroke-linecap="round" stroke-width="2" transform="translate(-8957.944 -1974.754)"/><path d="m630 83h60v60h-60z" fill="none"/><g fill="#333"><path d="m42.819 34.427h-40.819a2 2 0 0 1 -2-2v-30.427a2 2 0 0 1 2-2h40.819a2 2 0 0 1 2 2v10.991h-7.794a4.547 4.547 0 1 0 0 9.094h7.794v10.341a2 2 0 0 1 -2 2.001z" transform="translate(638.09 101.552)"/><path d="m589.936 242.884-.649-7.321a3.258 3.258 0 0 0 -4.148-1.975l-26.195 9.3z" transform="translate(82.881 -143.38)"/><path d="m10.783 6.54h-7.513a3.27 3.27 0 0 1 0-6.54h7.513v6.539zm-7.93-4.14a1.02 1.02 0 1 0 1.02 1.021 1.022 1.022 0 0 0 -1.02-1.021z" transform="translate(672.118 115.819)"/><circle cx="163" cy="113" r="3"/><circle cx="172" cy="113" r="3"/><circle cx="181" cy="113" r="3"/><circle cx="190" cy="113" r="3"/><circle cx="199" cy="113" r="3"/><circle cx="208" cy="113" r="3"/><circle cx="353" cy="115" r="3"/><circle cx="362" cy="115" r="3"/><circle cx="371" cy="115" r="3"/><circle cx="380" cy="115" r="3"/><circle cx="389" cy="115" r="3"/><circle cx="398" cy="115" r="3"/><circle cx="543" cy="115" r="3"/><circle cx="552" cy="115" r="3"/><circle cx="561" cy="115" r="3"/><circle cx="570" cy="115" r="3"/><circle cx="579" cy="115" r="3"/><circle cx="588" cy="115" r="3"/></g></svg>