<svg xmlns="http://www.w3.org/2000/svg" width="30" height="30" viewBox="0 0 30 30">
  <defs>
    <style>
      .cls-1, .cls-2 {
        fill: none;
      }

      .cls-2 {
        stroke: #707070;
        stroke-width: 2px;
      }

      .cls-3 {
        fill: #707070;
      }
    </style>
  </defs>
  <g id="组_4723" data-name="组 4723" transform="translate(-2786 -1968)">
    <rect id="矩形_1953" data-name="矩形 1953" class="cls-1" width="30" height="30" transform="translate(2786 1968)"/>
    <g id="组_4479" data-name="组 4479" transform="translate(2745.757 1861.782)">
      <path id="路径_6707" data-name="路径 6707" class="cls-2" d="M55.242,132.317a1.7,1.7,0,0,1-1.074-.375L50.577,129.1c-5.046-4.023-7.126-6.512-7.677-9.205a7.751,7.751,0,0,1,1.386-6.194,7.444,7.444,0,0,1,10.955-1.057,7.415,7.415,0,0,1,5.012-1.926,7.5,7.5,0,0,1,7.489,7.489c0,3.495-1.9,6.131-7.83,10.865l-3.58,2.841A1.7,1.7,0,0,1,55.242,132.317Z"/>
      <path id="路径_6708" data-name="路径 6708" class="cls-3" d="M171.8,245.689a1.136,1.136,0,0,1-1.136-1.136,5.381,5.381,0,0,1,4.1-5.239,1.138,1.138,0,0,1,.568,2.2,3.12,3.12,0,0,0-2.392,3.034,1.136,1.136,0,0,1-1.136,1.136Z" transform="translate(-124.515 -125.135)"/>
    </g>
  </g>
</svg>
