<svg xmlns="http://www.w3.org/2000/svg" xmlns:xlink="http://www.w3.org/1999/xlink" width="750" height="98" viewBox="0 0 750 98">
  <defs>
    <linearGradient id="linear-gradient" x1="0.056" y1="0.568" x2="0.961" y2="0.578" gradientUnits="objectBoundingBox">
      <stop offset="0" stop-color="#d4d4d4"/>
      <stop offset="1" stop-color="#707070"/>
    </linearGradient>
  </defs>
  <g id="组_2" data-name="组 2" transform="translate(-205 -478)">
    <path id="矩形_1961" data-name="矩形 1961" d="M0,0H750V98H0Z" transform="translate(205 478)" fill="url(#linear-gradient)"/>
    <path id="路径_20606" data-name="路径 20606" d="M18.464-2.368H29.536V2.816H2.176V-2.368H13.248v-2.24H5.12v-4.96h8.128v-2.208H5.792v-2.08Q4.768-13.312,3.68-12.8L1.12-17.632q2.3-.928,4.16-1.872a26.894,26.894,0,0,0,3.328-1.984,20.794,20.794,0,0,0,2.608-2.16,17.29,17.29,0,0,0,2.032-2.4h5.184a19.819,19.819,0,0,0,2.256,2.7,19.338,19.338,0,0,0,2.72,2.256,27.718,27.718,0,0,0,3.232,1.9,38.173,38.173,0,0,0,3.792,1.648L27.84-12.768q-.512-.224-.992-.448t-.928-.448v1.888H18.464v2.208h8.128v4.96H18.464Zm2.464-14.3a28.843,28.843,0,0,1-2.656-2.112,31.843,31.843,0,0,1-2.4-2.4,29.079,29.079,0,0,1-2.4,2.32,31.7,31.7,0,0,1-2.88,2.192ZM61.7-1.824a9.747,9.747,0,0,1-.464,1.168A10.685,10.685,0,0,1,60.608.512a11.074,11.074,0,0,1-1.1,1.52,5.355,5.355,0,0,1-1.1.96,3.812,3.812,0,0,1-1.2.512,6.046,6.046,0,0,1-1.36.144,5.79,5.79,0,0,1-1.68-.256,6.264,6.264,0,0,1-1.664-.8A7.444,7.444,0,0,1,50.96,1.2a9.635,9.635,0,0,1-1.3-2.032,14.838,14.838,0,0,1-.912-2.352A32.3,32.3,0,0,1,48-6.336H39.776V-2.88q.608-.1,1.648-.256t2.128-.352l2.08-.368q.992-.176,1.568-.3L47.52.992q-.8.128-1.792.3l-1.984.352q-.992.176-1.888.352t-1.5.3q-.512.1-1.216.288t-1.408.4q-.7.208-1.312.4t-.928.32L33.22-1.1a8.847,8.847,0,0,0,.7-.656,2.724,2.724,0,0,0,.464-.656,2.59,2.59,0,0,0,.24-.784,6.964,6.964,0,0,0,.064-1V-25.344H59.424V-13.6H52.416q.064.576.08,1.1t.08,1.04h8.608v5.12h-7.84q.16.64.336,1.184T54.048-4.1a2.354,2.354,0,0,0,.912,1.3,1.979,1.979,0,0,0,.944.368.791.791,0,0,0,.656-.3,6.524,6.524,0,0,0,.624-1.1,7.564,7.564,0,0,0,.3-.736q.108-.32.176-.576ZM39.776-20.16v2.016H54.24V-20.16Zm7.52,8.7q-.128-.992-.192-2.144H39.776v2.144Zm-20,37.848A6.131,6.131,0,0,1,26.864,29a2.541,2.541,0,0,1-1.552,1.264l4.48,1.728q-.128.864-.24,1.52t-.3,1.584a4.42,4.42,0,0,1-.576,1.456,2.845,2.845,0,0,1-1.072.96,5.684,5.684,0,0,1-1.728.544,17.632,17.632,0,0,1-2.512.208q-2.592.064-5.184,0a5.46,5.46,0,0,1-3.52-1.12q-1.216-1.056-1.216-3.68V22.52l-.592.528q-.3.272-.624.528l-1.28-4.928H9.216V22.52q1.472-.192,2.56-.384l.032,5.28-2.592.352v6.816a11.818,11.818,0,0,1-.128,1.968,2.016,2.016,0,0,1-.56,1.136A2.517,2.517,0,0,1,7.3,38.28a18.673,18.673,0,0,1-2.176.3l-1.92.192-1.312-5.12,1.344-.16a1.572,1.572,0,0,0,1.008-.384,1.846,1.846,0,0,0,.24-1.12V28.44l-3.072.48-.48-5.28,1.68-.208q.912-.112,1.872-.272V18.648H1.952V13.656H4.48V8.888l4.736.128v4.64H11.68v3.712a36.574,36.574,0,0,0,3.648-3.888A25.338,25.338,0,0,0,18.3,8.92h4.9a16.434,16.434,0,0,0,1.456,2.56,28.047,28.047,0,0,0,1.92,2.48,25.947,25.947,0,0,0,2.208,2.256,23.245,23.245,0,0,0,2.32,1.856l-1.952,5.344q-.9-.7-1.856-1.568Zm-3.232-7.9q-.928-1.12-1.76-2.272a21.254,21.254,0,0,1-1.472-2.336q-.732,1.22-1.568,2.352T17.44,18.488Zm.416,13.664a7.5,7.5,0,0,0,.176-.912q.048-.4.112-.816a4.071,4.071,0,0,1-.56.1q-.3.032-.656.064l-2.176.192-1.152-4.288,1.088-.064a1.585,1.585,0,0,0,1.152-.4,1.918,1.918,0,0,0,.256-1.136V23.1H18.272v8.48a1.881,1.881,0,0,0,.432,1.456,2.567,2.567,0,0,0,1.488.432,19.616,19.616,0,0,0,2.24,0,3.1,3.1,0,0,0,1.456-.352A1.514,1.514,0,0,0,24.48,32.152ZM61.024,11.7q-.032,3.424-.064,6.816t-.048,6.368q-.016,2.976-.048,5.328t-.064,3.7a4.234,4.234,0,0,1-1.232,3.264,5.6,5.6,0,0,1-3.28,1.152l-2.624.192L52,33.24l2.24-.192a5.582,5.582,0,0,0,.976-.128,1.514,1.514,0,0,0,.656-.32,1.47,1.47,0,0,0,.4-.624,3.9,3.9,0,0,0,.176-1.1l-1.348.6-.288-.9q-.48.064-1.2.144t-1.488.192l-1.52.224q-.752.112-1.3.176-.64.064-1.248.176t-1.216.272l-.96-3.1v.864H42.752V14.776h-5.12v14.88a10.242,10.242,0,0,0,.736-2.56,21.485,21.485,0,0,0,.224-3.328V15.7h3.1v9.568q0,1.056-.048,2a17.565,17.565,0,0,1-.176,1.776q.672.544,1.44,1.264t1.52,1.44q.752.72,1.392,1.392t1.06,1.16l-2.912,3.8q-.736-.928-1.792-2.1t-2.112-2.28a12.966,12.966,0,0,1-1.68,2.5,27.871,27.871,0,0,1-2.448,2.5l-3.712-3.4a33.292,33.292,0,0,0,3.3-2.752,10.114,10.114,0,0,0,2.016-2.72H34.272V10.1H45.888v7.264a30.865,30.865,0,0,0,2-4.032A32.065,32.065,0,0,0,49.344,8.98l4.48.736-.7,1.984ZM50.88,16.984q-.16.352-.32.688t-.32.656l3.168.928q-.224.64-.576,1.5t-.8,1.824l2.72-1.152q.352.608.816,1.584t.944,2.1l.064-8.128Zm-4.992,9.6a3.891,3.891,0,0,0,.8-.768,4.679,4.679,0,0,0,.64-1.184q.384-.928.784-2.016t.752-2.208l-2.976-1.632Zm4.32-.224q.736-.1,1.552-.192t1.456-.16q-.352-.928-.688-1.744T51.9,22.808q-.416.9-.848,1.808t-.844,1.744Z" transform="translate(230 521.048)" fill="#fff"/>
    <path id="路径_6838" data-name="路径 6838" d="M3078.89,911.869v60" transform="translate(-2760 -414.369)" fill="none" stroke="#fff" stroke-width="1"/>
  </g>
</svg>
