<svg xmlns="http://www.w3.org/2000/svg" xmlns:xlink="http://www.w3.org/1999/xlink" width="750" height="98" viewBox="0 0 750 98">
  <defs>
    <linearGradient id="linear-gradient" x1="0.056" y1="0.568" x2="0.961" y2="0.578" gradientUnits="objectBoundingBox">
      <stop offset="0" stop-color="#ffc75a"/>
      <stop offset="1" stop-color="#ff7c39"/>
    </linearGradient>
  </defs>
  <g id="组_4960" data-name="组 4960" transform="translate(0 -650)">
    <g id="组_4565" data-name="组 4565" transform="translate(0 -181)">
      <rect id="矩形_1961" data-name="矩形 1961" width="750" height="98" transform="translate(0 831)" fill="url(#linear-gradient)"/>
      <path id="路径_20610" data-name="路径 20610" d="M29.326-5.859H26.381V3.348h-4.65V-5.859H18.414A27.564,27.564,0,0,1,18-2.9a12.631,12.631,0,0,1-.728,2.387,14.361,14.361,0,0,1-1.116,2.123,26.907,26.907,0,0,1-1.581,2.2L9.982,1.426q.9-1.023,1.535-1.86A12.76,12.76,0,0,0,12.6-2.108a8.356,8.356,0,0,0,.7-1.736,15.767,15.767,0,0,0,.4-2.015h-1.86v-4.929h2.139v-4.4H12.493v-4.836h2.418q-.5-.9-1.085-1.875T12.8-23.529l4.123-1.891q.31.434.7,1.008t.791,1.178q.4.6.76,1.163t.635.961l-2.2,1.085h3.255q.806-1.426,1.535-2.852t1.225-2.511l4.588,1.8q-.434.713-.961,1.643T26.1-20.026h2.542v4.836H26.381v4.4h2.945ZM8.959-7.006V-.372A7.913,7.913,0,0,1,8.773,1.55a2.016,2.016,0,0,1-.667,1.1,3.056,3.056,0,0,1-1.333.558q-.852.17-2.155.294l-1.55.155L1.674-1.3,2.79-1.457a2.86,2.86,0,0,0,1.163-.357,1.173,1.173,0,0,0,.418-1.07V-6.324q-.93.155-1.752.263t-1.411.233l-.4-5.115q.744-.093,1.659-.217t1.907-.279v-4.34H1.705v-4.867H4.371V-25.2l4.588.124v4.433h2.232v4.867H8.959v3.72q.527-.093.992-.17t.9-.139l.031,5.053Zm12.772-3.782v-4.4h-3.1v4.4ZM59.272-24.521V3.1H32.86V-24.521ZM54.25-19.747H37.758V-8.494a36.809,36.809,0,0,0,3.565-2.217,19.056,19.056,0,0,0,2.821-2.4H38.688v-4.278h8.587v-1.8h4.588v1.8H53.63v4.278H51.863v7.13a6.284,6.284,0,0,1-.217,1.8,2.366,2.366,0,0,1-.729,1.147,3.359,3.359,0,0,1-1.364.651,14.516,14.516,0,0,1-2.123.341l-2.511.217L43.9-5.642l1.922-.186A2.047,2.047,0,0,0,47-6.2a1.676,1.676,0,0,0,.279-1.147v-3.1a17.723,17.723,0,0,1-1.5,1.829,23.3,23.3,0,0,1-1.705,1.628Q43.152-6.2,42.1-5.425T39.8-3.813L37.758-7.006v5.3H54.25ZM26.443,25.661a5.939,5.939,0,0,1-.418,2.527,2.462,2.462,0,0,1-1.5,1.224l4.34,1.674q-.124.837-.233,1.472t-.295,1.535a4.282,4.282,0,0,1-.558,1.411,2.756,2.756,0,0,1-1.038.93,5.507,5.507,0,0,1-1.674.527,17.08,17.08,0,0,1-2.434.2q-2.511.062-5.022,0a5.289,5.289,0,0,1-3.41-1.085,4.536,4.536,0,0,1-1.178-3.565V21.91l-.573.511q-.295.264-.6.511L10.6,18.159H8.928V21.91q1.426-.186,2.48-.372l.031,5.115-2.511.341v6.6A11.448,11.448,0,0,1,8.8,35.5a1.953,1.953,0,0,1-.542,1.1,2.438,2.438,0,0,1-1.194.574,18.091,18.091,0,0,1-2.108.294l-1.86.186L1.829,32.7l1.3-.155a1.522,1.522,0,0,0,.977-.372,1.788,1.788,0,0,0,.233-1.085V27.645l-2.976.465L.9,22.995l1.627-.2q.883-.108,1.814-.264V18.159H1.891V13.323H4.34V8.7l4.588.124v4.495h2.387v3.6a35.431,35.431,0,0,0,3.534-3.767,24.547,24.547,0,0,0,2.883-4.418h4.743a15.92,15.92,0,0,0,1.411,2.48,27.171,27.171,0,0,0,1.86,2.4A25.135,25.135,0,0,0,27.885,15.8a22.518,22.518,0,0,0,2.247,1.8l-1.891,5.177q-.868-.682-1.8-1.519ZM23.312,18q-.9-1.085-1.7-2.2a20.59,20.59,0,0,1-1.426-2.263q-.713,1.178-1.519,2.278T16.9,18Zm.4,13.237a7.263,7.263,0,0,0,.17-.883q.046-.387.108-.791a3.943,3.943,0,0,1-.542.093q-.295.031-.635.062l-2.108.186-1.116-4.154,1.054-.062a1.536,1.536,0,0,0,1.116-.387,1.858,1.858,0,0,0,.248-1.1V22.468H17.7v8.215a1.822,1.822,0,0,0,.418,1.41,2.487,2.487,0,0,0,1.441.419,19,19,0,0,0,2.17,0,3,3,0,0,0,1.41-.341A1.466,1.466,0,0,0,23.715,31.241Zm35.4-19.809q-.031,3.317-.062,6.6T59.008,24.2q-.016,2.883-.047,5.162t-.062,3.58a4.1,4.1,0,0,1-1.194,3.162,5.426,5.426,0,0,1-3.177,1.116l-2.542.186-1.612-5.115,2.17-.186a5.408,5.408,0,0,0,.946-.124,1.466,1.466,0,0,0,.635-.31,1.424,1.424,0,0,0,.388-.6A3.779,3.779,0,0,0,54.684,30l-1.3.589-.279-.868q-.465.062-1.163.139t-1.441.186l-1.472.217q-.729.109-1.256.17-.62.062-1.209.17t-1.178.264l-.93-3.007V28.7H41.416V14.408h-4.96V28.823a9.922,9.922,0,0,0,.713-2.48,20.814,20.814,0,0,0,.217-3.224V15.307h3.007v9.269q0,1.023-.046,1.938a17.015,17.015,0,0,1-.171,1.72q.651.527,1.4,1.225t1.472,1.4q.729.7,1.348,1.348t1.023,1.116l-2.821,3.689q-.713-.9-1.736-2.03T38.812,32.76a12.56,12.56,0,0,1-1.628,2.418A27,27,0,0,1,34.813,37.6l-3.6-3.286a32.25,32.25,0,0,0,3.193-2.666,9.8,9.8,0,0,0,1.953-2.635H33.2V9.882H44.454v7.037a29.9,29.9,0,0,0,1.938-3.906A31.064,31.064,0,0,0,47.8,8.8l4.34.713-.682,1.922ZM49.29,16.547q-.155.341-.31.667t-.31.635l3.069.9q-.217.62-.558,1.457t-.775,1.767l2.635-1.116q.341.589.79,1.535t.915,2.031l.062-7.874Zm-4.836,9.3a3.77,3.77,0,0,0,.775-.744,4.533,4.533,0,0,0,.62-1.147q.372-.9.759-1.953t.729-2.139l-2.883-1.581Zm4.185-.217q.713-.093,1.5-.186t1.41-.155q-.341-.9-.667-1.69t-.6-1.41q-.4.868-.821,1.751T48.639,25.63Z" transform="translate(25 873.42)" fill="#fff"/>
      <path id="路径_6838" data-name="路径 6838" d="M3078.891,911.869v60" transform="translate(-2965 -61.369)" fill="none" stroke="#fff" stroke-width="1"/>
    </g>
  </g>
</svg>
