<svg xmlns="http://www.w3.org/2000/svg" xmlns:xlink="http://www.w3.org/1999/xlink" width="750" height="98" viewBox="0 0 750 98">
  <defs>
    <linearGradient id="linear-gradient" x1="0.056" y1="0.568" x2="0.961" y2="0.578" gradientUnits="objectBoundingBox">
      <stop offset="0" stop-color="#d4d4d4"/>
      <stop offset="1" stop-color="#707070"/>
    </linearGradient>
  </defs>
  <g id="组_4961" data-name="组 4961" transform="translate(0 -831)">
    <rect id="矩形_1961" data-name="矩形 1961" width="750" height="98" transform="translate(0 831)" fill="url(#linear-gradient)"/>
    <path id="路径_20611" data-name="路径 20611" d="M30.272-6.048h-3.04v9.5h-4.8v-9.5H19.008a28.453,28.453,0,0,1-.432,3.056,13.039,13.039,0,0,1-.752,2.464,14.825,14.825,0,0,1-1.152,2.192A27.775,27.775,0,0,1,15.04,3.936L10.3,1.472q.928-1.056,1.584-1.92a13.171,13.171,0,0,0,1.12-1.728,8.626,8.626,0,0,0,.72-1.792,16.276,16.276,0,0,0,.416-2.08h-1.92v-5.088h2.208V-15.68H12.9v-4.992h2.5q-.512-.928-1.12-1.936t-1.056-1.68l4.256-1.952q.32.448.72,1.04t.816,1.216q.416.624.784,1.2t.656.992l-2.272,1.12h3.36q.832-1.472,1.584-2.944t1.264-2.592l4.736,1.856q-.448.736-.992,1.7t-1.184,1.984h2.624v4.992H27.232v4.544h3.04ZM9.248-7.232V-.384A8.168,8.168,0,0,1,9.056,1.6a2.081,2.081,0,0,1-.688,1.136,3.155,3.155,0,0,1-1.376.576q-.88.176-2.224.3l-1.6.16-1.44-5.12L2.88-1.5a2.953,2.953,0,0,0,1.2-.368,1.211,1.211,0,0,0,.432-1.1V-6.528q-.96.16-1.808.272t-1.456.24L.832-11.3q.768-.1,1.712-.224t1.968-.288v-4.48H1.76v-5.024H4.512v-4.7l4.736.128v4.576h2.3v5.024h-2.3v3.84q.544-.1,1.024-.176t.928-.144l.032,5.216Zm13.184-3.9V-15.68h-3.2v4.544ZM61.184-25.312V3.2H33.92V-25.312ZM56-20.384H38.976V-8.768a38,38,0,0,0,3.68-2.288,19.671,19.671,0,0,0,2.912-2.48H39.936v-4.416H48.8v-1.856h4.736v1.856H55.36v4.416H53.536v7.36a6.486,6.486,0,0,1-.224,1.856,2.443,2.443,0,0,1-.752,1.184,3.468,3.468,0,0,1-1.408.672,14.984,14.984,0,0,1-2.192.352l-2.592.224L45.312-5.824,47.3-6.016A2.113,2.113,0,0,0,48.512-6.4,1.73,1.73,0,0,0,48.8-7.584v-3.2A18.293,18.293,0,0,1,47.248-8.9a24.057,24.057,0,0,1-1.76,1.68Q44.544-6.4,43.456-5.6T41.088-3.936l-2.112-3.3V-1.76H56ZM27.3,26.392A6.131,6.131,0,0,1,26.864,29a2.541,2.541,0,0,1-1.552,1.264l4.48,1.728q-.128.864-.24,1.52t-.3,1.584a4.42,4.42,0,0,1-.576,1.456,2.845,2.845,0,0,1-1.072.96,5.684,5.684,0,0,1-1.728.544,17.632,17.632,0,0,1-2.512.208q-2.592.064-5.184,0a5.46,5.46,0,0,1-3.52-1.12q-1.216-1.056-1.216-3.68V22.52l-.592.528q-.3.272-.624.528l-1.28-4.928H9.216V22.52q1.472-.192,2.56-.384l.032,5.28-2.592.352v6.816a11.818,11.818,0,0,1-.128,1.968,2.016,2.016,0,0,1-.56,1.136A2.517,2.517,0,0,1,7.3,38.28a18.673,18.673,0,0,1-2.176.3l-1.92.192-1.312-5.12,1.344-.16a1.572,1.572,0,0,0,1.008-.384,1.846,1.846,0,0,0,.24-1.12V28.44l-3.072.48-.48-5.28,1.68-.208q.912-.112,1.872-.272V18.648H1.952V13.656H4.48V8.888l4.736.128v4.64H11.68v3.712a36.574,36.574,0,0,0,3.648-3.888A25.338,25.338,0,0,0,18.3,8.92h4.9a16.434,16.434,0,0,0,1.456,2.56,28.048,28.048,0,0,0,1.92,2.48,25.946,25.946,0,0,0,2.208,2.256,23.244,23.244,0,0,0,2.32,1.856l-1.952,5.344q-.9-.7-1.856-1.568Zm-3.232-7.9q-.928-1.12-1.76-2.272a21.254,21.254,0,0,1-1.472-2.336Q20.1,15.1,19.264,16.232T17.44,18.488Zm.416,13.664a7.5,7.5,0,0,0,.176-.912q.048-.4.112-.816a4.071,4.071,0,0,1-.56.1q-.3.032-.656.064l-2.176.192-1.152-4.288,1.088-.064a1.585,1.585,0,0,0,1.152-.4,1.918,1.918,0,0,0,.256-1.136V23.1H18.272v8.48a1.881,1.881,0,0,0,.432,1.456,2.567,2.567,0,0,0,1.488.432,19.616,19.616,0,0,0,2.24,0,3.1,3.1,0,0,0,1.456-.352A1.514,1.514,0,0,0,24.48,32.152ZM61.024,11.7q-.032,3.424-.064,6.816t-.048,6.368q-.016,2.976-.048,5.328t-.064,3.7a4.234,4.234,0,0,1-1.232,3.264,5.6,5.6,0,0,1-3.28,1.152l-2.624.192L52,33.24l2.24-.192a5.582,5.582,0,0,0,.976-.128,1.514,1.514,0,0,0,.656-.32,1.47,1.47,0,0,0,.4-.624,3.9,3.9,0,0,0,.176-1.1L55.1,31.48l-.288-.9q-.48.064-1.2.144t-1.488.192l-1.52.224q-.752.112-1.3.176-.64.064-1.248.176t-1.216.272l-.96-3.1v.864H42.752V14.776h-5.12v14.88a10.242,10.242,0,0,0,.736-2.56,21.485,21.485,0,0,0,.224-3.328V15.7h3.1v9.568q0,1.056-.048,2a17.565,17.565,0,0,1-.176,1.776q.672.544,1.44,1.264t1.52,1.44q.752.72,1.392,1.392T46.88,34.3L43.968,38.1q-.736-.928-1.792-2.1T40.064,33.72a12.966,12.966,0,0,1-1.68,2.5,27.871,27.871,0,0,1-2.448,2.5L32.224,35.32a33.291,33.291,0,0,0,3.3-2.752,10.114,10.114,0,0,0,2.016-2.72H34.272V10.1H45.888v7.264a30.865,30.865,0,0,0,2-4.032,32.066,32.066,0,0,0,1.456-4.352l4.48.736-.7,1.984ZM50.88,16.984q-.16.352-.32.688t-.32.656l3.168.928q-.224.64-.576,1.5t-.8,1.824l2.72-1.152q.352.608.816,1.584t.944,2.1l.064-8.128Zm-4.992,9.6a3.891,3.891,0,0,0,.8-.768,4.679,4.679,0,0,0,.64-1.184q.384-.928.784-2.016t.752-2.208l-2.976-1.632Zm4.32-.224q.736-.1,1.552-.192t1.456-.16q-.352-.928-.688-1.744T51.9,22.808q-.416.9-.848,1.808T50.208,26.36Z" transform="translate(25 873.24)" fill="#fff"/>
    <path id="路径_6838" data-name="路径 6838" d="M3078.891,911.869v60" transform="translate(-2965 -61.37)" fill="none" stroke="#fff" stroke-width="1"/>
  </g>
</svg>
