<svg xmlns="http://www.w3.org/2000/svg" xmlns:xlink="http://www.w3.org/1999/xlink" width="750" height="100" viewBox="0 0 750 100">
  <defs>
    <linearGradient id="linear-gradient" x1="0.056" y1="0.568" x2="0.961" y2="0.578" gradientUnits="objectBoundingBox">
      <stop offset="0" stop-color="#d4d4d4"/>
      <stop offset="1" stop-color="#707070"/>
    </linearGradient>
  </defs>
  <g id="组_4868" data-name="组 4868" transform="translate(0 -831)">
    <rect id="矩形_1961" data-name="矩形 1961" width="750" height="100" transform="translate(0 831)" fill="url(#linear-gradient)"/>
    <path id="路径_20591" data-name="路径 20591" d="M18.464-2.368H29.536V2.816H2.176V-2.368H13.248v-2.24H5.12v-4.96h8.128v-2.208H5.792v-2.08Q4.768-13.312,3.68-12.8L1.12-17.632q2.3-.928,4.16-1.872a26.894,26.894,0,0,0,3.328-1.984,20.794,20.794,0,0,0,2.608-2.16,17.29,17.29,0,0,0,2.032-2.4h5.184a19.819,19.819,0,0,0,2.256,2.7,19.338,19.338,0,0,0,2.72,2.256,27.719,27.719,0,0,0,3.232,1.9,38.174,38.174,0,0,0,3.792,1.648L27.84-12.768q-.512-.224-.992-.448t-.928-.448v1.888H18.464v2.208h8.128v4.96H18.464Zm2.464-14.3a28.844,28.844,0,0,1-2.656-2.112,31.84,31.84,0,0,1-2.4-2.4,29.08,29.08,0,0,1-2.4,2.32,31.7,31.7,0,0,1-2.88,2.192ZM61.7-1.824a9.747,9.747,0,0,1-.464,1.168A10.686,10.686,0,0,1,60.608.512a11.074,11.074,0,0,1-1.1,1.52,5.355,5.355,0,0,1-1.1.96,3.812,3.812,0,0,1-1.2.512,6.046,6.046,0,0,1-1.36.144,5.79,5.79,0,0,1-1.68-.256,6.264,6.264,0,0,1-1.664-.8A7.444,7.444,0,0,1,50.96,1.2a9.635,9.635,0,0,1-1.3-2.032,14.838,14.838,0,0,1-.912-2.352A32.3,32.3,0,0,1,48-6.336H39.776V-2.88q.608-.1,1.648-.256t2.128-.352l2.08-.368q.992-.176,1.568-.3L47.52.992q-.8.128-1.792.3l-1.984.352q-.992.176-1.888.352t-1.5.3q-.512.1-1.216.288t-1.408.4q-.7.208-1.312.4t-.928.32l-2.272-4.8a8.847,8.847,0,0,0,.7-.656,2.724,2.724,0,0,0,.464-.656,2.59,2.59,0,0,0,.24-.784,6.963,6.963,0,0,0,.064-1.008V-25.344H59.424V-13.6H52.416q.064.576.08,1.1t.08,1.04h8.608v5.12h-7.84q.16.64.336,1.184T54.048-4.1a2.354,2.354,0,0,0,.912,1.3,1.979,1.979,0,0,0,.944.368.791.791,0,0,0,.656-.3,6.524,6.524,0,0,0,.624-1.1q.192-.416.3-.736t.176-.576ZM39.776-20.16v2.016H54.24V-20.16Zm7.52,8.7q-.128-.992-.192-2.144H39.776v2.144ZM1.216,19.128q2.688-.32,4.608-.64a29.194,29.194,0,0,0,3.248-.7,9.285,9.285,0,0,0,2.112-.848,4.323,4.323,0,0,0,1.232-1.04H2.528V11.288H13.12v-2.4l5.28.128v2.272H29.184V15.9H18.144a.223.223,0,0,1-.016.1.142.142,0,0,0-.016.064,9.467,9.467,0,0,0,1.92.944,17.946,17.946,0,0,0,2.576.7q1.488.3,3.456.544t4.528.432l-1.536,4.64q-2.656-.256-4.7-.544t-3.648-.64a19.337,19.337,0,0,1-2.8-.816,14.024,14.024,0,0,1-2.16-1.04,12.388,12.388,0,0,1-4.608,2.288,58.143,58.143,0,0,1-7.744,1.584Zm23.328,5.28H29.7v4.96H24.544v4.416a7.076,7.076,0,0,1-.288,2.224,2.835,2.835,0,0,1-.944,1.36,4.46,4.46,0,0,1-1.712.768,23.724,23.724,0,0,1-2.592.448l-2.5.288-1.536-5.088,2.272-.192a2.707,2.707,0,0,0,1.6-.512A1.808,1.808,0,0,0,19.3,31.7V29.368H11.1q.832.768,1.664,1.552t1.472,1.456l-3.68,4.1q-.48-.576-1.184-1.312l-1.44-1.5Q7.2,32.888,6.48,32.168T5.184,30.9l1.664-1.536h-4.9v-4.96H19.3V22.936h5.248Zm36.928,8.384v5.12H33.5v-5.12h11.1V29.976h-8.64v-4.96h8.64V22.9h-8.96V18.488H33.92v-7.52H44.768q-.16-.64-.352-1.232t-.288-.848h6.08q.16.448.3,1.008t.272,1.072H61.152v7.52H59.488V22.9H50.08v2.112h9.056v4.96h-1.7q.352.736.672,1.456t.576,1.36ZM38.944,15.832v2.176H55.872V15.832ZM50.08,32.792h3.328q-.288-.736-.608-1.456t-.608-1.36H50.08Z" transform="translate(25 876)" fill="#fff"/>
    <path id="路径_6838" data-name="路径 6838" d="M3078.891,911.869v60" transform="translate(-2965 -60)" fill="none" stroke="#fff" stroke-width="1"/>
  </g>
</svg>
