<svg xmlns="http://www.w3.org/2000/svg" xmlns:xlink="http://www.w3.org/1999/xlink" width="750" height="100" viewBox="0 0 750 100">
  <defs>
    <linearGradient id="linear-gradient" x1="0.056" y1="0.568" x2="0.961" y2="0.578" gradientUnits="objectBoundingBox">
      <stop offset="0" stop-color="#ffc75a"/>
      <stop offset="1" stop-color="#ff7c39"/>
    </linearGradient>
  </defs>
  <g id="组_4783" data-name="组 4783" transform="translate(0 -650)">
    <g id="组_4565" data-name="组 4565" transform="translate(0 -181)">
      <g id="组_4869" data-name="组 4869">
        <rect id="矩形_1961" data-name="矩形 1961" width="750" height="100" transform="translate(0 831)" fill="url(#linear-gradient)"/>
        <path id="路径_20591" data-name="路径 20591" d="M9.152-15.9A39.374,39.374,0,0,0,15.9-21.568,40.661,40.661,0,0,0,22.656-15.9ZM25.92-11.84v-2.08c.864.512,1.792.96,2.72,1.44a14.474,14.474,0,0,1,3.1-4.032,35.866,35.866,0,0,1-13.12-8.32c.224-.288.416-.576.608-.864l-4.16-1.952C11.872-22.656,6.048-18.816.32-16.576a17.689,17.689,0,0,1,3.168,3.9c.9-.448,1.792-.9,2.688-1.408v2.24h7.36v2.976H6.752v4h6.784v3.072H2.432V2.336H29.824V-1.792H18.464V-4.864H25.5v-4h-7.04V-11.84ZM40.288-12v-2.912H46.56A28.942,28.942,0,0,0,46.912-12Zm14.144-9.728V-19.2H40.288v-2.528ZM61.376-7.68V-12h-9.6a28.988,28.988,0,0,1-.416-2.912h7.808v-11.1H35.392V-3.872A3.548,3.548,0,0,1,33.6-.864a14.048,14.048,0,0,1,2.048,4.1c1.12-.608,2.912-.928,12.7-3.072a30.09,30.09,0,0,1-.48-4.416l-7.584,1.5V-7.68h7.584C49.632-1.7,52.832,2.656,56.7,2.656c3.2,0,4.8-1.12,5.44-6.848a12.1,12.1,0,0,1-4-2.24c-.192,3.1-.512,4.48-1.184,4.48-1.216,0-2.816-2.368-4.032-5.728ZM19.2,20.6v2.048H3.776c4.736-1.344,8.448-3.392,11.072-6.624H16.96A17.885,17.885,0,0,0,22.784,20.6Zm11.2-4.576V11.64H17.5a23.424,23.424,0,0,0,1.152-3.3l-4.9-.7a14.773,14.773,0,0,1-1.44,4H1.568v4.384H8.192A22.043,22.043,0,0,1,.48,18.84a23.352,23.352,0,0,1,2.88,3.808H2.208v4.416H8.16L5.888,28.5a25.508,25.508,0,0,1,4.32,6.144l4-2.656A21.839,21.839,0,0,0,10.5,27.064h8.7v5.6c0,.48-.224.64-.864.64-.7,0-3.264,0-5.088-.1a19.464,19.464,0,0,1,1.6,4.64c2.912.032,5.216-.032,6.944-.7,1.728-.7,2.24-1.92,2.24-4.352V27.064H29.6V22.648H24.032V21.176a21.725,21.725,0,0,0,4.224,1.344,19.372,19.372,0,0,1,3.04-4.128,24.659,24.659,0,0,1-8.064-2.368Zm26.56-.64v2.272H38.752V15.384Zm-3.872,13.5-1.664,1.088c.768.864,1.7,1.888,2.464,2.848H50.464V28.888Zm5.7-6.944V19.1h3.008V11H51.04c-.384-1.152-.928-2.624-1.408-3.776L44.9,8.216c.288.832.576,1.856.864,2.784H34.144v8.1h3.008v2.848h8.192v2.688H38.4v4.256h6.944v3.936H34.5v4.288H61.6V32.824H57.344l1.312-.928c-.64-.8-1.76-1.952-2.784-3.008h1.984V24.632H50.464V21.944Z" transform="translate(25 876)" fill="#fff"/>
        <path id="路径_6838" data-name="路径 6838" d="M3078.891,911.869v60" transform="translate(-2965 -60)" fill="none" stroke="#fff" stroke-width="1"/>
      </g>
    </g>
  </g>
</svg>
