<svg xmlns="http://www.w3.org/2000/svg" width="30" height="30" viewBox="0 0 30 30">
  <defs>
    <style>
      .cls-1 {
        fill: none;
      }

      .cls-2 {
        fill: #707070;
        stroke: #707070;
        stroke-width: 0.3px;
      }
    </style>
  </defs>
  <g id="组_4722" data-name="组 4722" transform="translate(-2783 -1919)">
    <rect id="矩形_1952" data-name="矩形 1952" class="cls-1" width="30" height="30" transform="translate(2783 1919)"/>
    <g id="组_4477" data-name="组 4477" transform="translate(2672.222 1807.239)">
      <path id="路径_6703" data-name="路径 6703" class="cls-2" d="M127.535,115.676c-.905-.332-1.336-.066-1.573,1.238-1.248,4.313-3.165,6.626-5.853,6.671h-3.652a.893.893,0,0,0-.893.893v11.609a.893.893,0,0,0,.893.893h16.581c.732,0,1.416-.695,1.995-2.25q1.056-3.748,1.809-7.571c.466-2.327-.054-3.354-1.472-3.574h-6a1.25,1.25,0,0,1-1.209-1.57c1.139-3.826.822-5.81-.625-6.338Zm2.541,6.124,5.424.009c2.693.4,3.738,2.468,3.092,5.7q-.773,3.924-1.863,7.776c-.832,2.241-2.05,3.479-3.692,3.479H116.457a2.679,2.679,0,0,1-2.679-2.679V124.478a2.679,2.679,0,0,1,2.679-2.679H120.1c1.682-.029,3.1-1.734,4.129-5.29.409-2.282,1.954-3.233,3.926-2.509,2.491.911,3.043,3.611,1.927,7.8Z" transform="translate(0 0)"/>
      <path id="路径_6704" data-name="路径 6704" class="cls-2" d="M284.444,398.222h1.786V414.3h-1.786Z" transform="translate(-165.308 -275.53)"/>
    </g>
  </g>
</svg>
