<svg xmlns="http://www.w3.org/2000/svg" xmlns:xlink="http://www.w3.org/1999/xlink" width="750" height="100" viewBox="0 0 750 100" preserveAspectRatio="none meet">
  <defs>
    <linearGradient id="linear-gradient" x1="1.071" y1="0.5" x2="0" y2="0.5" gradientUnits="objectBoundingBox">
      <stop offset="0" stop-color="#c2c2c2"/>
      <stop offset="1" stop-color="#606060"/>
    </linearGradient>
  </defs>
  <g id="组_3447" data-name="组 3447" transform="translate(1263 -8594)">
    <g id="组_3444" data-name="组 3444">
      <path id="路径_796" data-name="路径 796" d="M0,0H463V100H0Z" transform="translate(-1263 8594)" fill="url(#linear-gradient)"/>
      <path id="路径_793" data-name="路径 793" d="M-19.37-26.375v7A29.47,29.47,0,0,1-21-14.125q2.625,4.5,1.5,8.25a4.865,4.865,0,0,1-5.25,3.5L-26.12-5.75v9.5h-5.5V-26.375Zm.75.125H-2.745V-10.5H-5L-1.62-6.25-4.245-3.5Q-3.37-2.375-1.5,0L-5.62,3.75A31.024,31.024,0,0,1-9.745-1.125L-10.12-1.5l.5,2.875a79.421,79.421,0,0,1-10.125,2L-20.87-2q2.5-.375,2.25-2ZM-8.5-21.125H-12.87v.875H-8.5Zm-16.25.75H-26.12v3.75A6.946,6.946,0,0,0-24.745-20.375Zm11.875,4.25v.875h4.5v-.875Zm-13.25,3.5v4.5Q-23.37-9.125-26.12-12.625ZM-5.5-10.5h-2L-7-8.625Zm-7.5.125V-3l1.875-.375A27.356,27.356,0,0,1-13-10.375Zm21.99-8.25h-1v4h1Zm-1,10V-4.5h1V-8.625Zm6,9.75H7.87v1.5H2.62v-27H13.995Zm9.125-9.75v-6.75H14.495v-6.25H23.12V-26.5h6.25v4.875h3.125v6.25H29.37V-.125Q30.745,4,17.87,3.625L15.995-2q5,0,6-.125,1.25-.125,1.125-.75V-7.25L18.87-4.5a52.5,52.5,0,0,0-4.625-7.25l4.75-2.875A39.57,39.57,0,0,1,23.12-8.625ZM-26.62,8.5H-21v6.25h1.875v-3.5H-14V8.625H-8.37V11.25h5.75v5.5H-8.37v1H-2v5.375H-4.87v1H-2V29.5H-4.87v5.75q.75,3.875-8.25,3.5l-1.75-3.375L-17,36.25a38.891,38.891,0,0,0-2.75-5.125L-15.87,29.5h-3.5v-.625l-1.625.5V38.75H-26.62V31q-1.375.375-5,1.375L-32.5,26.5q3.25-.625,5.875-1.375V20.75H-27.5l-.25,3.625-5-1.125q.375-3.625.625-10.125L-32,11l4.625.125L-27.5,14.75h.875Zm7.75,8.25v1H-14v-1Zm-.875,4.125H-21V23.5l1.25-.5Zm.875,2.25v1h8.125v-1Zm8.125,6.375h-3l1.875,3.75q1.25.125,1.125-1.25ZM7.745,8l6.25,1.5a29.9,29.9,0,0,1-3.25,7.125,25.3,25.3,0,0,0,7.75-7.5H24.37a23.557,23.557,0,0,0,8.75,7l-3,5.625-1.5-1.25V38.375H22.745v-18.5H27.87A38.828,38.828,0,0,1,21.745,14a44.216,44.216,0,0,1-6.5,6.25h5v5.625q0,9-4.875,13a26.617,26.617,0,0,0-4.625-2.75v2.75H4.87V26l-1.125.875L1.62,20A35.342,35.342,0,0,0,7.745,8Zm6.5,13.375-1,.75-2.5-4v16.5Q15.495,31,14.245,21.375Z" transform="translate(-1204 8639)" fill="#fff"/>
      <line id="直线_251" data-name="直线 251" y2="59" transform="translate(-1147.5 8614.5)" fill="none" stroke="#fff" stroke-linecap="round" stroke-width="1"/>
    </g>
    <path id="路径_797" data-name="路径 797" d="M25.042,0H345V100H25.042l-30-50Z" transform="translate(-858 8594)" fill="#c2c2c2"/>
  </g>
</svg>
