<svg id="组_1191" data-name="组 1191" xmlns="http://www.w3.org/2000/svg" xmlns:xlink="http://www.w3.org/1999/xlink" width="750" height="1370" viewBox="0 0 750 1370">
  <defs>
    <clipPath id="clip-path">
      <rect id="矩形_53" data-name="矩形 53" width="750" height="1370" fill="#fff" stroke="#707070" stroke-width="1"/>
    </clipPath>
    <linearGradient id="linear-gradient" x1="-0.034" y1="0.362" x2="1" y2="0.553" gradientUnits="objectBoundingBox">
      <stop offset="0" stop-color="#b0d8e3"/>
      <stop offset="1" stop-color="#ffdfdf"/>
    </linearGradient>
    <linearGradient id="linear-gradient-2" x1="0.5" x2="0.5" y2="1" gradientUnits="objectBoundingBox">
      <stop offset="0" stop-color="#fff" stop-opacity="0"/>
      <stop offset="1" stop-color="#fff"/>
    </linearGradient>
  </defs>
  <g id="组_1189" data-name="组 1189" transform="translate(0 6)">
    <rect id="矩形_54" data-name="矩形 54" width="750" height="1370" transform="translate(0 -6)" fill="#fff"/>
    <g id="蒙版组_2" data-name="蒙版组 2" transform="translate(0 -6)" clip-path="url(#clip-path)">
      <rect id="矩形_49" data-name="矩形 49" width="750" height="1370" opacity="0.64" fill="url(#linear-gradient)"/>
      <path id="路径_359" data-name="路径 359" d="M209.07-.431c115.7,0,209.5,93.8,209.5,209.5s-93.8,209.5-209.5,209.5-209.5-93.8-209.5-209.5S93.366-.431,209.07-.431Z" transform="matrix(0.819, -0.574, 0.574, 0.819, -125.677, 255.158)" opacity="0.6" fill="url(#linear-gradient-2)"/>
      <path id="路径_360" data-name="路径 360" d="M110.273-.227a110.5,110.5,0,1,1-110.5,110.5A110.5,110.5,0,0,1,110.273-.227Z" transform="matrix(0.819, -0.574, 0.574, 0.819, 575.92, 306.42)" opacity="0.42" fill="url(#linear-gradient-2)"/>
      <path id="路径_361" data-name="路径 361" d="M41.415-.085a41.5,41.5,0,1,1-41.5,41.5A41.5,41.5,0,0,1,41.415-.085Z" transform="matrix(0.819, -0.574, 0.574, 0.819, 470.821, 588.33)" fill="#fff" opacity="0.42"/>
      <path id="路径_362" data-name="路径 362" d="M86.322-.178a86.5,86.5,0,1,1-86.5,86.5A86.5,86.5,0,0,1,86.322-.178Z" transform="matrix(0.819, -0.574, 0.574, 0.819, 389.277, 1081.302)" fill="#fff" opacity="0.42"/>
      <path id="路径_363" data-name="路径 363" d="M110.273-.227a110.5,110.5,0,1,1-110.5,110.5A110.5,110.5,0,0,1,110.273-.227Z" transform="matrix(0.819, -0.574, 0.574, 0.819, 184.92, 49.42)" opacity="0.42" fill="url(#linear-gradient-2)"/>
      <path id="路径_364" data-name="路径 364" d="M272.938-.563c151.05,0,273.5,122.45,273.5,273.5s-122.45,273.5-273.5,273.5-273.5-122.45-273.5-273.5S121.888-.563,272.938-.563Z" transform="matrix(0.819, -0.574, 0.574, 0.819, 370.372, 1104.474)" fill="url(#linear-gradient-2)"/>
      <path id="路径_365" data-name="路径 365" d="M273.988.486c151.05,0,273.5,122.45,273.5,273.5s-122.45,273.5-273.5,273.5S.488,425.036.488,273.986,122.938.486,273.988.486Z" transform="matrix(0.454, 0.891, -0.891, 0.454, 90.236, 486.988)" fill="url(#linear-gradient-2)"/>
      <g id="组_1127" data-name="组 1127" transform="translate(214.689 432.486)">
        <path id="XMLID_18_" d="M103.9,14.549a95.344,95.344,0,0,0-6.572,7.667c-11.5,14.238-9.857,23.548-22.453,33.953-12.048,10.4-35.048,8.215-57.5,30.667-23.548,23.548-23.548,62.429,0,85.977s62.429,23.548,85.977,0c22.453-22.453,20.262-45.453,30.667-57.5,10.4-12.6,19.715-10.953,33.953-22.453a28.82,28.82,0,0,0,7.667-6.572c19.715-19.715,19.715-52.572,0-72.287A51.415,51.415,0,0,0,103.9,14.549Z" transform="translate(91.743 136.529) rotate(-43)" fill="#76a9c7"/>
        <g id="组_1113" data-name="组 1113" transform="translate(246.228 108.615)">
          <path id="联合_1" data-name="联合 1" d="M23.356,59.6h-.2A23.155,23.155,0,1,1,28.861,14,23.162,23.162,0,0,1,72.824,27.8q.332-.014.668-.014A15.907,15.907,0,0,1,74.9,59.536V59.6Z" transform="translate(0 0)" fill="#76a9c7"/>
        </g>
        <g id="组_1114" data-name="组 1114" transform="translate(232.457 94.844)">
          <path id="联合_1-2" data-name="联合 1" d="M23.356,59.6h-.2A23.155,23.155,0,1,1,28.861,14,23.162,23.162,0,0,1,72.824,27.8q.332-.014.668-.014A15.907,15.907,0,0,1,74.9,59.536V59.6Z" transform="translate(0 0)" fill="#cff1fa" stroke="#76a9c7" stroke-linecap="round" stroke-linejoin="round" stroke-width="6"/>
        </g>
        <path id="联合_2" data-name="联合 2" d="M53.313,136.04v0l-.459,0A52.853,52.853,0,1,1,65.88,31.951a52.871,52.871,0,0,1,100.349,31.5q.758-.031,1.524-.031A36.309,36.309,0,0,1,170.97,135.9v.141Z" transform="translate(18.779 118.895)" fill="#84adb8"/>
        <path id="XMLID_17_" d="M106.907,14.951a95.345,95.345,0,0,0-6.572,7.667c-11.5,14.786-9.857,24.1-23,35.048C64.739,68.618,41.192,65.88,18.191,88.88c-24.643,24.643-24.643,64.072,0,88.168,24.643,24.643,64.072,24.643,88.168,0,23-23,20.81-46.548,31.215-59.144,10.953-12.6,20.262-10.953,35.048-23a28.819,28.819,0,0,0,7.667-6.572,52.555,52.555,0,0,0,0-73.929C160.574-5.312,127.169-5.312,106.907,14.951Z" transform="translate(69.283 133.711) rotate(-43)" fill="#fff" stroke="#76a9c7" stroke-width="6"/>
        <g id="组_1047" data-name="组 1047" transform="translate(223.038 229.933) rotate(-83)">
          <path id="路径_366" data-name="路径 366" d="M4.348,0A4.35,4.35,0,1,1,0,4.348,4.35,4.35,0,0,1,4.348,0Z" transform="translate(0 0)" fill="#76a9c7"/>
          <path id="路径_367" data-name="路径 367" d="M4.348,0A4.35,4.35,0,1,1,0,4.348,4.35,4.35,0,0,1,4.348,0Z" transform="translate(0 0)" fill="#76a9c7"/>
          <path id="路径_368" data-name="路径 368" d="M4.348,0A4.35,4.35,0,1,1,0,4.348,4.35,4.35,0,0,1,4.348,0Z" transform="translate(23.615 0)" fill="#76a9c7"/>
          <path id="路径_369" data-name="路径 369" d="M4.348,0A4.35,4.35,0,1,1,0,4.348,4.35,4.35,0,0,1,4.348,0Z" transform="translate(47.231 0)" fill="#76a9c7"/>
          <path id="路径_370" data-name="路径 370" d="M4.348,0A4.35,4.35,0,1,1,0,4.348,4.35,4.35,0,0,1,4.348,0Z" transform="translate(70.846 0)" fill="#76a9c7"/>
          <path id="路径_371" data-name="路径 371" d="M4.348,0A4.35,4.35,0,1,1,0,4.348,4.35,4.35,0,0,1,4.348,0Z" transform="translate(12.429 17.401)" fill="#76a9c7"/>
          <path id="路径_372" data-name="路径 372" d="M4.348,0A4.35,4.35,0,1,1,0,4.348,4.35,4.35,0,0,1,4.348,0Z" transform="translate(12.429 17.401)" fill="#76a9c7"/>
          <path id="路径_373" data-name="路径 373" d="M4.348,0A4.35,4.35,0,1,1,0,4.348,4.35,4.35,0,0,1,4.348,0Z" transform="translate(36.044 17.401)" fill="#76a9c7"/>
          <path id="路径_374" data-name="路径 374" d="M4.348,0A4.35,4.35,0,1,1,0,4.348,4.35,4.35,0,0,1,4.348,0Z" transform="translate(59.66 17.401)" fill="#76a9c7"/>
        </g>
        <g id="组_1110" data-name="组 1110" transform="translate(0 111.384)">
          <path id="联合_1-3" data-name="联合 1" d="M53.313,136.04v0l-.459,0A52.853,52.853,0,1,1,65.88,31.951a52.871,52.871,0,0,1,100.349,31.5q.758-.031,1.524-.031A36.309,36.309,0,0,1,170.97,135.9v.141Z" fill="#fff" stroke="#76a9c7" stroke-linecap="round" stroke-linejoin="round" stroke-width="6"/>
          <path id="路径_341" data-name="路径 341" d="M7720,2343.2h77.377" transform="translate(-7632.829 -2221.82)" fill="none" stroke="#76a9c7" stroke-linecap="round" stroke-width="6"/>
          <path id="路径_342" data-name="路径 342" d="M7841.23,2343.718c11.427-1.442,17.793-17.6,13.25-29.031" transform="translate(-7665.669 -2223.532)" fill="none" stroke="#76a9c7" stroke-linecap="round" stroke-width="6"/>
        </g>
        <g id="组_1112" data-name="组 1112" transform="translate(173.389 54.454)">
          <g id="椭圆_227" data-name="椭圆 227" fill="#5c5c5c" stroke="#5c5c5c" stroke-width="3">
            <circle cx="15.825" cy="15.825" r="15.825" stroke="none"/>
            <circle cx="15.825" cy="15.825" r="14.325" fill="none"/>
          </g>
          <g id="椭圆_228" data-name="椭圆 228" transform="translate(40.96)" fill="#5c5c5c" stroke="#5c5c5c" stroke-width="3">
            <circle cx="15.825" cy="15.825" r="15.825" stroke="none"/>
            <circle cx="15.825" cy="15.825" r="14.325" fill="none"/>
          </g>
          <path id="路径_343" data-name="路径 343" d="M-1651.478,1340.46a10.794,10.794,0,0,1,5.5-2.076,10.9,10.9,0,0,1,5.52,2.076" transform="translate(1682.239 -1324.635)" fill="none" stroke="#5c5c5c" stroke-linecap="round" stroke-width="3"/>
          <path id="交叉_3" data-name="交叉 3" d="M2.411,24.567,24.567,2.411q.4.3.785.629L3.04,25.352Q2.713,24.969,2.411,24.567ZM0,19.907,19.907,0a15.73,15.73,0,0,1,2.951,1.292L1.292,22.858A15.73,15.73,0,0,1,0,19.907Z" transform="translate(41.711 0.751)" fill="#fff"/>
          <path id="交叉_4" data-name="交叉 4" d="M2.342,24.443l22.1-22.1q.408.3.8.617L2.959,25.24Q2.638,24.852,2.342,24.443ZM0,19.715,19.715,0a15.723,15.723,0,0,1,2.995,1.248L1.248,22.71A15.739,15.739,0,0,1,0,19.715Z" transform="translate(0.666 0.665)" fill="#fff"/>
        </g>
        <path id="路径_344" data-name="路径 344" d="M-1475.716,1404.108c16.347.614,23.609-3.2,26.774-6.653" transform="translate(1681.44 -1302.152)" fill="none" stroke="#5c5c5c" stroke-linecap="round" stroke-width="3"/>
      </g>
      <g id="组_1185" data-name="组 1185" transform="translate(216.963 748.578)">
        <path id="路径_179" data-name="路径 179" d="M62.74.7h2.882V25.994H91.236v3.842l-12.487.32H65.622v18.57H88.354v3.842H65.622v8.645c0,3.522-.32,6.083-.32,7.364a18.738,18.738,0,0,1-.64,4.162,6.191,6.191,0,0,1-1.6,2.882s5.443.32,16.97.32H96.679v3.842H27.2V75.942l16.329-.32H59.218V52.889H48.012l-10.886-.32.32-1.6V48.727H59.218V29.836H40.968l-1.281,1.921A26.707,26.707,0,0,1,37.126,35.6,36.527,36.527,0,0,1,33.6,39.122a19.436,19.436,0,0,1-3.2,2.241,8.33,8.33,0,0,1-2.241.961c-.32,0-.32-.64-.32-1.6v-1.6l.961-.64a10.216,10.216,0,0,0,2.241-1.921,31.011,31.011,0,0,0,2.241-2.882A13.042,13.042,0,0,0,35.2,30.157a20.71,20.71,0,0,0,1.281-4.162,42.839,42.839,0,0,0,.64-8.325V11.906H44.81l-.32,3.522a20.892,20.892,0,0,1-.64,5.443c-.32,1.281-.64,2.241-.961,3.522s-.64,1.281-.64,1.6H58.9l.32-12.487V.7H62.74Z" transform="translate(59.889 1.542)" fill="#76a9c7"/>
        <g id="组_1017" data-name="组 1017" transform="translate(167.07)">
          <path id="路径_180" data-name="路径 180" d="M66.948,7.4H70.79v7.684c0,5.123,0,8.325-.32,9.926s-.32,2.882-.64,4.162-.961,2.561-1.281,4.162a21.32,21.32,0,0,1-1.921,3.842A21.535,21.535,0,0,1,64.386,40.7,28.868,28.868,0,0,1,61.5,43.9a75.2,75.2,0,0,1-7.684,5.443,4.647,4.647,0,0,1-.32-1.921v-1.6l.961-.64A13.926,13.926,0,0,1,56.7,43.26a23.283,23.283,0,0,0,2.561-2.882,18.721,18.721,0,0,0,3.2-6.083,46.118,46.118,0,0,0,1.921-16.329V7.4Z" transform="translate(-53.5 16.293)" fill="#76a9c7"/>
          <path id="路径_181" data-name="路径 181" d="M68.783,0V36.821c0,24.654.32,35.22-.32,38.422-.32.961-.64,4.8-3.2,7.364a5.409,5.409,0,0,1-1.6.64H62.7V0Z" transform="translate(-33.243)" fill="#76a9c7"/>
          <path id="路径_182" data-name="路径 182" d="M68.381,7.3a41.088,41.088,0,0,1,4.483,2.882c8.965,7.364,13.768,18.25,16.649,28.5,0,0-1.281,0-4.8.32l-5.123.64c-1.921-8.965-1.921-18.57-11.206-29.457L67.1,8.9S68.061,7.3,68.381,7.3Z" transform="translate(-23.556 16.073)" fill="#76a9c7"/>
        </g>
        <g id="组_1018" data-name="组 1018" transform="translate(241.992 1.28)">
          <path id="路径_183" data-name="路径 183" d="M123.966.72c0,3.2-1.921,7.684-4.483,8.645h30.737v3.842H94.19V33.7c0,13.768-.32,21.452-.64,23.053-.32,1.281-1.281,11.526-8.325,18.57-.64.64-1.6,1.281-2.561,2.241A33.751,33.751,0,0,1,79.141,79.8a7.924,7.924,0,0,0-1.921,1.281,3.885,3.885,0,0,1-.32-1.6v-1.6l.961-.64A20.451,20.451,0,0,0,84.584,68.6c3.2-6.083,3.522-17.29,3.522-34.579V7.444H94.19v1.6h23.053L116.922.4C117.243.72,123.326.72,123.966.72Zm-2.241,17.29h3.842V28.9H147.66l-.32,2.241v1.921H136.453l-10.886.32V36.9a22.781,22.781,0,0,1-.32,5.123,9.331,9.331,0,0,1-1.6,5.123,4.605,4.605,0,0,0-.64.961h13.448V40.743h6.083V69.559c0,2.241,0,3.522-.32,4.162a10.839,10.839,0,0,1-.961,2.561c-.32.64-.64,1.6-1.281,1.921a5.621,5.621,0,0,1-1.6,1.281,4.628,4.628,0,0,1-2.241.64V72.44H108.278a3.191,3.191,0,0,1-.32,1.281,13.86,13.86,0,0,1-1.6,3.842,10.868,10.868,0,0,1-1.921,1.921c-.961.32-2.241.64-2.241.64V40.743h6.083v7.044h10.566V18.01Zm.32,33.3H108.6v17.93l13.448-.32h14.728V51.309Z" transform="translate(-76.9 -0.4)" fill="#76a9c7"/>
        </g>
        <g id="组_1019" data-name="组 1019" transform="translate(0 1.601)">
          <path id="路径_184" data-name="路径 184" d="M31.057,8.32c-.64,4.162-8.325,16.009-10.246,17.93V41.939l-.32,16.329-.32,1.281a6.436,6.436,0,0,1-1.281,2.561,3.858,3.858,0,0,1-1.6,1.6,2.886,2.886,0,0,1-1.6.32h-.64V32.654C12.807,35.215,4.483,42.9,1.6,44.18c-.32,0-1.281-1.281-1.6-1.6C9.285,34.575,20.492,18.886,23.693,8A73.686,73.686,0,0,0,31.057,8.32Z" transform="translate(0 16.013)" fill="#76a9c7"/>
          <path id="路径_185" data-name="路径 185" d="M54.226,43.84c0-2.561-.32-5.763-.32-5.763l-.961.32a3.963,3.963,0,0,0-.961.64v1.281a59.007,59.007,0,0,1-2.241,14.088c-.64,1.921-2.241,3.2-4.8,3.522-1.6,0-13.768.32-13.768.32-1.921,0-3.522-1.921-3.522-4.162V39.678c6.4-3.842,18.25-13.768,20.492-24.654a.314.314,0,0,0-.32-.32c-.32,0-5.763-.961-6.083-.961l-.64.64c-.32.32-4.483,12.487-13.448,18.57V20.147L27.331,8.3H20.607V37.757l-1.281.64c-.961.64-2.241,1.281-3.2,1.921-1.281.64-2.882,1.281-4.162,1.921-.64.32-1.6.64-2.241.961s-1.6.32-1.6.64a1.176,1.176,0,0,0-.32.961v1.281s3.2-.64,5.123-1.281c2.561-.64,5.123-1.6,8-2.561v6.083a39.124,39.124,0,0,0,.32,7.044c.32.64.32,1.6.64,2.561a6.7,6.7,0,0,0,1.281,1.921,10.136,10.136,0,0,0,3.842,2.561c4.162.32,17.29-.64,20.812-.64,4.8-.32,6.4-4.162,6.4-7.364V43.84Z" transform="translate(17.174 16.674)" fill="#76a9c7"/>
          <path id="路径_186" data-name="路径 186" d="M62.254,9.785H52.329V.5H46.245V9.785H24.793V.5h-6.4V9.785H1.1v3.842H18.71v9.605h0a4.748,4.748,0,0,0,2.241-.32c3.842-1.921,4.162-9.285,4.162-9.285H46.245v9.605h0a4.748,4.748,0,0,0,2.241-.32c3.842-1.921,4.162-9.285,4.162-9.285H69.3V9.785Z" transform="translate(2.422 -0.5)" fill="#76a9c7"/>
        </g>
      </g>
      <text id="欢迎光临" transform="translate(303 323)" fill="#76a9c7" font-size="35" font-family="PingFang SC Regular, PingFang SC"><tspan x="0" y="0">欢迎光临</tspan></text>
    </g>
  </g>
  <g id="组_1190" data-name="组 1190" transform="translate(1968.688 -555.844)">
    <path id="XMLID_18_2" data-name="XMLID_18_" d="M104.186,14.855a95.344,95.344,0,0,0-6.572,7.667C86.115,36.76,87.757,46.07,75.162,56.475c-12.048,10.4-35.048,8.215-57.5,30.667-23.548,23.548-23.548,62.429,0,85.977s62.429,23.548,85.977,0c22.453-22.453,20.262-45.453,30.667-57.5,10.4-12.6,19.715-10.953,33.953-22.453a28.82,28.82,0,0,0,7.667-6.572c19.715-19.715,19.715-52.572,0-72.287A51.415,51.415,0,0,0,104.186,14.855Z" transform="translate(-1662.674 1118.828) rotate(-43)" fill="#76a9c7"/>
    <g id="组_1113-2" data-name="组 1113" transform="translate(-1507.772 1090.944)">
      <path id="联合_1-4" data-name="联合 1" d="M23.356,59.6h-.2A23.155,23.155,0,1,1,28.861,14,23.162,23.162,0,0,1,72.824,27.8q.332-.014.668-.014A15.907,15.907,0,0,1,74.9,59.536V59.6Z" transform="translate(0 0)" fill="#76a9c7"/>
    </g>
    <g id="组_1114-2" data-name="组 1114" transform="translate(-1521.543 1077.173)">
      <path id="联合_1-5" data-name="联合 1" d="M23.356,59.6h-.2A23.155,23.155,0,1,1,28.861,14,23.162,23.162,0,0,1,72.824,27.8q.332-.014.668-.014A15.907,15.907,0,0,1,74.9,59.536V59.6Z" transform="translate(0 0)" fill="#cff1fa" stroke="#76a9c7" stroke-linecap="round" stroke-linejoin="round" stroke-width="6"/>
    </g>
    <path id="联合_2-2" data-name="联合 2" d="M53.313,136.04v0l-.459,0A52.853,52.853,0,1,1,65.88,31.951a52.871,52.871,0,0,1,100.349,31.5q.758-.031,1.524-.031A36.309,36.309,0,0,1,170.97,135.9v.141Z" transform="translate(-1735.221 1101.225)" fill="#84adb8"/>
    <path id="XMLID_17_2" data-name="XMLID_17_" d="M107.2,15.266a95.347,95.347,0,0,0-6.572,7.667c-11.5,14.786-9.857,24.1-23,35.048C65.031,68.933,41.483,66.2,18.483,89.2c-24.643,24.643-24.643,64.072,0,88.168,24.643,24.643,64.072,24.643,88.168,0,23-23,20.81-46.548,31.215-59.144,10.953-12.6,20.262-10.953,35.048-23a28.819,28.819,0,0,0,7.667-6.572,52.555,52.555,0,0,0,0-73.929C160.866-5,127.46-5,107.2,15.266Z" transform="translate(-1685.145 1116.009) rotate(-43)" fill="#5c5c5c" stroke="#76a9c7" stroke-width="6"/>
    <g id="组_1047-2" data-name="组 1047" transform="translate(-1530.965 1212.265) rotate(-83)">
      <ellipse id="椭圆_198" data-name="椭圆 198" cx="4.35" cy="4.35" rx="4.35" ry="4.35" transform="translate(0 0)" fill="#fff"/>
      <ellipse id="椭圆_199" data-name="椭圆 199" cx="4.35" cy="4.35" rx="4.35" ry="4.35" transform="translate(0 0)" fill="#fff"/>
      <ellipse id="椭圆_200" data-name="椭圆 200" cx="4.35" cy="4.35" rx="4.35" ry="4.35" transform="translate(23.615 0)" fill="#fff"/>
      <ellipse id="椭圆_201" data-name="椭圆 201" cx="4.35" cy="4.35" rx="4.35" ry="4.35" transform="translate(47.231 0)" fill="#fff"/>
      <ellipse id="椭圆_202" data-name="椭圆 202" cx="4.35" cy="4.35" rx="4.35" ry="4.35" transform="translate(70.846 0)" fill="#fff"/>
      <ellipse id="椭圆_203" data-name="椭圆 203" cx="4.35" cy="4.35" rx="4.35" ry="4.35" transform="translate(12.429 17.401)" fill="#fff"/>
      <ellipse id="椭圆_204" data-name="椭圆 204" cx="4.35" cy="4.35" rx="4.35" ry="4.35" transform="translate(12.429 17.401)" fill="#fff"/>
      <ellipse id="椭圆_205" data-name="椭圆 205" cx="4.35" cy="4.35" rx="4.35" ry="4.35" transform="translate(36.044 17.401)" fill="#fff"/>
      <ellipse id="椭圆_206" data-name="椭圆 206" cx="4.35" cy="4.35" rx="4.35" ry="4.35" transform="translate(59.66 17.401)" fill="#fff"/>
    </g>
    <g id="组_1110-2" data-name="组 1110" transform="translate(-1754 1093.714)">
      <path id="联合_1-6" data-name="联合 1" d="M53.313,136.04v0l-.459,0A52.853,52.853,0,1,1,65.88,31.951a52.871,52.871,0,0,1,100.349,31.5q.758-.031,1.524-.031A36.309,36.309,0,0,1,170.97,135.9v.141Z" fill="#fff" stroke="#76a9c7" stroke-linecap="round" stroke-linejoin="round" stroke-width="6"/>
      <path id="路径_341-2" data-name="路径 341" d="M7720,2343.2h77.377" transform="translate(-7632.829 -2221.82)" fill="none" stroke="#76a9c7" stroke-linecap="round" stroke-width="6"/>
      <path id="路径_342-2" data-name="路径 342" d="M7841.23,2343.718c11.427-1.442,17.793-17.6,13.25-29.031" transform="translate(-7665.669 -2223.533)" fill="none" stroke="#76a9c7" stroke-linecap="round" stroke-width="6"/>
    </g>
    <g id="组_1112-2" data-name="组 1112" transform="translate(-1580.611 1036.784)">
      <g id="椭圆_227-2" data-name="椭圆 227" fill="#5c5c5c" stroke="#fff" stroke-width="3">
        <circle cx="15.825" cy="15.825" r="15.825" stroke="none"/>
        <circle cx="15.825" cy="15.825" r="14.325" fill="none"/>
      </g>
      <g id="椭圆_228-2" data-name="椭圆 228" transform="translate(40.96)" fill="#5c5c5c" stroke="#fff" stroke-width="3">
        <circle cx="15.825" cy="15.825" r="15.825" stroke="none"/>
        <circle cx="15.825" cy="15.825" r="14.325" fill="none"/>
      </g>
      <path id="路径_343-2" data-name="路径 343" d="M-1651.478,1340.46a10.794,10.794,0,0,1,5.5-2.076,10.9,10.9,0,0,1,5.52,2.076" transform="translate(1682.239 -1324.635)" fill="none" stroke="#fff" stroke-linecap="round" stroke-width="3"/>
      <path id="交叉_3-2" data-name="交叉 3" d="M-4424-2959.13l22.156-22.156q.4.3.785.629l-22.312,22.312Q-4423.7-2958.728-4424-2959.13Zm-2.411-4.661,19.906-19.906a15.739,15.739,0,0,1,2.951,1.292l-21.565,21.566A15.705,15.705,0,0,1-4426.412-2963.791Z" transform="translate(4468.123 2984.448)" fill="#fff"/>
      <path id="交叉_4-2" data-name="交叉 4" d="M-4422.122-2961.01l22.1-22.1q.409.3.8.618l-22.281,22.28Q-4421.826-2960.6-4422.122-2961.01Zm-2.342-4.729,19.715-19.715a15.707,15.707,0,0,1,2.994,1.248l-21.461,21.462A15.718,15.718,0,0,1-4424.464-2965.739Z" transform="translate(4425.13 2986.118)" fill="#fff"/>
    </g>
    <path id="路径_344-2" data-name="路径 344" d="M-1475.716,1404.108c16.347.614,23.609-3.2,26.774-6.653" transform="translate(-72.56 -319.823)" fill="none" stroke="#fff" stroke-linecap="round" stroke-width="3"/>
  </g>
</svg>
