<svg xmlns="http://www.w3.org/2000/svg" width="55" height="55" viewBox="0 0 55 55">
  <g id="组_4434" data-name="组 4434" transform="translate(1265 -2769)">
    <rect id="矩形_1909" data-name="矩形 1909" width="55" height="55" transform="translate(-1265 2769)" fill="none"/>
    <g id="组_4449" data-name="组 4449" transform="translate(-1296.396 2713.061)">
      <path id="路径_6700" data-name="路径 6700" d="M74.836,172.214c-1.049.015-1.211-.565-1.642-1.3a19.1,19.1,0,0,0-3.325-4.589c-1.963-1.775-2.117-1.608-1.355-4.145a12.485,12.485,0,0,0,.5-1.525c.078-.481.176-1.224-.075-1.425a1.563,1.563,0,0,0-1.46-.015,36.819,36.819,0,0,0-4.584,3.347,2.036,2.036,0,0,1-1.854.725c-7.411-.772-13.892.683-17.938,7.9-2.268-1.219-2.631-2.761-1.166-4.345.306-.331.314-.938.46-1.417-.525.076-1.174-.019-1.555.256-2.205,1.594-1.833,5.019.772,6.595a1.984,1.984,0,0,1,.9.941,2.256,2.256,0,0,1,.677-.108,2.087,2.087,0,0,1,.314.044,2.157,2.157,0,0,1,.994-.231l.016,0a9.91,9.91,0,0,1,4.667-6.04,18.315,18.315,0,0,1,11.986-1.879c1.307.212,2.158.147,2.887-1.2a13.878,13.878,0,0,1,2.546-2.685l.285.259q-.249,1.727-.5,3.454a1.627,1.627,0,0,0,1.147,1.988,6.92,6.92,0,0,1,4.28,5.093,2.1,2.1,0,0,0,2.507,1.881c1.18-.107,1.529.458,1.434,1.524a6.88,6.88,0,0,0,0,1.447c.187,1.506-.205,2.3-1.968,2.213-.621-.032-1.381.642-1.906,1.166-1.345,1.343-2.5,2.881-3.911,4.147a2.126,2.126,0,0,0-.739,2.672c.852,2.1-1.148,1.7-2,2.25-1.063.684-1.561.021-1.808-.955-.416-1.64-1.473-1.939-3.05-1.794a24.781,24.781,0,0,1-5.272-.12c-1.522-.188-2.557.1-2.9,1.7-.38,1.745-1.344,1.4-2.612.962-1.358-.473-1.886-1.041-1.159-2.427a2.5,2.5,0,0,0-.87-3.5,8.814,8.814,0,0,1-3.27-5.336,1.935,1.935,0,0,1-.713-.339,2.152,2.152,0,0,1-.384.044,1.912,1.912,0,0,1-.191-.017,2.227,2.227,0,0,1-.373.874A10.292,10.292,0,0,0,46,183.862a2.125,2.125,0,0,1,.655,2.864c-.759,1.774-.227,2.762,1.61,3.5.447.18.9.347,1.351.515,2.253.838,3.052.53,3.938-1.763.351-.908.805-1.015,1.687-.928a28.425,28.425,0,0,0,4.96.134c1.044-.081,1.5.1,1.868,1.125.659,1.833,1.691,2.207,3.55,1.54.6-.217,1.211-.434,1.8-.683,1.56-.656,2.085-1.562,1.535-3.182-.323-.952.065-1.247.688-1.8a19.618,19.618,0,0,0,3.123-3.4A2.275,2.275,0,0,1,74.9,180.5c1.652.022,2.418-.836,2.475-2.5.036-1.071.03-2.146,0-3.217-.045-1.774-.774-2.6-2.537-2.573Z" transform="translate(0 -89.364)" fill="#d1ab5a" stroke="#d1ab5a" stroke-width="0.5"/>
      <path id="路径_6701" data-name="路径 6701" d="M237.035,71.969c-.8.308-1.3.331-1.558-.788a4.482,4.482,0,1,0-8.746,1.954c.22,1.085-.248,1.329-1.106,1.416a5.581,5.581,0,0,1,.936-6.643,6.246,6.246,0,0,1,7.092-1.426A5.527,5.527,0,0,1,237.035,71.969Zm11.085,12.363c-.985.784-1.491,1.492-2.109,1.609a1.29,1.29,0,0,1-1.573-1.509,2.213,2.213,0,0,1,1.467-1.465C246.429,82.891,247.074,83.645,248.119,84.332Z" transform="translate(-178.066 0)" fill="#d1ab5a" stroke="#d1ab5a" stroke-width="0.5"/>
    </g>
  </g>
</svg>
