<svg xmlns="http://www.w3.org/2000/svg" width="55" height="55" viewBox="0 0 55 55">
  <g id="组_4432" data-name="组 4432" transform="translate(-40 -800)">
    <rect id="矩形_663" data-name="矩形 663" width="55" height="55" transform="translate(40 800)" fill="none"/>
    <path id="路径_6702" data-name="路径 6702" d="M45.034,48.017a.9.9,0,1,1,.77,1.626L29.2,57.508a.9.9,0,0,1-.77,0l-16.6-7.865a.9.9,0,1,1,.772-1.626L28.819,55.7Zm0-5.84A.9.9,0,1,1,45.8,43.8L29.2,51.666a.9.9,0,0,1-.77,0L11.833,43.8a.9.9,0,1,1,.772-1.626l16.215,7.68Zm0-5.842a.9.9,0,0,1,.77,1.626L29.2,45.826a.9.9,0,0,1-.77,0l-16.6-7.865a.9.9,0,0,1,.772-1.626l16.215,7.684Zm-1.716-5.051-14.5-6.867-14.5,6.865,14.5,6.871,14.5-6.871ZM45.8,32.1,29.2,39.963a.9.9,0,0,1-.77,0L11.833,32.1a.9.9,0,0,1,0-1.624l16.6-7.864a.9.9,0,0,1,.77,0l16.6,7.864a.9.9,0,0,1,0,1.624Z" transform="translate(38.64 788.402)" fill="#d1ab5a" stroke="#d1ab5a" stroke-width="0.5"/>
  </g>
</svg>
