<svg xmlns="http://www.w3.org/2000/svg" width="30" height="30" viewBox="0 0 30 30">
  <defs>
    <style>
      .cls-1 {
        fill: none;
      }

      .cls-2 {
        fill: #fad6db;
      }

      .cls-3 {
        fill: #e94861;
      }
    </style>
  </defs>
  <g id="组_4536" data-name="组 4536" transform="translate(-55 -967)">
    <rect id="矩形_1986" data-name="矩形 1986" class="cls-1" width="30" height="30" transform="translate(55 967)"/>
    <g id="组_1435" data-name="组 1435" transform="translate(154 -3352)">
      <path id="路径_271" data-name="路径 271" class="cls-2" d="M20.313,23.437,12.5,18.75H1.563A1.476,1.476,0,0,1,0,17.187V1.563A1.476,1.476,0,0,1,1.563,0H23.437A1.476,1.476,0,0,1,25,1.563V17.187a1.476,1.476,0,0,1-1.563,1.563H20.313Z" transform="translate(-96 4324)"/>
      <path id="路径_272" data-name="路径 272" class="cls-3" d="M205.581,273.067h14.063a.781.781,0,1,1,0,1.563H205.581a.781.781,0,0,1,0-1.562Zm0,4.688h14.063a.781.781,0,1,1,0,1.563H205.581a.781.781,0,0,1,0-1.562Z" transform="translate(-296.112 4057.183)"/>
    </g>
  </g>
</svg>
