<svg xmlns="http://www.w3.org/2000/svg" width="680" height="180" viewBox="0 0 680 180">
  <defs>
    <style>
      .cls-1 {
        fill: #fff;
      }

      .cls-2, .cls-6 {
        fill: #333;
      }

      .cls-2 {
        font-size: 24px;
      }

      .cls-2, .cls-5, .cls-6 {
        font-family: MicrosoftYaHei, Microsoft YaHei;
      }

      .cls-3, .cls-8 {
        fill: none;
      }

      .cls-4 {
        fill: #fff0f2;
      }

      .cls-5, .cls-7 {
        fill: #e94861;
      }

      .cls-5, .cls-6 {
        font-size: 20px;
      }

      .cls-8 {
        stroke: #707070;
        stroke-linecap: round;
        stroke-miterlimit: 10;
        stroke-width: 3px;
      }

      .cls-9 {
        fill: #707070;
      }
    </style>
  </defs>
  <g id="组_4860" data-name="组 4860" transform="translate(-34 -1007)">
    <rect id="矩形_1992" data-name="矩形 1992" class="cls-1" width="680" height="180" rx="5" transform="translate(34 1007)"/>
    <g id="组_4545" data-name="组 4545" transform="translate(-2 100)">
      <text id="送礼玩法" class="cls-2" transform="translate(95 952)"><tspan x="0" y="0">送礼玩法</tspan></text>
      <g id="组_4536" data-name="组 4536" transform="translate(0 -39)">
        <rect id="矩形_1986" data-name="矩形 1986" class="cls-3" width="30" height="30" transform="translate(55 967)"/>
        <g id="组_4551" data-name="组 4551" transform="translate(-4 -5)">
          <circle id="椭圆_430" data-name="椭圆 430" class="cls-4" cx="12" cy="12" r="12" transform="translate(62 975)"/>
          <text id="_" data-name="?" class="cls-5" transform="translate(69 995)"><tspan x="0" y="0">?</tspan></text>
        </g>
      </g>
    </g>
    <g id="组_4559" data-name="组 4559" transform="translate(14)">
      <g id="组_4558" data-name="组 4558" transform="translate(16)">
        <g id="组_4546" data-name="组 4546" transform="translate(34 -76)">
          <text id="挑选礼物" class="cls-6" transform="translate(84 1192)"><tspan x="0" y="0">挑选礼物</tspan></text>
          <text id="送上祝福" class="cls-6" transform="translate(84 1218)"><tspan x="0" y="0">送上祝福</tspan></text>
        </g>
        <g id="组_4549" data-name="组 4549" transform="translate(-45 -1)">
          <circle id="椭圆_423" data-name="椭圆 423" class="cls-4" cx="25" cy="25" r="25" transform="translate(98 1097)"/>
          <g id="组_4538" data-name="组 4538" transform="translate(-2671 -775)">
            <g id="组_4475" data-name="组 4475">
              <rect id="矩形_1951" data-name="矩形 1951" class="cls-3" width="30" height="30" transform="translate(2779 1882)"/>
              <g id="组_4474" data-name="组 4474" transform="translate(2534.192 1669.706)">
                <path id="路径_6701" data-name="路径 6701" class="cls-7" d="M346.846,214.052c-1.448-1.448-4.247-.193-6.274,1.834a.956.956,0,1,0,1.351,1.351c1.737-1.737,3.378-2.027,3.571-1.834s-.1,1.834-1.834,3.571a7.865,7.865,0,0,1-2.51,1.737c-.676.29-.965.193-1.062.1a.337.337,0,0,0-.193-.1c.1-1.351-.772-3.185-2.413-4.923-2.413-2.413-5.019-3.185-6.371-1.834s-.483,3.958,1.834,6.371a7.38,7.38,0,0,0,4.73,2.51,2.216,2.216,0,0,0,1.351-.386,2.5,2.5,0,0,0,1.351.386,4.764,4.764,0,0,0,1.448-.29,9.2,9.2,0,0,0,3.185-2.124C347.039,218.3,348.294,215.5,346.846,214.052Zm-8.88,6.757c-.193.193-1.834-.1-3.571-1.834-1.834-1.834-2.027-3.378-1.834-3.571s1.834.1,3.571,1.834C337.966,218.975,338.159,220.52,337.966,220.809Z" transform="translate(-78.768 0)"/>
                <path id="路径_6702" data-name="路径 6702" class="cls-7" d="M269.43,372.736H251.186a3.3,3.3,0,0,0-3.378,3.378v4.633a.912.912,0,0,0,.965.965h.676v9.266a2.349,2.349,0,0,0,2.317,2.317h16.988a2.313,2.313,0,0,0,2.22-2.22v-9.363h.869a.912.912,0,0,0,.965-.965v-4.633A3.3,3.3,0,0,0,269.43,372.736Zm-19.691,3.378a1.484,1.484,0,0,1,1.448-1.448H269.43a1.484,1.484,0,0,1,1.448,1.448v3.668H249.739Zm19.305,14.961a.435.435,0,0,1-.29.29H251.766a.415.415,0,0,1-.386-.386v-9.266h17.664Z" transform="translate(0 -151.927)"/>
              </g>
            </g>
          </g>
        </g>
      </g>
      <g id="组_4557" data-name="组 4557" transform="translate(-8)">
        <g id="组_4547" data-name="组 4547" transform="translate(124 -75)">
          <text id="支付订单" class="cls-6" transform="translate(238 1192)"><tspan x="0" y="0">支付订单</tspan></text>
          <text id="赠送礼物" class="cls-6" transform="translate(238 1218)"><tspan x="0" y="0">赠送礼物</tspan></text>
        </g>
        <g id="组_4553" data-name="组 4553" transform="translate(8 -2)">
          <circle id="椭圆_424" data-name="椭圆 424" class="cls-4" cx="25" cy="25" r="25" transform="translate(289 1099)"/>
          <g id="组_4540" data-name="组 4540" transform="translate(172.017 984.064)">
            <path id="路径_6728" data-name="路径 6728" class="cls-7" d="M153.027,199.823c.005,0,.23.031.1.005.047.01.089.026.136.037.168.037-.058-.047.094.037.042.021.079.047.12.068.147.089-.042-.063.079.063.031.037.063.063.094.1-.068-.079.021.031.037.052s.1.215.068.115a.75.75,0,0,1,.058.366v12.056c0,.042-.026.283-.01.183a1.761,1.761,0,0,1-.094.335c.037-.094-.005.01-.016.026-.042.068-.079.141-.12.2-.068.1.1-.1-.037.052-.037.042-.079.084-.115.126s-.084.079-.126.115c.079-.063-.01.005-.026.01-.058.031-.12.068-.178.1-.11.063-.058.026-.026.016a1.255,1.255,0,0,1-.2.063c-.021.005-.215.047-.094.026a8.624,8.624,0,0,1-1.22.01H136.694c-1.581,0-3.167.005-4.748,0h-.084a1.544,1.544,0,0,1-.22-.01c.115.016-.031-.01-.063-.021l-.168-.047a1.292,1.292,0,0,1-.817-1.283v-15.8a1.564,1.564,0,0,1,.1-.733c-.047.12.047-.084.047-.084a.86.86,0,0,1,.073-.115c.094-.168-.073.063.058-.079.031-.031.063-.068.094-.1s.084-.079.126-.115c.094-.073-.126.068.052-.037.047-.026.1-.058.147-.089l.094-.047c-.058.026-.052.021.026-.01.047-.016.089-.026.136-.042.005,0,.23-.047.094-.026a1.544,1.544,0,0,1,.22-.01h4.67a.691.691,0,0,0,0-1.382h-3.256c-.461,0-.921-.005-1.382,0a2.674,2.674,0,0,0-2.371,1.413,4.562,4.562,0,0,0-.309,2.2v15.108a2.682,2.682,0,0,0,.927,2.052,2.745,2.745,0,0,0,1.785.639h20.511a2.692,2.692,0,0,0,2.748-2.67c.026-2.073,0-4.151,0-6.224,0-1.958.042-3.921,0-5.884a2.211,2.211,0,0,0-2.167-2.173.7.7,0,0,0-.691.691.717.717,0,0,0,.7.712Z" transform="translate(-0.225 -63.769)"/>
            <path id="路径_6729" data-name="路径 6729" class="cls-7" d="M326.495,133.787q2.623-1.555,5.24-3.11c.66-.393,1.309-.79,1.974-1.173a1.537,1.537,0,0,1,.984-.168c-.1-.016.01.005.026.01.068.016.136.031.2.052l.131.047c-.094-.042.01.01.026.016.058.037.12.068.178.1.01.01.1.079.026.016a1.431,1.431,0,0,1,.131.12c.021.021.152.178.094.1.2.283.356.613.529.911.571,1,1.141,2,1.712,3a.691.691,0,0,0,1.194-.7l-1.555-2.733c-.2-.351-.393-.707-.6-1.052a2.721,2.721,0,0,0-2.612-1.293,6.619,6.619,0,0,0-2.565,1.178q-1.743,1.037-3.487,2.068c-.78.461-1.555.921-2.335,1.382a.7.7,0,0,0,.707,1.209Z" transform="translate(-189.774 0)"/>
            <path id="路径_6730" data-name="路径 6730" class="cls-7" d="M152.771,198.259H131.642a1.244,1.244,0,0,1-1.031-.5,1.217,1.217,0,0,1-.246-.754.691.691,0,0,0-1.382,0,2.672,2.672,0,0,0,2.68,2.633h18.092c.989,0,1.984.031,2.968,0h.042a.691.691,0,0,0,.005-1.382Zm-2.968-3.078c.288-.01.576-.026.869-.01.021,0,.152-.005.162.01-.12-.016-.147-.021-.079-.01l.063.016c.157.063-.126-.073-.031-.021.126.068-.084-.073-.047-.042.094.089-.1-.141-.037-.047.079.126-.016-.131-.01-.031a.532.532,0,0,0,.031.131c.042.115-.01-.178,0-.005.016.3.021.6.021.906a.691.691,0,0,0,1.382,0c0-.623.084-1.45-.408-1.926s-1.288-.372-1.911-.351a.7.7,0,0,0-.691.691A.689.689,0,0,0,149.8,195.181ZM133.993,206.8h5.136a.629.629,0,0,0,0-1.256h-5.136A.629.629,0,0,0,133.993,206.8Zm0,1.806h5.136a.629.629,0,0,0,0-1.256h-5.136A.629.629,0,0,0,133.993,208.6Z" transform="translate(0 -63.592)"/>
            <path id="路径_6731" data-name="路径 6731" class="cls-7" d="M333.8,538.984v-4.565a.629.629,0,0,0-1.256,0v4.565A.629.629,0,0,0,333.8,538.984Z" transform="translate(-196.61 -392.025)"/>
            <path id="路径_6732" data-name="路径 6732" class="cls-7" d="M334.827,457.909c.565-.9,1.126-1.8,1.691-2.707.429-.686-.654-1.319-1.084-.633-.565.9-1.126,1.8-1.691,2.706C333.314,457.961,334.4,458.589,334.827,457.909Z" transform="translate(-197.678 -315.201)"/>
            <path id="路径_6733" data-name="路径 6733" class="cls-7" d="M283.951,457.46c-.586-.885-1.173-1.775-1.759-2.659a.642.642,0,0,0-.859-.225.631.631,0,0,0-.225.859c.586.885,1.173,1.775,1.759,2.659a.642.642,0,0,0,.859.225A.635.635,0,0,0,283.951,457.46Zm7.167,5.5h6.47a.691.691,0,0,0,0-1.382h-6.47A.691.691,0,0,0,291.118,462.962Z" transform="translate(-146.849 -315.411)"/>
          </g>
        </g>
      </g>
      <g id="组_4556" data-name="组 4556" transform="translate(5)">
        <g id="组_4548" data-name="组 4548" transform="translate(23 -7)">
          <text id="领取礼物" class="cls-6" transform="translate(546 1123)"><tspan x="0" y="0">领取礼物</tspan></text>
          <text id="商家发货" class="cls-6" transform="translate(546 1149)"><tspan x="0" y="0">商家发货</tspan></text>
        </g>
        <g id="组_4554" data-name="组 4554" transform="translate(-52)">
          <circle id="椭圆_425" data-name="椭圆 425" class="cls-4" cx="25" cy="25" r="25" transform="translate(556 1096)"/>
          <g id="组_4541" data-name="组 4541" transform="translate(500.8 1000.6)">
            <path id="路径_6734" data-name="路径 6734" class="cls-7" d="M171.69,311.9a.773.773,0,0,1-.832-.691v-5.816a.846.846,0,0,1,1.664,0v5.816A.773.773,0,0,1,171.69,311.9Zm-4.994,0a.773.773,0,0,1-.832-.691v-5.816a.846.846,0,0,1,1.664,0v5.816A.773.773,0,0,1,166.7,311.9Zm2.7,5.308a4.157,4.157,0,1,0,2.565,3.841A4.147,4.147,0,0,0,169.4,317.206Zm-1.58,6.33a2.5,2.5,0,1,1,2.5-2.5A2.493,2.493,0,0,1,167.819,323.536Zm16.552-6.323a4.158,4.158,0,1,0,2.562,3.841A4.153,4.153,0,0,0,184.37,317.213Zm-1.6,6.32a2.489,2.489,0,1,1,2.5-2.489A2.493,2.493,0,0,1,182.774,323.533Z" transform="translate(-95.166 -191.676)"/>
            <path id="路径_6735" data-name="路径 6735" class="cls-7" d="M84.013,130.2H76.808c-.371,0-.6-.421-.6-.865s.227-.8.6-.8h7.205c.371,0,.585.354.585.8S84.384,130.2,84.013,130.2Zm-15.105.879a3.712,3.712,0,0,1-3.708-3.708V110.365a3.97,3.97,0,0,1,3.965-3.965H80.84a1.472,1.472,0,0,1,1.47,1.47v14.885a.8.8,0,1,1-1.6,0V108H69.165a2.364,2.364,0,0,0-2.362,2.362v17.006a2.108,2.108,0,0,0,2.1,2.1.8.8,0,1,1,0,1.6Zm22.611,0a.8.8,0,1,1,0-1.6,2.08,2.08,0,0,0,2.078-2.024L91.225,111.7v-.06a.871.871,0,0,0-.868-.868H85.089v10.616h4.757a.8.8,0,1,1,0,1.6H84.664a1.181,1.181,0,0,1-1.179-1.179v-11.04a1.6,1.6,0,0,1,1.6-1.6h5.268a2.475,2.475,0,0,1,2.472,2.405L95.2,127.334v.06a3.687,3.687,0,0,1-3.681,3.684Z"/>
          </g>
        </g>
      </g>
      <g id="组_1467" data-name="组 1467" transform="translate(-2915 -527)">
        <line id="直线_212" data-name="直线 212" class="cls-8" x2="30" transform="translate(3149 1649.322)"/>
        <path id="路径_218" data-name="路径 218" class="cls-9" d="M.956.621.024,6.988a.718.718,0,0,0,1.087.776l5.9-2.329c.621-.155.621-.932.155-1.4L2.2.155A.782.782,0,0,0,.956.621Z" transform="matrix(-0.616, -0.788, 0.788, -0.616, 3177.804, 1654.529)"/>
      </g>
      <g id="组_4555" data-name="组 4555" transform="translate(-2695 -527)">
        <line id="直线_212-2" data-name="直线 212" class="cls-8" x2="30" transform="translate(3149 1649.322)"/>
        <path id="路径_218-2" data-name="路径 218" class="cls-9" d="M.956.621.024,6.988a.718.718,0,0,0,1.087.776l5.9-2.329c.621-.155.621-.932.155-1.4L2.2.155A.782.782,0,0,0,.956.621Z" transform="matrix(-0.616, -0.788, 0.788, -0.616, 3177.804, 1654.529)"/>
      </g>
    </g>
  </g>
</svg>
