<svg xmlns="http://www.w3.org/2000/svg" width="50" height="50" viewBox="0 0 50 50"><defs><style>.a{fill:#f85d9a;}.b{fill:#fff;}</style></defs><g transform="translate(-109 -820)"><rect class="a" width="50" height="50" rx="25" transform="translate(109 820)"/><g transform="translate(-1740.325 1384.306)"><path class="b" d="M12.39,6.423C5.558,6.423,0,4.943,0,3.123,0,1.713,3.368.458,8.381,0l2.485,2.092c-1.1.14-1.78.412-1.78.713,0,.443,1.483.8,3.3.8s3.3-.361,3.3-.8c0-.287-.639-.554-1.667-.7l2.489-2.1C21.46.477,24.78,1.728,24.78,3.123,24.78,4.943,19.222,6.423,12.39,6.423Z" transform="translate(1861.935 -531.595)"/><path class="b" d="M10.115,24.409h0L2.968,17.262a10.085,10.085,0,1,1,14.294,0l-7.146,7.146Zm0-18.608a4.22,4.22,0,1,0,4.22,4.22A4.225,4.225,0,0,0,10.115,5.8Z" transform="translate(1864.284 -553.298)"/></g></g></svg>