<svg xmlns="http://www.w3.org/2000/svg" width="50" height="50" viewBox="0 0 50 50"><defs><style>.a{fill:#6a81fa;}.b,.c{fill:#fff;}.b{fill-rule:evenodd;}</style></defs><g transform="translate(-243 -820)"><rect class="a" width="50" height="50" rx="25" transform="translate(243 820)"/><g transform="translate(-1739.499 1385.313)"><g transform="translate(2008.079 -536.665)"><path class="b" d="M11.471,10.218a1.886,1.886,0,0,0,1.881-1.881V2.381A1.886,1.886,0,0,0,11.471.5H2.381A1.9,1.9,0,0,0,.5,2.381V8.337a1.9,1.9,0,0,0,1.881,1.881H8.506l2.6,1.931Z" transform="translate(-0.5 -0.5)"/><g transform="translate(2.933 4.089)"><circle class="a" cx="0.882" cy="0.882" r="0.882" transform="translate(0)"/><circle class="a" cx="0.882" cy="0.882" r="0.882" transform="translate(2.794)"/><circle class="a" cx="0.882" cy="0.882" r="0.882" transform="translate(5.588)"/></g></g><g transform="translate(1994.514 -555.333)"><circle class="c" cx="6.354" cy="6.354" r="6.354" transform="translate(4.509)"/><path class="c" d="M11.065,14.191C4.964,14.191,0,12.473,0,10.361a1.419,1.419,0,0,1,.016-.208A1.714,1.714,0,0,1,0,9.922l.071-.658c.023-.234.042-.35.082-.578L.16,8.63A10.257,10.257,0,0,1,3.755,2.589,11.48,11.48,0,0,1,10.679.008C10.8,0,10.914,0,11.032,0H11.1c.117,0,.236,0,.353.008A11.254,11.254,0,0,1,19.874,4.1H14.782a2.184,2.184,0,0,0-2.155,2.155v6.825a2.124,2.124,0,0,0,.284,1.056C12.3,14.173,11.678,14.191,11.065,14.191Z" transform="translate(0 13.666)"/></g></g></g></svg>