<svg height="50" viewBox="0 0 50 50" width="50" xmlns="http://www.w3.org/2000/svg"><circle cx="25" cy="25" fill="#00aa1c" r="25"/><g stroke-miterlimit="10"><path d="m172 1283.9v-8.936a4.991 4.991 0 0 1 4.976-4.976h2.024" fill="none" stroke="#fff" stroke-linecap="round" stroke-width="1.5" transform="translate(-162.111 -1261.517)"/><path d="m197.052 1269.983h1.586a4.991 4.991 0 0 1 4.976 4.976v8.936" fill="none" stroke="#fff" stroke-linecap="round" stroke-width="1.5" transform="translate(-163.503 -1261.517)"/><path d="m20.496 8.466h8.754" fill="#00aa1c" stroke="#fff" stroke-linecap="round" stroke-width="1.5"/><path d="m181.5 1277.483 5.667 5.667 5.667-5.667" fill="none" stroke="#fff" stroke-linecap="round" stroke-width="1.5" transform="translate(-162.639 -1261.934)"/><path d="m17.445 22.633h14.167" fill="none" stroke="#fff" stroke-linecap="round" stroke-width="1.5"/><path d="m17.917 28.299h14.167" fill="none" stroke="#fff" stroke-linecap="round" stroke-width="1.5"/><path d="m24.528 21.216v14.167" fill="none" stroke="#fff" stroke-linecap="round" stroke-width="1.5"/><g fill="#fff" transform="translate(-162 -1262.615)"><path d="m174.36843872 1304.57543945h-.56422424-1.50923157-.55296326l.05548096-.5501709c.07794189-.77270507.1174469-1.5168457.1174469-2.21179199v-4.21081543c-.16915894.26330567-.35040283.52941895-.54296875.79699707l-.5118866.71118164-.35185241-.80249023c-.16445923-.37512207-.4209137-.67419434-.78399659-.91418457l-.45071411-.29797363.33197022-.42639161c1.82215881-2.33984375 2.84381103-4.66040039 3.03662109-6.89746093l.0508728-.59008789.57319642.14916992c.60842895.15832519 1.07957458.29162598 1.40032959.3963623.47537231.15515137.69136047.25708008.79830932.48681641.04203797.09033203.05711365.1887207.04525757.2845459-.01055908.1418457-.06481934.33215332-.24038696.52282715-.35353089.44787597-.7188263 1.19079589-1.08638001 2.20935058v1.67089844c.41479492-.04504395 1.01794434-.1652832 1.79454041-.35803223l.00926208-.00219726.00933838-.00195313.78022766-.16235351c-.03773498-.51538086-.08799743-1.14587403-.15002441-1.8815918l-.00032044-.00366211-.0002594-.00378418c-.08241272-1.19006348-.16026306-2.06408691-.23799133-2.67224121l-.07922363-.61950684.62191772.05834961c.38500977.03613282.81230164.07470703 1.38543701.12524414l.00660706.00061036.00657654.00073242c.20227051.02319336.35383606.04675293.46331787.07202148.4556427.10498047.52366638.38989258.52366638.55041504v.20288086l-.1413269.14550781-.01478577.01525879c-.04542541.0892334-.10015869.23840332-.14186096.48156738l.44551086-.26867675 1.14656067-.69128418.40029907-.24133301.26773072.38317871c.32138061.45996094.85194397 1.24511719 1.57688903 2.33349609l.28556824.42883301-.04570007.02844238c.05369568-.02111816.10440063-.04248046.15193176-.06420898.15396118-.07836914.27748108-.11352539.39906311-.11352539h.40252686l.08595276.39318848.30220031 1.38269043.05751038.26306152-.1880188.19287109c-.12145996.12451172-.28881836.19653321-.61749268.26586914l-.05101013.01074219h-.05212402c-.36358643 0-.79133606.05859375-1.27139282.1739502l-.00671387.00170898-.00672913.00134277-3.09403991.65454102c.50288391 2.83410645 1.41333008 4.7208252 2.71250915 5.62316895.05783081-.23925782.11630249-.62902832.14012146-1.25793457l.04850769-1.28076172.83160401.97521972c.27127075.31823731.70083618.6126709 1.27674865.87536621l.29249573.13342286v.3215332c0 .09985351-.02267456.20874023-.08364868.40185547l-.00091553.00280761-.0009613.00292969c-.7000885 2.12622071-1.12501526 2.54223633-1.62240601 2.54223633h-.01603698l-.01600647-.00097656c-1.46443177-.09411621-2.70512391-.87561035-3.68765259-2.32287598-.86769104-1.27807617-1.55413819-3.12036133-2.0431366-5.48156738l-.50862121.12438965c-.69187928.20068359-1.27235413.40136718-1.72595215.5970459-.18412781.09472656-.30564881.131958-.42941284.131958-.06668091 0-.13099671-.01159668-.19085694-.03417968v4.47546386c0 .81860352.03945923 1.55944824.1172638 2.20178223zm4.63671875-13.64233398c-.03059387.20947266-.05143738.48034668-.05143738.82958984 0 .60009766.01286316 1.2956543.0382843 2.07397461l1.70085144-.40332031c-.40376281-.80712891-.85855102-1.51367188-1.35350036-2.10253906z"/><path d="m173.80421448 1304.07543945c-.08122254-.67053222-.12089539-1.42419433-.12089539-2.26196289v-8.66906738c.40234375-1.13049316.80561829-1.9473877 1.20794678-2.4498291.08029175-.08312988.12089538-.16711426.12089538-.2512207.0396576-.08312989-.58367919-.29284668-1.8718872-.62805176-.20211792 2.34509277-1.24855042 4.73254394-3.14027405 7.16174316.44293213.29284668.76405334.66955567.96615601 1.13049317.48260498-.67053223.88494873-1.31933594 1.20794677-1.94750977.08027649-.16711426.15960694-.31445313.24084473-.44006348v6.09350586c0 .71215821-.03967285 1.46582032-.1199646 2.26196289zm8.99678039-.2512207c.28144837 0 .66488648-.73291016 1.14749146-2.1986084.03967285-.12561035.06044006-.20959472.06044006-.2512207-.644104-.29382324-1.12765503-.62817383-1.44970703-1.00585938-.03967285 1.04748536-.18040466 1.696167-.42216492 1.94750977-1.77177429-.87927246-2.93911743-3.11962891-3.5019989-6.72167969l3.56243897-.75366211c.52227783-.12561035.98599243-.18786621 1.38832092-.18786621.20211792-.04260254.32206726-.08410644.3626709-.12573242l-.30221558-1.38269043c-.03967285 0-.10011291.02172852-.1803894.06335449-.3626709.16711426-.8670044.31359863-1.51016236.44006348l-3.44155883.81604004c-.04060364-1.04638672-.06044007-1.94750977-.06044007-2.70117188 0-.79516601.10011292-1.36096191.30221558-1.69616699l.06045532-.06225586c0-.04260254-.18133545-.08410644-.54400635-.12573242-.48260498-.04248047-.94633484-.08398438-1.38833618-.12548828.08027649.62792969.15960694 1.5279541.24084473 2.7010498.08122253.96337891.1416626 1.73779297.18132019 2.32421875l-1.20794678.25122071c-.84527588.20971679-1.48937988.33532714-1.93138122.37683105h-.12089539l.30128479 1.44506836c0 .01379395.00897217.02075195.02687073.02075195.03590393 0 .10772705-.0279541.21490478-.08398437.48355103-.2097168 1.08705139-.41845703 1.81143189-.62817383l1.02662658-.2512207c.96615601 5.10949707 2.75683594 7.74731445 5.37388611 7.91540527m-1.56967163-10.42858887 1.20794678-.75354004c-.72532654-1.08898925-1.24855042-1.86340332-1.57061768-2.32434082l-1.14654541.69128418c.56288147.66967774 1.06532288 1.46582032 1.50921631 2.38659668m-6.29866028 11.67980957h-1.12844848-1.50923157-1.10591125l.11096191-1.10034179c.07624817-.75610352.11491394-1.48339844.11491394-2.1616211v-2.61767578l-.66091919.91833496-.70372009-1.60498047c-.12461853-.28430175-.32148743-.51257324-.6018219-.69799804l-.90142822-.59594727.66395568-.85253906c1.76179505-2.2623291 2.7485962-4.49414063 2.93295288-6.63317871l.10171509-1.18029785 1.14642334.29833984c.62690735.16308594 1.09451294.29553223 1.42953491.40490723.40393067.13183593.86061097.28088379 1.0822754.72180175-.00393677-.03210449-.00787354-.06359863-.01179505-.09436035l-.15843201-1.23925781 1.24383545.11682129c.38401795.03601074.81039429.07458496 1.38253785.125l.01319885.00109863.01316833.00146485c.2241211.02575683.38893128.05163574.51863098.08154296.63958741.14746094.83146668.56652832.88812256.83190918l.55912781-.33703613.80062866-.48278808.53544617.76635742c.32806396.46948242.84591675 1.23583984 1.58317566 2.34277343l.06590271.09887696c.09355163-.02526856.19726562-.04223633.30880737-.04223633h.80503845l.17190552.78649902.30221558 1.38269043.11499023.52612305-.37602234.38562012c-.22634887.23205566-.51240539.33007812-.87229919.40600586l-.10202026.02148437h-.10426331c-.32423401 0-.712677.05383301-1.15447998.16015625l-.01339722.00317383-.01345825.00292969-2.61549377.55322265c.38801574 1.92663575.9763031 3.34204102 1.75749206 4.23144532.00521851-.0847168.00976563-.17553711.01345825-.27307129l.09700013-2.56152344 1.66319274 1.95056152c.22351075.26208496.59489441.51269532 1.10382081.74487305l.58497619.2668457v.64294434c0 .1776123-.04272461.34924316-.10687256.55236816l-.00183105.00585938-.00189209.0057373c-.26057434.79138184-.4936676 1.37988281-.71261597 1.79907227-.1552124.29724121-.5675354 1.08679199-1.38471985 1.08679199h-.03207397l-.0320282-.0020752c-1.62644958-.10449218-2.99554443-.95935058-4.0692749-2.54089355-.85362244-1.25732422-1.51461792-2.95043945-2.01016236-5.15454102-.65904235.19140625-1.21066284.38171387-1.64051818.56604004-.10380555.05285645-.21385193.10229493-.33361817.13574219v3.98498535c0 .79858399.03823853 1.51916504.1136322 2.14172364zm-.24934387-11.75610351v1.00073242c.32548523-.06066895.71794129-.14794922 1.1741333-.2611084l.01852417-.00463867.0186615-.00378418.35054016-.07299805c-.03240967-.42065429-.07141113-.9017334-.11674499-1.43945312l-.00062561-.00744629-.0005188-.00744629c-.04954529-.71520996-.0973053-1.3145752-.14427185-1.80895996-.04171753.1920166-.13603211.41345215-.33103943.63061523-.21897888.28161621-.55612183.84851075-.96865845 1.97448731zm4.7736969-1.00817871c.00325012.28222656.00888062.58166504.01689148.89746093l.47328186-.11230468c-.15704346-.27709961-.32064819-.53918457-.49017334-.78515625z" fill="#00aa1c"/></g><g fill="#fff" transform="translate(-163.165 -1262.604)"><path d="m195.52099609 1304.68994141h-.5-1.56967163-.5v-.5-.18884278-.02990722l.0035553-.02966309c.07723999-.64416504.11639404-1.51159668.11639404-2.57824707v-4.03161621c-.1638031.29150391-.3197937.55297851-.46731567.78320312l-.3054657.47692872-.43533325-.36218262-1.20793152-1.00488281-.40354919-.33569336.35496521-.38684082c1.66685486-1.81604004 2.88745117-4.19604493 3.62788391-7.07385254l.131073-.50927735.50205993.15661621c1.69770813.52954102 2.16255188.80773926 2.16255188 1.29418946 0 .22045898-.1229248.39233398-.3212738.59814453l-.04277039.04443359-.05226135.03259278c-.1862793.11645507-.24795532.19409179-.26583862.22204589l-.02693177.04223633-.03475952.03601074c-.0289154.02990723-.1947174.23254395-.62052917 1.28515625l-.00601196.01489258-.00695801.0144043c-.02748108.05712891-.05401612.11120605-.07965088.16235351h.23260498.24177551.03259278l.03233337.00427247c.61564636.0805664 1.243927.12145996 1.86740112.12145996h3.06245423v-1.57299805c0-.38391113-.0376587-.77490234-.11193848-1.1619873l-.00895691-.04675293v-.04748536-.18884277-.54016113l.53857422.04162597c1.58157349.12243653 1.99937439.25244141 2.1288147.66259766l.0231781.07348633v.07702637c0 .09472656-.02189637.22753906-.11434937.36560058-.0856781.26147461-.12742615.53308106-.12742615.82800293v1.5065918c.61790467-.01123047 1.15486145-.05041504 1.60023499-.11694336l.0367279-.00549317h.0371399.12089538.5v.5 1.44506836.5h-.5-.12089538-.04318238l-.0425415-.00744628c-.38136291-.06628418-.91453552-.10498047-1.58837891-.11523438v7.45739746c.06565857.99365234-.44529724 1.35327149-.78306579 1.48181152-.47758484.23657227-1.35328674.40869141-2.74874878.54077149l-.45941162.04345703-.08007813-.45446777c-.07437133-.42199707-.22511291-.91113282-.44805908-1.45373535l-.05415344-.1126709-.40863037-.84973145.93269348.13842774c.4156189.06176757.77302551.09313964 1.06227112.09313964.48390197 0 .64451599-.08789062.68019104-.11279296.00013733-.01159668-.00117493-.03283692-.008667-.06604004l-.01223754-.05432129v-.05566407-6.59838867h-3.06245423c-.70094299 0-1.34822082.04064942-1.92385864.12072754l-.0342865.00476074h-.03462219-.18133545-.4057312v6.09606934c0 1.10864258.03929138 1.97460938.11676025 2.57373047l.00413513.03186035v.03222656.18884278zm3.00386048-4.00952149-.21827698-.49975586c-.58003235-1.32788086-1.18360901-2.3638916-1.79400635-3.07897949l-.40025329-.46887207.54148864-.2947998 1.26838684-.69055176.33520508-.18249512.26443482.27514648c.6529541.6796875 1.29771423 1.7767334 1.97114563 3.35375977l.17855835.41821289-.39936829.21740723-1.26837158.69030761z"/><path d="m195.02099609 1304.18994141v-.18884278c-.08122253-.62805175-.12089538-1.50732422-.12089538-2.63781738v-8.35546875c.08029175-.12561035.18133545-.31359863.30223083-.56481934.32206726-.79614257.56288147-1.27783203.72439575-1.44506836.08026124-.12561035.22099305-.25109863.42214966-.37683105.12089539-.12548828.18133545-.20959473.18133545-.2512207 0-.16809082-.60348511-.44006348-1.81144714-.81689453-.76498413 2.97314453-2.01353455 5.40222168-3.74375916 7.28735351l1.20793152 1.00488281c.40232849-.62805175.86511231-1.48657226 1.38833618-2.57556152v6.09362793c0 1.08898926-.03965759 1.96813965-.11994934 2.63781738v.18884278zm4.77038575-.06323243c1.32789611-.12561035 2.1939392-.29284668 2.59628295-.5024414.36265564-.12561035.52227784-.4609375.48262024-1.00500488v-7.97753907h.12088013c.88493347 0 1.57060242.04150391 2.05322266.12548828h.12089538v-1.44506836h-.12089538c-.56384278.08422852-1.24761963.12573243-2.05322266.12573243h-.12088013v-2.0098877c0-.37768555.06044007-.73278808.18132019-1.06811523.03967286-.0423584.06045533-.08398438.06045533-.12548828-.03967285-.12573243-.60351563-.23046875-1.69056702-.3145752v.18884277c.08029175.41845704.12089539.83776856.12089539 1.25622559v2.07299805h-3.56245423c-.644104 0-1.28916931-.04150391-1.93232727-.12573243h-.24177551v1.44506836h.18133545c.60350036-.08398437 1.26838684-.12548828 1.99276733-.12548828h3.56245423v7.09838867c.11862182.52612305-.26733399.78881836-1.1592865.78881836-.31530762 0-.69395447-.03295898-1.13572693-.09851074l.06045532.12573242c.24177551.58642579.40232849 1.10961914.48355103 1.57055664m-1.02659607-4.14611816 1.26837158-.69030762c-.64410401-1.50842285-1.26837158-2.57556152-1.87188721-3.20373535l-1.26838684.69055176c.64317322.75354004 1.26838684 1.82177734 1.87190247 3.20349121m.20195007 5.2286377-.16017151-.90893555c-.0675354-.38330078-.20632934-.83300781-.4125824-1.33703613l-.04782104-.09948731-.817276-1.69958496.70756531.10510254-.38806153-.88842773c-.56031799-1.28283692-1.13771057-2.27685547-1.71611023-2.95458985l-.23217773-.27197265v4.20898437c0 1.08728027.03788757 1.93164063.11264038 2.50952148l.008255.06396485v.06433105.18884278 1h-1-1.56967163-1v-1-.18884278-.05969238l.0071106-.05932617c.07487488-.62451172.11283874-1.47192383.11283874-2.51879883v-2.27038574l-.1572113.24536133-.8706665-.72424317-1.20793152-1.00488281-.80712891-.67150879.70994568-.7734375c1.61065674-1.75488281 2.7922821-4.06311035 3.51202393-6.86035156l.26211547-1.01867676 1.00415039.31323242c.64875794.20239258 1.13023377.37561035 1.47193909.52966309.28491211.12854004 1.04170227.46972656 1.04170227 1.24182129 0 .40991211-.22166443.69641113-.46121216.94506836l-.08554077.08874511-.1045227.06530762c-.07261658.04541016-.1094513.07641602-.12359619.08935547l-.03981018.06225586-.05345154.05541992c-.02642823.03747559-.12724304.19470215-.33625794.67321777.54658509.06542969 1.10226441.09863282 1.65411377.09863282h2.56245423v-1.07299805c0-.35241699-.03465271-.71166992-.10298157-1.06774902l-.01791382-.09338379v-.09509278-.18884277-1.08032227l1.07714844.08325196c.5846405.04528808 1.02418518.0961914 1.34376526.15563965.30310058.05639648 1.01290893.18835449 1.22329712.85510254l.0463562.14685058v.15405274c0 .15319824-.0310669.36108398-.15641785.57653808-.05734253.1940918-.08535767.39709473-.08535767.61706543v.98999024c.38470459-.01855469.72802735-.05029297 1.02635193-.09484864l.07347107-.01098633h.07427979.12089538 1v1 1.44506836 1h-1-.12089538-.08636475l-.08506775-.0147705c-.25718689-.04479981-.59275818-.07604981-1.00267029-.09375v6.92749023c.08000184 1.31079102-.67356872 1.79187012-1.07928466 1.95458984-.37461853.18322754-1.06622315.40747071-2.90544129.58154297zm-.53204346-3.91052247.95957947.14257813c.39138794.05810547.72407532.08764648.98883057.08764648.06028747 0 .11317444-.00158691.1592865-.00415039v-1.37316894l-.03118897.01696777-1.26837158.69030762zm.67124939-5.65698242c.4813385.56713867.95579529 1.34179688 1.43644715 2.34606934v-2.34606934zm-3.20584106.12548828v.41174317l.51461792-.28015137.3934021-.21411133c-.23797608.01843262-.4660492.04272461-.68312073.07299805l-.06858826.00952148h-.06924438z" fill="#00aa1c"/></g></g></svg>