<svg xmlns="http://www.w3.org/2000/svg" width="50" height="50" viewBox="0 0 50 50"><defs><style>.a{fill:#fd6935;}.b{fill:#fff;}</style></defs><g transform="translate(-186 -909)"><rect class="a" width="50" height="50" rx="25" transform="translate(186 909)"/><path class="b" d="M26.354,22.053H2a2,2,0,0,1-2-2V2A2,2,0,0,1,2,0H12.6V3.938H4.938a1,1,0,0,0-1,1V17.114a1,1,0,0,0,1,1H23.415a1,1,0,0,0,1-1v-5.3h3.938v8.24A2,2,0,0,1,26.354,22.053Z" transform="translate(196.882 924.679)"/><path class="b" d="M30.744.5V5.266S19.04,5.516,17.45,16.3a16.029,16.029,0,0,1,13.294-3.846V17.47l8.2-8.15Z" transform="translate(186.679 921.657)"/></g></svg>