<svg xmlns="http://www.w3.org/2000/svg" width="50" height="50" viewBox="0 0 50 50"><defs><style>.a{fill:#178cda;}.b{fill:#fff;}.c{fill:none;stroke:#fff;stroke-linecap:round;stroke-linejoin:round;stroke-miterlimit:10;stroke-width:1.5px;}</style></defs><g transform="translate(-55 -1330)"><rect class="a" width="50" height="50" rx="25" transform="translate(55 1330)"/><g transform="translate(66.663 1344.589)"><path class="b" d="M7.676,16.723c6.854,6.854,12.2,8.91,14.119,6.991l2.193-2.193a1.325,1.325,0,0,0,0-1.919L18.916,14.53a1.325,1.325,0,0,0-1.919,0l-1.782,1.782a24.87,24.87,0,0,1-3.975-3.153A20,20,0,0,1,8.087,9.184L9.869,7.4a1.325,1.325,0,0,0,0-1.919L4.934.411a1.325,1.325,0,0,0-1.919,0L.685,2.6C-1.234,4.661.822,9.87,7.676,16.723Z" transform="translate(-0.001 0)"/><g transform="translate(15.078)"><path class="c" d="M14.9,4.7a3.72,3.72,0,0,1,3.678,3.678" transform="translate(-14.9 1.377)"/><path class="c" d="M14.9,2.7a6.928,6.928,0,0,1,6.877,6.877" transform="translate(-14.9 0.179)"/><path class="c" d="M14.9.9a9.624,9.624,0,0,1,9.6,9.6" transform="translate(-14.9 -0.9)"/></g></g></g></svg>