<svg xmlns="http://www.w3.org/2000/svg" xmlns:xlink="http://www.w3.org/1999/xlink" width="1300" height="830.713" viewBox="0 0 1300 830.713">
  <defs>
    <clipPath id="clip-path">
      <path id="路径_345" data-name="路径 345" d="M667.419,1488.178c-39.9,0-72.146,28.016-72.146,62.634a56.728,56.728,0,0,0,9.779,31.448,492.687,492.687,0,0,0,124.735,0,55.324,55.324,0,0,0,9.778-31.448c0-34.356-32.242-62.634-72.146-62.634Zm0,0" transform="translate(-595.273 -1488.178)" fill="#fff"/>
    </clipPath>
    <clipPath id="clip-path-2">
      <rect id="矩形_2" data-name="矩形 2" width="151" height="152" transform="translate(345.108 327.078)" fill="#fff" stroke="#707070" stroke-width="1"/>
    </clipPath>
  </defs>
  <g id="组_1126" data-name="组 1126" transform="translate(212.714 194.934)">
    <path id="路径_1" data-name="路径 1" d="M495.039,964.431C222.345,964.431,2.345,1190.95,2.345,1470.7H988.276c0-279.755-220.547-506.274-493.237-506.274Zm0,0" transform="translate(-49.715 -915.083)" fill="#ebfcff"/>
    <path id="路径_2" data-name="路径 2" d="M508.38,1087.341c-216.2,0-391.113,181.433-391.113,404.694H899.491c0-224.348-174.915-404.694-391.111-404.694Zm0,0" transform="translate(-63.057 -929.351)" fill="#cff4ff"/>
    <path id="路径_3" data-name="路径 3" d="M522.834,1204.72c-158.074,0-285.727,130.915-285.727,291.7H807.478c.542-160.79-127.111-291.7-284.644-291.7Zm0,0" transform="translate(-76.969 -942.977)" fill="#b3e5ff"/>
    <path id="路径_5" data-name="路径 5" d="M347.11,1233.121a13.038,13.038,0,1,0,13.038-13.034c-7.061,0-13.038,4.889-13.038,13.034Zm0,0" transform="translate(-89.739 -944.761)" fill="#fff"/>
    <path id="路径_6" data-name="路径 6" d="M359.834,1246.764a20.056,20.056,0,0,1-20.1-20.1,19.72,19.72,0,0,1,20.1-20.1,20.1,20.1,0,0,1,0,40.2Zm0-25.533a5.7,5.7,0,0,0-5.973,5.977c0,3.8,2.172,5.974,5.973,5.974s5.976-2.172,5.976-5.974a5.7,5.7,0,0,0-5.976-5.977Zm0,0" transform="translate(-88.882 -943.192)" fill="#3e9fd6"/>
    <path id="路径_7" data-name="路径 7" d="M213.9,1390.392H688.122a7.061,7.061,0,1,1,0,14.122H213.9a7.191,7.191,0,0,1-7.061-7.062c-.542-3.8,2.714-7.061,7.061-7.061ZM58.543,1433.849H272.566a7.061,7.061,0,1,1,0,14.122H58.543a7.191,7.191,0,0,1-7.062-7.061,6.847,6.847,0,0,1,7.062-7.062Zm292.247,0H884.223a7.061,7.061,0,0,1,0,14.122H350.789a7.191,7.191,0,0,1-7.062-7.061,6.848,6.848,0,0,1,7.062-7.062Zm-361.233,0h31.5a7.061,7.061,0,1,1,0,14.122h-31.5a7.191,7.191,0,0,1-7.064-7.061,6.849,6.849,0,0,1,7.064-7.062Zm724.1-43.457h21.183a7.061,7.061,0,1,1,0,14.122H713.655a7.188,7.188,0,0,1-7.061-7.062c-.545-3.8,2.714-7.061,7.061-7.061Zm214.566,43.457h38.571a7.061,7.061,0,0,1,0,14.122H928.221a7.19,7.19,0,0,1-7.061-7.061,6.848,6.848,0,0,1,7.061-7.062Zm-236.84,70.075H769.6a7.061,7.061,0,1,1,0,14.121H691.382a7.191,7.191,0,0,1-7.062-7.061c-.542-3.8,2.718-7.061,7.062-7.061Zm-33.679,0h11.408a7.061,7.061,0,1,1,0,14.121H657.7a7.061,7.061,0,1,1,0-14.121Zm-284.64,0H496.914a7.061,7.061,0,1,1,0,14.121H373.063a7.19,7.19,0,0,1-7.064-7.061c-.543-3.8,2.717-7.061,7.064-7.061Zm185.777,0h78.223a7.061,7.061,0,1,1,0,14.121H558.84a7.191,7.191,0,0,1-7.062-7.061c-.545-3.8,2.715-7.061,7.062-7.061ZM165.554,1390.392h21.186a7.061,7.061,0,0,1,0,14.122H165.554a7.061,7.061,0,0,1,0-14.122Zm140.69,43.457h16.843a7.061,7.061,0,0,1,0,14.122H306.245a7.061,7.061,0,0,1,0-14.122ZM15.628,991.676a39.655,39.655,0,1,1,0-79.31,39.655,39.655,0,1,1,0,79.31Zm0-18.468a21.214,21.214,0,0,0,21.186-21.186,21.574,21.574,0,0,0-21.186-21.187,21.186,21.186,0,0,0,0,42.373ZM394.246,827.623a3.8,3.8,0,1,1,0,7.607H366v28.247a3.8,3.8,0,0,1-7.6,0V835.23H329.6a3.8,3.8,0,0,1,0-7.607H357.85V799.376a3.8,3.8,0,0,1,7.606,0v28.247ZM-4.471,1150.293a2.566,2.566,0,0,1,2.717,2.714,2.568,2.568,0,0,1-2.717,2.717H-31.089v27.159A2.565,2.565,0,0,1-33.8,1185.6a2.568,2.568,0,0,1-2.717-2.718v-27.159h-27.16a2.568,2.568,0,0,1-2.717-2.717,2.565,2.565,0,0,1,2.717-2.714h27.16V1123.13a2.565,2.565,0,0,1,2.717-2.714,2.562,2.562,0,0,1,2.714,2.714v27.163Zm12.492,144.4a1.016,1.016,0,0,1,0,1.63,1.02,1.02,0,0,1-1.63,0l-12.492-12.5-12.5,12.5a1.019,1.019,0,0,1-1.629,0,1.019,1.019,0,0,1,0-1.63l12.495-12.495L-20.225,1269.7a1.019,1.019,0,0,1,0-1.63,1.019,1.019,0,0,1,1.629,0l12.5,12.492,12.492-12.492a1.02,1.02,0,0,1,1.63,0,1.016,1.016,0,0,1,0,1.63l-12.492,12.492ZM-166.959,734.694l-9.236-9.232c-.543-.545-.543-.545,0-1.088l2.175-2.172,10.32,10.321c.543.542.543.542,0,.542Zm23.9,17.927,9.778,9.779L-136,765.116h-.542l-9.779-9.778-.542-.546a13.535,13.535,0,0,0,3.8-2.172Zm-1.085-18.469-2.175-2.172v-.545l9.779-9.779a9.508,9.508,0,0,1,2.172,2.717v.543l-9.232,9.236c0,.542,0,.542-.543,0Zm-22.274,18.469,2.172,2.172v.546l-9.774,9.778A9.559,9.559,0,0,1-176.2,762.4v-.542l9.236-9.237Zm11.951-30.419v5.974c0,.545,0,.545-.543.545h-2.717c-.542,0-.542,0-.542-.545v-11.95c0-.543,0-.543.542-.543h2.717c.543,0,.543,0,.543.543Zm-15.209,18.469v2.717c0,.542,0,.542-.543.542h-11.95c-.545,0-.545,0-.545-.542v-2.717c0-.542,0-.542.545-.542h5.974a31.255,31.255,0,0,1,6.519.542Zm42.914,0v2.717c0,.542,0,.542-.542.542h-11.953c-.543,0-.543,0-.543-.542v-2.717c0-.542,0-.542.543-.542h5.976a31.263,31.263,0,0,1,6.519.542Zm-27.7,24.445v5.974c0,.542,0,.542-.543.542h-2.717c-.542,0-.542,0-.542-.542V759.14c0-.542,0-.542.542-.542h2.717c.543,0,.543,0,.543.542Zm1247.853,659.26a23.763,23.763,0,0,1-23.9-23.9,23.9,23.9,0,1,1,47.8,0,23.76,23.76,0,0,1-23.9,23.9Zm0-7.606a16.839,16.839,0,1,0-16.839-16.839,16.924,16.924,0,0,0,16.839,16.839ZM158.494,723.832a17.383,17.383,0,1,1,17.381-17.385,17.16,17.16,0,0,1-17.381,17.385Zm0-8.149c5.432,0,9.779-3.8,9.779-9.236s-3.8-9.775-9.236-9.775h-.543c-5.431,0-9.236,4.344-9.236,9.775a9.157,9.157,0,0,0,9.236,9.236Zm0,0" transform="translate(-30 -884)" fill="#3e9fd6"/>
    <rect id="矩形_1" data-name="矩形 1" width="1084.453" height="723.818" transform="translate(-94.523 -88.039)" fill="none"/>
    <g id="组_10" data-name="组 10" transform="translate(590.509 -71.245)">
      <path id="路径_14" data-name="路径 14" d="M368.347,1488.65a146.671,146.671,0,1,0,146.671-146.671A146.674,146.674,0,0,0,368.347,1488.65Zm0,0" transform="translate(-363.065 -1336.431)" fill="#95d2f2"/>
      <path id="路径_15" data-name="路径 15" d="M514.324,1639.612c-83.774,0-151.953-68.182-151.953-151.953S430.55,1335.7,514.324,1335.7s151.953,68.181,151.953,151.953c-.263,83.775-68.444,151.957-151.953,151.957Zm0-293.076c-77.96,0-141.384,63.424-141.384,141.385s63.424,141.384,141.384,141.384,141.384-63.424,141.384-141.384-63.69-141.385-141.384-141.385Zm0,0" transform="translate(-362.371 -1335.702)" fill="#3e9fd6"/>
      <path id="路径_16" data-name="路径 16" d="M545.644,1599.149c0,20.2,22.112,38.874,58.007,48.978s80.12,10.1,116.013,0,58.007-28.776,58.007-48.978c0-31.234-51.94-56.557-116.013-56.557s-116.013,25.323-116.013,56.557Zm0,0" transform="translate(-383.647 -1359.72)" fill="#cff4ff"/>
      <path id="路径_17" data-name="路径 17" d="M660.963,1660.295c-67.92,0-121.3-27.222-121.3-61.839s53.379-61.839,121.3-61.839,121.3,27.218,121.3,61.839-53.118,61.839-121.3,61.839Zm0-113.11c-59.988,0-110.73,23.52-110.73,51.271s50.742,51.267,110.73,51.267S771.7,1626.2,771.7,1598.455s-50.744-51.271-110.732-51.271Zm0,0" transform="translate(-382.953 -1359.026)" fill="#3e9fd6"/>
      <path id="路径_18" data-name="路径 18" d="M667.419,1488.178c-39.9,0-72.146,28.016-72.146,62.634a56.728,56.728,0,0,0,9.779,31.448,492.687,492.687,0,0,0,124.735,0,55.324,55.324,0,0,0,9.778-31.448c0-34.356-32.242-62.634-72.146-62.634Zm0,0" transform="translate(-389.408 -1353.403)" fill="#fff"/>
      <path id="路径_19" data-name="路径 19" d="M666.69,1591.081a497.566,497.566,0,0,1-63.162-3.964,5.142,5.142,0,0,1-3.7-2.379A60.942,60.942,0,0,1,589,1550.118c0-37.529,34.884-67.916,77.428-67.916,42.811,0,77.432,30.391,77.432,67.916a61.576,61.576,0,0,1-10.835,34.62,5.14,5.14,0,0,1-3.7,2.379,483.145,483.145,0,0,1-62.63,3.964Zm-59.2-14.27a495.338,495.338,0,0,0,118.658,0,51.207,51.207,0,0,0,7.665-26.693c0-31.71-30.129-57.347-66.864-57.347s-66.859,25.633-66.859,57.347a48,48,0,0,0,7.4,26.693Zm0,0" transform="translate(-388.68 -1352.709)" fill="#0076f5"/>
      <path id="路径_20" data-name="路径 20" d="M596.469,1624.17a11.627,11.627,0,1,0,5.786-10.144,11.63,11.63,0,0,0-5.786,10.144Zm0,0" transform="translate(-389.547 -1367.829)" fill="#b4d7ff"/>
      <path id="路径_21" data-name="路径 21" d="M607.4,1640.7a16.86,16.86,0,0,1-16.915-16.912,16.914,16.914,0,1,1,33.827,0A16.862,16.862,0,0,1,607.4,1640.7Zm0-23.52a6.259,6.259,0,0,0-6.343,6.342,6.343,6.343,0,1,0,6.343-6.342Zm0,0" transform="translate(-388.853 -1367.182)" fill="#3e9fd6"/>
      <path id="路径_22" data-name="路径 22" d="M727.122,1624.182a11.628,11.628,0,1,0,11.628-11.625,11.629,11.629,0,0,0-11.628,11.625Zm0,0" transform="translate(-404.714 -1367.842)" fill="#b4d7ff"/>
      <path id="路径_23" data-name="路径 23" d="M738.056,1640.7a16.859,16.859,0,0,1-16.912-16.912,16.914,16.914,0,1,1,16.912,16.912Zm0-23.52a6.26,6.26,0,0,0-6.343,6.342,6.343,6.343,0,1,0,6.343-6.342Zm0,0" transform="translate(-404.02 -1367.182)" fill="#3e9fd6"/>
      <path id="路径_24" data-name="路径 24" d="M663.738,1633.452a11.629,11.629,0,1,0,11.629-11.629,11.629,11.629,0,0,0-11.629,11.629Zm0,0" transform="translate(-397.356 -1368.917)" fill="#b4d7ff"/>
      <path id="路径_25" data-name="路径 25" d="M674.672,1649.935a17.047,17.047,0,1,1,17.178-17.178,17.141,17.141,0,0,1-17.178,17.178Zm0-23.521a6.26,6.26,0,0,0-6.342,6.343,6.475,6.475,0,1,0,12.948,0,6.322,6.322,0,0,0-6.606-6.343Zm0,0" transform="translate(-396.662 -1368.223)" fill="#3e9fd6"/>
      <path id="路径_26" data-name="路径 26" d="M544.746,1432.819a32.24,32.24,0,1,0,16.121-27.919,32.245,32.245,0,0,0-16.121,27.919Zm0,0" transform="translate(-383.543 -1343.234)" fill="#fff"/>
      <path id="路径_27" data-name="路径 27" d="M576.293,1469.653a37.526,37.526,0,1,1,37.526-37.525,37.5,37.5,0,0,1-37.526,37.525Zm0-64.746a26.956,26.956,0,1,0,26.957,26.956,27.068,27.068,0,0,0-26.957-26.956Zm0,0" transform="translate(-382.848 -1342.539)" fill="#3e9fd6"/>
      <path id="路径_28" data-name="路径 28" d="M436.816,1489.921a9.513,9.513,0,1,0,9.513-9.512,9.511,9.511,0,0,0-9.513,9.512Zm0,0" transform="translate(-371.013 -1352.501)" fill="#fff"/>
      <path id="路径_29" data-name="路径 29" d="M445.634,1504.026a14.8,14.8,0,1,1,14.8-14.8,14.773,14.773,0,0,1-14.8,14.8Zm0-19.029a4.229,4.229,0,1,0,4.23,4.229,4.176,4.176,0,0,0-4.23-4.229Zm0,0" transform="translate(-370.319 -1351.807)" fill="#3e9fd6"/>
      <path id="路径_30" data-name="路径 30" d="M463.422,1573.252a21.407,21.407,0,1,0,10.669-18.641,21.42,21.42,0,0,0-10.669,18.641Zm0,0" transform="translate(-374.102 -1360.78)" fill="#fff"/>
      <path id="路径_31" data-name="路径 31" d="M484.135,1599.265a26.692,26.692,0,1,1,26.694-26.691,26.616,26.616,0,0,1-26.694,26.691Zm0-42.811a16.121,16.121,0,1,0,16.122,16.121,16.017,16.017,0,0,0-16.122-16.121Z" transform="translate(-373.408 -1360.101)" fill="#3e9fd6"/>
      <g id="蒙版组_1" data-name="蒙版组 1" transform="translate(205.865 134.775)" clip-path="url(#clip-path)">
        <g id="组_1125" data-name="组 1125" transform="translate(-27.027 3.782)">
          <path id="XMLID_17_" d="M76.136,10.842a67.716,67.716,0,0,0-4.667,5.445c-8.168,10.5-7,17.114-16.336,24.892-8.946,7.779-25.67,5.834-42.006,22.17a43.9,43.9,0,0,0,0,62.62,43.9,43.9,0,0,0,62.62,0c16.336-16.336,14.78-33.06,22.17-42.006,7.779-8.946,14.391-7.779,24.892-16.336a20.468,20.468,0,0,0,5.445-4.667,37.327,37.327,0,0,0,0-52.507C114.252-3.549,90.527-3.549,76.136,10.842Z" transform="translate(0 94.83) rotate(-43)" fill="#5c5c5c" stroke="#999" stroke-width="6"/>
          <g id="组_11" data-name="组 11" transform="translate(109.504 164.23) rotate(-83)">
            <ellipse id="椭圆_198" data-name="椭圆 198" cx="3.09" cy="3.09" rx="3.09" ry="3.09" transform="translate(0 0)" fill="#999"/>
            <ellipse id="椭圆_199" data-name="椭圆 199" cx="3.09" cy="3.09" rx="3.09" ry="3.09" transform="translate(0 0)" fill="#999"/>
            <ellipse id="椭圆_200" data-name="椭圆 200" cx="3.09" cy="3.09" rx="3.09" ry="3.09" transform="translate(16.772 0)" fill="#999"/>
            <ellipse id="椭圆_201" data-name="椭圆 201" cx="3.09" cy="3.09" rx="3.09" ry="3.09" transform="translate(33.545 0)" fill="#999"/>
            <ellipse id="椭圆_202" data-name="椭圆 202" cx="3.09" cy="3.09" rx="3.09" ry="3.09" transform="translate(50.317 0)" fill="#999"/>
            <ellipse id="椭圆_203" data-name="椭圆 203" cx="3.09" cy="3.09" rx="3.09" ry="3.09" transform="translate(8.828 12.359)" fill="#999"/>
            <ellipse id="椭圆_204" data-name="椭圆 204" cx="3.09" cy="3.09" rx="3.09" ry="3.09" transform="translate(8.828 12.359)" fill="#999"/>
            <ellipse id="椭圆_205" data-name="椭圆 205" cx="3.09" cy="3.09" rx="3.09" ry="3.09" transform="translate(25.6 12.359)" fill="#999"/>
            <ellipse id="椭圆_206" data-name="椭圆 206" cx="3.09" cy="3.09" rx="3.09" ry="3.09" transform="translate(42.372 12.359)" fill="#999"/>
          </g>
          <g id="组_12" data-name="组 12" transform="translate(74.244 39.597)">
            <g id="组_1123" data-name="组 1123" transform="translate(0)">
              <g id="椭圆_227" data-name="椭圆 227" transform="translate(0)" fill="#5c5c5c" stroke="#fff" stroke-width="3">
                <circle cx="11.24" cy="11.24" r="11.24" stroke="none"/>
                <circle cx="11.24" cy="11.24" r="9.74" fill="none"/>
              </g>
              <g id="椭圆_228" data-name="椭圆 228" transform="translate(29.091)" fill="#5c5c5c" stroke="#fff" stroke-width="3">
                <circle cx="11.24" cy="11.24" r="11.24" stroke="none"/>
                <circle cx="11.24" cy="11.24" r="9.74" fill="none"/>
              </g>
              <path id="路径_343" data-name="路径 343" d="M-1651.478,1339.859a7.666,7.666,0,0,1,3.907-1.474,7.739,7.739,0,0,1,3.921,1.474" transform="translate(1673.325 -1328.619)" fill="none" stroke="#fff" stroke-linecap="round" stroke-width="3"/>
            </g>
          </g>
          <path id="路径_32" data-name="路径 32" d="M-1475.716,1402.18c11.61.436,16.768-2.276,19.016-4.725" transform="translate(1566.712 -1328.846)" fill="none" stroke="#fff" stroke-linecap="round" stroke-width="3"/>
          <line id="直线_2" data-name="直线 2" y1="15.91" x2="14.143" transform="translate(78.822 43.086)" fill="none" stroke="#fff" stroke-width="3"/>
          <line id="直线_3" data-name="直线 3" y1="15.026" x2="13.259" transform="translate(81.474 45.738)" fill="none" stroke="#fff" stroke-width="2"/>
          <line id="直线_4" data-name="直线 4" y1="15.91" x2="14.143" transform="translate(107.991 43.086)" fill="none" stroke="#fff" stroke-width="3"/>
          <line id="直线_5" data-name="直线 5" y1="15.026" x2="13.259" transform="translate(110.643 45.738)" fill="none" stroke="#fff" stroke-width="2"/>
        </g>
      </g>
      <path id="路径_344" data-name="路径 344" d="M666.69,1591.081a497.566,497.566,0,0,1-63.162-3.964,5.142,5.142,0,0,1-3.7-2.379A60.942,60.942,0,0,1,589,1550.118c0-37.529,34.884-67.916,77.428-67.916,42.811,0,77.432,30.391,77.432,67.916a61.576,61.576,0,0,1-10.835,34.62,5.14,5.14,0,0,1-3.7,2.379,483.145,483.145,0,0,1-62.63,3.964Zm-59.2-14.27a495.338,495.338,0,0,0,118.658,0,51.207,51.207,0,0,0,7.665-26.693c0-31.71-30.129-57.347-66.864-57.347s-66.859,25.633-66.859,57.347a48,48,0,0,0,7.4,26.693Zm0,0" transform="translate(-388.68 -1352.709)" fill="#3e9fd6"/>
    </g>
    <text id="_5" data-name="5" transform="translate(226 472)" fill="#3e9fd6" font-size="230" font-family="CooperBlack, Cooper"><tspan x="0" y="0">5</tspan></text>
    <g id="蒙版组_2" data-name="蒙版组 2" transform="translate(14.892 16.922)" clip-path="url(#clip-path-2)">
      <path id="路径_346" data-name="路径 346" d="M-961.8,1447.15v74.491a10.213,10.213,0,0,0,1.022,4.592c.509,1.018,1.531,1.018,3.571,1.018h4.592c3.574,0,5.1,2.043,5.1,6.123v22.451a6.233,6.233,0,0,1-5.613,6.632c-2.553.509-4.083.509-4.593,1.53-.509.51-1.021,2.04-1.021,4.593v12.754c.512,4.592-2.04,7.144-6.119,7.144H-1001.6c-2.552,0-4.083-.512-5.1-1.53s-1.021-3.062-1.021-5.614V1570.11q0-4.591-1.531-6.123t-6.123-1.53h-41.834q-7.656,0-10.714-3.062t-3.061-10.714c0-7.141,1.018-12.245,2.549-16.325,2.043-4.592,7.654-12.754,17.346-24.491l27.552-32.653c13.776-16.325,23.979-27.04,30.613-31.632a52.3,52.3,0,0,1,10.711-5.1,33.5,33.5,0,0,1,11.736-2.043c3.571,0,6.123,1.021,7.654,2.552,0,1.021,1.018,4.083,1.018,8.163Zm-45.408,56.123v-5.1c0-6.632-2.04-9.693-5.61-9.693q-3.828,0-7.653,4.592l-16.838,20.409c-4.592,6.123-7.141,10.2-7.141,12.754,0,2.04,1.018,3.061,3.061,3.571s7.141,1.021,14.794,1.021h8.676a24.894,24.894,0,0,0,7.653-1.021c1.531-1.022,2.041-2.553,2.041-5.1a183.51,183.51,0,0,0,1.018-21.429Zm329.591-56.123v74.491a10.169,10.169,0,0,0,1.021,4.592c.51,1.018,1.531,1.018,3.571,1.018h4.592c3.571,0,5.1,2.043,5.1,6.123v22.451a6.231,6.231,0,0,1-5.614,6.632c-2.549.509-4.08.509-4.589,1.53-.512.51-1.022,2.04-1.022,4.593v12.754c.51,4.592-2.04,7.144-6.123,7.144h-36.736c-2.549,0-4.08-.512-5.1-1.53s-1.019-3.062-1.019-5.614V1570.11q0-4.591-1.53-6.123t-6.123-1.53h-41.838q-7.651,0-10.715-3.062t-3.062-10.714a45.486,45.486,0,0,1,2.553-16.325c2.04-4.592,7.653-12.754,17.346-24.491l26.531-33.672c13.776-16.328,23.979-27.043,30.61-31.635a52.4,52.4,0,0,1,10.715-5.1,33.479,33.479,0,0,1,11.736-2.04c3.571,0,6.123,1.019,7.654,2.549,1.531,2.043,2.04,5.1,2.04,9.184Zm-45.408,56.123v-5.1c0-6.632-2.04-9.693-5.614-9.693q-3.823,0-7.654,4.592l-16.834,20.409c-4.592,6.123-7.145,10.2-7.145,12.754,0,2.04,1.022,3.061,3.062,3.571s7.144,1.021,14.8,1.021h8.671a24.9,24.9,0,0,0,7.654-1.021c1.531-1.022,2.04-2.553,2.04-5.1,1.022-4.083,1.022-11.224,1.022-21.429Zm-78.062-24.488a79.551,79.551,0,0,1,8.163,35.712c0,22.96-8.671,41.838-26.531,56.632a68.979,68.979,0,0,1-45.917,16.837c-18.878,0-35.2-6.123-48.469-18.368-15.816-14.794-23.979-34.181-23.979-58.672,0-23.978,7.141-42.855,21.939-56.122,12.754-12.245,28.57-18.368,47.957-18.368,11.736,0,22.96,3.061,34.183,8.675,14.285,6.632,25,18.368,32.653,33.674Zm-64.285,89.795c14.285,0,27.552-4.083,38.776-12.755,14.794-11.224,21.939-25,21.939-42.346a52.576,52.576,0,0,0-6.632-26.531q-9.184-16.835-27.552-26.021a67.182,67.182,0,0,0-28.57-6.632c-16.328,0-29.592,4.593-40.307,13.776-12.245,10.2-18.368,24.487-18.368,42.347q0,27.547,19.9,44.386c11.223,9.184,24.491,13.776,40.816,13.776Zm-33.672-78.062,3.571,1.531h.509l.509-.509v-4.083c0-1.022,0-2.04.513-2.04.509-.512,1.018-.512,2.549-.512h2.043c.509,0,.509.512.509,1.021v5.1c0,.512,0,1.021.509,1.021h.513l3.57-1.531c.51,0,1.022-.509,2.04-.509.513,0,.513,0,1.022.509a2.237,2.237,0,0,1,.509,1.531,5.53,5.53,0,0,1,.512,2.552c0,.51-.512,1.019-2.043,1.531l-3.57,1.019a.5.5,0,0,0-.51.512.5.5,0,0,0,.51.509l2.552,3.062c.509,1.021,1.018,1.53,1.018,2.04s-.509,1.021-2.04,2.04c-1.021.512-1.53,1.021-2.04,1.021s-1.021-.509-2.043-1.531l-2.04-3.061a.5.5,0,0,0-.509-.509.5.5,0,0,0-.512.509l-3.062,3.061a2.728,2.728,0,0,1-2.04,1.531c-.509,0-1.018-.509-2.04-1.021-1.021-1.019-2.04-1.531-2.04-2.04s.51-1.019,1.019-2.04l2.043-3.062a.5.5,0,0,1,.509-.509l-.509-.512-3.574-1.019c-1.531-.512-2.04-1.021-2.04-1.531a19.7,19.7,0,0,1,1.022-3.061q.763-1.533,1.53-1.531a5.129,5.129,0,0,0,1.531.509Zm52.04,0,3.571,1.531h.509l.512-.509v-4.083c0-1.022,0-2.04.509-2.04.51-.512,1.022-.512,2.552-.512h2.04c.51,0,.51.512.51,1.021v5.1c0,.512,0,1.021.512,1.021h.509l3.571-1.531a3.871,3.871,0,0,1,2.043-.509c.509,0,.509,0,1.019.509a2.237,2.237,0,0,1,.509,1.531,5.529,5.529,0,0,1,.512,2.552c0,.51-.512,1.019-2.04,1.531l-3.574,1.019a1.773,1.773,0,0,0-1.018.512.5.5,0,0,0,.509.509l2.552,3.062c.51,1.021,1.019,1.53,1.019,2.04s-.509,1.021-2.04,2.04c-1.022.512-1.531,1.021-2.04,1.021s-1.022-.509-2.043-1.531l-2.04-3.061a.5.5,0,0,0-.51-.509.5.5,0,0,0-.512.509l-2.549,3.061a2.733,2.733,0,0,1-2.043,1.531c-.509,0-1.019-.509-2.04-1.021-1.021-1.019-2.04-1.531-2.04-2.04s.509-1.019,1.019-2.04l2.042-3.062a.5.5,0,0,1,.51-.509,1.778,1.778,0,0,0-1.022-.512l-3.571-1.019c-1.53-.512-2.04-1.021-2.04-1.531a20.04,20.04,0,0,1,1.019-3.061q.768-1.533,1.531-1.531c1.021,0,1.531.509,2.043.509Zm1.53,56.123a11.324,11.324,0,0,1-11.223,11.224h-17.859a11.322,11.322,0,0,1-11.223-11.224,11.323,11.323,0,0,1,11.223-11.224H-856.7c6.119-.512,11.223,4.593,11.223,11.224Z" transform="translate(1287.098 -1108.872)" fill="#3e9fd6"/>
    </g>
    <g id="蒙版组_3" data-name="蒙版组 3" transform="translate(167.892 16.922)" clip-path="url(#clip-path-2)">
      <path id="路径_347" data-name="路径 347" d="M-961.8,1447.15v74.491a10.213,10.213,0,0,0,1.022,4.592c.509,1.018,1.531,1.018,3.571,1.018h4.592c3.574,0,5.1,2.043,5.1,6.123v22.451a6.233,6.233,0,0,1-5.613,6.632c-2.553.509-4.083.509-4.593,1.53-.509.51-1.021,2.04-1.021,4.593v12.754c.512,4.592-2.04,7.144-6.119,7.144H-1001.6c-2.552,0-4.083-.512-5.1-1.53s-1.021-3.062-1.021-5.614V1570.11q0-4.591-1.531-6.123t-6.123-1.53h-41.834q-7.656,0-10.714-3.062t-3.061-10.714c0-7.141,1.018-12.245,2.549-16.325,2.043-4.592,7.654-12.754,17.346-24.491l27.552-32.653c13.776-16.325,23.979-27.04,30.613-31.632a52.3,52.3,0,0,1,10.711-5.1,33.5,33.5,0,0,1,11.736-2.043c3.571,0,6.123,1.021,7.654,2.552,0,1.021,1.018,4.083,1.018,8.163Zm-45.408,56.123v-5.1c0-6.632-2.04-9.693-5.61-9.693q-3.828,0-7.653,4.592l-16.838,20.409c-4.592,6.123-7.141,10.2-7.141,12.754,0,2.04,1.018,3.061,3.061,3.571s7.141,1.021,14.794,1.021h8.676a24.894,24.894,0,0,0,7.653-1.021c1.531-1.022,2.041-2.553,2.041-5.1a183.51,183.51,0,0,0,1.018-21.429Zm329.591-56.123v74.491a10.169,10.169,0,0,0,1.021,4.592c.51,1.018,1.531,1.018,3.571,1.018h4.592c3.571,0,5.1,2.043,5.1,6.123v22.451a6.231,6.231,0,0,1-5.614,6.632c-2.549.509-4.08.509-4.589,1.53-.512.51-1.022,2.04-1.022,4.593v12.754c.51,4.592-2.04,7.144-6.123,7.144h-36.736c-2.549,0-4.08-.512-5.1-1.53s-1.019-3.062-1.019-5.614V1570.11q0-4.591-1.53-6.123t-6.123-1.53h-41.838q-7.651,0-10.715-3.062t-3.062-10.714a45.486,45.486,0,0,1,2.553-16.325c2.04-4.592,7.653-12.754,17.346-24.491l26.531-33.672c13.776-16.328,23.979-27.043,30.61-31.635a52.4,52.4,0,0,1,10.715-5.1,33.479,33.479,0,0,1,11.736-2.04c3.571,0,6.123,1.019,7.654,2.549,1.531,2.043,2.04,5.1,2.04,9.184Zm-45.408,56.123v-5.1c0-6.632-2.04-9.693-5.614-9.693q-3.823,0-7.654,4.592l-16.834,20.409c-4.592,6.123-7.145,10.2-7.145,12.754,0,2.04,1.022,3.061,3.062,3.571s7.144,1.021,14.8,1.021h8.671a24.9,24.9,0,0,0,7.654-1.021c1.531-1.022,2.04-2.553,2.04-5.1,1.022-4.083,1.022-11.224,1.022-21.429Zm-78.062-24.488a79.551,79.551,0,0,1,8.163,35.712c0,22.96-8.671,41.838-26.531,56.632a68.979,68.979,0,0,1-45.917,16.837c-18.878,0-35.2-6.123-48.469-18.368-15.816-14.794-23.979-34.181-23.979-58.672,0-23.978,7.141-42.855,21.939-56.122,12.754-12.245,28.57-18.368,47.957-18.368,11.736,0,22.96,3.061,34.183,8.675,14.285,6.632,25,18.368,32.653,33.674Zm-64.285,89.795c14.285,0,27.552-4.083,38.776-12.755,14.794-11.224,21.939-25,21.939-42.346a52.576,52.576,0,0,0-6.632-26.531q-9.184-16.835-27.552-26.021a67.182,67.182,0,0,0-28.57-6.632c-16.328,0-29.592,4.593-40.307,13.776-12.245,10.2-18.368,24.487-18.368,42.347q0,27.547,19.9,44.386c11.223,9.184,24.491,13.776,40.816,13.776Zm-33.672-78.062,3.571,1.531h.509l.509-.509v-4.083c0-1.022,0-2.04.513-2.04.509-.512,1.018-.512,2.549-.512h2.043c.509,0,.509.512.509,1.021v5.1c0,.512,0,1.021.509,1.021h.513l3.57-1.531c.51,0,1.022-.509,2.04-.509.513,0,.513,0,1.022.509a2.237,2.237,0,0,1,.509,1.531,5.53,5.53,0,0,1,.512,2.552c0,.51-.512,1.019-2.043,1.531l-3.57,1.019a.5.5,0,0,0-.51.512.5.5,0,0,0,.51.509l2.552,3.062c.509,1.021,1.018,1.53,1.018,2.04s-.509,1.021-2.04,2.04c-1.021.512-1.53,1.021-2.04,1.021s-1.021-.509-2.043-1.531l-2.04-3.061a.5.5,0,0,0-.509-.509.5.5,0,0,0-.512.509l-3.062,3.061a2.728,2.728,0,0,1-2.04,1.531c-.509,0-1.018-.509-2.04-1.021-1.021-1.019-2.04-1.531-2.04-2.04s.51-1.019,1.019-2.04l2.043-3.062a.5.5,0,0,1,.509-.509l-.509-.512-3.574-1.019c-1.531-.512-2.04-1.021-2.04-1.531a19.7,19.7,0,0,1,1.022-3.061q.763-1.533,1.53-1.531a5.129,5.129,0,0,0,1.531.509Zm52.04,0,3.571,1.531h.509l.512-.509v-4.083c0-1.022,0-2.04.509-2.04.51-.512,1.022-.512,2.552-.512h2.04c.51,0,.51.512.51,1.021v5.1c0,.512,0,1.021.512,1.021h.509l3.571-1.531a3.871,3.871,0,0,1,2.043-.509c.509,0,.509,0,1.019.509a2.237,2.237,0,0,1,.509,1.531,5.529,5.529,0,0,1,.512,2.552c0,.51-.512,1.019-2.04,1.531l-3.574,1.019a1.773,1.773,0,0,0-1.018.512.5.5,0,0,0,.509.509l2.552,3.062c.51,1.021,1.019,1.53,1.019,2.04s-.509,1.021-2.04,2.04c-1.022.512-1.531,1.021-2.04,1.021s-1.022-.509-2.043-1.531l-2.04-3.061a.5.5,0,0,0-.51-.509.5.5,0,0,0-.512.509l-2.549,3.061a2.733,2.733,0,0,1-2.043,1.531c-.509,0-1.019-.509-2.04-1.021-1.021-1.019-2.04-1.531-2.04-2.04s.509-1.019,1.019-2.04l2.042-3.062a.5.5,0,0,1,.51-.509,1.778,1.778,0,0,0-1.022-.512l-3.571-1.019c-1.53-.512-2.04-1.021-2.04-1.531a20.04,20.04,0,0,1,1.019-3.061q.768-1.533,1.531-1.531c1.021,0,1.531.509,2.043.509Zm1.53,56.123a11.324,11.324,0,0,1-11.223,11.224h-17.859a11.322,11.322,0,0,1-11.223-11.224,11.323,11.323,0,0,1,11.223-11.224H-856.7c6.119-.512,11.223,4.593,11.223,11.224Z" transform="translate(1287.098 -1108.872)" fill="#3e9fd6"/>
    </g>
  </g>
</svg>
