<svg id="组_4826" data-name="组 4826" xmlns="http://www.w3.org/2000/svg" width="28" height="28" viewBox="0 0 28 28">
  <defs>
    <style>
      .cls-1 {
        fill: none;
      }

      .cls-2 {
        fill: #fff;
      }
    </style>
  </defs>
  <rect id="矩形_2530" data-name="矩形 2530" class="cls-1" width="28" height="28"/>
  <path id="路径_20559" data-name="路径 20559" class="cls-2" d="M4.946,20.94H22.167a1.187,1.187,0,1,1,0,2.349H4.946a1.187,1.187,0,1,1,0-2.349ZM2.194,8.608H1.785a1.812,1.812,0,0,1-1.7-1.459A1.785,1.785,0,0,1,1.131,5.184a1.842,1.842,0,0,1,2.187.538A1.762,1.762,0,0,1,3.3,7.938l4.769,3.2L13,3.3a1.791,1.791,0,0,1-1.284-1.976,1.828,1.828,0,0,1,3.607,0A1.791,1.791,0,0,1,14.041,3.3l4.933,7.836,4.752-3.2a1.762,1.762,0,0,1,.152-2.2,1.844,1.844,0,0,1,2.208-.388A1.782,1.782,0,0,1,27,7.362a1.817,1.817,0,0,1-1.762,1.364h-.409l-2.316,9.866H4.43Zm0,.1" transform="translate(0.443 2.207)"/>
</svg>
