<svg height="21.06" viewBox="0 0 20.5 21.06" width="20.5" xmlns="http://www.w3.org/2000/svg"><g fill="#fff" stroke="#fff" stroke-width=".5"><path d="m91.158 161.15h-15.872a.8.8 0 0 1 -.8-.8v-17.158a.8.8 0 0 1 .8-.8h9.886a.8.8 0 0 1 0 1.6h-9.085v15.555h14.27v-9.589a.8.8 0 1 1 1.6 0v10.39a.8.8 0 0 1 -.799.802z" transform="translate(-74.235 -140.34)"/><path d="m196.655 73.242h-5.127a.8.8 0 0 1 0-1.6h5.127a.8.8 0 0 1 0 1.6zm3.177 5.422h-8.3a.8.8 0 0 1 0-1.6h8.3a.8.8 0 0 1 0 1.6zm-.141-5.706a.8.8 0 0 1 -.6-1.333l6.59-7.411a.8.8 0 1 1 1.2 1.063l-6.59 7.411a.8.8 0 0 1 -.6.27z" transform="translate(-186.832 -63.696)"/></g></svg>