<svg xmlns="http://www.w3.org/2000/svg" width="20.5" height="21.06" viewBox="0 0 20.5 21.06"><defs><style>.a{fill:#fff;stroke:#fff;stroke-width:0.5px;}</style></defs><g transform="translate(-74.235 -63.696)"><path class="a" d="M91.158,161.15H75.286a.8.8,0,0,1-.8-.8V143.192a.8.8,0,0,1,.8-.8h9.886a.8.8,0,0,1,0,1.6H76.087v15.555h14.27v-9.589a.8.8,0,1,1,1.6,0v10.39A.8.8,0,0,1,91.158,161.15Z" transform="translate(0 -76.644)"/><path class="a" d="M196.655,73.242h-5.127a.8.8,0,0,1,0-1.6h5.127a.8.8,0,0,1,0,1.6Zm3.177,5.422h-8.3a.8.8,0,0,1,0-1.6h8.3a.8.8,0,0,1,0,1.6Zm-.141-5.706a.8.8,0,0,1-.6-1.333l6.59-7.411a.8.8,0,1,1,1.2,1.063l-6.59,7.411A.8.8,0,0,1,199.691,72.958Z" transform="translate(-112.597)"/></g></svg>