<svg id="组_4688" data-name="组 4688" xmlns="http://www.w3.org/2000/svg" xmlns:xlink="http://www.w3.org/1999/xlink" width="750" height="500" viewBox="0 0 750 500">
  <defs>
    <linearGradient id="linear-gradient" x1="0.5" x2="0.5" y2="1" gradientUnits="objectBoundingBox">
      <stop offset="0" stop-color="#ffd600"/>
      <stop offset="1" stop-color="#f50"/>
    </linearGradient>
    <clipPath id="clip-path">
      <path id="路径_20557" data-name="路径 20557" d="M0,0H750V500H0Z" transform="translate(5408 782)" fill="url(#linear-gradient)"/>
    </clipPath>
    <linearGradient id="linear-gradient-3" x1="0.815" y1="0.208" x2="0.215" y2="0.904" gradientUnits="objectBoundingBox">
      <stop offset="0" stop-color="#fff"/>
      <stop offset="1" stop-color="#ff8000" stop-opacity="0.588"/>
    </linearGradient>
    <linearGradient id="linear-gradient-4" x1="1.07" y1="-0.39" x2="0.215" y2="0.904" gradientUnits="objectBoundingBox">
      <stop offset="0" stop-color="#fff"/>
      <stop offset="1" stop-color="#fff" stop-opacity="0"/>
    </linearGradient>
    <linearGradient id="linear-gradient-5" x1="0.5" x2="0.5" y2="1" gradientUnits="objectBoundingBox">
      <stop offset="0" stop-color="#ff9059"/>
      <stop offset="1" stop-color="#ffc867"/>
    </linearGradient>
    <linearGradient id="linear-gradient-6" x1="1" y1="0.046" x2="1" y2="0.977" gradientUnits="objectBoundingBox">
      <stop offset="0" stop-color="#f50"/>
      <stop offset="1" stop-color="#ffa200"/>
    </linearGradient>
    <linearGradient id="linear-gradient-7" x1="-0.189" y1="0.099" x2="1.232" y2="0.916" gradientUnits="objectBoundingBox">
      <stop offset="0" stop-color="#ffc500"/>
      <stop offset="1" stop-color="#ffe666"/>
    </linearGradient>
  </defs>
  <path id="路径_4118" data-name="路径 4118" d="M0,0H750V500H0Z" fill="#f50"/>
  <g id="蒙版组_1" data-name="蒙版组 1" transform="translate(-5408 -782)" clip-path="url(#clip-path)">
    <g id="组_4824" data-name="组 4824">
      <path id="路径_20540" data-name="路径 20540" d="M0,0H750V500H0Z" transform="translate(5408 784)" fill="url(#linear-gradient)"/>
      <circle id="椭圆_534" data-name="椭圆 534" cx="264" cy="264" r="264" transform="translate(6395.631 867.369) rotate(120)" opacity="0.48" fill="url(#linear-gradient-3)"/>
      <circle id="椭圆_535" data-name="椭圆 535" cx="164" cy="164" r="164" transform="translate(5749.393 1007.972) rotate(120)" opacity="0.42" fill="url(#linear-gradient-4)"/>
      <g id="组_4817" data-name="组 4817" transform="translate(503.31 -284.733)">
        <rect id="矩形_2519" data-name="矩形 2519" width="121.023" height="239.232" transform="translate(5315.109 1455.132)" fill="url(#linear-gradient-5)"/>
        <rect id="矩形_2520" data-name="矩形 2520" width="121.023" height="239.232" transform="translate(5436.132 1455.132)" fill="url(#linear-gradient-6)"/>
        <path id="路径_20541" data-name="路径 20541" d="M53.945,53.945,171.684,0,117.739,117.739,0,171.684Z" transform="translate(5436.132 1333.733) rotate(45)" fill="#ffb900"/>
      </g>
      <g id="组_4818" data-name="组 4818" transform="translate(5788.871 882.387)">
        <path id="路径_20542" data-name="路径 20542" d="M454.075,594.673H483.93v50.875H454.075Z" transform="translate(-316.633 -403.764)" fill="#fed52f"/>
        <path id="路径_20543" data-name="路径 20543" d="M293.046,298.268a75.11,75.11,0,0,1-75.095-75.095V166.662h150.19v56.511A75.11,75.11,0,0,1,293.046,298.268Zm45.727,31.013H247.319a15.6,15.6,0,0,0-15.6,15.6V365.2h122.65v-20.32a15.6,15.6,0,0,0-15.6-15.6Z" transform="translate(-140.676 -84.816)" fill="url(#linear-gradient-7)"/>
        <path id="路径_20544" data-name="路径 20544" d="M335.042,103.894H188.508a12.506,12.506,0,1,0,0,25.011H335.042a12.506,12.506,0,0,0,0-25.011Zm-49.6,164.63H238.1a14.562,14.562,0,0,0-14.532,14.532h76.4a14.51,14.51,0,0,0-14.532-14.532Z" transform="translate(-109.405 -38.042)" fill="#f90"/>
        <path id="路径_20545" data-name="路径 20545" d="M427.751,292.725,407.674,290.9a4.653,4.653,0,0,1-3.686-2.5L393.3,267.1a4.587,4.587,0,0,0-8.286.183l-9.322,20.929a4.554,4.554,0,0,1-3.747,2.711l-19.771,1.828a4.569,4.569,0,0,0-2.254,8.256l15.263,10.906a4.6,4.6,0,0,1,1.645,5.3l-7.129,19.375a4.579,4.579,0,0,0,6.428,5.636L387.172,331.2a4.583,4.583,0,0,1,4.174-.03l22.239,11.211a4.54,4.54,0,0,0,5.118-.7,4.589,4.589,0,0,0,1.219-5.027l-7.4-19.375a4.547,4.547,0,0,1,1.676-5.392l15.72-10.906a4.6,4.6,0,0,0,1.8-4.9,4.49,4.49,0,0,0-3.96-3.351Z" transform="translate(-237.605 -157.78)" fill="#f90"/>
        <path id="路径_20546" data-name="路径 20546" d="M122.46,265.647H105.643a15.6,15.6,0,0,0-15.537,16.847c2.224,26.809,16.085,30.769,34.212,42.985,2.468,1.676,4.448,3.93,6.763,5.758.944,1.8,2.407,3.5,3.473,5.209h7.616V264.459H122.49v1.188Zm-16.816,15.6H122.46s-.183,22.026,1.005,22.391C117.859,301.9,106.588,297.33,105.643,281.245Zm165.665-16.786h-19.68v71.957h7.616c1.066-1.676,2.529-3.412,3.473-5.209,2.315-1.828,4.3-4.082,6.763-5.758,18.1-12.186,31.988-16.146,34.212-42.985a15.6,15.6,0,0,0-15.537-16.847H271.308v-1.158ZM270.3,303.636c1.158-.366,1.005-22.391,1.005-22.391h16.816C287.15,297.33,275.878,301.9,270.3,303.636Z" transform="translate(-45.367 -157.693)" fill="url(#linear-gradient-7)"/>
        <path id="路径_20547" data-name="路径 20547" d="M105.382,671.71H84.727a2.711,2.711,0,0,1,0-5.423h20.655a2.711,2.711,0,1,1,0,5.423Z" transform="translate(-39.379 -457.13)" fill="#f5cf41"/>
        <path id="路径_20548" data-name="路径 20548" d="M122.426,649V628.35a2.711,2.711,0,0,1,5.423,0V649a2.717,2.717,0,0,1-2.711,2.711A2.679,2.679,0,0,1,122.426,649Z" transform="translate(-69.492 -426.839)" fill="#f5cf41"/>
        <path id="路径_20549" data-name="路径 20549" d="M36.422,191.845m-7.251,0a7.251,7.251,0,1,0,7.251-7.251,7.251,7.251,0,0,0-7.251,7.251Z" transform="translate(0 -98.179)" fill="#ff6835"/>
        <path id="路径_20550" data-name="路径 20550" d="M908.179,99.4H887.25a2.772,2.772,0,0,1,0-5.545h20.929a2.772,2.772,0,1,1,0,5.545Z" transform="translate(-637.364 -30.559)" fill="#f5cf41"/>
        <path id="路径_20551" data-name="路径 20551" d="M925.6,76.515v-20.9a2.772,2.772,0,1,1,5.544,0V76.545a2.782,2.782,0,0,1-2.772,2.772,2.829,2.829,0,0,1-2.772-2.8Z" transform="translate(-668.011)" fill="#f5cf41"/>
        <path id="路径_20552" data-name="路径 20552" d="M971.754,158.532m-6.337,0a6.337,6.337,0,1,0,6.337-6.337A6.337,6.337,0,0,0,965.417,158.532Z" transform="translate(-697.679 -74.035)" fill="#ff6835"/>
      </g>
      <g id="组_4819" data-name="组 4819" transform="translate(210.632 -373.455)" opacity="0.41">
        <rect id="矩形_2521" data-name="矩形 2521" width="55.167" height="160.105" transform="translate(5314.905 1389.071)" fill="url(#linear-gradient-5)"/>
        <rect id="矩形_2522" data-name="矩形 2522" width="55.167" height="160.105" transform="translate(5370.071 1389.071)" fill="url(#linear-gradient-6)"/>
        <path id="路径_20553" data-name="路径 20553" d="M24.59,24.59,78.26,0,53.67,53.67,0,78.26Z" transform="translate(5370.071 1333.733) rotate(45)" fill="#ffb900"/>
      </g>
      <g id="组_4822" data-name="组 4822" transform="translate(0 -320)">
        <g id="组_4820" data-name="组 4820" transform="translate(300.903 2.832)">
          <rect id="矩形_2523" data-name="矩形 2523" width="77.442" height="224.752" transform="translate(5314.974 1411.415)" fill="#fff"/>
          <rect id="矩形_2524" data-name="矩形 2524" width="77.442" height="224.752" transform="translate(5392.415 1411.415)" fill="#fff"/>
          <path id="路径_20554" data-name="路径 20554" d="M34.519,34.519,109.86,0,75.34,75.34,0,109.86Z" transform="translate(5392.415 1333.733) rotate(45)" fill="#fff"/>
        </g>
        <g id="组_4821" data-name="组 4821" transform="translate(300.903 2.832)" opacity="0.74">
          <rect id="矩形_2525" data-name="矩形 2525" width="77.442" height="224.752" transform="translate(5314.974 1411.415)" fill="url(#linear-gradient-5)"/>
          <rect id="矩形_2526" data-name="矩形 2526" width="77.442" height="224.752" transform="translate(5392.415 1411.415)" fill="url(#linear-gradient-6)"/>
          <path id="路径_20555" data-name="路径 20555" d="M34.519,34.519,109.86,0,75.34,75.34,0,109.86Z" transform="translate(5392.415 1333.733) rotate(45)" fill="#ffb900"/>
        </g>
      </g>
      <g id="组_4823" data-name="组 4823" transform="translate(183.227 -243.521)">
        <rect id="矩形_2527" data-name="矩形 2527" width="68.826" height="199.748" transform="translate(5314.947 1402.773)" fill="url(#linear-gradient-5)"/>
        <rect id="矩形_2528" data-name="矩形 2528" width="68.826" height="199.748" transform="translate(5383.773 1402.773)" fill="url(#linear-gradient-6)"/>
        <path id="路径_20556" data-name="路径 20556" d="M30.679,30.679,97.637,0,66.959,66.959,0,97.637Z" transform="translate(5383.773 1333.733) rotate(45)" fill="#ffb900"/>
      </g>
    </g>
  </g>
</svg>
