<svg xmlns="http://www.w3.org/2000/svg" width="80" height="80" viewBox="0 0 80 80"><defs><style>.a{fill:#fe0000;}.b{fill:#fff;}</style></defs><g transform="translate(-274 -1142)"><circle class="a" cx="40" cy="40" r="40" transform="translate(274 1142)"/><ellipse class="b" cx="12.691" cy="12.691" rx="12.691" ry="12.691" transform="translate(297.943 1159.02)"/><path class="b" d="M18.55,21.419C8.321,21.419,0,18.117,0,14.059A2.866,2.866,0,0,1,.023,13.7,2.32,2.32,0,0,1,0,13.369l.119-1.035c.039-.368.07-.551.138-.909l.011-.088A16.441,16.441,0,0,1,9.185,0a12.726,12.726,0,0,0,9.793,4.449A12.818,12.818,0,0,0,28.5.312a17.944,17.944,0,0,1,4.6,3.655,6.028,6.028,0,0,0-3.167-.9,6.155,6.155,0,0,0-6.116,6.178c0,4.524,3.491,8.225,6.42,10.533A39.371,39.371,0,0,1,18.55,21.419Z" transform="translate(291.658 1183.457)"/><g transform="translate(317.194 1187.99)"><path class="b" d="M15.366.8a5.235,5.235,0,0,0-4.678,2.928A5.206,5.206,0,0,0,.8,6.01c0,7,9.888,11.675,9.888,11.675s9.888-5.438,9.888-11.675A5.218,5.218,0,0,0,15.366.8Z" transform="translate(-0.8 -0.8)"/></g></g></svg>