<svg xmlns="http://www.w3.org/2000/svg" width="60" height="60" viewBox="0 0 60 60">
  <defs>
    <style>
      .cls-1 {
        fill: #fec422;
      }

      .cls-2 {
        fill: #fff;
      }
    </style>
  </defs>
  <g id="组_4939" data-name="组 4939" transform="translate(-55 -922)">
    <circle id="椭圆_528" data-name="椭圆 528" class="cls-1" cx="30" cy="30" r="30" transform="translate(55 922)"/>
    <path id="路径_20525" data-name="路径 20525" class="cls-2" d="M97.766,68.162A3.461,3.461,0,0,0,94.308,64.7H72.236a3.463,3.463,0,0,0-3.454,3.466L66.4,95.08a3.463,3.463,0,0,0,3.454,3.466H96.693a3.463,3.463,0,0,0,3.454-3.466ZM92.925,73.9l-.011.008a9.943,9.943,0,0,1-19.676,0,2.29,2.29,0,1,1,2.9-1.179,2.019,2.019,0,0,1-.472.869,7.52,7.52,0,0,0,14.846,0,1.849,1.849,0,0,1-.465-.824,2.378,2.378,0,0,1-.242-1.017A2.264,2.264,0,1,1,92.925,73.9Z" transform="translate(2.176 870.127)"/>
  </g>
</svg>
