<svg xmlns="http://www.w3.org/2000/svg" width="60" height="60" viewBox="0 0 60 60">
  <defs>
    <style>
      .cls-1 {
        fill: #fec422;
      }

      .cls-2 {
        fill: #fff;
      }
    </style>
  </defs>
  <g id="组_4937" data-name="组 4937" transform="translate(-533 -922)">
    <circle id="椭圆_530" data-name="椭圆 530" class="cls-1" cx="30" cy="30" r="30" transform="translate(533 922)"/>
    <path id="形状_4" data-name="形状 4" class="cls-2" d="M27.766,39.064a8.406,8.406,0,1,1,.015,0ZM23.11,30.292h3.764v3.765H28.76V30.292h3.764V28.407H28.76V24.642H26.874v3.765H23.11ZM.373,37.153a1.431,1.431,0,0,1-.365-1.108,18.214,18.214,0,0,1,8.8-13.771.832.832,0,0,0,.1-1.435A11.432,11.432,0,0,1,16.775.083,11.272,11.272,0,0,1,26.811,10.225a11.412,11.412,0,0,1-4.66,10.521,9.481,9.481,0,0,0-1.6,16.877H1.435A1.435,1.435,0,0,1,.373,37.153Z" transform="translate(544.612 932.041)"/>
  </g>
</svg>
