<svg xmlns="http://www.w3.org/2000/svg" width="80" height="80" viewBox="0 0 80 80"><defs><style>.a{fill:#fe0000;}.b{fill:#fff;}</style></defs><g transform="translate(-164 -1142)"><circle class="a" cx="40" cy="40" r="40" transform="translate(164 1142)"/><g transform="translate(189.349 1158.506)"><path class="b" d="M-2602.349,1226.494a7,7,0,0,1,7-7,6.983,6.983,0,0,1,5.187,2.3l15.96-10.765a8.021,8.021,0,0,1-.147-1.534,8.009,8.009,0,0,1,.292-2.15l-12.419-11.581a5.972,5.972,0,0,1-2.873.732,6,6,0,0,1-6-6,6,6,0,0,1,6-6,6,6,0,0,1,6,6,5.979,5.979,0,0,1-.454,2.293l11.823,11.025a7.974,7.974,0,0,1,5.631-2.318,8,8,0,0,1,8,8,8,8,0,0,1-8,8,7.983,7.983,0,0,1-6.1-2.824l-15.978,10.777a7.041,7.041,0,0,1,.078,1.046,7,7,0,0,1-7,7A7,7,0,0,1-2602.349,1226.494Z" transform="translate(2595.149 -1186.694)"/></g></g></svg>