<svg height="176" viewBox="0 0 176 176" width="176" xmlns="http://www.w3.org/2000/svg"><circle cx="88" cy="88" fill="#fdc522" r="88"/><g transform="translate(13.16 13.16)"><path d="m25.971 2a49.958 49.958 0 0 0 -7.871.416 74.631 74.631 0 0 1 72.085 74.425 75.063 75.063 0 0 1 -66.7 74.425h2.486a74.659 74.659 0 0 0 74.571-74.841c0-40.746-33.557-74.425-74.571-74.425z" fill="#f8931e" transform="translate(49.138 -2)"/><circle cx="74.84" cy="74.84" fill="none" r="74.84" stroke="#000" stroke-miterlimit="10" stroke-width="4"/></g><ellipse cx="9.344" cy="9.344" rx="9.344" ry="9.344" transform="matrix(.94551858 .32556815 -.32556815 .94551858 51.33247443515 71.07453001702)"/><circle cx="12.459" cy="12.459" r="12.459" transform="matrix(.94551858 .32556815 -.32556815 .94551858 79.11673238355 100.40623237306)"/><circle cx="10.901" cy="10.901" r="10.901" transform="matrix(.94551858 .32556815 -.32556815 .94551858 113.059208811 54.4458335425)"/><path d="m0 36.216 39.5 22.376 17.35-58.592" fill="none" stroke="#000" stroke-width="6" transform="matrix(.94551858 .32556815 -.32556815 .94551858 68.9166873239 48.70993461559)"/></svg>