<svg height="176" viewBox="0 0 176 176" width="176" xmlns="http://www.w3.org/2000/svg"><circle cx="88" cy="88" fill="#fdc522" r="88"/><g transform="translate(13.16 13.16)"><path d="m25.971 2a49.958 49.958 0 0 0 -7.871.416 74.631 74.631 0 0 1 72.085 74.425 75.063 75.063 0 0 1 -66.7 74.425h2.486a74.659 74.659 0 0 0 74.571-74.841c0-40.746-33.557-74.425-74.571-74.425z" fill="#f8931e" transform="translate(49.138 -2)"/><circle cx="74.84" cy="74.84" fill="none" r="74.84" stroke="#000" stroke-miterlimit="10" stroke-width="4"/></g><g transform="translate(49.496 46.376)"><g stroke="#000" stroke-width="4"><g fill="none" transform="translate(0 8.934)"><path d="m0 0h76.752a0 0 0 0 1 0 0v66.473a5 5 0 0 1 -5 5h-66.752a5 5 0 0 1 -5-5v-66.473a0 0 0 0 1 0 0z" stroke="none"/><path d="m4 2h68.752a2 2 0 0 1 2 2v62.473a3 3 0 0 1 -3 3h-66.752a3 3 0 0 1 -3-3v-62.473a2 2 0 0 1 2-2z" fill="none"/></g><g fill="#fff"><rect height="17.868" rx="4" stroke="none" width="76.752"/><rect fill="none" height="13.868" rx="2" width="72.752" x="2" y="2"/></g><path d="m0 27.791v-14.4s-.366-13.391 17.188-13.391c17.754 0 17.937 13.388 17.937 13.388v14.4" fill="none" transform="matrix(-1 0 0 -1 56.426 56.172)"/></g><circle cx="21.409" cy="30.152" r="3.35"/><circle cx="56.399" cy="30.152" r="3.35"/></g></svg>