<svg height="176" viewBox="0 0 176 176" width="176" xmlns="http://www.w3.org/2000/svg"><circle cx="88" cy="88" fill="#fdc522" r="88"/><g transform="translate(13.241 13.241)"><path d="m26.02 2a50.625 50.625 0 0 0 -7.92.415c40.016 1.246 72.528 34.057 72.528 74.344 0 38.625-29.595 70.19-67.109 74.343h2.5a74.847 74.847 0 0 0 75.029-74.759c.001-40.702-33.762-74.343-75.028-74.343z" fill="#f8931e" transform="translate(48.47 -2)"/><circle cx="74.76" cy="74.76" fill="none" r="74.76" stroke="#000" stroke-miterlimit="10" stroke-width="4"/></g><g stroke="#000" stroke-width="6"><ellipse cx="83.848" cy="69.216" fill="#fff" rx="20.932" ry="20.932" stroke-linecap="round" stroke-linejoin="round" stroke-miterlimit="10"/><path d="m3.5 87.046a32.873 32.873 0 0 1 32.846-32.846" fill="none" stroke-linecap="round" stroke-linejoin="round" stroke-miterlimit="10" transform="translate(47.502 36.03)"/><path d="m92.111 109.125h32.887" fill="none"/><path d="m108.554 92.681v32.887" fill="none"/></g></svg>