<svg xmlns="http://www.w3.org/2000/svg" width="10" height="11.913" viewBox="0 0 10 11.913">
  <defs>
    <style>
      .cls-1 {
        fill: #999;
      }
    </style>
  </defs>
  <g id="组_4477" data-name="组 4477" transform="translate(-430 -179)">
    <path id="路径_6725" data-name="路径 6725" d="M5.174,5.318.61,1.261A.443.443,0,0,1,.906.5h9.13a.443.443,0,0,1,.3.761L5.766,5.318A.508.508,0,0,1,5.174,5.318Z" transform="translate(429.53 185.5)"/>
    <path id="路径_6726" data-name="路径 6726" class="cls-1" d="M5.174,5.318.61,1.261A.443.443,0,0,1,.906.5h9.13a.443.443,0,0,1,.3.761L5.766,5.318A.508.508,0,0,1,5.174,5.318Z" transform="translate(440.47 184.413) rotate(180)"/>
  </g>
</svg>
