<svg xmlns="http://www.w3.org/2000/svg" width="45" height="45" viewBox="0 0 45 45">
  <defs>
    <style>
      .cls-1 {
        fill: none;
      }
    </style>
  </defs>
  <g id="组_4382" data-name="组 4382" transform="translate(-877 -1779)">
    <rect id="矩形_1989" data-name="矩形 1989" class="cls-1" width="45" height="45" transform="translate(877 1779)"/>
    <path id="路径_6723" data-name="路径 6723" d="M72.441,73.938h16a1.143,1.143,0,0,0,0-2.286h-16a1.143,1.143,0,0,0,0,2.286Zm16,4.553h-16a1.143,1.143,0,0,0,0,2.286h16a1.143,1.143,0,0,0,0-2.286Zm0,6.857h-16a1.143,1.143,0,0,0,0,2.286h16a1.143,1.143,0,0,0,0-2.286ZM77.108,67.071h5.714a1.165,1.165,0,1,0,0-2.3H77.108a1.17,1.17,0,1,0,0,2.3Zm14.761-2.286H90.727a1.143,1.143,0,1,0,0,2.286h1.143a2.288,2.288,0,0,1,2.286,2.286V91.071a2.288,2.288,0,0,1-2.286,2.286H69.012a2.288,2.288,0,0,1-2.286-2.286V69.357a2.288,2.288,0,0,1,2.286-2.286h1.143a1.143,1.143,0,0,0,0-2.286H69.012a4.572,4.572,0,0,0-4.571,4.571V91.071a4.572,4.572,0,0,0,4.571,4.571H91.87a4.572,4.572,0,0,0,4.572-4.571V69.357a4.572,4.572,0,0,0-4.572-4.571ZM91.869,64.785Z" transform="translate(819.559 1721.24)"/>
  </g>
</svg>
