<svg xmlns="http://www.w3.org/2000/svg" width="45" height="45" viewBox="0 0 45 45">
  <defs>
    <style>
      .cls-1 {
        fill: #ff5454;
      }

      .cls-2 {
        fill: none;
      }
    </style>
  </defs>
  <g id="组_4468" data-name="组 4468" transform="translate(-126 -1544)">
    <path id="路径_6733" data-name="路径 6733" class="cls-1" d="M4119.385,1570.477l2.154-1.656h2.491l1.905,1.656,1.009,2.665-1.009,2.74-6.551,6.638-5.567-4.484-2.242-2.827v-4.06l2.242-1.669h2.416Z" transform="translate(-3963)"/>
    <g id="组_4467" data-name="组 4467" transform="translate(-3687 71)">
      <rect id="矩形_2021" data-name="矩形 2021" class="cls-2" width="45" height="45" transform="translate(3813 1473)"/>
      <g id="组_4466" data-name="组 4466" transform="translate(3763.168 1462.64)">
        <path id="路径_6731" data-name="路径 6731" d="M199.866,212.9a5.364,5.364,0,0,0-7.506-.126,5.409,5.409,0,0,0-7.272,7.992l6.462,6.462a2.855,2.855,0,0,0,.594.36.931.931,0,0,0,1.062-.36l6.7-6.7A5.4,5.4,0,0,0,199.866,212.9Zm-1.638,5.976-5.868,5.868-5.634-5.634a3.067,3.067,0,1,1,4.338-4.338l.468.468a1.071,1.071,0,0,0,1.3.234.89.89,0,0,0,.468-.234l.7-.7a3.119,3.119,0,0,1,4.338,0A3.233,3.233,0,0,1,198.228,218.878Zm-22.9-12.672a1.17,1.17,0,0,0,0,2.34h8.226a1.17,1.17,0,0,0,0-2.34Zm12.33-5.868a1.105,1.105,0,0,0-1.17-1.17H174.738a1.17,1.17,0,1,0,0,2.34h11.736A1.182,1.182,0,0,0,187.662,200.338Zm0,0" transform="translate(-112.632 -177.346)"/>
        <path id="路径_6732" data-name="路径 6732" d="M69.738,43.53H59.172V17.7H80.3V30.606a1.17,1.17,0,0,0,2.34,0V17.592A2.257,2.257,0,0,0,80.3,15.36H59.172a2.246,2.246,0,0,0-2.34,2.232V43.656a2.257,2.257,0,0,0,2.34,2.232H69.738a1.179,1.179,0,0,0,0-2.358Zm0,0"/>
      </g>
    </g>
  </g>
</svg>
