<svg xmlns="http://www.w3.org/2000/svg" width="60" height="60" viewBox="0 0 60 60">
  <g id="组_4240" data-name="组 4240" transform="translate(-4915 -2268)">
    <rect id="矩形_1821" data-name="矩形 1821" width="60" height="60" transform="translate(4915 2268)" fill="none"/>
    <g id="组_4217" data-name="组 4217" transform="translate(-7.96 3.366)">
      <path id="联合_19" data-name="联合 19" d="M27.808,45.985a1.5,1.5,0,0,1-1.5-1.5V34.736a3.944,3.944,0,0,0-7.847.012v9.736a1.5,1.5,0,0,1-1.5,1.5H6.812a1.5,1.5,0,0,1-1.5-1.5V26.845H3.772a4.247,4.247,0,0,1-2.429-.83A3.772,3.772,0,0,1,.059,23.609a4.43,4.43,0,0,1,.646-3L17.321,2.543C19.791-.008,21.78-.042,22.355.012c.576-.054,2.564-.02,5.034,2.531L44.006,20.606a4.425,4.425,0,0,1,.646,3,3.768,3.768,0,0,1-1.283,2.407,4.251,4.251,0,0,1-2.429.83H39.458V44.484a1.5,1.5,0,0,1-1.5,1.5Z" transform="translate(4937.182 2272.171)" fill="#d7d7d7"/>
      <path id="联合_20" data-name="联合 20" d="M27.808,45.985a1.5,1.5,0,0,1-1.5-1.5V34.263H18.462V44.484a1.5,1.5,0,0,1-1.5,1.5H6.812a1.5,1.5,0,0,1-1.5-1.5V26.845H3.772a4.247,4.247,0,0,1-2.429-.83A3.772,3.772,0,0,1,.059,23.609a4.43,4.43,0,0,1,.646-3L17.321,2.543C19.791-.008,21.78-.042,22.355.012c.576-.054,2.564-.02,5.034,2.531L44.006,20.606a4.425,4.425,0,0,1,.646,3,3.768,3.768,0,0,1-1.283,2.407,4.251,4.251,0,0,1-2.429.83H39.458V44.484a1.5,1.5,0,0,1-1.5,1.5Z" transform="translate(4931.85 2269.504)" fill="none" stroke="#000" stroke-linejoin="round" stroke-width="1"/>
      <g id="组_4215" data-name="组 4215" transform="translate(4925 2292.617)">
        <g id="椭圆_425" data-name="椭圆 425" transform="translate(0)" fill="#fff" stroke="#000" stroke-width="1">
          <circle cx="14.325" cy="14.325" r="14.325" stroke="none"/>
          <circle cx="14.325" cy="14.325" r="13.825" fill="none"/>
        </g>
        <path id="路径_311" data-name="路径 311" d="M10232.551-838.932v9.55" transform="translate(-10217.695 851.666)" fill="none" stroke="#000" stroke-linecap="round" stroke-width="2"/>
        <circle id="椭圆_426" data-name="椭圆 426" cx="1.592" cy="1.592" r="1.592" transform="translate(13.264 6.897)"/>
      </g>
    </g>
  </g>
</svg>
