<svg xmlns="http://www.w3.org/2000/svg" width="30" height="30" viewBox="0 0 30 30">
  <g id="组_4208" data-name="组 4208" transform="translate(-53 -206)">
    <g id="组_3463" data-name="组 3463" transform="translate(-10327.003 1069.444)">
      <g id="组_2154" data-name="组 2154" transform="translate(10382.003 -860.444)">
        <path id="减去_52" data-name="减去 52" d="M19.713,24.647h0a4.954,4.954,0,0,1-1.364-.215,14.819,14.819,0,0,1-6.069-3.186,47.135,47.135,0,0,1-5.8-5.592A82.9,82.9,0,0,1,.43,7.965,5.889,5.889,0,0,1,.066,4.877,4.779,4.779,0,0,1,.429,3.606L3.819.215A.656.656,0,0,1,4.286,0a.8.8,0,0,1,.5.215l.968.968L10.6,6.512a1.718,1.718,0,0,1,.363.605A1.238,1.238,0,0,1,10.6,8.449L9.147,9.9a.671.671,0,0,0,0,.969c.073.073.2.209.372.4l.035.038A29.514,29.514,0,0,0,14.958,16.2a1.164,1.164,0,0,0,.729.283,1.138,1.138,0,0,0,.724-.283l1.453-1.453a.954.954,0,0,1,.646-.215,1.825,1.825,0,0,1,.807.215l4.843,4.843a1.637,1.637,0,0,1,.6,1.09.54.54,0,0,1-.122.363l-3.874,3.391A2.36,2.36,0,0,1,19.713,24.647Z" transform="translate(0 0)" fill="none" stroke="#333" stroke-linecap="round" stroke-linejoin="round" stroke-miterlimit="10" stroke-width="2"/>
      </g>
      <path id="路径_315" data-name="路径 315" d="M10413.8-859.545s7.448.394,7.055,7.274" transform="translate(-15.101 0.775)" fill="none" stroke="#333" stroke-linecap="round" stroke-width="2"/>
      <path id="路径_316" data-name="路径 316" d="M10413.8-859.545s4.082.216,3.865,3.986" transform="translate(-15.44 3.872)" fill="none" stroke="#333" stroke-linecap="round" stroke-width="2"/>
    </g>
    <rect id="矩形_1815" data-name="矩形 1815" width="30" height="30" transform="translate(53 206)" fill="none"/>
  </g>
</svg>
