<svg xmlns="http://www.w3.org/2000/svg" width="60" height="60" viewBox="0 0 60 60">
  <g id="组_4204" data-name="组 4204" transform="translate(-7481 108)">
    <rect id="矩形_1810" data-name="矩形 1810" width="60" height="60" transform="translate(7481 -108)" fill="none"/>
    <rect id="矩形_1812" data-name="矩形 1812" width="42" height="42" rx="4" transform="translate(7494 -97)" fill="#d7d7d7"/>
    <rect id="矩形_1811" data-name="矩形 1811" width="42" height="42" rx="4" transform="translate(7488 -101)" fill="none" stroke="#333" stroke-width="2"/>
    <g id="组_4498" data-name="组 4498" transform="translate(0 1)">
      <path id="路径_6629" data-name="路径 6629" d="M0,3,9,0l9,3V16.566C18,22.566,9,26,9,26s-9-3.434-9-9.434c0-.875,0-1.111,0-1.111Z" transform="translate(7500 -94)" fill="#fff"/>
      <g id="路径_6628" data-name="路径 6628" transform="translate(7500 -94)" fill="none">
        <path d="M0,3,9,0l9,3V16.566C18,22.566,9,26,9,26s-9-3.434-9-9.434c0-.875,0-1.111,0-1.111Z" stroke="none"/>
        <path d="M 9 2.108190536499023 L 2 4.441522598266602 L 2 15.45499038696289 L 2 16.56581878662109 C 2 18.79405975341797 3.958100318908691 20.67530059814453 5.600749969482422 21.86109924316406 C 6.89646053314209 22.79645156860352 8.217964172363281 23.46445846557617 9.001609802246094 23.8242244720459 C 9.769024848937988 23.47266006469727 11.05200004577637 22.8244743347168 12.3368501663208 21.90592956542969 C 14.00796031951904 20.71122932434082 16 18.81499099731445 16 16.56581878662109 L 16 15.52513027191162 L 16 4.441522598266602 L 9 2.108190536499023 M 9 0 L 18 3 L 18 15.52513027191162 C 18 15.52513027191162 18 15.85128974914551 18 16.56581878662109 C 18 22.56583023071289 9 26 9 26 C 9 26 0 22.56583023071289 0 16.56581878662109 C 0 15.69104957580566 0 15.45499038696289 0 15.45499038696289 L 0 3 L 9 0 Z" stroke="none" fill="#333"/>
      </g>
      <line id="直线_140" data-name="直线 140" x2="7.364" transform="translate(7501.227 -78.045)" fill="none" stroke="#333" stroke-linecap="round" stroke-width="2"/>
      <line id="直线_141" data-name="直线 141" x1="7.364" transform="translate(7509.409 -85.409)" fill="none" stroke="#333" stroke-linecap="round" stroke-width="2"/>
    </g>
  </g>
</svg>
