<svg xmlns="http://www.w3.org/2000/svg" width="30" height="30" viewBox="0 0 30 30">
  <g id="组_4209" data-name="组 4209" transform="translate(-53 -275)">
    <g id="组_3468" data-name="组 3468" transform="translate(-6)">
      <path id="路径_322" data-name="路径 322" d="M9,0c4.971,0,9,3.358,9,7.5S13.971,15,9,15a10.659,10.659,0,0,1-3.626-.65L2.513,16.063V12.7A6.749,6.749,0,0,1,0,7.5C0,3.358,4.029,0,9,0Z" transform="translate(62 279)" fill="none"/>
      <path id="路径_323" data-name="路径 323" d="M8,0C3.582,0,0,2.985,0,6.667s3.582,6.667,8,6.667a9.475,9.475,0,0,0,3.223-.578l2.543,1.523v-2.99A6,6,0,0,0,16,6.667C16,2.985,12.418,0,8,0Z" transform="translate(71 284.785)" fill="none"/>
      <g id="组_3467" data-name="组 3467" transform="translate(30.28 175.6)">
        <path id="路径_317" data-name="路径 317" d="M54.476,125.3a1.356,1.356,0,0,1-.572-.191l-2.29-1.717a10.372,10.372,0,0,1-2.481.382,8.575,8.575,0,0,1-7.823-4.484h-.859a12.106,12.106,0,0,1-2.767-.382h-.191L34.155,121a1.03,1.03,0,0,1-1.049,0,1.174,1.174,0,0,1-.477-.954l.382-3.721a8,8,0,0,1-2.29-5.438c0-4.675,4.389-8.491,9.827-8.491,4.77,0,8.777,2.767,9.827,6.678,4.1.477,7.346,3.625,7.346,7.346a7.171,7.171,0,0,1-2.385,4.961l.191,2.958a1.174,1.174,0,0,1-.477.954h-.572ZM51.8,121.386a1.356,1.356,0,0,1,.572.191l.954.763-.1-1.336a1.083,1.083,0,0,1,.286-.763,5.472,5.472,0,0,0,2.1-3.816c0-2.958-3.053-5.438-6.583-5.438-3.625,0-6.583,2.481-6.583,5.438s2.958,5.438,6.583,5.438a10.356,10.356,0,0,0,2.385-.382.721.721,0,0,1,.382-.1ZM40.547,104.308c-4.389,0-7.919,2.958-7.919,6.583a6.134,6.134,0,0,0,2.194,4.484.881.881,0,0,1,.286.859l-.286,2.29,2-1.24a.838.838,0,0,1,.668-.1l.572.1a8.507,8.507,0,0,0,2.671.286,3.914,3.914,0,0,1-.1-1.049c0-3.816,3.339-6.965,7.633-7.346-.954-2.862-4.2-4.866-7.728-4.866Z" fill="#333"/>
        <path id="路径_318" data-name="路径 318" d="M226.52,298.2m-1.24,0a1.24,1.24,0,1,0,1.24-1.24A1.24,1.24,0,0,0,225.28,298.2Z" transform="translate(-189.122 -189.122)" fill="#292c40"/>
        <path id="路径_319" data-name="路径 319" d="M427.907,298.2m-1.24,0a1.24,1.24,0,1,0,1.24-1.24A1.24,1.24,0,0,0,426.667,298.2Z" transform="translate(-384.88 -189.122)" fill="#292c40"/>
        <path id="路径_320" data-name="路径 320" d="M571.076,523.29m-1.049,0a1.049,1.049,0,1,0,1.049-1.049A1.049,1.049,0,0,0,570.026,523.29Z" transform="translate(-524.232 -408.105)" fill="#292c40"/>
        <path id="路径_321" data-name="路径 321" d="M745.156,523.29m-1.049,0a1.049,1.049,0,1,0,1.049-1.049A1.049,1.049,0,0,0,744.106,523.29Z" transform="translate(-693.446 -408.105)" fill="#292c40"/>
      </g>
    </g>
    <rect id="矩形_1816" data-name="矩形 1816" width="30" height="30" transform="translate(53 275)" fill="none"/>
  </g>
</svg>
