<svg xmlns="http://www.w3.org/2000/svg" width="60" height="60" viewBox="0 0 60 60">
  <defs>
    <style>
      .cls-1 {
        fill: none;
      }

      .cls-2 {
        fill: #d7d7d7;
      }

      .cls-3 {
        fill: #fff;
      }

      .cls-4 {
        fill: #333;
        stroke: #333;
        stroke-width: 0.3px;
      }
    </style>
  </defs>
  <g id="组_4366" data-name="组 4366" transform="translate(-1023 -2100)">
    <rect id="矩形_1880" data-name="矩形 1880" class="cls-1" width="60" height="60" transform="translate(1023 2100)"/>
    <g id="组_4365" data-name="组 4365" transform="translate(-39 64)">
      <g id="组_4364" data-name="组 4364" transform="translate(888.012 1941.932)">
        <path id="路径_6721" data-name="路径 6721" class="cls-2" d="M188.653,207.077l1.054-15.808a1.7,1.7,0,0,1,1.586-1.588l15.81-1.054a1.7,1.7,0,0,1,1.318.494l7,7a1.7,1.7,0,0,1,.3,1.995L204.131,220.25a1.7,1.7,0,0,1-2.712.414L189.149,208.4a1.7,1.7,0,0,1-.494-1.318Zm17.329,14.752,11.09-20.939a1.7,1.7,0,0,1,2.709-.407l12.825,12.824a1.7,1.7,0,0,1,0,2.409L215.741,232.58a1.7,1.7,0,0,1-2.409,0l-6.747-6.749a3.407,3.407,0,0,1-.6-4Z" transform="translate(-6.459 -83.167)"/>
        <circle id="椭圆_458" data-name="椭圆 458" class="cls-3" cx="2.5" cy="2.5" r="2.5" transform="translate(187.988 107.068)"/>
        <path id="路径_6722" data-name="路径 6722" class="cls-4" d="M183.46,119.48l14.975,14.973,10.539-23.186-8.65-8.652-15.81,1.054-1.054,15.808Zm-.646-15.924a1.7,1.7,0,0,1,1.586-1.584l15.81-1.056a1.7,1.7,0,0,1,1.318.5l8.65,8.652a1.7,1.7,0,0,1,.347,1.908L199.985,135.16a1.7,1.7,0,0,1-2.755.5l-14.973-14.975a1.7,1.7,0,0,1-.5-1.318l1.056-15.808Zm8.926,7.342a1.7,1.7,0,1,0-2.409,0,1.7,1.7,0,0,0,2.409,0Zm1.206,1.2a3.408,3.408,0,1,1,0-4.819A3.408,3.408,0,0,1,192.947,112.1Zm8.868,25.732,5.584,5.582,16.864-16.863-11.907-11.907Zm-1.55-.705L210.8,113.942a1.7,1.7,0,0,1,2.755-.5l11.907,11.907a1.7,1.7,0,0,1,0,2.409L208.6,144.623a1.7,1.7,0,0,1-2.409,0l-5.584-5.584a1.7,1.7,0,0,1-.346-1.91Z" transform="translate(0 0)"/>
      </g>
    </g>
  </g>
</svg>
