<svg xmlns="http://www.w3.org/2000/svg" width="60" height="60" viewBox="0 0 60 60">
  <g id="组_4187" data-name="组 4187" transform="translate(-4566 -1823)">
    <rect id="矩形_1801" data-name="矩形 1801" width="60" height="60" transform="translate(4566 1823)" fill="none"/>
    <g id="组_4191" data-name="组 4191" transform="translate(314.195 -317.68)">
      <rect id="矩形_1788" data-name="矩形 1788" width="47.875" height="42" rx="2" transform="translate(4258.463 2152.629)" fill="#d7d7d7"/>
      <g id="组_4189" data-name="组 4189" transform="translate(4253.434 2147.551)">
        <path id="路径_6610" data-name="路径 6610" d="M8.989,12.213,5.17,9.41l-3.819,2.8a.377.377,0,0,1-.35-.35V1.35A.377.377,0,0,1,1.35,1H8.989a.377.377,0,0,1,.35.35V11.863A.351.351,0,0,1,8.989,12.213Z" transform="translate(6.9 11.621)" fill="none" stroke="#000" stroke-linecap="round" stroke-linejoin="round" stroke-miterlimit="10" stroke-width="1"/>
        <g id="矩形_1794" data-name="矩形 1794" fill="none" stroke="#000" stroke-width="1">
          <rect width="49.469" height="42" rx="3" stroke="none"/>
          <rect x="0.5" y="0.5" width="48.469" height="41" rx="2.5" fill="none"/>
        </g>
        <path id="路径_6611" data-name="路径 6611" d="M4243.337,2230.9h48.39" transform="translate(-4242.654 -2218.689)" fill="none" stroke="#000" stroke-width="1"/>
      </g>
      <g id="组_4166" data-name="组 4166" transform="translate(4291.017 2173.167)">
        <ellipse id="椭圆_430" data-name="椭圆 430" cx="10" cy="10" rx="10" ry="10" transform="translate(0 0)" fill="#fff" stroke="#000" stroke-linecap="round" stroke-miterlimit="10" stroke-width="1"/>
        <path id="路径_6604" data-name="路径 6604" d="M25,17v4.312l2.156,2.156" transform="translate(-14.803 -11.587)" fill="none" stroke="#000" stroke-linecap="round" stroke-miterlimit="10" stroke-width="1"/>
      </g>
    </g>
  </g>
</svg>
