<svg xmlns="http://www.w3.org/2000/svg" width="60" height="60" viewBox="0 0 60 60">
  <g id="组_4232" data-name="组 4232" transform="translate(-4823 -2122)">
    <rect id="矩形_1806" data-name="矩形 1806" width="60" height="60" transform="translate(4823 2122)" fill="none"/>
    <g id="组_4202" data-name="组 4202" transform="translate(-1.709 -4.689)">
      <rect id="矩形_1808" data-name="矩形 1808" width="36.497" height="45.084" rx="4" transform="translate(4842.922 2136.294)" fill="#d7d7d7"/>
      <g id="矩形_1809" data-name="矩形 1809" transform="translate(4837.555 2132)" fill="none" stroke="#000" stroke-width="1">
        <rect width="36.497" height="45.084" rx="4" stroke="none"/>
        <rect x="0.5" y="0.5" width="35.497" height="44.084" rx="3.5" fill="none"/>
      </g>
      <g id="组_4201" data-name="组 4201" transform="translate(4856.876 2140.227)">
        <line id="直线_135" data-name="直线 135" x2="10.393" transform="translate(0 8.004)" fill="none" stroke="#000" stroke-linecap="round" stroke-miterlimit="10" stroke-width="1"/>
        <line id="直线_136" data-name="直线 136" x2="10.393" transform="translate(0 3.703)" fill="none" stroke="#000" stroke-linecap="round" stroke-miterlimit="10" stroke-width="1"/>
        <line id="直线_137" data-name="直线 137" y2="8.124" transform="translate(5.137 4.062)" fill="none" stroke="#000" stroke-linecap="round" stroke-miterlimit="10" stroke-width="1"/>
        <g id="组_690" data-name="组 690" transform="translate(0.836)">
          <line id="直线_138" data-name="直线 138" x1="2.628" y2="3.464" transform="translate(6.093)" fill="none" stroke="#000" stroke-linecap="round" stroke-miterlimit="10" stroke-width="1"/>
          <line id="直线_139" data-name="直线 139" x2="2.628" y2="3.464" fill="none" stroke="#000" stroke-linecap="round" stroke-miterlimit="10" stroke-width="1"/>
        </g>
      </g>
      <path id="路径_6627" data-name="路径 6627" d="M8.1,32.424H35.187A13.486,13.486,0,0,0,24.836,19.267a9.724,9.724,0,0,0,6.481-9.093,9.674,9.674,0,1,0-12.866,9.093A13.486,13.486,0,0,0,8.1,32.424Z" transform="translate(4821.345 2145.931)" fill="#fff" stroke="#000" stroke-linecap="round" stroke-linejoin="round" stroke-miterlimit="10" stroke-width="1"/>
    </g>
  </g>
</svg>
