<svg xmlns="http://www.w3.org/2000/svg" xmlns:xlink="http://www.w3.org/1999/xlink" width="60" height="60" viewBox="0 0 60 60">
  <defs>
    <linearGradient id="linear-gradient" x1="0.079" y1="0.11" x2="0.805" y2="0.902" gradientUnits="objectBoundingBox">
      <stop offset="0" stop-color="#f0d88d"/>
      <stop offset="1" stop-color="#b88922"/>
    </linearGradient>
  </defs>
  <g id="组_4249" data-name="组 4249" transform="translate(-4823 -2266)">
    <rect id="矩形_1815" data-name="矩形 1815" width="60" height="60" transform="translate(4823 2266)" fill="none"/>
    <g id="组_4267" data-name="组 4267" transform="translate(-5165 3010)">
      <path id="联合_21" data-name="联合 21" d="M9780.269-1623.762H9775a10,10,0,0,1-10-10V-1661a10,10,0,0,1,10-10h27.238a10,10,0,0,1,10,10v35.239a2,2,0,0,1-2,2Z" transform="translate(229.595 933.69)" fill="url(#linear-gradient)"/>
      <g id="组_4263" data-name="组 4263" transform="translate(9578.464 -1201.515)">
        <g id="组_4256" data-name="组 4256" transform="translate(422.373 475)">
          <path id="路径_6661" data-name="路径 6661" d="M496.237,567.448c-6.88,11.164-8.222,10.255-8.222,10.255-2.358-.177-7.249-13.7-7.249-13.7s-4.892,13.526-7.249,13.7c0,0-1.375.587-8.222-10.255l-.295.531a41.924,41.924,0,0,1,4.008,14.882h23.516a41.923,41.923,0,0,1,4.008-14.882Z" transform="translate(-463.11 -561.377)" fill="#fff"/>
          <circle id="椭圆_440" data-name="椭圆 440" cx="1.798" cy="1.798" r="1.798" transform="translate(0 3.919)" fill="#fff"/>
          <circle id="椭圆_441" data-name="椭圆 441" cx="1.798" cy="1.798" r="1.798" transform="translate(31.391 3.919)" fill="#fff"/>
          <circle id="椭圆_442" data-name="椭圆 442" cx="2.225" cy="2.225" r="2.225" transform="translate(15.431 0)" fill="#fff"/>
        </g>
        <g id="组_4258" data-name="组 4258" transform="translate(428.182 498.377)">
          <rect id="矩形_1832" data-name="矩形 1832" width="23.398" height="2.652" transform="translate(0 0)" fill="#fff"/>
        </g>
      </g>
    </g>
  </g>
</svg>
