<svg xmlns="http://www.w3.org/2000/svg" width="60" height="60" viewBox="0 0 60 60">
  <g id="组_4272" data-name="组 4272" transform="translate(-5099 -726)">
    <rect id="矩形_1810" data-name="矩形 1810" width="60" height="60" transform="translate(5099 726)" fill="none"/>
    <path id="路径_6639" data-name="路径 6639" d="M4.711,0h38.8a4.711,4.711,0,0,1,4.711,4.711L45.866,36.277a4.711,4.711,0,0,1-4.711,4.711H7.066a4.711,4.711,0,0,1-4.711-4.711L0,4.711A4.711,4.711,0,0,1,4.711,0Z" transform="translate(5108.431 737.917)" fill="#d7d7d7"/>
    <path id="路径_6625" data-name="路径 6625" d="M44.867,36.219v-.008M4.711,0h38.8a4.711,4.711,0,0,1,4.711,4.711L45.866,36.277c-.138,2.382-1.462,4.6-4.711,4.711H7.066a5.285,5.285,0,0,1-4.711-4.711L0,4.711A4.711,4.711,0,0,1,4.711,0Z" transform="translate(5102.348 733.095)" fill="none" stroke="#000" stroke-width="1"/>
    <path id="路径_6628" data-name="路径 6628" d="M16.045.464a5.293,5.293,0,0,0-6.4,1.607A5.293,5.293,0,0,0,3.241.464c-4.158,1.612-6.054,9.6,5.643,15.909a1.8,1.8,0,0,0,.756.238h0a1.758,1.758,0,0,0,.756-.238c11.7-6.31,9.8-14.3,5.646-15.909Z" transform="translate(5116.364 750.231)" fill="#fff" stroke="#000" stroke-linejoin="round" stroke-width="1"/>
    <path id="路径_6629" data-name="路径 6629" d="M4936.89,2252l47.587-.187" transform="translate(165.542 -1509.413)" fill="none" stroke="#000" stroke-width="1"/>
  </g>
</svg>
