<svg xmlns="http://www.w3.org/2000/svg" width="60" height="60" viewBox="0 0 60 60">
  <g id="组_4230" data-name="组 4230" transform="translate(-4824 -2039)">
    <rect id="矩形_1805" data-name="矩形 1805" width="60" height="60" transform="translate(4824 2039)" fill="none"/>
    <g id="组_4245" data-name="组 4245" transform="translate(-1.721 -1.424)">
      <path id="路径_6620" data-name="路径 6620" d="M8.1,37.993H39.912A15.839,15.839,0,0,0,27.755,22.541a11.42,11.42,0,0,0,7.612-10.68,11.362,11.362,0,1,0-15.111,10.68A15.839,15.839,0,0,0,8.1,37.993Z" transform="translate(4841.771 2049.342)" fill="#d7d7d7" stroke="#000" stroke-linecap="round" stroke-linejoin="round" stroke-miterlimit="10" stroke-width="1"/>
      <path id="路径_6624" data-name="路径 6624" d="M8.1,37.993H39.912A15.839,15.839,0,0,0,27.755,22.541a11.42,11.42,0,0,0,7.612-10.68,11.362,11.362,0,1,0-15.111,10.68A15.839,15.839,0,0,0,8.1,37.993Z" transform="translate(4822.172 2049.342)" fill="#d7d7d7" stroke="#000" stroke-linecap="round" stroke-linejoin="round" stroke-miterlimit="10" stroke-width="1"/>
      <path id="路径_6625" data-name="路径 6625" d="M8.1,43.038H44.193A17.97,17.97,0,0,0,30.4,25.507,12.957,12.957,0,0,0,39.037,13.39,12.89,12.89,0,1,0,21.893,25.507,17.97,17.97,0,0,0,8.1,43.038Z" transform="translate(4829.626 2048.968)" fill="#fff" stroke="#000" stroke-linecap="round" stroke-linejoin="round" stroke-miterlimit="10" stroke-width="1"/>
    </g>
  </g>
</svg>
