<svg xmlns="http://www.w3.org/2000/svg" width="35" height="35" viewBox="0 0 35 35">
  <defs>
    <style>
      .cls-1 {
        fill: none;
      }

      .cls-2 {
        fill: #fff;
      }
    </style>
  </defs>
  <g id="组_4769" data-name="组 4769" transform="translate(-10840 11819)">
    <rect id="矩形_2394" data-name="矩形 2394" class="cls-1" width="35" height="35" transform="translate(10840 -11819)"/>
    <g id="组_4768" data-name="组 4768" transform="translate(10842.261 -11814.75)">
      <path id="减去_91" data-name="减去 91" class="cls-2" d="M24.907,28.645l0,0-6.082-5.795H4.421A4.482,4.482,0,0,1,0,18.426v-14A4.481,4.481,0,0,1,4.421,0H25.793a4.426,4.426,0,0,1,4.421,4.421v14a4.427,4.427,0,0,1-4.421,4.422l-.886,5.794ZM21.679,9.617a1.643,1.643,0,1,0,1.641,1.641A1.644,1.644,0,0,0,21.679,9.617Zm-6.572,0a1.643,1.643,0,1,0,1.645,1.641A1.643,1.643,0,0,0,15.106,9.617Zm-6.566,0a1.643,1.643,0,1,0,1.641,1.641A1.644,1.644,0,0,0,8.54,9.617Z" transform="translate(-0.001 -0.001)"/>
    </g>
  </g>
</svg>
