<svg xmlns="http://www.w3.org/2000/svg" width="60" height="60" viewBox="0 0 60 60">
  <g id="组_4236" data-name="组 4236" transform="translate(-4823 -2266)">
    <rect id="矩形_1815" data-name="矩形 1815" width="60" height="60" transform="translate(4823 2266)" fill="none"/>
    <g id="组_4205" data-name="组 4205" transform="translate(-59.146 1.949)">
      <rect id="矩形_1816" data-name="矩形 1816" width="42.72" height="42.72" rx="4" transform="translate(4894.572 2275.382)" fill="#d7d7d7"/>
      <g id="矩形_1817" data-name="矩形 1817" transform="translate(4888 2271)" fill="none" stroke="#000" stroke-width="1">
        <rect width="42.72" height="42.72" rx="4" stroke="none"/>
        <rect x="0.5" y="0.5" width="41.72" height="41.72" rx="3.5" fill="none"/>
      </g>
      <g id="组_4204" data-name="组 4204" transform="translate(4897.735 2277.703)">
        <g id="椭圆_436" data-name="椭圆 436" transform="translate(0 10.108)" fill="#fff" stroke="#000" stroke-width="1">
          <circle cx="5.054" cy="5.054" r="5.054" stroke="none"/>
          <circle cx="5.054" cy="5.054" r="4.554" fill="none"/>
        </g>
        <g id="椭圆_437" data-name="椭圆 437" transform="translate(13.14)" fill="#fff" stroke="#000" stroke-width="1">
          <circle cx="5.054" cy="5.054" r="5.054" stroke="none"/>
          <circle cx="5.054" cy="5.054" r="4.554" fill="none"/>
        </g>
        <g id="椭圆_438" data-name="椭圆 438" transform="translate(13.14 19.205)" fill="#fff" stroke="#000" stroke-width="1">
          <circle cx="5.054" cy="5.054" r="5.054" stroke="none"/>
          <circle cx="5.054" cy="5.054" r="4.554" fill="none"/>
        </g>
        <path id="路径_6630" data-name="路径 6630" d="M4959.521,2294.413l5.822-5.015" transform="translate(-4950.908 -2281.92)" fill="none" stroke="#000" stroke-width="1"/>
        <path id="路径_6631" data-name="路径 6631" d="M4959.521,2289.4l5.822,5.014" transform="translate(-4950.908 -2271.812)" fill="none" stroke="#000" stroke-width="1"/>
      </g>
    </g>
  </g>
</svg>
