<svg xmlns="http://www.w3.org/2000/svg" width="60" height="60" viewBox="0 0 60 60">
  <g id="组_4282" data-name="组 4282" transform="translate(-4566 -1823)">
    <rect id="矩形_1801" data-name="矩形 1801" width="60" height="60" transform="translate(4566 1823)" fill="none"/>
    <g id="组_4182" data-name="组 4182" transform="translate(0 -1)">
      <rect id="矩形_1802" data-name="矩形 1802" width="49.585" height="35.26" rx="3" transform="translate(4573.911 1845.161)" fill="#d7d7d7"/>
      <g id="组_4178" data-name="组 4178" transform="translate(4569.503 1827.003)">
        <g id="矩形_1762" data-name="矩形 1762" transform="translate(0 12.751)" fill="none" stroke="#000" stroke-width="1">
          <rect width="49.585" height="35.26" rx="3" stroke="none"/>
          <rect x="0.5" y="0.5" width="48.585" height="34.26" rx="2.5" fill="none"/>
        </g>
        <path id="路径_6605" data-name="路径 6605" d="M25,17v5.929l2.964,2.964" transform="translate(12.101 5.612)" fill="none" stroke="#000" stroke-linecap="round" stroke-linejoin="round" stroke-miterlimit="10" stroke-width="1"/>
        <g id="组_4283" data-name="组 4283" transform="translate(-248.345 -348.468)">
          <path id="路径_6679" data-name="路径 6679" d="M286.191,361.219l1.358-1.28a.967.967,0,0,0,.028-1.384l-10.051-10.23a1.019,1.019,0,0,0-1.414-.026l-13.717,12.921Z" fill="none" stroke="#000" stroke-linejoin="round" stroke-width="1"/>
          <path id="路径_6680" data-name="路径 6680" d="M272.778,351.514l-4.936-3.22a1.016,1.016,0,0,0-1.386.271l-8.614,12.653h4.632Z" fill="none" stroke="#000" stroke-linejoin="round" stroke-width="1"/>
        </g>
      </g>
    </g>
  </g>
</svg>
