<svg xmlns="http://www.w3.org/2000/svg" width="60" height="60" viewBox="0 0 60 60">
  <g id="组_4207" data-name="组 4207" transform="translate(-1786 -1403)">
    <rect id="矩形_1782" data-name="矩形 1782" width="60" height="60" transform="translate(1786 1403)" fill="none"/>
    <g id="组_4206" data-name="组 4206" transform="translate(80 -48)">
      <path id="减去_56" data-name="减去 56" d="M54,36H8a2,2,0,0,1-2-2V23.5a5.5,5.5,0,0,0,0-11V2A2,2,0,0,1,8,0H54a2,2,0,0,1,2,2V12.5a5.5,5.5,0,1,0,0,11V34A2,2,0,0,1,54,36Z" transform="translate(1707 1468)" fill="#d7d7d7"/>
      <path id="减去_56-2" data-name="减去 56" d="M54,36H8a2,2,0,0,1-2-2V23.5a5.5,5.5,0,0,0,0-11V2A2,2,0,0,1,8,0H54a2,2,0,0,1,2,2V12.5a5.5,5.5,0,1,0,0,11V34A2,2,0,0,1,54,36Z" transform="translate(1703 1463)" fill="none" stroke="#000" stroke-linecap="round" stroke-width="1"/>
      <line id="直线_235" data-name="直线 235" x2="20" transform="translate(1724.183 1475.121)" fill="none" stroke="#000" stroke-linecap="round" stroke-width="1"/>
      <line id="直线_236" data-name="直线 236" x2="20" transform="translate(1724.183 1485.513)" fill="none" stroke="#000" stroke-linecap="round" stroke-width="1"/>
    </g>
  </g>
</svg>
