<svg xmlns="http://www.w3.org/2000/svg" viewBox="0 0 155 139.744"><defs><style>.a{fill:#fff;stroke:#999;stroke-width:5px;}.b{fill:#e0e0e0;}.c{fill:#999;}.d{stroke:none;}.e{fill:none;}</style></defs><g transform="translate(-2166 282.744)"><g class="a" transform="translate(2281.349 -282.744) rotate(71)"><rect class="d" width="35" height="63" rx="5"/><rect class="e" x="2.5" y="2.5" width="30" height="58" rx="2.5"/></g><g class="a" transform="translate(2166 -263)"><rect class="d" width="150" height="120" rx="10"/><rect class="e" x="2.5" y="2.5" width="145" height="115" rx="7.5"/></g><path class="b" d="M169,90H55a3,3,0,0,1-3-3V45H70a5,5,0,0,0,0-10H52V29H80a5,5,0,0,0,0-10H52V3a3,3,0,0,1,3-3H169a3,3,0,0,1,3,3V87A3,3,0,0,1,169,90Z" transform="translate(2129 -248)"/><g class="a" transform="translate(2276 -218)"><path class="d" d="M15,0H40a5,5,0,0,1,5,5V25a5,5,0,0,1-5,5H15A15,15,0,0,1,0,15v0A15,15,0,0,1,15,0Z"/><path class="e" d="M15,2.5H40A2.5,2.5,0,0,1,42.5,5V25A2.5,2.5,0,0,1,40,27.5H15A12.5,12.5,0,0,1,2.5,15v0A12.5,12.5,0,0,1,15,2.5Z"/></g><circle class="c" cx="3" cy="3" r="3" transform="translate(2287 -206)"/></g></svg>